<svg xmlns="http://www.w3.org/2000/svg" xmlns:xlink="http://www.w3.org/1999/xlink" width="1080" zoomAndPan="magnify" viewBox="0 0 810 809.999993" height="1080" preserveAspectRatio="xMidYMid meet" version="1.0"><defs><clipPath id="770ecfc46d"><path d="M 130.003906 81 L 679.753906 81 L 679.753906 729 L 130.003906 729 Z M 130.003906 81 " clip-rule="nonzero"/></clipPath></defs><g clip-path="url(#770ecfc46d)"><path fill="#000000" d="M 676.058594 184.371094 C 673.082031 195.382812 668.6875 205.871094 662.765625 215.699219 C 657.707031 224.109375 651.550781 231.507812 642.996094 237.144531 C 643.71875 239.800781 644.414062 242.257812 645.046875 244.746094 C 649.152344 260.726562 648.921875 276.851562 646.957031 293.09375 C 643.921875 318.238281 635.394531 341.679688 624.527344 364.25 C 613.257812 387.601562 595.886719 405.433594 573 417.804688 C 572.1875 418.238281 571.410156 418.726562 570.339844 419.335938 C 575.597656 422.949219 580.511719 425.953125 584.964844 429.535156 C 592.996094 435.980469 598.460938 444.480469 602.417969 453.84375 C 614.296875 482.019531 618.921875 511.472656 616.898438 541.902344 C 616.464844 548.523438 614.328125 555.054688 612.707031 561.527344 C 611.898438 564.820312 610.078125 567.625 607.246094 569.765625 C 606.003906 570.71875 605.136719 572.277344 604.296875 573.664062 C 602.273438 577.019531 600.484375 580.515625 598.402344 583.808594 C 591.726562 594.445312 581.898438 599.011719 569.53125 598.550781 C 567.679688 598.492188 565.800781 598.375 563.605469 598.289062 C 563.460938 599.617188 563.171875 600.863281 563.230469 602.074219 C 564.097656 625.601562 563.144531 649.066406 560.601562 672.476562 C 560.457031 673.777344 560.511719 675.109375 560.3125 676.378906 C 559.820312 679.355469 559.210938 682.332031 558.488281 686.148438 C 559.242188 690.195312 560.457031 695.25 561.089844 700.394531 C 562.015625 707.851562 558.75 713.75 552.449219 717.273438 C 547.304688 720.164062 541.667969 722.476562 535.976562 723.921875 C 518.058594 728.429688 499.761719 728.835938 481.496094 726.925781 C 471.324219 725.859375 461.179688 724.125 451.210938 721.839844 C 445.691406 720.570312 440.34375 717.96875 435.3125 715.222656 C 429.648438 712.160156 427.367188 706.839844 428.871094 700.484375 C 429.996094 695.828125 431.730469 691.292969 433.347656 686.320312 C 429.589844 682.910156 429.707031 677.824219 429.503906 672.796875 C 429.128906 664.414062 428.695312 656.035156 428.058594 647.679688 C 427.886719 645.3125 426.960938 643.027344 426.269531 640.226562 C 419.910156 639.183594 413.726562 637.882812 407.484375 637.191406 C 398.234375 636.179688 388.957031 635.195312 379.59375 636.726562 C 372.050781 637.96875 369.96875 639.792969 369.738281 647.59375 C 369.507812 655.222656 369.738281 662.882812 369.652344 670.542969 C 369.59375 676.03125 369.449219 676.148438 365.257812 679.386719 C 366.152344 682.1875 367.109375 684.992188 367.917969 687.851562 C 369.59375 693.75 367.714844 698.488281 362.945312 702.160156 C 358.554688 705.539062 353.410156 707.273438 348.121094 708.402344 C 321.703125 713.949219 295.808594 711.523438 270.433594 702.824219 C 265.898438 701.261719 261.53125 698.921875 257.488281 696.320312 C 247.199219 689.730469 244.511719 677.535156 250.667969 666.898438 C 251.503906 665.457031 252.429688 664.066406 253.382812 662.476562 C 248.121094 656.667969 247.574219 649.242188 246.679688 642.132812 C 244.277344 623.203125 243.960938 604.183594 244.769531 585.140625 C 245.234375 574.332031 245.925781 563.523438 246.5625 552.710938 C 246.679688 550.660156 246.878906 548.609375 247.285156 546.613281 C 247.832031 543.957031 247.515625 541.644531 246.359375 539.101562 C 244.828125 535.71875 244.480469 532.105469 245.203125 528.203125 C 246.300781 522.539062 246.679688 516.761719 247.257812 511.007812 C 249.625 488.320312 253.960938 466.039062 260.058594 444.074219 C 260.347656 443.003906 260.578125 441.933594 260.925781 440.492188 C 259.335938 439.796875 257.890625 438.957031 256.332031 438.554688 C 236.9375 433.324219 220.695312 422.515625 205.871094 409.480469 C 190.8125 396.242188 177.199219 381.621094 167.664062 363.757812 C 163.992188 356.878906 161.074219 349.566406 158.242188 342.285156 C 156.59375 338.09375 156.21875 333.558594 160.609375 329.828125 C 151.738281 309.800781 156.882812 294.28125 176.304688 283.933594 C 171.507812 271.332031 166.824219 259.164062 162.230469 247 C 152.144531 220.292969 142.113281 193.617188 132.085938 166.914062 C 131.625 165.699219 131.160156 164.457031 130.8125 163.214844 C 130.035156 160.121094 131.101562 157.867188 133.964844 156.308594 C 136.710938 154.804688 139.398438 155.210938 141.363281 157.925781 C 142.75 159.863281 143.703125 162.144531 144.628906 164.371094 C 158.820312 199.253906 172.953125 234.136719 187.085938 269.050781 C 187.574219 270.265625 188.066406 271.449219 188.730469 273.007812 C 197.660156 271.1875 206.535156 271.015625 214.335938 276.621094 C 221.792969 281.96875 225.957031 289.539062 227.890625 298.730469 C 233.558594 298.527344 236.824219 302.460938 239.914062 306.390625 C 243.035156 310.347656 245.550781 314.742188 248.671875 318.671875 C 253.527344 324.800781 258.382812 330.957031 263.757812 336.648438 C 271.300781 344.625 281.070312 348.757812 291.589844 351.300781 C 292.457031 351.503906 293.382812 351.332031 294.914062 351.332031 C 293.730469 349.132812 292.773438 347.371094 291.851562 345.578125 C 286.242188 335.003906 281.386719 324.136719 279.046875 312.285156 C 276.15625 297.660156 276.359375 283.007812 278.382812 268.296875 C 283.46875 231.390625 300.347656 200.148438 324.21875 172.261719 C 327.226562 168.765625 330.925781 165.84375 334.363281 162.578125 C 329.015625 153.011719 328.121094 142.433594 328.699219 131.769531 C 329.363281 119.257812 331.503906 106.945312 335.085938 94.921875 C 336.15625 91.367188 337.6875 87.929688 339.363281 84.632812 C 341.011719 81.425781 341.90625 81.078125 345.171875 82.640625 C 351.039062 85.472656 357.023438 88.21875 362.453125 91.773438 C 375.257812 100.125 385.921875 110.789062 394.332031 123.5625 C 395.953125 126.019531 397.195312 128.734375 398.785156 131.625 C 468.320312 119.429688 533.230469 132.492188 593.777344 169.6875 C 612.882812 157.464844 634.441406 151.25 656.957031 148.011719 C 662.445312 147.234375 668.109375 147.058594 673.660156 147.261719 C 678.253906 147.433594 678.515625 148.15625 678.976562 152.753906 C 679.988281 163.476562 678.832031 174.054688 676.058594 184.371094 Z M 676.058594 184.371094 " fill-opacity="1" fill-rule="nonzero"/></g><path fill="#ffffff" d="M 537.769531 566.527344 C 537.769531 549.96875 538.113281 534.128906 537.679688 518.292969 C 537.277344 503.582031 536.089844 488.871094 535.167969 474.1875 C 534.9375 470.578125 534.53125 470 532.074219 466.90625 C 531.699219 467.917969 531.09375 468.699219 531.179688 469.390625 C 534.070312 492.394531 534.589844 515.488281 534.070312 538.636719 C 533.867188 547.222656 533.953125 555.804688 534.039062 564.386719 C 534.070312 566.554688 534.503906 568.695312 534.820312 571.382812 C 534.214844 571.527344 533.257812 571.933594 532.246094 572.019531 C 502.796875 574.214844 473.347656 573.984375 443.957031 571.152344 C 429.476562 569.765625 415.054688 568.03125 400.605469 566.441406 C 399.332031 566.296875 398.003906 566.09375 396.816406 565.601562 C 393.089844 564.128906 389.417969 562.539062 385.605469 560.949219 C 386.355469 560.398438 387.484375 559.5625 388.640625 558.753906 C 391.675781 556.613281 394.796875 554.5625 397.773438 552.308594 C 400.835938 549.9375 402.511719 546.902344 402.859375 542.828125 C 404.332031 524.417969 406.066406 506.039062 407.742188 487.65625 C 408.957031 474.304688 410.226562 460.980469 411.472656 447.601562 C 413.726562 446.617188 415.71875 445.722656 416.703125 445.289062 C 420.402344 446.210938 423.175781 447.425781 426.007812 447.542969 C 453.464844 448.613281 480.832031 447.628906 508.027344 443.523438 C 518.144531 441.992188 528.257812 440.347656 538.375 438.726562 C 539.648438 438.523438 540.917969 438.179688 542.191406 437.859375 C 550.398438 435.78125 551.582031 434.449219 552.710938 425.894531 C 555.976562 424.769531 559.355469 423.179688 562.941406 422.484375 C 564.933594 422.082031 567.363281 422.773438 569.328125 423.613281 C 579.355469 428.003906 587.1875 435.058594 592.96875 444.277344 C 600.683594 456.617188 604.789062 470.375 608.140625 484.363281 C 612.59375 503.003906 614.125 521.933594 612.707031 541.035156 C 612.101562 549.214844 610.539062 557.277344 606.609375 564.707031 C 605.570312 566.671875 604.414062 567.828125 601.898438 567.769531 C 582.132812 567.453125 562.363281 567.277344 542.59375 567.019531 C 540.945312 566.988281 539.300781 566.699219 537.769531 566.527344 Z M 344.449219 543.78125 C 342.167969 539.910156 341.472656 535.863281 343.0625 531.46875 C 344.480469 527.625 345.402344 523.609375 346.820312 519.765625 C 356.617188 492.628906 365.289062 465.054688 378.0625 440.085938 C 376.558594 436.386719 375.34375 433.378906 373.957031 429.96875 C 368.554688 431.328125 364.015625 428.785156 359.910156 425.433594 C 344.449219 412.832031 329.074219 400.117188 313.640625 387.457031 C 310.289062 384.710938 309.449219 381.386719 311.039062 377.488281 C 312.28125 374.453125 311.300781 372.398438 309.105469 370.117188 C 305.75 366.648438 302.804688 362.777344 299.914062 358.875 C 298.496094 356.964844 297.109375 355.78125 294.566406 355.492188 C 291.070312 355.117188 287.601562 354.222656 284.21875 353.179688 C 272.253906 349.511719 262.515625 342.429688 254.800781 332.71875 C 248.789062 325.148438 243.355469 317.082031 237.574219 309.308594 C 231.9375 301.738281 230.523438 301.417969 221.679688 304.164062 C 201.390625 310.464844 182.894531 320.40625 165.121094 331.851562 C 160.320312 334.945312 160.351562 335.003906 162.113281 340.40625 C 168.328125 359.367188 178.761719 375.722656 192.230469 390.289062 C 211.707031 411.328125 233.46875 428.871094 262.082031 436.53125 C 262.890625 434.015625 263.554688 431.503906 264.480469 429.074219 C 267.398438 421.414062 270.347656 413.785156 273.441406 406.183594 C 273.988281 404.828125 274.277344 402.6875 277.574219 403.46875 C 274.796875 413.496094 270.664062 423.003906 267.804688 432.890625 C 264.855469 443.089844 261.820312 453.292969 259.394531 463.609375 C 256.996094 473.753906 255 484.015625 253.324219 494.304688 C 251.648438 504.738281 250.578125 515.285156 249.277344 525.429688 C 265.175781 530.890625 280.230469 536.269531 295.433594 541.269531 C 313.324219 547.164062 330.953125 554.1875 350.460938 553.839844 C 348.4375 550.457031 346.414062 547.132812 344.449219 543.78125 Z M 421.816406 425.460938 C 421.527344 431.53125 421.238281 437.222656 420.921875 443.234375 C 423.8125 443.523438 426.007812 443.902344 428.203125 443.902344 C 436.210938 443.988281 444.214844 444.074219 452.222656 443.929688 C 475.167969 443.46875 497.941406 441.097656 520.570312 437.570312 C 527.914062 436.445312 535.195312 434.796875 542.449219 433.265625 C 545.222656 432.6875 547.96875 431.734375 547.738281 427.3125 C 505.429688 437.078125 463.78125 431.558594 421.816406 425.460938 Z M 315.605469 376.1875 C 313.292969 380.261719 314.363281 382.832031 317.425781 385.375 C 329.046875 395 340.402344 404.914062 352.078125 414.507812 C 356.53125 418.148438 361.355469 421.386719 366.210938 424.480469 C 370.171875 426.992188 372.511719 426.589844 375.574219 423.179688 C 378.03125 420.460938 380.140625 417.457031 382.976562 413.871094 C 357.800781 404.625 335.980469 391.675781 315.605469 376.1875 Z M 315.605469 376.1875 " fill-opacity="1" fill-rule="nonzero"/><path fill="#faad60" d="M 338.988281 163.734375 C 331.097656 151.105469 331.558594 137.320312 333.640625 123.5625 C 335.289062 112.726562 338.089844 102.0625 340.433594 91.339844 C 340.808594 89.574219 341.617188 87.898438 342.484375 85.414062 C 348.292969 88.507812 353.871094 91.050781 358.988281 94.316406 C 371.875 102.550781 382.597656 113.101562 391.039062 125.902344 C 392.367188 127.898438 393.351562 130.152344 394.390625 132.347656 C 396.09375 136.019531 396.066406 136.136719 400.285156 135.382812 C 421.875 131.539062 443.609375 130.066406 465.457031 131.972656 C 508.40625 135.730469 548.867188 147.40625 585.6875 170.410156 C 587.59375 171.597656 589.472656 172.808594 591.378906 173.9375 C 591.839844 174.199219 592.449219 174.226562 592.941406 174.34375 C 616.695312 158.589844 657.101562 149.542969 674.933594 151.566406 C 676.519531 167.839844 673.226562 183.328125 666.984375 198.300781 C 660.742188 213.300781 652.679688 227.027344 638.257812 235.957031 C 638.632812 237.492188 638.835938 238.761719 639.210938 239.976562 C 644.382812 256.882812 644.585938 274.078125 642.535156 291.476562 C 639.585938 316.449219 631.320312 339.769531 620.308594 362.082031 C 607.042969 389.019531 586.785156 409.074219 558.027344 419.191406 C 542.710938 424.59375 526.84375 427.714844 510.398438 427.859375 C 472.914062 428.179688 435.921875 424.96875 399.824219 414.363281 C 369.765625 405.550781 342.6875 390.953125 318.003906 371.765625 C 311.300781 366.5625 306.070312 360 301.617188 352.804688 C 292.71875 338.441406 285.144531 323.527344 282.832031 306.535156 C 280.925781 292.574219 281.5625 278.617188 283.84375 264.742188 C 288.988281 233.359375 303.265625 206.21875 322.804688 181.625 C 327.082031 176.25 332.082031 171.421875 336.734375 166.335938 C 337.511719 165.554688 338.179688 164.6875 338.988281 163.734375 Z M 432.222656 313.269531 C 431.125 318.296875 430.054688 323.09375 428.925781 328.269531 C 418.117188 325.148438 407.945312 322.257812 400.027344 313.152344 C 398.8125 315.089844 397.425781 316.5625 396.90625 318.296875 C 394.910156 325.089844 392.917969 331.878906 391.472656 338.816406 C 388.753906 351.792969 386.789062 364.855469 388.753906 378.207031 C 390.34375 389.105469 396.328125 396.242188 406.09375 398.351562 C 414.214844 400.117188 422.019531 399.132812 429.5625 395.75 C 436.527344 392.628906 442.164062 387.773438 446.671875 381.707031 C 457.769531 366.792969 465.71875 350.175781 472.886719 333.152344 C 473.609375 331.417969 473.609375 329.367188 474.097656 326.621094 C 471.121094 326.851562 468.953125 326.96875 466.84375 327.226562 C 460.199219 328.066406 453.578125 329.136719 446.933594 329.828125 C 442.191406 330.320312 437.480469 329.65625 432.683594 328.414062 C 433.839844 323.527344 434.910156 319.046875 436.035156 314.28125 C 437.453125 314.28125 438.578125 314.480469 439.621094 314.25 C 444.679688 313.125 449.824219 312.199219 454.734375 310.550781 C 458.289062 309.367188 459.589844 306.273438 458.117188 303.472656 C 457.335938 301.996094 455.660156 300.550781 454.070312 300.03125 C 445.804688 297.257812 437.453125 294.683594 429.070312 292.199219 C 427.136719 291.621094 425.027344 291.449219 423.003906 291.273438 C 420.34375 291.074219 417.570312 291.332031 416.066406 293.875 C 414.417969 296.621094 415.285156 299.570312 417.25 301.648438 C 420.171875 304.742188 423.464844 307.460938 426.789062 310.117188 C 428.292969 311.390625 430.226562 312.140625 432.222656 313.269531 Z M 603.171875 183.273438 C 605.773438 184.140625 607.246094 182.40625 608.894531 181.453125 C 619.703125 175.152344 631.058594 170.152344 643.082031 166.683594 C 648.601562 165.09375 654.179688 163.589844 659.671875 161.941406 C 660.914062 161.566406 661.984375 160.699219 663.140625 160.066406 C 663.023438 159.601562 662.910156 159.140625 662.792969 158.675781 C 660.710938 158.878906 658.574219 158.792969 656.550781 159.3125 C 649.902344 161.019531 643.226562 162.664062 636.695312 164.804688 C 626.78125 168.042969 617.273438 172.289062 608.460938 177.898438 C 606.40625 179.140625 603.863281 180.179688 603.171875 183.273438 Z M 382.253906 137.523438 C 383.640625 132.058594 377.945312 123.214844 367.222656 112.003906 C 356.414062 100.703125 351.15625 96.742188 346.644531 96.859375 C 348.785156 101.222656 353.234375 102.871094 356.183594 105.960938 C 359.390625 109.316406 362.917969 112.378906 366.066406 115.816406 C 369.074219 119.113281 371.933594 122.582031 374.59375 126.164062 C 377.308594 129.835938 379.707031 133.734375 382.253906 137.523438 Z M 407.539062 250.0625 C 411.472656 250.0625 414.738281 247.144531 414.59375 243.761719 C 414.476562 240.726562 411.5 237.894531 408.320312 237.808594 C 404.648438 237.691406 401.210938 240.84375 401.296875 244.222656 C 401.382812 247.402344 404.21875 250.0625 407.539062 250.0625 Z M 493.78125 270.871094 C 497.25 270.898438 500.339844 268.007812 500.371094 264.742188 C 500.371094 261.824219 497.683594 259.050781 494.761719 258.933594 C 491.441406 258.789062 488 261.765625 487.914062 264.859375 C 487.828125 268.183594 490.398438 270.84375 493.78125 270.871094 Z M 539.964844 329.800781 C 538.636719 329.65625 537.21875 329.164062 535.976562 329.425781 C 527.679688 331.1875 518.953125 331.042969 509.707031 334.539062 C 517.132812 336.300781 536.035156 333.757812 539.964844 329.800781 Z M 335.691406 309.136719 C 340.203125 314.539062 355.546875 319.078125 362.339844 316.9375 C 354.332031 314.105469 347.3125 311.59375 340.257812 309.195312 C 339.160156 308.816406 337.832031 309.136719 335.691406 309.136719 Z M 512.191406 349.132812 C 518.519531 353.757812 525.832031 355.347656 533.257812 356.476562 C 533.867188 356.5625 534.648438 355.667969 536.265625 354.65625 C 528.027344 350.925781 520.109375 350.144531 512.191406 349.132812 Z M 359.132812 333.992188 C 350.835938 334.25 342.628906 331.390625 333.496094 333.5 C 339.046875 337.34375 353.324219 337.660156 359.132812 333.992188 Z M 364.160156 298.066406 C 364.042969 297.515625 364.132812 296.796875 363.84375 296.5625 C 358.292969 292.546875 352.746094 288.5 347.078125 284.65625 C 346.328125 284.164062 344.96875 284.597656 343.4375 284.597656 C 346.820312 290.667969 357.6875 297.488281 364.160156 298.066406 Z M 505.371094 367.515625 C 508.953125 372.863281 517.507812 381.332031 521.613281 383.441406 C 521.496094 381.9375 521.726562 380.664062 521.265625 379.769531 C 519.183594 375.953125 509.734375 368.585938 505.371094 367.515625 Z M 539.183594 571.5 C 538.722656 574.792969 538.058594 577.886719 537.882812 581.007812 C 537.59375 586.207031 539.183594 588.492188 544.15625 590.140625 C 554.933594 593.695312 565.976562 594.53125 577.21875 593.433594 C 581.4375 593.03125 585.195312 591.441406 588.257812 588.578125 C 593.171875 583.984375 596.957031 578.519531 600.683594 571.5 C 579.585938 571.5 559.558594 571.5 539.183594 571.5 Z M 203.644531 305.753906 C 201.648438 294.394531 191.941406 290.234375 182.605469 285.003906 C 179.597656 286.882812 176.128906 288.730469 173.039062 291.042969 C 160.292969 300.550781 157.199219 310.8125 163.761719 327.574219 C 177.199219 320.234375 190.378906 313.039062 203.644531 305.753906 Z M 216.792969 285.175781 C 211.359375 278.242188 204.050781 275.753906 195.550781 276.449219 C 193.382812 276.621094 191.128906 277.34375 189.25 278.414062 C 186.304688 280.0625 186.417969 282.519531 189.164062 284.511719 C 189.773438 284.945312 190.4375 285.292969 191.101562 285.640625 C 198.761719 289.714844 204.773438 295.292969 207.546875 303.789062 C 207.632812 304.050781 208.125 304.195312 208.730469 304.539062 C 213.441406 302.980469 218.355469 301.363281 223.703125 299.570312 C 222.285156 294.019531 220.089844 289.339844 216.792969 285.175781 Z M 216.792969 285.175781 " fill-opacity="1" fill-rule="nonzero"/><path fill="#f6917c" d="M 392.308594 359.625 C 393.464844 345.839844 396.671875 333.09375 400.488281 319.800781 C 421.269531 334.425781 444.070312 336.246094 468.984375 330.871094 C 463.378906 343.671875 458.089844 355.433594 451.121094 366.964844 C 442.914062 362.429688 434.246094 361.5625 425.257812 363.554688 C 415.632812 353.5 404.476562 355.636719 392.308594 359.625 Z M 393.871094 364.511719 C 392.886719 365.347656 392.078125 366.996094 392.105469 368.265625 C 392.164062 371.964844 392.394531 375.722656 393.117188 379.363281 C 394.910156 388.730469 399.707031 393.351562 409.101562 394.710938 C 412.195312 395.171875 415.460938 395.085938 418.550781 394.59375 C 432.945312 392.398438 441.613281 382.804688 449.042969 370.433594 C 437.191406 365.117188 426.382812 364.394531 416.355469 374.21875 C 416.269531 369.886719 416.269531 369.886719 420.257812 365.085938 C 413.8125 359.453125 400.316406 359.078125 393.871094 364.511719 Z M 393.871094 364.511719 " fill-opacity="1" fill-rule="nonzero"/><path fill="#4d4d4f" d="M 430.921875 641.496094 C 433.320312 641.496094 435.054688 641.496094 436.757812 641.496094 C 436.902344 641.179688 437.019531 640.832031 437.164062 640.511719 C 436.09375 639.761719 435.113281 638.636719 433.898438 638.289062 C 428.523438 636.8125 423.148438 635.136719 417.65625 634.359375 C 408.4375 633.058594 399.160156 632.160156 389.882812 631.613281 C 385.460938 631.351562 380.953125 632.015625 376.53125 632.738281 C 369.421875 633.894531 365.867188 637.796875 365.519531 645.425781 C 365.171875 653.054688 365.578125 660.714844 365.632812 668.34375 C 365.664062 670.367188 365.632812 672.390625 365.632812 674.730469 C 364.390625 675.109375 363.207031 675.714844 361.992188 675.800781 C 335.289062 678.257812 308.726562 678.257812 282.515625 671.640625 C 273.441406 669.355469 264.710938 666.234375 257.199219 660.3125 C 253.933594 657.738281 252.34375 654.734375 251.792969 650.457031 C 248.382812 624.445312 248.035156 598.375 249.453125 572.25 C 249.945312 563.320312 250.433594 554.417969 250.925781 544.996094 C 252.6875 545.515625 253.933594 545.71875 255.03125 546.210938 C 279.507812 556.355469 304.652344 564.476562 330.316406 571.035156 C 332.714844 571.644531 334.855469 573.289062 337.136719 574.445312 C 339.304688 575.515625 341.414062 576.785156 343.667969 577.539062 C 355.921875 581.671875 368.554688 583.984375 381.386719 585.109375 C 384.21875 585.339844 387.136719 584.242188 390.027344 583.839844 C 391.644531 583.609375 393.320312 583.289062 394.910156 583.519531 C 430.285156 588.375 465.804688 590.628906 501.496094 589.648438 C 511.179688 589.386719 520.859375 588.320312 530.515625 587.539062 C 532.882812 587.335938 534.558594 587.683594 536.207031 589.851562 C 537.679688 591.757812 540.167969 593.289062 542.535156 594.070312 C 547.652344 595.746094 552.96875 596.785156 558.867188 598.261719 C 558.953125 599.820312 559.125 601.816406 559.15625 603.78125 C 559.386719 624.125 559.617188 644.445312 557.074219 664.703125 C 556.640625 668.199219 556.46875 671.84375 556.929688 675.308594 C 557.449219 679.152344 555.832031 681.121094 552.824219 682.910156 C 545.832031 687.042969 538.347656 689.675781 530.425781 691.261719 C 502.882812 696.8125 475.574219 695.859375 448.492188 688.429688 C 445.113281 687.507812 441.847656 686.0625 438.609375 684.644531 C 434.851562 682.996094 433.292969 680.339844 433.378906 675.832031 C 433.582031 667.101562 432.945312 658.316406 432.453125 649.589844 C 432.28125 647.101562 431.5 644.589844 430.921875 641.496094 Z M 373.148438 460.085938 C 363.957031 484.273438 355 508.582031 346.097656 532.914062 C 345.460938 534.648438 345.460938 537.078125 346.210938 538.722656 C 349.507812 546.125 354.132812 552.566406 360.722656 557.539062 C 365.433594 561.09375 370.257812 561.988281 375.921875 560.140625 C 384.273438 557.421875 391.269531 552.597656 397.714844 546.875 C 398.898438 545.804688 399.652344 543.753906 399.796875 542.078125 C 400.199219 537.625 399.910156 533.117188 400.316406 528.667969 C 402.683594 502.308594 405.171875 475.953125 407.597656 449.59375 C 407.65625 448.902344 407.453125 448.207031 407.367188 447.601562 C 399.101562 445.257812 391.066406 442.976562 382.164062 440.433594 C 379.015625 447.253906 375.664062 453.496094 373.148438 460.085938 Z M 436.382812 689.066406 C 435.140625 692.765625 433.492188 696.695312 432.539062 700.773438 C 431.382812 705.65625 433.175781 709.789062 437.683594 712.070312 C 441.960938 714.238281 446.414062 716.523438 451.035156 717.5625 C 460.632812 719.703125 470.371094 721.609375 480.167969 722.621094 C 498.78125 724.558594 517.449219 724.382812 535.714844 719.644531 C 541.035156 718.257812 546.179688 715.828125 551.035156 713.140625 C 555.398438 710.742188 557.476562 706.40625 556.898438 701.292969 C 556.378906 696.726562 555.484375 692.1875 554.789062 687.796875 C 515.226562 703.515625 476.296875 701.695312 436.382812 689.066406 Z M 251.621094 681.640625 C 252.804688 687.160156 256.1875 690.859375 260.839844 693.691406 C 271.042969 699.90625 282.429688 702.621094 293.988281 704.761719 C 311.964844 708.054688 329.941406 708.460938 347.773438 704.09375 C 352.023438 703.054688 356.15625 701.089844 360.027344 698.980469 C 363.667969 696.984375 364.882812 693.402344 363.898438 689.328125 C 363.121094 686.089844 362.050781 682.941406 361.15625 679.847656 C 360.289062 679.730469 359.738281 679.558594 359.21875 679.617188 C 343.265625 681.929688 327.28125 682.277344 311.273438 680.511719 C 292.140625 678.402344 273.210938 675.570312 256.128906 664.589844 C 251.878906 669.90625 250.261719 675.339844 251.621094 681.640625 Z M 533.402344 583.808594 C 533.722656 580.917969 534.011719 578.320312 534.359375 575.082031 C 487.363281 579.964844 441.414062 575.71875 395.375 569.792969 C 394.679688 572.941406 394.074219 575.632812 393.261719 579.359375 C 440.082031 585.6875 486.410156 588 533.402344 583.808594 Z M 255.492188 541.875 C 256.675781 542.425781 257.863281 542.914062 259.078125 543.433594 C 281.996094 552.886719 305.519531 560.488281 329.535156 566.613281 C 331.070312 567.019531 332.628906 567.277344 334.449219 567.65625 C 335.230469 564.070312 335.867188 561.035156 336.648438 557.394531 C 306.589844 550.488281 278.152344 539.445312 249.277344 529.621094 C 248.527344 536.613281 249.855469 539.214844 255.492188 541.875 Z M 374.160156 565.109375 C 369.101562 565.3125 364.679688 564.734375 360.289062 562.132812 C 354.476562 558.695312 347.773438 558.144531 340.925781 556.296875 C 339.855469 561.527344 338.929688 566.007812 338.035156 570.285156 C 349.191406 576.613281 379.5625 582.796875 388.753906 580.601562 C 389.707031 576.382812 390.691406 571.933594 391.875 566.613281 C 385.488281 566.007812 379.796875 564.878906 374.160156 565.109375 Z M 385.894531 415.375 C 383.609375 418.84375 381.125 422.3125 378.957031 425.953125 C 376.992188 429.246094 378.699219 434.566406 382.253906 435.636719 C 390.402344 438.148438 398.640625 440.460938 406.933594 442.484375 C 409.128906 443.035156 411.703125 442.339844 414.042969 441.90625 C 415.980469 441.53125 417.28125 440.316406 417.335938 438.035156 C 417.480469 433.582031 417.769531 429.160156 418.03125 424.507812 C 407.195312 421.445312 396.703125 418.4375 385.894531 415.375 Z M 183.933594 271.96875 C 169.078125 235.757812 154.222656 199.542969 139.367188 163.332031 C 139.023438 162.464844 138.789062 161.539062 138.300781 160.757812 C 137.203125 159.023438 135.929688 159.371094 134.457031 160.816406 C 149.542969 201.132812 164.6875 241.566406 179.832031 281.996094 C 183.933594 280.4375 185.640625 276.128906 183.933594 271.96875 Z M 419.1875 296.1875 C 423.4375 308.066406 441.847656 315.058594 454.5625 304.972656 C 443.957031 299.136719 425.113281 294.484375 419.1875 296.1875 Z M 419.1875 296.1875 " fill-opacity="1" fill-rule="nonzero"/></svg>