<svg xmlns="http://www.w3.org/2000/svg" xmlns:xlink="http://www.w3.org/1999/xlink" width="1080" zoomAndPan="magnify" viewBox="0 0 810 809.999993" height="1080" preserveAspectRatio="xMidYMid meet" version="1.0"><path fill="#000000" d="M 727.800781 557.730469 C 726.4375 557.132812 724.972656 556.664062 723.503906 556.464844 C 720.042969 556 716.578125 555.765625 713.117188 555.367188 C 711.652344 555.203125 710.1875 554.835938 708.820312 554.570312 C 708.753906 554.167969 708.6875 554.003906 708.722656 553.902344 C 712.25 547.976562 714.183594 541.453125 715.914062 534.863281 C 720.308594 518.152344 723.707031 501.242188 726.070312 484.101562 C 727.867188 471.019531 728.964844 457.902344 728.601562 444.6875 C 728.433594 438.464844 727.867188 432.273438 726.636719 426.179688 C 725.269531 419.621094 723.339844 413.265625 720.242188 407.308594 C 716.644531 400.417969 711.550781 394.855469 704.523438 391.394531 C 701.296875 389.796875 697.832031 388.5 694.367188 387.535156 C 682.082031 384.105469 669.496094 382.339844 656.839844 380.84375 C 650.515625 380.109375 644.1875 379.511719 637.859375 378.714844 C 632.132812 377.980469 626.472656 377.082031 620.679688 377.183594 C 619.679688 377.214844 618.546875 376.980469 617.648438 376.515625 C 614.285156 374.785156 611.019531 372.921875 607.523438 371.023438 C 608.058594 370.390625 608.625 369.726562 609.222656 369.09375 C 611.585938 366.53125 614.085938 364.066406 616.347656 361.4375 C 632.867188 342.0625 641.589844 319.59375 643.054688 294.265625 C 643.722656 282.878906 643.054688 271.527344 640.992188 260.3125 C 639.425781 251.789062 637.226562 243.433594 632.433594 236.042969 C 632.199219 235.679688 632.132812 235.210938 632.132812 235.210938 C 633.332031 231.71875 634.628906 228.621094 635.394531 225.394531 C 636.230469 221.863281 636.761719 218.234375 637.128906 214.640625 C 637.726562 208.914062 637.960938 203.15625 637.496094 197.398438 C 637.261719 194.335938 636.460938 191.441406 635.164062 188.675781 C 633.796875 185.8125 630.335938 183.417969 626.4375 184.816406 C 624.609375 185.480469 622.644531 185.949219 620.878906 186.78125 C 615.382812 189.375 609.988281 192.074219 604.527344 194.734375 C 603.460938 195.269531 602.398438 195.734375 601.296875 196.265625 C 600.664062 195.734375 600.164062 195.433594 599.765625 194.96875 C 597.101562 191.972656 593.804688 189.84375 590.308594 187.945312 C 583.648438 184.316406 576.691406 181.320312 569.53125 178.855469 C 550.75 172.332031 531.503906 167.707031 511.789062 165.011719 C 502.167969 163.679688 492.476562 162.980469 482.785156 162.8125 C 470.464844 162.648438 458.277344 163.910156 446.257812 166.675781 C 436.035156 169.003906 426.078125 172.101562 416.6875 176.761719 C 415.753906 177.226562 414.824219 177.660156 413.992188 178.058594 C 413.390625 177.691406 412.957031 177.492188 412.625 177.191406 C 406.929688 172.035156 400.171875 168.570312 393.3125 165.375 C 390.980469 164.3125 388.550781 163.414062 386.054688 162.746094 C 379.925781 161.046875 377.09375 162.980469 376.363281 169.238281 C 375.898438 173.164062 375.730469 177.09375 375.128906 180.988281 C 374.03125 188.277344 375.03125 195.5 375.628906 202.757812 C 375.730469 203.921875 376.230469 205.085938 376.761719 206.152344 C 375.828125 207.019531 375.0625 208.015625 374.398438 209.046875 C 374.132812 209.046875 373.832031 209.082031 373.632812 209.148438 C 371.234375 210.28125 369.535156 212.246094 368.070312 214.40625 C 362.675781 222.296875 357.582031 230.351562 353.085938 238.808594 C 342.03125 259.511719 338.335938 281.613281 340.101562 304.78125 C 341.164062 318.464844 344.5625 331.644531 349.722656 344.359375 C 355.949219 359.773438 365.539062 372.554688 378.695312 382.707031 C 386.652344 388.867188 395.277344 393.890625 404.433594 397.988281 C 405.632812 398.519531 407.03125 398.71875 408.097656 400.148438 C 407.066406 400.714844 406.164062 401.148438 405.332031 401.679688 C 403.300781 402.980469 401.171875 404.175781 399.304688 405.675781 C 394.511719 409.4375 390.414062 413.898438 386.71875 418.757812 C 381.589844 425.546875 376.394531 432.238281 372.101562 439.59375 C 371.667969 440.328125 371.402344 441.324219 370.070312 441.125 C 369.636719 436.464844 369.269531 431.804688 368.769531 427.144531 C 367.339844 414.03125 365.941406 400.949219 364.410156 387.832031 C 363.941406 383.9375 363.210938 380.042969 362.410156 376.183594 C 361.910156 373.753906 360.980469 371.488281 358.414062 370.457031 C 354.351562 368.828125 350.355469 367.03125 345.992188 366.230469 C 337.503906 364.699219 329.078125 362.734375 320.621094 361.203125 C 310.628906 359.40625 300.605469 357.808594 290.585938 356.246094 C 283.390625 355.113281 276.199219 354.214844 268.972656 353.214844 C 263.113281 352.417969 257.285156 351.617188 251.425781 350.820312 C 245.730469 350.054688 240.035156 349.253906 234.308594 348.488281 C 228.449219 347.722656 222.585938 346.992188 216.726562 346.292969 C 210.566406 345.558594 204.375 344.859375 198.210938 344.160156 C 191.285156 343.363281 184.359375 342.53125 177.433594 341.863281 C 169.277344 341.066406 161.117188 340.464844 152.960938 339.734375 C 149.03125 339.402344 145.101562 339.035156 141.171875 338.667969 C 135.875 338.203125 130.617188 337.671875 125.320312 337.269531 C 118.0625 336.703125 110.800781 336.273438 103.542969 335.738281 C 100.214844 335.507812 96.882812 335.507812 93.585938 336.140625 C 92.023438 336.4375 90.65625 337.003906 89.625 338.167969 C 87.828125 340.234375 86.292969 342.496094 84.363281 344.394531 C 81.734375 346.992188 81.066406 350.085938 81.300781 353.546875 C 81.765625 360.972656 82.097656 368.394531 82.699219 375.785156 C 83.332031 383.640625 84.195312 391.460938 84.960938 399.316406 C 85.660156 406.40625 86.328125 413.5 87.128906 420.589844 C 88.125 429.476562 89.292969 438.332031 90.390625 447.21875 C 91.421875 455.472656 92.355469 463.761719 93.488281 472.015625 C 95.117188 483.867188 96.785156 495.71875 98.613281 507.535156 C 100.679688 520.816406 102.878906 534.0625 105.074219 547.34375 C 96.183594 556.265625 91.722656 570.644531 94.886719 583.328125 C 98.28125 599.304688 110.371094 609.460938 123.957031 616.25 C 153.992188 631.261719 185.957031 635.125 218.859375 639.984375 C 223.21875 640.484375 228.546875 640.949219 232.910156 641.449219 C 308.933594 648.703125 383.023438 644.34375 459.542969 633.691406 C 464.871094 632.726562 470.199219 632.726562 475.992188 631.761719 C 487.117188 629.832031 496.804688 628.867188 507.960938 626.4375 C 573.328125 611.421875 633.863281 596.410156 694.402344 572.210938 C 702.726562 569.015625 710.917969 565.621094 718.945312 561.925781 C 720.441406 562.089844 721.972656 562.257812 723.472656 562.425781 C 724.871094 562.589844 726.234375 562.589844 727.433594 561.859375 C 728 561.492188 728.535156 560.792969 728.734375 560.160156 C 729.167969 559.0625 728.632812 558.097656 727.800781 557.730469 Z M 636.027344 272.628906 C 636.230469 274.625 636.394531 276.589844 636.496094 278.550781 C 636.363281 276.589844 636.230469 274.625 636.027344 272.628906 C 635.863281 270.929688 635.664062 269.230469 635.429688 267.535156 C 635.664062 269.230469 635.863281 270.929688 636.027344 272.628906 Z M 631.300781 197.03125 C 631.433594 197.796875 631.5 198.5625 631.566406 199.296875 C 631.5 198.5625 631.402344 197.796875 631.300781 197.03125 C 631.265625 196.765625 631.234375 196.5 631.167969 196.234375 C 631.199219 196.5 631.234375 196.765625 631.300781 197.03125 Z M 628.003906 228.921875 C 628.203125 228.355469 628.371094 227.789062 628.570312 227.257812 C 628.371094 227.824219 628.203125 228.386719 628.003906 228.921875 C 627.96875 229.019531 627.9375 229.121094 627.902344 229.1875 C 627.9375 229.121094 627.96875 229.019531 628.003906 228.921875 Z M 627.238281 234.679688 C 627.503906 235.613281 627.738281 236.578125 628.003906 237.507812 C 627.738281 236.578125 627.472656 235.613281 627.238281 234.679688 C 627.203125 234.546875 627.171875 234.414062 627.136719 234.28125 C 627.171875 234.414062 627.203125 234.546875 627.238281 234.679688 Z M 622.910156 214.609375 C 622.742188 215.339844 622.476562 216.671875 622.042969 217.96875 C 621.875 218.4375 621.710938 218.867188 621.511719 219.269531 C 621.710938 218.867188 621.910156 218.4375 622.042969 217.96875 C 622.476562 216.671875 622.742188 215.339844 622.910156 214.609375 C 622.941406 214.339844 622.941406 214.042969 622.941406 213.808594 C 622.941406 214.074219 622.941406 214.339844 622.910156 214.609375 Z M 620.910156 192.871094 C 622.441406 192.207031 624.007812 191.605469 625.574219 191.105469 C 624.007812 191.605469 622.441406 192.207031 620.910156 192.871094 C 619.710938 193.402344 618.480469 193.9375 617.28125 194.46875 C 618.480469 193.9375 619.710938 193.402344 620.910156 192.871094 Z M 385.21875 273.660156 C 384.988281 274.089844 384.722656 274.558594 384.488281 275.023438 C 384.722656 274.558594 384.988281 274.089844 385.21875 273.660156 Z M 382.957031 168.738281 C 383.390625 168.671875 383.789062 168.636719 384.1875 168.636719 C 383.789062 168.605469 383.390625 168.636719 382.957031 168.738281 C 382.722656 169.535156 382.390625 170.402344 382.222656 171.300781 C 382.390625 170.402344 382.722656 169.535156 382.957031 168.738281 Z M 380.257812 191.105469 C 380.660156 186.378906 381.125 181.6875 381.625 176.960938 C 381.125 181.6875 380.660156 186.378906 380.257812 191.105469 C 380.226562 191.308594 380.226562 191.539062 380.226562 191.738281 C 380.226562 191.539062 380.226562 191.308594 380.257812 191.105469 Z M 379.824219 205.917969 C 380.191406 205.121094 380.589844 204.222656 380.625 203.355469 C 380.691406 201.660156 380.660156 199.960938 380.625 198.230469 C 380.660156 199.929688 380.691406 201.625 380.625 203.355469 C 380.558594 204.222656 380.191406 205.121094 379.824219 205.917969 C 379.792969 205.988281 379.757812 206.054688 379.691406 206.121094 C 379.726562 206.054688 379.792969 205.988281 379.824219 205.917969 Z M 381.757812 282.714844 C 381.722656 282.980469 381.691406 283.246094 381.65625 283.511719 C 381.691406 283.246094 381.722656 282.980469 381.757812 282.714844 C 380.957031 282.246094 380.257812 281.746094 379.492188 281.347656 C 378.761719 280.949219 378.027344 280.582031 377.261719 280.214844 C 377.996094 280.582031 378.761719 280.980469 379.492188 281.347656 C 380.257812 281.714844 380.992188 282.214844 381.757812 282.714844 Z M 381.15625 320.492188 C 380.925781 320.425781 380.691406 320.359375 380.457031 320.292969 C 380.660156 320.359375 380.925781 320.425781 381.15625 320.492188 Z M 377.726562 274.023438 C 378.160156 274.257812 378.59375 274.492188 379.027344 274.722656 C 378.558594 274.492188 378.160156 274.257812 377.726562 274.023438 C 377.296875 273.792969 376.863281 273.527344 376.460938 273.257812 C 376.863281 273.527344 377.296875 273.792969 377.726562 274.023438 Z M 347.992188 269.796875 C 348.589844 266.800781 349.324219 263.871094 350.15625 260.976562 C 349.289062 263.871094 348.558594 266.800781 347.992188 269.796875 C 347.058594 274.523438 346.425781 279.25 346.09375 284.011719 C 346.425781 279.25 347.058594 274.523438 347.992188 269.796875 Z M 355.019531 341.164062 C 352.519531 334.773438 350.457031 328.28125 348.925781 321.691406 C 348.523438 320.027344 348.191406 318.398438 347.859375 316.699219 C 348.191406 318.363281 348.523438 320.027344 348.925781 321.691406 C 350.457031 328.28125 352.519531 334.773438 355.019531 341.164062 C 355.515625 342.464844 356.050781 343.726562 356.617188 344.992188 C 356.050781 343.726562 355.515625 342.429688 355.019531 341.164062 Z M 365.839844 272.027344 C 365.671875 271.726562 365.605469 271.394531 365.640625 271.097656 C 365.640625 271.394531 365.671875 271.726562 365.839844 272.027344 C 366.105469 272.558594 366.40625 273.058594 366.773438 273.492188 C 366.40625 273.058594 366.105469 272.558594 365.839844 272.027344 Z M 367.339844 224.160156 C 369.4375 220.566406 371.566406 217.003906 373.699219 213.441406 C 374.230469 212.542969 374.863281 211.644531 375.265625 210.679688 C 375.296875 210.578125 375.332031 210.445312 375.332031 210.3125 C 375.332031 210.445312 375.332031 210.578125 375.265625 210.679688 C 374.898438 211.644531 374.265625 212.542969 373.699219 213.441406 C 371.566406 217.003906 369.4375 220.566406 367.339844 224.160156 Z M 375.230469 315.867188 C 375.164062 315.898438 375.097656 315.933594 375.0625 315.96875 C 375.03125 316 374.996094 316 374.964844 316.035156 C 374.996094 316 375.03125 315.96875 375.0625 315.96875 C 375.128906 315.933594 375.199219 315.898438 375.230469 315.867188 Z M 374.53125 318.398438 C 374.664062 318.597656 374.832031 318.730469 374.996094 318.761719 C 376.0625 319.097656 377.128906 319.429688 378.195312 319.695312 C 377.160156 319.429688 376.0625 319.097656 374.996094 318.761719 C 374.832031 318.730469 374.664062 318.5625 374.53125 318.398438 Z M 375.898438 330.648438 C 375.964844 330.714844 376.0625 330.8125 376.164062 330.878906 C 376.0625 330.78125 375.996094 330.714844 375.898438 330.648438 Z M 377.59375 342.5625 C 377.5625 342.5625 377.5625 342.53125 377.527344 342.53125 C 377.5625 342.5625 377.5625 342.5625 377.59375 342.5625 C 377.628906 342.597656 377.660156 342.597656 377.726562 342.628906 C 377.660156 342.628906 377.628906 342.597656 377.59375 342.5625 Z M 381.425781 327.75 C 379.792969 327.550781 378.128906 327.417969 376.496094 327.515625 C 376.363281 327.515625 376.261719 327.585938 376.128906 327.617188 C 376.261719 327.550781 376.394531 327.515625 376.496094 327.515625 C 378.128906 327.417969 379.792969 327.515625 381.425781 327.75 C 382.457031 327.882812 383.488281 328.050781 384.519531 328.25 C 383.488281 328.050781 382.457031 327.882812 381.425781 327.75 Z M 387.25 319.261719 C 386.550781 319.429688 385.820312 319.59375 385.085938 319.726562 C 385.820312 319.5625 386.550781 319.429688 387.25 319.261719 C 387.285156 319.261719 387.316406 319.230469 387.351562 319.195312 C 387.316406 319.230469 387.285156 319.230469 387.25 319.261719 Z M 387.851562 328.980469 C 387.949219 329.046875 388.050781 329.117188 388.152344 329.214844 C 388.050781 329.117188 387.949219 329.046875 387.851562 328.980469 Z M 389.25 196.867188 C 389.214844 196.5 389.183594 196.132812 389.183594 195.765625 C 389.214844 196.132812 389.214844 196.5 389.25 196.867188 C 389.28125 197.132812 389.316406 197.429688 389.382812 197.664062 C 389.316406 197.398438 389.28125 197.132812 389.25 196.867188 Z M 390.746094 340.066406 C 390.78125 340 390.816406 339.96875 390.882812 339.898438 C 390.816406 339.867188 390.78125 339.832031 390.746094 339.765625 C 390.78125 339.800781 390.847656 339.832031 390.882812 339.898438 C 390.847656 339.933594 390.78125 340 390.746094 340.066406 Z M 388.816406 170.003906 C 388.582031 169.902344 388.382812 169.835938 388.152344 169.738281 C 388.382812 169.835938 388.582031 169.9375 388.816406 170.003906 C 390.148438 170.535156 391.480469 171.101562 392.777344 171.734375 C 391.480469 171.101562 390.148438 170.535156 388.816406 170.003906 Z M 393.8125 200.359375 C 393.976562 200.292969 394.144531 200.226562 394.3125 200.160156 C 396.140625 199.328125 397.941406 198.296875 399.570312 197.066406 C 397.972656 198.296875 396.175781 199.363281 394.3125 200.160156 C 394.144531 200.226562 393.976562 200.292969 393.8125 200.359375 Z M 397.042969 260.609375 C 396.742188 260.808594 396.441406 261.011719 396.140625 261.210938 C 396.410156 261.011719 396.707031 260.808594 397.042969 260.609375 C 397.90625 260.042969 398.804688 259.511719 399.707031 259.046875 C 398.804688 259.511719 397.90625 260.042969 397.042969 260.609375 Z M 402.601562 192.472656 C 402.304688 193.238281 402.003906 194.035156 401.601562 194.769531 C 402.003906 194.035156 402.335938 193.238281 402.601562 192.472656 C 402.902344 191.738281 402.902344 191.039062 402.667969 190.472656 C 402.902344 191.074219 402.902344 191.738281 402.601562 192.472656 Z M 270.070312 614.886719 C 267.207031 614.519531 264.34375 614.1875 261.515625 613.820312 C 264.378906 614.1875 267.242188 614.550781 270.070312 614.886719 C 271.703125 615.085938 273.300781 615.285156 274.933594 615.484375 C 273.335938 615.285156 271.703125 615.085938 270.070312 614.886719 Z M 340.667969 621.675781 C 340.5 621.675781 340.332031 621.640625 340.167969 621.640625 C 340.332031 621.640625 340.5 621.675781 340.667969 621.675781 C 345.292969 622.007812 349.890625 622.273438 354.519531 622.539062 C 349.890625 622.308594 345.292969 622.007812 340.667969 621.675781 Z M 379.558594 622.042969 C 379.226562 622.175781 378.925781 622.308594 378.59375 622.40625 C 378.925781 622.308594 379.261719 622.175781 379.558594 622.042969 C 379.792969 621.941406 380.058594 621.910156 380.324219 621.910156 C 380.058594 621.910156 379.792969 621.941406 379.558594 622.042969 Z M 381.757812 622.175781 C 381.722656 622.175781 381.691406 622.175781 381.691406 622.140625 C 381.691406 622.175781 381.722656 622.175781 381.757812 622.175781 C 383.1875 622.609375 384.585938 622.808594 386.019531 622.773438 C 384.585938 622.808594 383.1875 622.609375 381.757812 622.175781 Z M 444.859375 351.949219 C 445.09375 354.046875 445.65625 356.109375 446.324219 358.109375 C 446.492188 358.609375 446.691406 359.105469 446.957031 359.605469 C 446.691406 359.105469 446.492188 358.609375 446.324219 358.109375 C 445.65625 356.109375 445.09375 354.046875 444.859375 351.949219 C 444.527344 348.855469 444.027344 345.691406 444.625 342.429688 C 445.457031 342.332031 446.289062 342.230469 447.089844 342.164062 C 446.289062 342.265625 445.457031 342.332031 444.625 342.429688 C 444.027344 345.691406 444.527344 348.855469 444.859375 351.949219 Z M 444.328125 328.417969 C 445.125 328.417969 445.890625 328.449219 446.691406 328.515625 C 445.890625 328.449219 445.09375 328.449219 444.328125 328.417969 Z M 444.691406 365.699219 C 444.925781 365.964844 445.160156 366.230469 445.390625 366.464844 C 445.160156 366.230469 444.925781 365.964844 444.691406 365.699219 C 444.359375 365.296875 444.058594 364.898438 443.726562 364.5 C 444.058594 364.933594 444.359375 365.332031 444.691406 365.699219 Z M 424.113281 259.144531 C 430.605469 262.90625 435.167969 268.53125 438.597656 275.058594 C 438.832031 275.488281 439.03125 275.921875 439.199219 276.355469 C 439.363281 276.789062 439.53125 277.253906 439.632812 277.6875 C 439.765625 278.152344 439.863281 278.585938 439.964844 279.050781 C 439.863281 278.585938 439.765625 278.121094 439.632812 277.6875 C 439.496094 277.222656 439.363281 276.789062 439.199219 276.355469 C 439.03125 275.921875 438.832031 275.488281 438.597656 275.058594 C 435.203125 268.5 430.605469 262.90625 424.113281 259.144531 C 423.878906 259.011719 423.613281 258.878906 423.382812 258.746094 C 423.648438 258.878906 423.878906 258.980469 424.113281 259.144531 Z M 436.601562 340.898438 C 436.234375 340.800781 435.902344 340.664062 435.535156 340.566406 C 435.269531 340.464844 435.035156 340.398438 434.769531 340.300781 C 435.003906 340.398438 435.269531 340.5 435.535156 340.566406 C 435.902344 340.664062 436.234375 340.800781 436.601562 340.898438 Z M 428.277344 366.230469 C 427.445312 366.03125 426.644531 365.832031 425.910156 365.566406 C 426.644531 365.832031 427.445312 366.03125 428.277344 366.230469 C 429.875 366.597656 431.371094 366.730469 432.839844 366.597656 C 431.371094 366.730469 429.839844 366.597656 428.277344 366.230469 Z M 429.707031 399.949219 C 428.308594 399.585938 426.878906 399.183594 425.480469 398.785156 C 424.613281 398.550781 423.746094 398.285156 422.882812 398.019531 C 423.746094 398.285156 424.613281 398.519531 425.480469 398.785156 C 426.910156 399.183594 428.308594 399.585938 429.707031 399.949219 Z M 428.476562 312.636719 C 429.140625 312.140625 429.808594 311.605469 430.441406 311.039062 C 429.773438 311.605469 429.140625 312.140625 428.476562 312.636719 Z M 430.539062 337.46875 C 430.441406 337.371094 430.339844 337.269531 430.273438 337.171875 C 429.941406 336.769531 429.675781 336.339844 429.441406 335.9375 C 429.640625 336.371094 429.90625 336.769531 430.273438 337.171875 C 430.339844 337.269531 430.441406 337.371094 430.539062 337.46875 Z M 432.703125 361.570312 C 431.773438 361.46875 430.839844 361.335938 429.941406 361.171875 C 430.839844 361.335938 431.773438 361.46875 432.703125 361.570312 C 432.839844 361.570312 432.972656 361.601562 433.070312 361.601562 C 432.972656 361.570312 432.839844 361.570312 432.703125 361.570312 Z M 424.246094 315.203125 C 423.515625 315.566406 422.75 315.867188 422.015625 316.167969 C 422.75 315.867188 423.515625 315.535156 424.246094 315.203125 Z M 418.453125 317.199219 C 416.855469 317.566406 415.15625 317.796875 413.457031 317.929688 C 412.558594 317.996094 411.691406 318.03125 410.792969 318.03125 C 411.660156 318.03125 412.558594 317.996094 413.457031 317.929688 C 415.15625 317.796875 416.855469 317.566406 418.453125 317.199219 Z M 412.957031 349.753906 C 413.160156 350.683594 413.359375 351.585938 413.625 352.449219 C 413.390625 351.617188 413.160156 350.71875 412.957031 349.753906 C 412.792969 348.988281 412.757812 348.222656 412.859375 347.488281 C 412.792969 348.222656 412.824219 348.988281 412.957031 349.753906 Z M 412.425781 255.949219 C 413.023438 255.949219 413.589844 255.984375 414.191406 256.015625 C 413.625 255.984375 413.023438 255.949219 412.425781 255.949219 Z M 407.332031 180.15625 C 408.429688 180.855469 409.496094 181.519531 410.59375 182.21875 C 410.894531 182.417969 411.226562 182.585938 411.527344 182.71875 C 411.226562 182.585938 410.894531 182.417969 410.59375 182.21875 C 409.496094 181.519531 408.398438 180.855469 407.332031 180.15625 Z M 414.457031 520.015625 C 410.992188 519.882812 407.53125 519.351562 404.035156 519.117188 C 400.769531 518.917969 397.574219 518.1875 393.976562 518.085938 C 397.808594 513.890625 420.652344 494.054688 424.347656 491.757812 C 424.347656 501.609375 424.347656 510.960938 424.347656 520.550781 C 420.917969 521.449219 417.71875 520.117188 414.457031 520.015625 Z M 422.546875 612.453125 C 432.371094 609.160156 442.195312 605.832031 452.019531 602.46875 C 442.195312 605.832031 432.371094 609.160156 422.546875 612.453125 Z M 459.777344 405.542969 C 454.316406 404.941406 448.921875 404.109375 443.558594 403.078125 C 448.921875 404.109375 454.316406 404.910156 459.777344 405.542969 C 463.039062 405.910156 466.304688 406.242188 469.566406 406.507812 C 466.304688 406.207031 463.039062 405.875 459.777344 405.542969 Z M 459.042969 334.207031 C 459.042969 334.808594 459.011719 335.40625 458.910156 335.972656 C 459.011719 335.40625 459.042969 334.839844 459.042969 334.207031 C 459.011719 331.777344 457.078125 331.011719 455.183594 330.3125 C 454.617188 330.113281 454.050781 329.949219 453.449219 329.746094 C 454.015625 329.949219 454.617188 330.113281 455.183594 330.3125 C 457.078125 331.046875 459.011719 331.8125 459.042969 334.207031 Z M 455.316406 291.5 C 456.3125 291.5 457.246094 291.46875 458.179688 291.367188 C 458.246094 291.101562 458.3125 290.835938 458.410156 290.570312 C 458.34375 290.835938 458.246094 291.101562 458.179688 291.367188 C 457.246094 291.433594 456.28125 291.46875 455.316406 291.5 Z M 458.945312 288.40625 C 458.976562 288.273438 459.011719 288.140625 459.042969 288.003906 C 459.144531 287.539062 459.246094 287.039062 459.378906 286.574219 C 459.246094 287.039062 459.144531 287.507812 459.042969 288.003906 C 459.011719 288.140625 458.976562 288.273438 458.945312 288.40625 Z M 458.144531 366.496094 C 457.84375 366.496094 457.578125 366.496094 457.28125 366.464844 C 457.578125 366.464844 457.84375 366.464844 458.144531 366.496094 Z M 454.382812 340.867188 C 454.75 340.765625 455.082031 340.632812 455.449219 340.5 C 455.648438 340.398438 455.882812 340.300781 456.046875 340.199219 C 455.847656 340.300781 455.648438 340.398438 455.449219 340.5 C 455.082031 340.632812 454.75 340.765625 454.382812 340.867188 C 453.648438 341.097656 452.917969 341.265625 452.183594 341.429688 C 451.820312 341.5 451.453125 341.566406 451.085938 341.632812 C 450.554688 341.730469 450.054688 341.796875 449.519531 341.863281 C 450.054688 341.796875 450.554688 341.730469 451.085938 341.632812 C 451.453125 341.566406 451.820312 341.5 452.183594 341.429688 C 452.917969 341.265625 453.648438 341.097656 454.382812 340.867188 Z M 470.332031 268.765625 C 468.5 270.363281 466.871094 272.09375 465.4375 273.957031 C 466.902344 272.09375 468.535156 270.363281 470.332031 268.765625 C 471.199219 268 472.0625 267.335938 472.929688 266.667969 C 472.0625 267.335938 471.199219 268 470.332031 268.765625 Z M 478.058594 350.285156 C 477.792969 351.117188 477.523438 351.949219 477.191406 352.75 C 477.523438 351.949219 477.792969 351.117188 478.058594 350.285156 C 478.15625 349.984375 478.226562 349.71875 478.292969 349.421875 C 478.226562 349.6875 478.125 349.984375 478.058594 350.285156 Z M 479.257812 345.425781 C 479.058594 346.226562 478.890625 347.058594 478.691406 347.855469 C 478.890625 347.058594 479.058594 346.226562 479.257812 345.425781 C 479.355469 345.058594 479.457031 344.726562 479.625 344.460938 C 479.457031 344.726562 479.324219 345.058594 479.257812 345.425781 Z M 480.621094 343.695312 C 480.722656 343.660156 480.855469 343.628906 480.988281 343.628906 C 480.855469 343.628906 480.722656 343.660156 480.621094 343.695312 Z M 469.234375 169.238281 C 460.777344 169.871094 452.484375 171.136719 444.328125 173 C 452.484375 171.136719 460.777344 169.871094 469.234375 169.238281 C 473.164062 168.9375 477.09375 168.839844 481.023438 168.839844 C 477.09375 168.839844 473.164062 168.9375 469.234375 169.238281 Z M 483.484375 353.046875 C 483.351562 353.546875 483.1875 354.015625 483.019531 354.511719 C 483.1875 354.015625 483.351562 353.546875 483.484375 353.046875 C 483.550781 352.816406 483.617188 352.582031 483.6875 352.316406 C 483.617188 352.582031 483.550781 352.816406 483.484375 353.046875 Z M 483.851562 347.222656 C 483.6875 346.492188 483.453125 345.757812 483.121094 345.09375 C 483.054688 344.960938 482.988281 344.828125 482.886719 344.726562 C 482.953125 344.859375 483.054688 344.960938 483.121094 345.09375 C 483.453125 345.726562 483.6875 346.492188 483.851562 347.222656 C 483.984375 347.855469 484.050781 348.457031 484.085938 349.054688 C 484.050781 348.457031 483.984375 347.824219 483.851562 347.222656 Z M 488.347656 407.074219 C 487.148438 407.105469 485.949219 407.140625 484.75 407.140625 C 485.949219 407.105469 487.148438 407.105469 488.347656 407.074219 C 489.746094 407.039062 491.144531 406.972656 492.542969 406.90625 C 491.144531 406.972656 489.746094 407.039062 488.347656 407.074219 Z M 498.535156 263.105469 C 498.769531 263.140625 498.96875 263.171875 499.203125 263.207031 C 505.5625 263.738281 510.09375 267.402344 514.019531 271.996094 C 514.6875 272.761719 515.285156 273.558594 515.851562 274.359375 C 515.285156 273.558594 514.6875 272.761719 514.019531 271.996094 C 510.09375 267.367188 505.597656 263.738281 499.203125 263.207031 C 498.96875 263.171875 498.769531 263.140625 498.535156 263.105469 Z M 515.152344 579.132812 C 510.589844 581.03125 506.03125 582.863281 501.46875 584.660156 C 506.03125 582.863281 510.625 581.03125 515.152344 579.132812 C 516.050781 578.769531 516.917969 578.367188 517.75 577.9375 C 516.917969 578.367188 516.050781 578.769531 515.152344 579.132812 Z M 521.414062 358.109375 C 520.949219 358.175781 520.546875 358.507812 520.347656 358.90625 C 520.582031 358.507812 520.949219 358.175781 521.414062 358.109375 C 521.613281 358.074219 521.78125 358.074219 521.980469 358.042969 C 521.78125 358.074219 521.613281 358.109375 521.414062 358.109375 Z M 523.644531 358.109375 C 523.277344 358.007812 522.910156 358.007812 522.546875 358.007812 C 522.945312 357.976562 523.3125 358.007812 523.644531 358.109375 C 524.175781 358.242188 524.710938 358.375 525.242188 358.507812 C 524.710938 358.339844 524.175781 358.207031 523.644531 358.109375 Z M 522.414062 346.992188 C 522.511719 346.925781 522.613281 346.890625 522.746094 346.824219 C 522.945312 346.757812 523.179688 346.65625 523.378906 346.625 C 523.144531 346.691406 522.945312 346.757812 522.746094 346.824219 C 522.613281 346.890625 522.511719 346.925781 522.414062 346.992188 Z M 523.945312 336.570312 C 523.910156 336.4375 523.910156 336.304688 523.910156 336.171875 C 523.910156 336.074219 523.910156 335.972656 523.945312 335.871094 C 523.945312 335.972656 523.910156 336.074219 523.910156 336.171875 C 523.910156 336.304688 523.910156 336.4375 523.945312 336.570312 Z M 527.375 346.957031 C 530.269531 347.421875 533.136719 347.890625 536.03125 348.421875 C 536.132812 348.457031 536.230469 348.457031 536.332031 348.488281 C 536.230469 348.457031 536.132812 348.421875 536.03125 348.421875 C 533.136719 347.890625 530.238281 347.421875 527.375 346.957031 Z M 534.300781 364.066406 C 534.199219 364.101562 534.101562 364.101562 534 364.132812 C 533.734375 364.167969 533.46875 364.199219 533.203125 364.234375 C 533.46875 364.199219 533.734375 364.167969 534 364.132812 C 534.101562 364.132812 534.199219 364.101562 534.300781 364.066406 Z M 533.96875 572.675781 C 533.136719 572.675781 532.300781 572.644531 531.46875 572.609375 C 532.300781 572.644531 533.136719 572.644531 533.96875 572.675781 C 535.332031 572.710938 536.699219 572.710938 538.0625 572.710938 C 536.699219 572.710938 535.332031 572.675781 533.96875 572.675781 Z M 536.332031 362.636719 C 536.398438 362.769531 536.496094 362.933594 536.597656 363.132812 C 536.53125 363.167969 536.464844 363.203125 536.363281 363.234375 C 536.429688 363.203125 536.496094 363.167969 536.597656 363.132812 C 536.464844 362.902344 536.398438 362.734375 536.332031 362.636719 Z M 536.429688 337.9375 C 535.730469 337.96875 535 337.96875 534.300781 338.003906 C 535 337.96875 535.699219 337.9375 536.429688 337.9375 C 536.996094 337.902344 537.53125 337.703125 538.496094 337.46875 C 537.964844 336.738281 537.828125 336.339844 537.597656 336.304688 C 533.902344 335.640625 530.238281 334.941406 526.542969 334.441406 C 526.339844 334.40625 526.140625 334.40625 525.976562 334.40625 C 526.175781 334.40625 526.339844 334.40625 526.542969 334.441406 C 530.238281 334.941406 533.933594 335.640625 537.597656 336.304688 C 537.796875 336.339844 537.929688 336.738281 538.496094 337.46875 C 537.53125 337.671875 536.964844 337.902344 536.429688 337.9375 Z M 521.78125 301.019531 C 527.539062 299.621094 533.136719 298.257812 538.730469 296.925781 C 533.136719 298.257812 527.539062 299.621094 521.78125 301.019531 Z M 541.726562 290.203125 C 541.027344 290.402344 540.328125 290.570312 539.660156 290.769531 C 540.359375 290.570312 541.027344 290.371094 541.726562 290.203125 C 541.925781 290.136719 542.125 290.101562 542.292969 290.070312 C 542.125 290.101562 541.925781 290.136719 541.726562 290.203125 Z M 551.214844 292.898438 C 550.484375 293.265625 549.71875 293.597656 548.953125 293.898438 C 549.71875 293.597656 550.484375 293.265625 551.214844 292.898438 C 551.683594 292.664062 552.183594 292.433594 552.648438 292.199219 C 552.183594 292.464844 551.714844 292.664062 551.214844 292.898438 Z M 552.847656 288.074219 C 552.679688 288.074219 552.546875 288.074219 552.382812 288.039062 C 552.546875 288.039062 552.679688 288.039062 552.847656 288.074219 C 552.949219 288.074219 553.046875 288.105469 553.148438 288.105469 C 553.046875 288.074219 552.949219 288.074219 552.847656 288.074219 Z M 568.964844 571.546875 C 572.628906 571.210938 576.324219 570.945312 579.988281 570.578125 C 576.324219 570.945312 572.628906 571.246094 568.964844 571.546875 Z M 590.410156 195.300781 C 592.175781 196.332031 593.9375 197.398438 595.703125 198.496094 C 593.9375 197.398438 592.175781 196.332031 590.410156 195.300781 Z M 600.03125 201.757812 C 599.765625 201.859375 599.535156 201.925781 599.265625 202.023438 C 599.5 201.925781 599.765625 201.859375 600.03125 201.757812 C 600.566406 201.558594 601.097656 201.359375 601.632812 201.160156 C 601.097656 201.359375 600.566406 201.558594 600.03125 201.757812 Z M 609.757812 359.105469 C 610.222656 358.574219 610.722656 358.042969 611.1875 357.476562 C 610.6875 358.042969 610.222656 358.574219 609.757812 359.105469 C 608.125 360.90625 606.460938 362.667969 604.761719 364.332031 C 606.460938 362.667969 608.125 360.90625 609.757812 359.105469 Z M 696.566406 559.261719 C 704.027344 560.128906 711.519531 560.925781 719.011719 561.757812 C 711.519531 560.960938 704.058594 560.128906 696.566406 559.261719 Z M 696.566406 559.261719 " fill-opacity="1" fill-rule="nonzero"/><path fill="#ac9e7f" d="M 375.265625 210.679688 C 374.898438 211.644531 374.265625 212.542969 373.699219 213.441406 C 368.039062 222.929688 362.34375 232.417969 357.480469 242.402344 C 353.21875 251.15625 349.855469 260.210938 347.992188 269.796875 C 345.960938 280.25 345.359375 290.800781 345.992188 301.453125 C 346.792969 315.203125 350.023438 328.351562 355.050781 341.132812 C 361.476562 357.574219 372.066406 370.691406 386.519531 380.777344 C 398.472656 389.132812 411.59375 394.824219 425.546875 398.75 C 436.765625 401.949219 448.1875 404.210938 459.808594 405.476562 C 469.332031 406.542969 478.824219 407.308594 488.414062 407.007812 C 515.652344 406.175781 541.960938 401.183594 566.898438 389.863281 C 583.25 382.441406 597.769531 372.453125 609.824219 359.039062 C 623.207031 344.128906 631.566406 326.75 635.0625 306.980469 C 637.09375 295.527344 637.226562 284.109375 636.09375 272.558594 C 635.195312 263.472656 633.429688 254.617188 630.566406 245.929688 C 629.335938 242.203125 628.371094 238.40625 627.304688 234.613281 C 627.105469 233.914062 627.070312 233.117188 627.203125 232.382812 C 627.40625 231.183594 627.671875 229.988281 628.070312 228.855469 C 629.636719 224.394531 630.535156 219.765625 630.933594 215.105469 C 631.46875 209.082031 632.332031 203.023438 631.367188 196.964844 C 631.199219 195.933594 631.066406 194.867188 630.769531 193.835938 C 629.769531 190.242188 629.070312 189.84375 625.640625 191.007812 C 624.074219 191.539062 622.507812 192.105469 620.976562 192.769531 C 616.117188 194.902344 611.289062 197.097656 606.425781 199.195312 C 604.363281 200.09375 602.195312 200.859375 600.097656 201.660156 C 598.933594 202.089844 597.835938 202.324219 596.636719 201.527344 C 595.472656 200.726562 596.371094 199.496094 595.769531 198.398438 C 587.746094 193.371094 579.554688 189.144531 570.828125 185.914062 C 557.042969 180.789062 542.859375 177.027344 528.472656 173.996094 C 519.28125 172.066406 509.992188 170.601562 500.636719 169.769531 C 490.210938 168.871094 479.789062 168.371094 469.300781 169.136719 C 452.382812 170.402344 436.101562 174.164062 420.316406 180.253906 C 418.785156 180.855469 417.1875 181.421875 415.753906 182.285156 C 413.925781 183.382812 412.292969 183.152344 410.660156 182.121094 C 408.464844 180.753906 406.296875 179.390625 404.132812 177.992188 C 399.273438 174.929688 394.277344 172 388.882812 169.902344 C 387.019531 169.304688 385.253906 168.304688 382.957031 168.738281 C 382.691406 169.671875 382.289062 170.636719 382.15625 171.667969 C 381.457031 178.160156 380.792969 184.617188 380.226562 191.105469 C 380.09375 192.90625 380.457031 194.734375 380.523438 196.53125 C 380.589844 198.796875 380.660156 201.09375 380.558594 203.355469 C 380.523438 204.222656 380.160156 205.121094 379.757812 205.917969 C 379.226562 207.085938 377.328125 207.183594 376.730469 206.054688 C 375.796875 206.917969 375.03125 207.917969 374.363281 208.949219 C 374.597656 208.949219 374.765625 209.015625 374.832031 209.117188 C 375.164062 209.546875 375.429688 210.246094 375.265625 210.679688 Z M 606.558594 211.578125 C 609.6875 209.347656 613.085938 207.71875 617.015625 207.683594 C 620.976562 207.652344 623.175781 210.046875 622.910156 214.640625 C 622.742188 215.375 622.476562 216.703125 622.042969 218.003906 C 620.8125 221.664062 617.949219 223.429688 614.285156 222.429688 C 610.121094 221.265625 607.058594 218.734375 605.726562 214.441406 C 605.394531 213.242188 605.558594 212.277344 606.558594 211.578125 Z M 374.132812 317.363281 C 374.164062 316.867188 374.632812 316.265625 375.097656 315.96875 C 375.5625 315.632812 376.230469 315.433594 376.796875 315.46875 C 380.425781 315.667969 383.921875 316.433594 387.351562 317.566406 C 387.585938 317.632812 387.917969 318.03125 387.851562 318.230469 C 387.785156 318.597656 387.519531 319.195312 387.25 319.261719 C 385.355469 319.726562 383.421875 320.0625 381.15625 320.492188 C 379.292969 319.996094 377.128906 319.460938 374.996094 318.761719 C 374.566406 318.628906 374.097656 317.832031 374.132812 317.363281 Z M 374.964844 328.847656 C 375.097656 328.28125 375.929688 327.550781 376.496094 327.515625 C 378.128906 327.417969 379.792969 327.550781 381.425781 327.75 C 383.488281 328.015625 385.554688 328.449219 387.585938 328.882812 C 387.949219 328.949219 388.25 329.347656 389.015625 329.949219 C 384.988281 332.109375 381.257812 331.84375 377.527344 331.378906 C 376.960938 331.3125 376.296875 331.046875 375.898438 330.648438 C 375.429688 330.148438 374.832031 329.382812 374.964844 328.847656 Z M 390.183594 340.765625 C 386.820312 342.03125 383.289062 342.761719 379.726562 343.128906 C 379.027344 343.195312 378.226562 342.929688 377.59375 342.597656 C 377.128906 342.363281 376.628906 341.730469 376.628906 341.265625 C 376.628906 340.832031 377.09375 340.101562 377.5625 339.933594 C 378.660156 339.5 379.859375 339.066406 381.023438 339.066406 C 384.023438 339 386.984375 339.101562 389.980469 339.203125 C 390.214844 339.203125 390.414062 339.535156 390.914062 339.933594 C 390.546875 340.300781 390.414062 340.664062 390.183594 340.765625 Z M 483.484375 353.046875 C 480.589844 363.5 471.199219 371.421875 460.476562 372.222656 C 454.25 372.6875 448.855469 370.558594 444.726562 365.699219 C 443.859375 364.664062 443.09375 363.535156 442.160156 362.269531 C 441.230469 362.902344 440.363281 363.46875 439.496094 364.066406 C 436.066406 366.429688 432.4375 367.195312 428.277344 366.230469 C 419.417969 364.167969 414.921875 359.308594 412.992188 349.753906 C 412.492188 347.257812 413.292969 344.960938 414.691406 342.863281 C 414.921875 342.496094 415.289062 342.195312 415.65625 341.898438 C 416.589844 341.132812 417.953125 341.632812 418.085938 342.796875 C 418.1875 343.5625 418.152344 344.292969 418.1875 345.058594 C 418.320312 348.121094 419.085938 351.050781 420.285156 353.847656 C 422.613281 359.273438 427.375 361.003906 432.738281 361.535156 C 434.769531 361.738281 436.5 360.539062 438.199219 359.507812 C 438.964844 359.039062 439.632812 358.441406 440.332031 357.910156 C 440.164062 352.28125 439.996094 347.15625 439.863281 341.796875 C 438.433594 341.363281 437 341 435.601562 340.53125 C 433.570312 339.832031 431.707031 338.800781 430.308594 337.136719 C 427.910156 334.242188 428.875 330.78125 432.371094 329.480469 C 432.671875 329.382812 432.9375 329.25 433.238281 329.214844 C 440.03125 328.515625 446.789062 327.617188 453.515625 329.78125 C 454.082031 329.980469 454.683594 330.148438 455.25 330.347656 C 457.144531 331.046875 459.078125 331.8125 459.109375 334.242188 C 459.144531 336.972656 458.246094 339.402344 455.515625 340.5 C 454.148438 341.066406 452.617188 341.398438 451.152344 341.632812 C 449.089844 341.964844 446.988281 342.164062 444.726562 342.429688 C 444.09375 345.726562 444.59375 348.855469 444.957031 351.949219 C 445.191406 354.046875 445.757812 356.109375 446.425781 358.109375 C 447.722656 362.136719 451.984375 366.398438 458.246094 366.464844 C 464.4375 366.53125 469.402344 364.132812 473.328125 359.472656 C 475.628906 356.777344 477.125 353.648438 478.125 350.285156 C 478.589844 348.6875 478.925781 347.058594 479.324219 345.425781 C 479.558594 344.460938 480.023438 343.695312 481.054688 343.628906 C 482.085938 343.5625 482.71875 344.292969 483.152344 345.09375 C 483.519531 345.757812 483.71875 346.492188 483.886719 347.222656 C 484.285156 349.1875 484.019531 351.152344 483.484375 353.046875 Z M 534 364.132812 C 529.636719 364.800781 525.640625 363.566406 521.746094 361.769531 C 521.214844 361.535156 520.78125 361.039062 520.414062 360.605469 C 519.75 359.773438 520.347656 358.273438 521.414062 358.109375 C 522.144531 358.007812 522.945312 357.910156 523.644531 358.074219 C 527.875 359.105469 532.136719 360.105469 536.03125 362.167969 C 536.132812 362.234375 536.164062 362.402344 536.566406 363.101562 C 535.632812 363.535156 534.832031 364 534 364.132812 Z M 535.730469 351.351562 C 532.734375 351.515625 529.738281 351.585938 526.742188 351.515625 C 525.078125 351.484375 523.511719 350.886719 522.210938 349.753906 C 521.214844 348.886719 521.480469 347.289062 522.746094 346.855469 C 523.277344 346.65625 523.910156 346.425781 524.476562 346.523438 C 528.339844 347.125 532.167969 347.722656 536 348.457031 C 536.796875 348.589844 537.496094 349.1875 539.195312 350.019531 C 537.363281 350.75 536.566406 351.285156 535.730469 351.351562 Z M 523.910156 336.171875 C 523.878906 335.074219 524.910156 334.207031 526.542969 334.40625 C 530.238281 334.90625 533.933594 335.605469 537.597656 336.273438 C 537.796875 336.304688 537.929688 336.703125 538.496094 337.4375 C 537.53125 337.671875 536.996094 337.871094 536.429688 337.902344 C 533.566406 338.003906 530.738281 338.070312 527.875 338.167969 C 527.441406 338.167969 526.972656 338.136719 526.507812 338.101562 C 524.808594 337.9375 523.910156 337.269531 523.910156 336.171875 Z M 390.382812 188.34375 C 390.613281 187.246094 391.648438 186.878906 393.910156 186.945312 C 396.140625 187.144531 398.773438 187.710938 401.238281 189.011719 C 402.601562 189.742188 403.167969 190.972656 402.601562 192.472656 C 402.070312 193.871094 401.46875 195.433594 400.40625 196.332031 C 398.574219 197.863281 396.476562 199.164062 394.277344 200.128906 C 391.582031 201.328125 389.515625 199.863281 389.25 196.832031 C 388.984375 193.9375 389.78125 191.140625 390.382812 188.34375 Z M 377.726562 274.023438 C 379.460938 274.992188 381.191406 275.890625 383.390625 277.054688 C 384.1875 275.589844 384.820312 274.390625 385.488281 273.226562 C 388.351562 268.132812 392.148438 263.839844 397.042969 260.609375 C 401.703125 257.546875 406.796875 255.917969 412.457031 255.949219 C 416.6875 255.984375 420.550781 257.046875 424.148438 259.113281 C 430.640625 262.875 435.203125 268.5 438.632812 275.023438 C 440.429688 278.417969 440.429688 282.347656 440.695312 286.109375 C 440.796875 287.308594 440.796875 288.472656 440.828125 289.570312 C 444.292969 290.96875 452.417969 291.765625 458.179688 291.335938 C 458.476562 290.269531 458.8125 289.136719 459.078125 287.972656 C 460.710938 280.28125 464.539062 273.859375 470.398438 268.734375 C 477.691406 262.339844 486.117188 259.945312 495.707031 262.339844 C 496.871094 262.640625 498.039062 263.039062 499.238281 263.140625 C 505.597656 263.671875 510.125 267.335938 514.054688 271.929688 C 517.75 276.289062 519.980469 281.414062 521.046875 287.007812 C 521.546875 289.671875 521.847656 292.367188 522.210938 295.097656 C 523.246094 295.726562 524.210938 295.128906 525.175781 294.863281 C 530.703125 293.296875 536.199219 291.632812 541.757812 290.136719 C 544.824219 289.304688 547.953125 288.738281 551.050781 288.074219 C 551.648438 287.9375 552.25 287.972656 552.847656 288.003906 C 553.679688 288.039062 554.445312 288.472656 554.546875 289.238281 C 554.613281 289.902344 554.414062 290.835938 553.945312 291.234375 C 553.179688 291.933594 552.183594 292.398438 551.214844 292.832031 C 547.21875 294.730469 542.992188 295.828125 538.695312 296.859375 C 533.101562 298.191406 527.539062 299.554688 521.746094 300.953125 C 521.480469 301.917969 521.179688 302.917969 520.914062 303.917969 C 517.351562 317 508.859375 324.886719 495.738281 327.949219 C 490.144531 329.25 484.550781 329.082031 479.125 327.382812 C 468.734375 324.1875 462.207031 317.066406 459.277344 306.714844 C 458.445312 303.816406 458.246094 300.789062 457.710938 297.59375 C 451.851562 297.359375 445.925781 296.558594 439.765625 295.394531 C 439.265625 296.628906 438.765625 297.859375 438.332031 299.089844 C 436.832031 303.285156 434.570312 307.011719 431.371094 310.140625 C 426.378906 315 420.351562 317.464844 413.425781 317.898438 C 408.695312 318.195312 404.066406 317.730469 399.570312 316.066406 C 384.554688 310.507812 379.59375 297.09375 381.359375 285.574219 C 381.492188 284.675781 381.589844 283.8125 381.757812 282.679688 C 380.957031 282.214844 380.257812 281.714844 379.492188 281.316406 C 376.53125 279.785156 373.53125 278.351562 370.636719 276.722656 C 368.636719 275.589844 366.90625 274.125 365.839844 271.996094 C 365.207031 270.761719 366.074219 269.296875 367.4375 269.53125 C 369.203125 269.832031 370.96875 270.332031 372.601562 271.0625 C 374.398438 271.894531 375.996094 273.058594 377.726562 274.023438 Z M 481.421875 509 C 486.082031 526.609375 484.917969 543.617188 480.65625 560.792969 C 479.554688 560.859375 478.359375 560.992188 477.191406 560.992188 C 464.90625 561.09375 452.683594 560.195312 440.464844 559.027344 C 437.933594 558.796875 435.433594 558.03125 432.90625 557.597656 C 427.742188 556.664062 425.378906 552.871094 423.78125 548.511719 C 422.449219 544.882812 422.683594 541.121094 423.480469 537.324219 C 425.347656 528.4375 430.074219 521.878906 438.367188 517.953125 C 443.726562 515.390625 449.386719 513.757812 455.214844 512.726562 C 461.773438 511.5625 468.367188 510.828125 474.960938 509.898438 C 477.027344 509.566406 479.125 509.296875 481.421875 509 Z M 481.421875 509 " fill-opacity="1" fill-rule="nonzero"/><path fill="#cb915a" d="M 685.644531 557.996094 C 696.765625 559.363281 707.921875 560.558594 719.042969 561.792969 C 711.019531 565.488281 702.828125 568.882812 694.503906 572.078125 C 633.964844 596.277344 573.425781 611.289062 508.0625 626.300781 C 496.9375 628.730469 487.25 629.699219 476.09375 631.628906 C 470.265625 632.59375 464.972656 632.59375 459.644531 633.558594 C 383.121094 644.210938 309.03125 648.570312 233.011719 641.316406 C 228.648438 640.816406 223.320312 640.351562 218.957031 639.851562 C 186.023438 635.023438 154.058594 631.128906 124.054688 616.117188 C 110.503906 609.324219 98.382812 599.171875 94.984375 583.195312 C 91.820312 570.511719 96.25 556.167969 105.175781 547.210938 C 105.308594 548.011719 105.441406 548.777344 105.574219 549.574219 C 107.304688 560.027344 109.171875 570.480469 110.769531 580.964844 C 111.203125 583.894531 112.367188 585.757812 115.230469 586.492188 C 116.097656 586.722656 116.929688 587.125 117.828125 587.355469 C 122.957031 588.6875 128.050781 590.121094 133.214844 591.316406 C 153.558594 596.042969 174.105469 599.90625 194.683594 603.535156 C 206.304688 605.597656 217.960938 607.527344 229.613281 609.390625 C 237.40625 610.625 245.199219 611.621094 253.023438 612.6875 C 258.71875 613.453125 264.445312 614.1875 270.140625 614.886719 C 276.597656 615.683594 283.058594 616.515625 289.550781 617.183594 C 297.078125 617.980469 304.636719 618.644531 312.195312 619.3125 C 321.71875 620.144531 331.210938 621.042969 340.734375 621.707031 C 349.957031 622.339844 359.214844 622.839844 368.4375 623.207031 C 372.167969 623.339844 375.996094 623.671875 379.625 622.074219 C 380.226562 621.808594 381.125 621.976562 381.824219 622.207031 C 384.6875 623.105469 387.484375 622.941406 390.347656 622.175781 C 396.175781 620.609375 402.136719 619.3125 407.863281 617.414062 C 427.542969 610.890625 447.191406 604.199219 466.804688 597.507812 C 483.152344 591.949219 499.269531 585.792969 515.21875 579.167969 C 518.78125 577.703125 522.011719 575.90625 523.878906 572.410156 C 527.375 572.511719 530.671875 572.644531 534 572.710938 C 544.921875 572.875 555.84375 572.84375 566.734375 571.8125 C 574.125 571.113281 581.550781 570.644531 588.910156 569.648438 C 597.46875 568.484375 605.992188 567.019531 614.449219 565.386719 C 625.9375 563.125 637.0625 559.695312 647.019531 553.203125 C 647.25 553.039062 647.582031 553.070312 647.785156 553.003906 C 660.402344 554.636719 673.023438 556.433594 685.644531 557.996094 Z M 419.882812 529.671875 C 420.417969 528.570312 420.882812 527.671875 421.449219 526.542969 C 420.382812 526.242188 419.550781 525.875 418.652344 525.777344 C 404.964844 524.078125 391.28125 522.445312 377.59375 520.78125 C 377.027344 520.714844 376.460938 520.882812 375.929688 520.949219 C 375.199219 522.28125 375.53125 523.445312 375.796875 525.175781 C 390.613281 526.675781 405.199219 528.171875 419.882812 529.671875 Z M 419.882812 529.671875 " fill-opacity="1" fill-rule="nonzero"/><path fill="#636466" d="M 509.625 567.515625 C 505.261719 566.953125 501.832031 567.984375 498.402344 569.316406 C 495.140625 570.578125 491.878906 571.710938 488.546875 572.808594 C 474.328125 577.503906 460.078125 582.195312 445.824219 586.855469 C 430.839844 591.71875 415.890625 596.578125 400.871094 601.335938 C 396.976562 602.570312 392.945312 603.367188 388.949219 604.167969 C 387.351562 604.5 385.652344 604.433594 384.023438 604.265625 C 383.1875 604.167969 382.289062 603.5 383.15625 602.136719 C 388.117188 602.300781 392.878906 600.769531 397.640625 599.304688 C 401.105469 598.242188 404.601562 597.175781 408.03125 596.011719 C 431.40625 588.121094 454.78125 580.234375 478.15625 572.34375 C 481.585938 571.179688 484.984375 570.046875 488.414062 568.914062 C 487.214844 568.351562 486.082031 568.28125 484.949219 568.214844 C 483.253906 568.082031 482.121094 567.285156 481.886719 565.453125 C 481.820312 565.054688 481.585938 564.6875 481.320312 564.089844 C 476.992188 566.683594 472.296875 566.820312 467.570312 566.550781 C 460.910156 566.1875 454.25 565.917969 447.589844 565.320312 C 442.160156 564.820312 436.765625 564.121094 431.507812 562.492188 C 428.34375 561.527344 425.777344 559.792969 423.847656 557.097656 C 422.449219 555.132812 420.984375 553.203125 419.519531 551.238281 C 418.253906 551.9375 417.085938 552.703125 415.855469 553.269531 C 412.390625 554.800781 408.960938 556.367188 405.433594 557.730469 C 402.734375 558.796875 399.90625 558.960938 396.941406 558.695312 C 390.914062 558.128906 384.886719 557.296875 378.925781 556.265625 C 378.394531 556.167969 377.859375 556.199219 377.296875 556.167969 C 377.394531 558.464844 377.527344 558.828125 378.925781 559.027344 C 383.421875 559.726562 387.917969 560.394531 392.414062 560.992188 C 397.808594 561.726562 403.234375 562.324219 408.628906 563.125 C 417.921875 564.523438 427.175781 565.984375 436.46875 567.484375 C 439.898438 568.050781 443.359375 568.617188 446.757812 569.316406 C 448.15625 569.613281 449.789062 569.679688 450.886719 571.179688 C 450.054688 573.742188 448.6875 575.640625 445.992188 576.605469 C 440.164062 578.703125 434.402344 581.097656 428.574219 583.164062 C 417.585938 587.058594 406.597656 590.917969 395.308594 593.914062 C 392.980469 594.546875 390.546875 594.847656 388.152344 595.113281 C 387.25 595.210938 386.351562 594.746094 386.71875 593.316406 C 387.285156 593.015625 387.949219 592.617188 388.648438 592.347656 C 390.480469 591.652344 392.3125 590.886719 394.210938 590.351562 C 411.261719 585.558594 427.875 579.367188 444.59375 573.574219 C 445.160156 573.375 445.589844 572.777344 446.390625 572.109375 C 441.695312 571.445312 437.5 570.878906 433.335938 570.3125 C 430.671875 571.546875 428.109375 572.910156 425.445312 573.910156 C 423.980469 574.441406 423.648438 575.773438 422.613281 576.835938 C 421.050781 576.636719 419.417969 576.503906 417.785156 576.238281 C 415.390625 575.871094 413.023438 575.441406 410.628906 575.039062 C 409.894531 574.941406 409.027344 574.707031 408.394531 574.941406 C 405.597656 576.039062 402.867188 577.304688 400.003906 578.535156 C 402.4375 580.167969 405.566406 579.335938 407.898438 581.765625 C 404.234375 582.230469 401.105469 581.832031 397.972656 581.363281 C 396.375 581.132812 395.011719 581.199219 393.777344 582.363281 C 392.414062 583.628906 390.746094 584.328125 388.949219 584.828125 C 388.117188 585.058594 387.351562 585.492188 386.550781 585.824219 C 386.953125 586.625 388.050781 586.789062 387.71875 588.054688 C 384.6875 588.855469 381.65625 587.988281 378.425781 587.589844 C 378.328125 588.355469 378.160156 589.085938 378.128906 589.820312 C 378.0625 591.949219 378.09375 594.082031 377.960938 596.175781 C 377.894531 597.210938 377.628906 598.273438 377.261719 599.238281 C 376.894531 600.238281 375.230469 600.4375 374.566406 599.574219 C 374.03125 598.875 373.53125 598.042969 373.332031 597.210938 C 372.699219 594.246094 371.96875 591.285156 371.765625 588.289062 C 371.300781 580.730469 371.167969 573.144531 370.867188 565.554688 C 370.46875 554.800781 370.070312 544.050781 369.667969 533.296875 C 369.402344 526.773438 369.136719 520.28125 368.769531 513.757812 C 368.039062 501.042969 367.304688 488.328125 366.441406 475.644531 C 365.472656 461.265625 364.410156 446.917969 363.375 432.570312 C 363.078125 428.644531 362.675781 424.714844 362.308594 420.789062 C 361.542969 412.800781 360.777344 404.808594 359.980469 396.820312 C 359.347656 390.628906 358.679688 384.472656 357.914062 378.3125 C 357.714844 376.714844 357.617188 374.953125 356.484375 373.917969 C 351.421875 373.152344 346.625 372.488281 341.863281 371.65625 C 332.472656 370.023438 323.117188 368.160156 313.695312 366.597656 C 303.539062 364.867188 293.382812 363.300781 283.191406 361.769531 C 275.566406 360.636719 267.875 359.707031 260.214844 358.640625 C 252.421875 357.574219 244.632812 356.410156 236.804688 355.378906 C 228.679688 354.3125 220.589844 353.316406 212.464844 352.351562 C 202.375 351.152344 192.320312 349.984375 182.230469 348.855469 C 178.597656 348.457031 175.003906 348.089844 171.375 347.722656 C 163.679688 346.925781 155.988281 346.089844 148.296875 345.359375 C 140.304688 344.59375 132.28125 343.960938 124.289062 343.261719 C 116.128906 342.53125 108.003906 341.765625 99.847656 341.03125 C 98.480469 340.898438 97.117188 340.898438 95.75 340.964844 C 94.851562 341.03125 93.820312 341.132812 93.152344 341.632812 C 90.089844 343.894531 87.425781 346.160156 87.558594 350.75 C 87.828125 362.269531 88.890625 373.753906 89.890625 385.238281 C 90.789062 395.488281 91.957031 405.742188 93.085938 415.996094 C 94.054688 425.046875 94.984375 434.070312 96.117188 443.089844 C 98.050781 458.4375 100.046875 473.746094 102.113281 489.058594 C 103.976562 502.875 105.972656 516.65625 107.972656 530.4375 C 110.003906 544.382812 112.101562 558.296875 114.199219 572.246094 C 114.632812 575.074219 115.097656 577.902344 115.5625 580.933594 C 116.796875 581.296875 117.894531 581.699219 119.0625 581.929688 C 122.757812 582.730469 126.488281 583.328125 130.183594 584.195312 C 155.257812 590.085938 180.5625 594.679688 205.90625 599.171875 C 217.992188 601.304688 230.113281 603.101562 242.234375 604.933594 C 254.355469 606.730469 266.507812 608.492188 278.695312 610.023438 C 290.71875 611.523438 302.804688 612.65625 314.824219 613.953125 C 318.589844 614.351562 322.351562 614.75 326.148438 615.117188 C 331.109375 615.617188 336.105469 616.082031 341.066406 616.550781 C 346.960938 617.082031 352.855469 617.613281 358.714844 618.113281 C 363.710938 618.546875 368.671875 618.945312 373.664062 619.378906 C 375.0625 619.511719 376.363281 619.445312 377.496094 618.414062 C 378.59375 617.414062 379.992188 617.28125 381.324219 617.78125 C 383.421875 618.546875 385.488281 618.28125 387.550781 617.648438 C 393.476562 615.851562 399.503906 614.320312 405.367188 612.289062 C 429.707031 603.898438 454.015625 595.511719 478.257812 586.855469 C 489.8125 582.730469 501.167969 578.070312 512.554688 573.574219 C 513.722656 573.109375 515.320312 573.042969 515.886719 571.378906 C 513.355469 570.746094 511.089844 569.613281 509.625 567.515625 Z M 242.734375 492.253906 C 236.441406 500.34375 225.851562 505.070312 213.898438 501.875 C 201.609375 498.613281 193.882812 490.492188 191.886719 477.941406 C 189.921875 465.726562 194.316406 455.507812 204.304688 448.117188 C 210 443.890625 216.425781 441.359375 223.753906 441.660156 C 227.417969 441.824219 230.445312 443.15625 232.808594 446.453125 C 232.710938 446.453125 232.609375 446.453125 232.542969 446.453125 C 233.410156 447.21875 234.175781 448.082031 234.910156 449.015625 C 234.941406 448.914062 234.941406 448.816406 235.007812 448.75 C 235.472656 447.949219 236.308594 448.183594 237.007812 448.617188 C 240.304688 450.679688 242.699219 453.574219 244.699219 456.835938 C 251.523438 467.890625 250.425781 482.335938 242.734375 492.253906 Z M 348.992188 380.011719 C 344.761719 379.546875 340.53125 379.144531 336.371094 378.480469 C 322.152344 376.183594 308 373.753906 293.78125 371.421875 C 281.0625 369.359375 268.375 367.261719 255.621094 365.429688 C 245.132812 363.933594 234.574219 362.769531 224.054688 361.46875 C 217.59375 360.671875 211.132812 359.804688 204.640625 359.105469 C 197.714844 358.339844 190.753906 357.707031 183.828125 356.976562 C 176.601562 356.210938 169.375 355.414062 162.117188 354.613281 C 158.488281 354.214844 154.890625 353.847656 151.261719 353.480469 C 142.667969 352.617188 134.078125 351.683594 125.488281 350.851562 C 117.195312 350.085938 108.871094 349.453125 100.578125 348.6875 C 98.347656 348.488281 96.117188 347.988281 93.921875 347.523438 C 93.6875 347.457031 93.488281 346.824219 93.421875 346.425781 C 93.386719 346.226562 93.6875 345.859375 93.921875 345.757812 C 94.484375 345.558594 95.085938 345.394531 95.652344 345.394531 C 97.78125 345.394531 99.914062 345.324219 102.011719 345.492188 C 111.234375 346.191406 120.460938 346.992188 129.648438 347.757812 C 134.179688 348.121094 138.707031 348.523438 143.234375 348.953125 C 147.765625 349.386719 152.292969 349.886719 156.789062 350.351562 C 160.417969 350.71875 164.015625 351.117188 167.644531 351.484375 C 177.734375 352.484375 187.855469 353.414062 197.945312 354.511719 C 207.136719 355.511719 216.292969 356.675781 225.484375 357.777344 C 233.742188 358.773438 242.035156 359.707031 250.292969 360.804688 C 257.351562 361.738281 264.378906 362.835938 271.402344 363.933594 C 278.128906 364.964844 284.890625 365.996094 291.617188 367.128906 C 303.105469 369.058594 314.625 370.992188 326.082031 373.054688 C 332.773438 374.253906 339.433594 375.75 346.09375 377.148438 C 347.558594 377.449219 349.023438 377.882812 350.488281 378.3125 C 350.824219 378.414062 351.054688 378.914062 351.320312 379.179688 C 350.789062 380.378906 349.824219 380.078125 348.992188 380.011719 Z M 368.871094 612.453125 C 368.871094 613.054688 368.304688 613.621094 367.738281 614.683594 C 367.140625 613.355469 366.640625 612.589844 366.472656 611.757812 C 366.105469 609.992188 365.808594 608.160156 365.671875 606.363281 C 365.273438 600.9375 364.808594 595.480469 364.609375 590.019531 C 364.242188 579.269531 364.007812 568.515625 363.710938 557.765625 C 363.308594 543.382812 363.109375 528.972656 362.476562 514.589844 C 361.945312 501.875 360.980469 489.191406 360.144531 476.476562 C 359.480469 466.492188 358.8125 456.539062 357.980469 446.550781 C 357.316406 438.398438 356.449219 430.273438 355.683594 422.121094 C 354.953125 414.429688 354.21875 406.742188 353.519531 399.050781 C 353.152344 394.992188 352.753906 390.894531 352.453125 386.835938 C 352.386719 385.835938 352.585938 384.804688 352.652344 383.804688 C 353.917969 383.804688 354.152344 384.539062 354.253906 385.304688 C 354.550781 387.566406 354.851562 389.796875 355.085938 392.0625 C 356.117188 401.847656 357.148438 411.632812 358.113281 421.453125 C 359.246094 433.070312 360.414062 444.65625 361.410156 456.304688 C 362.277344 466.425781 362.941406 476.542969 363.574219 486.695312 C 364.410156 499.410156 365.109375 512.09375 365.875 524.808594 C 365.941406 525.875 366.007812 526.941406 366.039062 528.003906 C 366.441406 542.851562 366.738281 557.699219 367.207031 572.542969 C 367.570312 583.59375 368.171875 594.644531 368.671875 605.699219 C 368.804688 607.929688 368.902344 610.191406 368.871094 612.453125 Z M 704.425781 554.167969 C 687.277344 552.539062 670.527344 550.90625 653.777344 549.308594 C 653.34375 549.277344 652.945312 548.976562 652.480469 548.808594 C 652.746094 548.378906 652.945312 547.945312 653.246094 547.613281 C 658.90625 541.652344 662.46875 534.53125 665.097656 526.839844 C 667.53125 519.652344 669.160156 512.226562 670.195312 504.738281 C 671.058594 498.445312 671.792969 492.089844 671.925781 485.730469 C 672.457031 459.734375 665.566406 435.699219 651.914062 413.632812 C 645.820312 403.777344 638.792969 394.691406 630.46875 386.636719 C 629.601562 385.804688 628.804688 384.9375 627.503906 383.671875 C 628.769531 383.539062 629.4375 383.375 630.101562 383.441406 C 632.664062 383.738281 635.195312 384.140625 637.761719 384.472656 C 646.785156 385.671875 655.773438 386.769531 664.800781 388.035156 C 674.390625 389.363281 683.945312 391.0625 693.304688 393.691406 C 695.902344 394.425781 698.496094 395.421875 700.929688 396.589844 C 707.1875 399.585938 711.652344 404.445312 714.746094 410.570312 C 717.445312 415.863281 719.175781 421.519531 720.34375 427.34375 C 722.738281 439.496094 722.738281 451.746094 721.742188 464.027344 C 721.207031 470.351562 720.441406 476.675781 719.675781 483 C 718.109375 495.785156 715.679688 508.433594 712.648438 520.949219 C 710.351562 530.535156 707.886719 540.054688 705.492188 549.609375 C 705.125 551.007812 704.792969 552.472656 704.425781 554.167969 Z M 708.320312 437.230469 C 708.320312 434.035156 708.320312 431.9375 708.320312 429.808594 C 708.355469 423.71875 707.65625 417.726562 705.824219 411.898438 C 705.65625 411.335938 705.390625 410.769531 705.089844 410.269531 C 704.992188 410.101562 704.523438 410.070312 704.292969 410.136719 C 704.058594 410.203125 703.757812 410.503906 703.726562 410.734375 C 703.691406 411.335938 703.726562 411.933594 703.824219 412.53125 C 704.226562 415.0625 704.757812 417.59375 705.023438 420.15625 C 705.691406 427.113281 705.359375 434.101562 704.625 441.027344 C 703.527344 451.84375 701.960938 462.628906 700.5625 473.449219 C 698.398438 490.125 695.203125 506.601562 691.503906 522.980469 C 690.371094 528.003906 689.140625 533 688.109375 538.023438 C 687.710938 539.921875 687.808594 541.917969 687.710938 543.851562 C 687.710938 544.050781 688.042969 544.351562 688.273438 544.417969 C 688.507812 544.484375 688.941406 544.449219 689.109375 544.28125 C 689.539062 543.882812 690.007812 543.417969 690.171875 542.886719 C 691.140625 540.023438 692.203125 537.191406 692.902344 534.261719 C 694.703125 526.773438 696.566406 519.285156 698.03125 511.695312 C 699.929688 501.910156 701.59375 492.054688 703.09375 482.203125 C 704.257812 474.746094 705.125 467.222656 705.957031 459.699219 C 706.890625 451.84375 707.621094 444.023438 708.320312 437.230469 Z M 515.652344 497.28125 C 515.285156 497.878906 514.6875 498.878906 514.15625 499.777344 C 513.621094 499.878906 513.320312 500.011719 513.023438 499.976562 C 506.660156 498.878906 500.335938 500.109375 493.976562 500.175781 C 491.878906 500.210938 489.78125 500.675781 487.679688 501.078125 C 485.25 501.542969 483.1875 502.773438 481.488281 504.636719 C 479.855469 504.539062 478.390625 504.4375 476.859375 504.339844 C 478.457031 498.511719 479.15625 492.789062 479.921875 487.097656 C 481.121094 478.242188 482.253906 469.386719 483.386719 460.53125 C 484.152344 454.375 484.851562 448.214844 485.617188 442.058594 C 485.683594 441.625 485.816406 441.191406 485.949219 440.628906 C 487.582031 440.628906 489.214844 440.695312 490.8125 440.628906 C 492.308594 440.558594 493.84375 440.359375 495.339844 440.261719 C 496.972656 440.128906 498.605469 439.527344 500.367188 440.0625 C 504.265625 459.234375 510.125 477.976562 515.652344 497.28125 Z M 376.195312 535.628906 C 379.359375 536.195312 381.992188 536.792969 384.621094 537.125 C 391.8125 538.089844 399.007812 539.023438 406.199219 539.824219 C 409.960938 540.253906 413.625 541.054688 417.289062 542.085938 C 418.085938 543.683594 418.1875 545.28125 418.152344 547.046875 C 412.925781 550.242188 407.597656 553.039062 401.835938 554.867188 C 400.304688 555.367188 398.539062 555.535156 396.941406 555.367188 C 391.378906 554.800781 385.851562 554.035156 380.292969 553.304688 C 379.261719 553.171875 378.261719 552.90625 377.0625 552.671875 C 376.261719 546.980469 376.394531 541.453125 376.195312 535.628906 Z M 505.03125 429.011719 C 501.699219 433.503906 497.503906 435.203125 492.542969 435.335938 C 491.777344 435.367188 491.011719 435.335938 490.277344 435.402344 C 485.648438 435.734375 482.054688 433.96875 479.222656 429.941406 C 480.523438 424.683594 481.855469 419.289062 483.253906 413.632812 C 489.113281 413.363281 494.808594 413.097656 500.800781 412.832031 C 502.765625 418.058594 503.464844 423.617188 505.03125 429.011719 Z M 376.164062 532.566406 C 376.164062 531.234375 376.164062 530.367188 376.164062 529.203125 C 379.125 528.90625 381.824219 530.035156 384.621094 530.167969 C 387.316406 530.269531 390.015625 530.769531 392.746094 531.101562 C 395.609375 531.433594 398.441406 531.765625 401.304688 532.101562 C 404 532.398438 406.699219 532.699219 409.429688 533.03125 C 412.257812 533.363281 415.089844 533.730469 417.820312 534.0625 C 418.21875 535.996094 418.21875 535.996094 417.785156 537.691406 C 417.519531 537.792969 417.222656 537.992188 416.988281 537.925781 C 410.925781 536.59375 404.765625 536.027344 398.574219 535.394531 C 391.214844 534.695312 383.886719 533.796875 376.164062 532.566406 Z M 377.363281 561.09375 C 388.050781 562.925781 398.207031 564.6875 409.296875 566.617188 C 406.265625 567.652344 404.167969 568.449219 402.003906 569.046875 C 400.871094 569.347656 399.605469 569.347656 398.472656 569.214844 C 391.613281 568.28125 384.789062 567.285156 377.929688 566.285156 C 376.996094 564.589844 377.261719 562.992188 377.363281 561.09375 Z M 408.664062 570.445312 C 410.394531 569.648438 412.125 568.75 413.890625 568.050781 C 414.691406 567.75 415.65625 567.652344 416.488281 567.75 C 419.882812 568.214844 423.28125 568.816406 426.675781 569.347656 C 426.3125 570.480469 425.414062 570.679688 424.578125 571.046875 C 422.515625 571.910156 420.484375 573.34375 418.351562 573.507812 C 416.222656 573.675781 413.992188 572.609375 411.792969 572.042969 C 410.792969 571.8125 409.796875 571.546875 408.796875 571.277344 C 408.761719 571.011719 408.730469 570.714844 408.664062 570.445312 Z M 386.253906 575.871094 C 388.183594 574.273438 389.515625 573.144531 391.082031 571.84375 C 394.144531 572.144531 397.40625 572.542969 401.039062 573.808594 C 398.871094 575.007812 397.109375 575.972656 395.375 576.9375 C 395.109375 577.070312 394.84375 577.269531 394.542969 577.269531 C 393.777344 577.269531 393.046875 577.269531 392.3125 577.136719 C 390.546875 576.804688 388.785156 576.40625 386.253906 575.871094 Z M 378.328125 583.996094 C 377.960938 581.929688 377.859375 580.167969 378.359375 578.136719 C 382.191406 578.867188 385.820312 579.535156 389.78125 580.265625 C 389.050781 580.867188 388.648438 581.296875 388.152344 581.566406 C 386.253906 582.464844 384.289062 583.230469 382.421875 584.128906 C 381.089844 584.792969 379.859375 584.660156 378.328125 583.996094 Z M 388.484375 571.179688 C 386.019531 572.609375 384.355469 573.574219 382.691406 574.542969 C 381.222656 575.375 379.792969 574.875 378.09375 574.375 C 377.628906 572.808594 377.230469 571.144531 378.027344 569.214844 C 381.324219 569.8125 384.519531 570.445312 388.484375 571.179688 Z M 388.484375 571.179688 " fill-opacity="1" fill-rule="nonzero"/><path fill="#ffffff" d="M 230.3125 446.253906 C 231.011719 446.484375 231.777344 446.417969 232.542969 446.453125 C 233.410156 447.21875 234.175781 448.082031 234.910156 449.015625 C 234.808594 449.414062 234.941406 449.980469 235.109375 450.347656 C 235.507812 451.144531 236.171875 451.8125 236.640625 452.578125 C 238.40625 455.40625 240.371094 458.136719 241.867188 461.097656 C 246.730469 470.785156 245.832031 480.171875 239.738281 488.992188 C 235.074219 495.75 228.25 498.980469 220.222656 498.613281 C 206.105469 497.980469 195.316406 487.164062 195.449219 472.449219 C 195.546875 463.628906 199.277344 456.238281 206.40625 450.945312 C 213.5625 445.652344 221.421875 443.191406 230.3125 446.253906 Z M 511.789062 563.089844 C 512.789062 565.320312 514.71875 566.054688 516.953125 566.1875 C 518.75 566.320312 520.582031 566.351562 522.414062 566.386719 C 536.363281 566.550781 550.316406 566.917969 564.234375 565.585938 C 572.09375 564.855469 579.953125 564.421875 587.777344 563.355469 C 596.46875 562.191406 605.128906 560.660156 613.75 558.960938 C 622.078125 557.332031 630.203125 554.867188 637.828125 551.007812 C 644.785156 547.480469 650.246094 542.417969 654.144531 535.660156 C 656.40625 531.699219 658.171875 527.507812 659.472656 523.144531 C 663.867188 508.035156 665.929688 492.65625 665.199219 476.910156 C 664.667969 464.695312 662.335938 452.84375 658.074219 441.425781 C 647.816406 413.863281 630.566406 391.761719 605.992188 375.484375 C 605.261719 375.019531 604.429688 374.683594 603.664062 374.285156 C 601.464844 376.015625 599.566406 377.746094 597.402344 379.144531 C 594.972656 380.710938 593.539062 382.742188 592.773438 385.535156 C 591.308594 390.863281 588.046875 394.992188 583.515625 398.085938 C 579.652344 400.75 575.789062 403.410156 571.726562 405.84375 C 557.542969 414.296875 542.992188 422.121094 528.171875 429.410156 C 526.140625 430.40625 524.109375 431.441406 521.980469 432.207031 C 519.582031 433.070312 517.117188 434.035156 514.585938 434.300781 C 512.257812 434.535156 509.859375 433.9375 507.195312 433.671875 C 506.394531 434.769531 505.464844 436.101562 504.363281 437.597656 C 505.597656 442.425781 506.761719 447.285156 508.0625 452.109375 C 509.292969 456.804688 510.65625 461.464844 511.957031 466.125 C 513.320312 470.917969 514.71875 475.710938 516.019531 480.539062 C 517.285156 485.296875 518.449219 490.058594 519.648438 494.851562 C 522.746094 494.054688 525.476562 493.1875 528.304688 492.65625 C 536.332031 491.089844 544.390625 489.691406 552.414062 488.128906 C 557.175781 487.195312 561.804688 485.796875 566.234375 483.699219 C 574.257812 479.90625 578.355469 473.546875 578.054688 463.496094 C 577.921875 458.667969 577.324219 453.84375 576.125 449.113281 C 575.558594 446.917969 575.191406 444.65625 574.859375 442.425781 C 574.757812 441.792969 575.125 441.09375 575.359375 439.996094 C 576.324219 440.628906 576.988281 440.960938 577.488281 441.425781 C 579.820312 443.6875 581.285156 446.484375 582.351562 449.515625 C 583.984375 454.140625 584.613281 458.96875 584.582031 463.828125 C 584.480469 477.777344 577.890625 485.398438 568.03125 489.660156 C 564.570312 491.15625 560.941406 492.421875 557.277344 493.253906 C 549.882812 494.917969 542.457031 496.316406 534.933594 497.28125 C 530.304688 497.878906 525.710938 498.980469 521.113281 499.910156 C 520.113281 500.109375 518.816406 500.445312 518.25 501.175781 C 516.253906 503.773438 513.386719 504.140625 510.558594 504.4375 C 506.796875 504.835938 503 505.039062 499.238281 505.304688 C 495.472656 505.570312 491.675781 505.835938 487.914062 506.167969 C 487.214844 506.234375 486.550781 506.601562 485.617188 506.902344 C 486.382812 510.464844 487.148438 513.824219 487.847656 517.21875 C 489.082031 523.179688 489.980469 529.136719 489.980469 535.230469 C 489.980469 541.1875 488.945312 547.011719 487.949219 552.804688 C 487.414062 555.933594 486.082031 558.863281 484.453125 561.625 C 484.117188 562.160156 483.152344 562.492188 483.820312 563.621094 C 492.777344 562.921875 501.734375 561.09375 510.925781 561.992188 C 511.222656 562.390625 511.625 562.691406 511.789062 563.089844 Z M 520.082031 552.605469 C 519.648438 553.871094 519.117188 555.132812 518.449219 556.332031 C 518.117188 556.964844 517.515625 557.566406 516.886719 557.898438 C 516.453125 558.128906 515.71875 558.097656 515.21875 557.898438 C 514.921875 557.796875 514.621094 557.097656 514.6875 556.765625 C 514.921875 555.601562 515.253906 554.4375 515.652344 553.304688 C 517.183594 549.210938 518.582031 545.082031 519.414062 540.753906 C 521.546875 529.535156 521.546875 518.519531 516.652344 507.898438 C 516.519531 507.632812 516.417969 507.300781 516.453125 507.035156 C 516.484375 506.769531 516.75 506.535156 516.953125 506.335938 C 517.019531 506.269531 517.285156 506.300781 517.382812 506.367188 C 518.015625 506.96875 518.78125 507.535156 519.148438 508.265625 C 520.914062 511.792969 522.011719 515.589844 522.644531 519.484375 C 523.210938 522.914062 523.410156 526.375 523.609375 528.539062 C 523.34375 537.59375 522.546875 545.214844 520.082031 552.605469 Z M 375.363281 515.621094 C 375.128906 512.960938 374.832031 510.230469 374.699219 507.5 C 374.265625 499.644531 373.933594 491.757812 373.433594 483.898438 C 372.734375 473.480469 371.902344 463.0625 371.101562 452.644531 C 371.035156 451.746094 370.867188 450.8125 370.96875 449.914062 C 371.035156 449.214844 371.335938 448.484375 371.632812 447.816406 C 371.800781 447.417969 372.199219 447.117188 372.46875 446.75 C 378.394531 438.863281 384.320312 431.039062 390.183594 423.117188 C 394.078125 417.859375 398.273438 412.898438 403.269531 408.671875 C 406.929688 405.574219 411.160156 403.644531 415.820312 402.613281 C 416.222656 402.511719 416.6875 402.714844 417.1875 402.8125 C 417.355469 403.246094 417.585938 403.644531 417.585938 404.078125 C 417.652344 407.804688 419.683594 410.367188 422.617188 412.234375 C 426.578125 414.761719 430.507812 417.359375 434.703125 419.421875 C 443.660156 423.816406 452.816406 427.84375 461.875 432.074219 C 466.238281 434.101562 470.933594 434.335938 475.5625 435 C 476.125 435.066406 476.726562 434.800781 477.359375 434.703125 C 479.058594 436.199219 480.753906 437.699219 482.488281 439.230469 C 481.289062 446.75 480.089844 454.375 478.890625 461.964844 C 477.527344 470.484375 475.960938 478.972656 474.929688 487.527344 C 474.261719 492.886719 474.429688 498.378906 474.195312 504.074219 C 473.894531 504.140625 473.328125 504.371094 472.761719 504.371094 C 463.605469 504.472656 454.714844 506.269531 445.957031 508.800781 C 440.695312 510.332031 435.667969 512.394531 431.140625 515.488281 C 430.773438 515.722656 430.339844 515.855469 429.941406 516.054688 C 428.941406 515.621094 429.273438 514.789062 429.308594 514.160156 C 429.875 507.5 429.640625 500.84375 429.476562 494.1875 C 429.207031 482.203125 429.175781 470.253906 429.042969 458.269531 C 429.007812 454.339844 429.042969 450.378906 429.007812 446.453125 C 429.007812 445.554688 429.007812 444.621094 428.941406 443.722656 C 428.84375 442.191406 427.875 440.960938 426.910156 441.226562 C 425.679688 441.558594 425.414062 442.558594 425.3125 443.691406 C 425.046875 447.019531 424.613281 450.3125 424.546875 453.640625 C 424.347656 462.597656 424.28125 471.515625 424.179688 480.472656 C 424.179688 481.535156 424.179688 482.570312 424.179688 483.566406 C 411.691406 494.851562 399.304688 506.003906 387.019531 517.085938 C 383.15625 517.1875 377.996094 516.554688 375.363281 515.621094 Z M 584.980469 387.734375 C 583.816406 390.628906 581.785156 392.628906 579.386719 394.257812 C 575.757812 396.722656 572.160156 399.25 568.398438 401.515625 C 554.28125 410.035156 539.761719 417.890625 525.078125 425.382812 C 522.378906 426.746094 519.582031 427.910156 516.816406 429.144531 C 515.019531 429.941406 513.121094 430.375 511.191406 430.140625 C 509.558594 427.246094 506.195312 416.660156 505.664062 412.800781 C 507.128906 412.066406 508.792969 411.933594 510.425781 411.765625 C 528.273438 409.769531 545.523438 405.507812 562.203125 398.886719 C 568.964844 396.1875 575.492188 393.058594 581.816406 389.464844 C 582.882812 388.867188 583.949219 388.300781 584.980469 387.734375 Z M 479.125 413.5 C 477.492188 420.523438 475.226562 427.378906 473.628906 430.273438 C 472.664062 430.808594 471.863281 430.140625 471.066406 429.84375 C 456.214844 424.082031 441.695312 417.625 427.84375 409.769531 C 425.644531 408.503906 423.246094 407.40625 421.847656 404.675781 C 422.648438 404.675781 423.214844 404.542969 423.714844 404.710938 C 434.035156 407.738281 444.59375 409.902344 455.25 411.335938 C 462.140625 412.265625 469.132812 412.632812 476.058594 413.265625 C 476.960938 413.332031 477.859375 413.398438 479.125 413.5 Z M 465.4375 307.414062 C 468.566406 315.269531 474.195312 320.425781 482.554688 322.125 C 485.617188 322.757812 488.914062 322.789062 492.042969 322.457031 C 503.664062 321.226562 512.257812 313.269531 514.753906 303.152344 C 516.253906 297.125 515.984375 291.132812 514.1875 285.242188 C 511.089844 274.957031 503.632812 269.363281 493.773438 266.46875 C 492.777344 266.167969 491.675781 266.070312 490.644531 266.035156 C 483.054688 265.804688 476.726562 268.597656 471.730469 274.257812 C 466.171875 280.515625 463.441406 287.871094 463.574219 296.292969 C 463.574219 300.953125 464.007812 303.816406 465.4375 307.414062 Z M 489.980469 310.675781 C 489.710938 311.804688 489.113281 312.9375 488.449219 313.9375 C 486.25 317.132812 482.6875 316.867188 480.855469 313.4375 C 480.421875 312.671875 480.1875 311.773438 479.988281 310.875 C 478.625 304.75 479.789062 298.890625 481.855469 293.132812 C 482.019531 292.699219 482.253906 292.300781 482.488281 291.933594 C 483.417969 290.535156 484.851562 290.070312 486.417969 290.636719 C 488.914062 291.535156 490.410156 293.332031 490.84375 295.894531 C 491.179688 297.957031 491.277344 300.089844 491.511719 302.550781 C 491.078125 305.082031 490.644531 307.910156 489.980469 310.675781 Z M 401.871094 310.675781 C 406.367188 312.238281 410.992188 312.605469 415.753906 311.738281 C 422.25 310.542969 427.308594 307.246094 430.605469 301.554688 C 434.070312 295.59375 435.167969 289.070312 434.269531 282.28125 C 433.902344 279.449219 433.105469 276.65625 432.503906 273.824219 C 432.171875 272.292969 431.4375 271.03125 430.140625 270.0625 C 427.84375 268.367188 425.613281 266.46875 423.214844 264.90625 C 415.988281 260.246094 408.496094 260.378906 401.335938 264.804688 C 392.179688 270.429688 387.382812 278.820312 386.953125 289.601562 C 386.683594 300.054688 392.777344 307.511719 401.871094 310.675781 Z M 412.359375 301.953125 C 411.757812 304.082031 410.429688 305.78125 407.964844 305.980469 C 406.132812 306.113281 404.367188 304.714844 403.46875 302.121094 C 401.738281 297.09375 401.738281 292.035156 403.566406 287.039062 C 404.199219 285.277344 405.265625 283.84375 406.996094 283.011719 C 409.027344 282.046875 410.960938 282.648438 411.925781 284.675781 C 413.324219 287.605469 413.824219 290.703125 413.890625 293.996094 C 413.425781 296.660156 413.089844 299.355469 412.359375 301.953125 Z M 412.359375 301.953125 " fill-opacity="1" fill-rule="nonzero"/></svg>