<svg xmlns="http://www.w3.org/2000/svg" xmlns:xlink="http://www.w3.org/1999/xlink" width="1080" zoomAndPan="magnify" viewBox="0 0 810 809.999993" height="1080" preserveAspectRatio="xMidYMid meet" version="1.0"><defs><g/></defs><path fill="#000000" d="M 551.613281 365.074219 C 552.386719 366.566406 553.132812 368.03125 553.929688 369.496094 C 555.15625 371.707031 556.96875 373.570312 557.660156 376.128906 C 557.898438 376.980469 558.886719 377.699219 559.683594 378.285156 C 569.75 385.691406 576.144531 395.8125 580.671875 407.183594 C 585.121094 418.449219 587.941406 430.140625 589.195312 442.207031 C 590.339844 453.207031 591.085938 464.207031 590.367188 475.261719 C 589.859375 482.878906 589.648438 490.546875 588.929688 498.136719 C 588.234375 505.410156 587.277344 512.652344 584.984375 519.632812 C 584.453125 521.230469 583.734375 522.800781 582.882812 524.238281 C 582.507812 524.851562 582.054688 525.277344 581.550781 525.570312 C 581.578125 525.542969 581.605469 525.542969 581.628906 525.519531 C 581.230469 527.410156 580.699219 529.300781 580.378906 531.191406 C 580.378906 531.21875 580.40625 531.21875 580.40625 531.242188 C 581.445312 532.628906 581.683594 534.175781 581.46875 536.011719 C 581.097656 539.3125 580.140625 542.269531 578.007812 544.722656 C 584.558594 552.738281 584.746094 556.546875 579.101562 567.625 C 579.472656 567.890625 579.847656 568.34375 580.273438 568.453125 C 586.636719 569.996094 592.070312 573.566406 597.824219 576.46875 C 599.875 577.507812 601.046875 579.292969 602.003906 581.394531 C 605.789062 589.492188 606.585938 598.015625 605.945312 606.777344 C 605.679688 610.347656 605.546875 613.914062 605.414062 617.457031 C 605.015625 628.484375 604.75 639.535156 604.296875 650.5625 C 604.03125 656.664062 603.550781 662.761719 603.070312 668.859375 C 602.964844 670.351562 602.566406 671.898438 601.976562 673.253906 C 601.792969 673.679688 601.234375 674.082031 600.671875 674.320312 C 600.355469 677.0625 599.234375 679.621094 597.238281 681.378906 C 597.210938 681.273438 597.15625 681.140625 597.105469 681.03125 C 597.078125 680.980469 597.050781 680.925781 597.023438 680.871094 C 597.050781 680.925781 597.078125 680.980469 597.105469 681.03125 C 597.664062 682.230469 597.398438 683.375 596.597656 684.363281 C 595.265625 686.011719 593.429688 686.945312 591.484375 687.585938 C 589.246094 688.332031 586.929688 688.941406 584.613281 689.449219 C 573.292969 691.953125 561.816406 693.125 550.230469 692.992188 C 548.550781 692.964844 546.875 692.589844 545.195312 692.296875 C 542.265625 691.738281 539.84375 690.222656 537.765625 688.117188 C 536.59375 686.917969 535.472656 685.691406 534.277344 684.414062 C 533.289062 685 532.492188 685.667969 531.558594 686.011719 C 530.972656 686.226562 530.386719 686.28125 529.878906 686.199219 C 529.429688 688.0625 530.066406 689.929688 530.894531 691.792969 C 531.425781 691.710938 531.984375 691.792969 532.570312 692.003906 C 534.089844 692.617188 535.046875 693.761719 535.875 695.070312 C 539.390625 700.582031 539.203125 707.480469 535.367188 712.804688 C 533.128906 715.921875 530.175781 718.132812 526.816406 719.917969 C 520.878906 723.0625 514.488281 724.605469 507.933594 725.777344 C 502.742188 726.710938 497.46875 726.921875 492.195312 726.976562 C 480.289062 727.109375 468.382812 727.054688 456.558594 725.644531 C 450.324219 724.898438 444.148438 723.753906 437.996094 722.476562 C 435.382812 721.941406 432.800781 720.824219 430.429688 719.542969 C 428.378906 718.425781 426.433594 716.90625 424.890625 715.175781 C 421.722656 711.609375 420.894531 707.398438 422.707031 702.84375 C 423.957031 699.648438 425.554688 696.691406 427.820312 694.082031 C 428.804688 692.9375 429.816406 691.792969 431.015625 690.433594 C 426.78125 688.996094 425.289062 685.695312 424.675781 681.832031 C 424.066406 677.96875 423.238281 674.132812 423 670.246094 C 422.414062 660.925781 422.175781 651.574219 421.722656 642.226562 C 421.507812 637.992188 421.1875 633.757812 420.867188 629.523438 C 420.789062 628.511719 420.601562 627.5 420.335938 626.511719 C 419.671875 624.0625 418.179688 622.304688 415.675781 621.558594 C 415.195312 621.398438 414.714844 621.1875 414.238281 621.054688 C 411.519531 620.335938 403.582031 620.386719 399.800781 621.1875 C 399.003906 624.996094 398.042969 628.9375 397.378906 632.933594 C 395.886719 641.800781 394.609375 650.722656 393.117188 659.59375 C 392.265625 664.597656 391.304688 669.632812 390.054688 674.535156 C 388.457031 680.738281 384.699219 685.480469 379.082031 688.597656 C 378.066406 689.15625 376.871094 689.554688 375.722656 689.582031 C 375.671875 689.582031 375.617188 689.582031 375.566406 689.582031 C 375.992188 691.285156 376.417969 692.964844 376.710938 694.617188 C 377.269531 694.75 377.800781 695.121094 378.226562 695.546875 C 381.078125 698.398438 381.984375 701.941406 381.558594 705.828125 C 381.023438 710.621094 378.761719 714.484375 375.085938 717.601562 C 371.941406 720.265625 368.320312 722.15625 364.433594 723.460938 C 359.265625 725.191406 353.9375 726.203125 348.53125 726.84375 C 331.753906 728.839844 314.945312 728.441406 298.140625 727.640625 C 290.871094 727.296875 283.519531 726.816406 276.460938 724.765625 C 273.050781 723.78125 269.75 722.367188 266.550781 720.851562 C 264.902344 720.078125 263.410156 718.824219 262.105469 717.519531 C 256.910156 712.40625 256.539062 706.972656 260.105469 700.875 C 261.625 698.292969 263.863281 696.082031 265.914062 693.523438 C 265.195312 692.351562 264.476562 691.019531 263.570312 689.820312 C 262.183594 688.039062 261.304688 686.039062 260.773438 683.882812 C 259.175781 677.277344 258.003906 670.59375 257.65625 663.773438 C 257.125 653.414062 256.378906 643.078125 256.03125 632.71875 C 255.710938 623.371094 255.792969 614.023438 255.6875 604.671875 C 255.660156 603.023438 255.980469 601.316406 255.339844 599.507812 C 254.566406 599.453125 253.929688 599.347656 253.289062 599.375 C 244.179688 600.011719 236.722656 596.230469 230.25 590.316406 C 224.550781 585.097656 221.410156 578.304688 220.101562 570.742188 C 219.222656 565.574219 220.183594 560.59375 223.03125 556.066406 C 223.859375 554.789062 224.710938 553.511719 225.667969 552.070312 C 224.523438 550.847656 223.324219 549.703125 222.289062 548.421875 C 219.570312 545.09375 218.132812 541.445312 219.492188 537.078125 C 219.730469 536.277344 219.730469 535.371094 219.96875 534.574219 C 220.554688 532.789062 220.980469 531.058594 220.15625 529.167969 C 219.808594 528.394531 220.449219 527.460938 221.328125 527.195312 C 221.914062 527.035156 222.5 526.929688 223.085938 526.902344 C 222.738281 525.597656 222.472656 524.265625 222.179688 522.90625 C 221.621094 523.015625 221.035156 522.933594 220.636719 522.5625 C 220.15625 522.109375 219.570312 521.601562 219.382812 520.988281 C 218.773438 519.074219 218.105469 517.128906 217.8125 515.128906 C 216.453125 505.328125 216.535156 495.527344 217.574219 485.648438 C 219.464844 467.800781 223.433594 450.492188 230.011719 433.816406 C 234.007812 423.671875 239.066406 414.054688 245.164062 405 C 247.242188 401.910156 249.558594 398.953125 251.902344 396.050781 C 255.019531 392.164062 258.667969 388.914062 263.195312 387.101562 C 264.476562 383.960938 265.699219 381.003906 266.871094 378.101562 C 266.152344 376.582031 264.714844 376.394531 263.515625 375.941406 C 253.527344 372.027344 244.074219 367.019531 235.097656 361.132812 C 220.742188 351.707031 208.25 340.359375 199.007812 325.683594 C 190.246094 311.78125 184.492188 296.679688 182.550781 280.222656 C 180.953125 266.691406 180.445312 253.109375 182.46875 239.550781 C 184.628906 224.980469 189.234375 211.1875 195.972656 198.082031 C 201.566406 187.164062 208.277344 176.960938 215.414062 167 C 219.785156 160.929688 224.257812 154.960938 228.652344 148.917969 C 231.957031 144.363281 235.765625 140.234375 239.734375 136.265625 C 240.929688 135.066406 242.289062 134.054688 243.886719 132.667969 C 244.019531 131.921875 244.261719 130.777344 244.445312 129.605469 C 245.164062 125.425781 246.019531 121.269531 247.5625 117.273438 C 249.585938 112.054688 251.503906 106.78125 253.660156 101.613281 C 254.832031 98.792969 256.324219 96.128906 257.789062 93.4375 C 258.617188 91.945312 259.65625 90.613281 260.667969 89.230469 C 265.195312 82.972656 271.398438 81.265625 278.671875 82.730469 C 281.148438 83.238281 283.625 83.929688 285.996094 84.835938 C 292.042969 87.125 297.792969 90.027344 303.359375 93.304688 C 304.371094 93.917969 305.359375 94.582031 306.261719 95.355469 C 309.058594 97.699219 309.300781 99.164062 307.542969 102.652344 C 307.570312 102.652344 307.59375 102.652344 307.621094 102.652344 C 307.570312 102.707031 307.542969 102.761719 307.488281 102.8125 C 308.289062 102.574219 309.140625 102.46875 309.832031 102.066406 C 317.875 97.484375 326.664062 94.957031 335.5625 92.691406 C 346.746094 89.84375 358.066406 87.660156 369.519531 86.328125 C 380.304688 85.074219 391.066406 83.636719 401.878906 82.652344 C 415.328125 81.425781 428.753906 80.894531 442.148438 81.558594 C 460.285156 82.464844 478.34375 84.25 495.921875 89.363281 C 504.660156 91.894531 512.703125 95.726562 520.425781 100.550781 C 524.792969 98.925781 529.214844 97.21875 533.636719 95.621094 C 542.613281 92.371094 551.960938 90.667969 561.253906 88.804688 C 562.242188 88.589844 563.28125 88.644531 564.292969 88.5625 C 567.699219 88.296875 570.179688 89.816406 572.042969 92.53125 C 573.773438 95.0625 574.945312 97.886719 575.824219 100.84375 C 578.195312 108.832031 579.710938 117.007812 580.859375 125.238281 C 581.125 127.261719 581.46875 129.261719 581.710938 131.285156 C 581.921875 133.148438 581.871094 135.039062 580.859375 136.71875 C 580.644531 137.089844 580.378906 137.410156 580.113281 137.648438 C 581.175781 138.527344 582.324219 139.25 583.496094 139.914062 C 583.894531 139.726562 584.320312 139.621094 584.828125 139.621094 C 585.8125 139.648438 586.824219 139.941406 587.757812 140.3125 C 590.792969 141.539062 593.375 143.402344 595.691406 145.746094 C 601.820312 151.953125 607.011719 158.878906 611.246094 166.46875 C 619.476562 181.304688 625.070312 197.070312 627.839844 213.824219 C 629.066406 221.199219 629.863281 228.632812 629.863281 236.113281 C 629.8125 253.320312 626.480469 269.859375 619.796875 285.707031 C 606.507812 317.320312 585.386719 342.4375 556.78125 361.292969 C 555.078125 362.4375 553.183594 363.265625 551.613281 365.074219 Z M 551.613281 365.074219 " fill-opacity="1" fill-rule="nonzero"/><path fill="#acced1" d="M 301.363281 101.109375 C 297.316406 98.976562 293.265625 96.820312 289.113281 94.902344 C 286.046875 93.492188 282.800781 92.425781 279.628906 91.226562 C 278.992188 90.988281 278.351562 90.773438 277.6875 90.613281 C 272.519531 89.417969 268.230469 90.5625 265.40625 95.328125 C 263.757812 98.097656 261.917969 100.789062 260.667969 103.746094 C 257.070312 112.160156 253.289062 120.523438 251.132812 129.5 C 250.519531 132.03125 249.453125 134.320312 246.738281 135.359375 C 246.3125 135.519531 245.9375 135.972656 245.644531 136.371094 C 233.285156 152.992188 220.609375 169.425781 209.824219 187.164062 C 204.816406 195.285156 200.554688 203.78125 197.089844 212.675781 C 190.78125 228.898438 188.117188 245.703125 188.863281 263.09375 C 189.234375 271.75 189.742188 280.40625 191.738281 288.875 C 197.226562 311.996094 209.183594 331.066406 227.535156 346.140625 C 241.625 357.699219 257.496094 365.980469 274.597656 372.027344 C 290.148438 377.515625 306.050781 381.617188 322.296875 384.492188 C 332.84375 386.355469 343.445312 387.609375 354.097656 388.566406 C 370.53125 390.03125 386.992188 390.671875 403.476562 390.246094 C 413.332031 390.003906 423.160156 389.339844 432.988281 388.621094 C 441.109375 388.035156 449.234375 387.261719 457.332031 386.304688 C 483.429688 383.214844 508.785156 377.460938 532.675781 366.035156 C 563.519531 351.28125 587.355469 329.015625 604.296875 299.398438 C 612.445312 285.148438 618.117188 269.914062 620.515625 253.558594 C 621.980469 243.597656 622.140625 233.636719 621.074219 223.597656 C 619.421875 207.882812 615.082031 192.996094 608.503906 178.691406 C 604.347656 169.691406 599.183594 161.328125 592.417969 154.03125 C 590.101562 151.554688 587.542969 149.289062 585.144531 146.917969 C 584.1875 145.960938 583.121094 145.054688 582.375 143.960938 C 581.390625 142.472656 582.054688 140.632812 583.519531 139.941406 C 582.347656 139.273438 581.203125 138.554688 580.140625 137.675781 C 579.445312 138.316406 578.566406 138.609375 577.503906 138.527344 C 576.195312 138.421875 575.210938 137.730469 574.8125 136.53125 C 574.386719 135.253906 574.09375 133.921875 573.878906 132.589844 C 572.839844 126.382812 571.960938 120.179688 570.84375 114 C 570.203125 110.511719 569.300781 107.046875 568.3125 103.613281 C 567.648438 101.347656 566.609375 99.21875 565.890625 97.351562 C 563.867188 96.128906 562.160156 96.527344 560.507812 96.792969 C 549.136719 98.738281 537.84375 101.027344 526.816406 104.492188 C 525.539062 104.890625 524.207031 105.289062 523.117188 106.035156 C 521.519531 107.101562 519.917969 107.101562 518.269531 106.488281 C 516.511719 105.847656 514.804688 105.078125 513.128906 104.277344 C 501.25 98.65625 488.785156 94.824219 475.8125 92.824219 C 468.625 91.707031 461.324219 91.199219 454.082031 90.320312 C 445.292969 89.230469 436.449219 89.417969 427.632812 89.363281 C 417.273438 89.308594 406.9375 90.109375 396.632812 91.175781 C 388.855469 91.972656 381.078125 92.613281 373.328125 93.542969 C 356.628906 95.542969 340.089844 98.363281 323.894531 102.945312 C 318.542969 104.464844 313.453125 106.941406 308.234375 108.9375 C 306.503906 109.605469 304.746094 110.242188 302.960938 110.75 C 302.160156 110.964844 301.230469 110.75 300.777344 109.84375 C 300.296875 108.914062 300.804688 108.167969 301.496094 107.660156 C 302.988281 106.542969 304.558594 105.554688 306.050781 104.410156 C 306.636719 103.957031 307.089844 103.371094 307.59375 102.8125 C 307.570312 102.8125 307.570312 102.8125 307.542969 102.8125 C 307.570312 102.761719 307.59375 102.707031 307.621094 102.652344 C 305.332031 102.867188 303.332031 102.148438 301.363281 101.109375 Z M 265.113281 233.636719 C 265.59375 232.574219 266.527344 232.226562 267.589844 232.253906 C 268.257812 232.28125 268.976562 232.28125 269.589844 232.546875 C 272.996094 234.011719 276.378906 235.527344 279.761719 237.046875 C 280.054688 237.179688 280.402344 237.421875 280.507812 237.6875 C 280.75 238.273438 281.121094 238.992188 280.988281 239.523438 C 280.855469 240.03125 280.136719 240.457031 279.628906 240.800781 C 279.390625 240.960938 278.992188 240.910156 278.40625 240.988281 C 275.476562 240.375 272.332031 239.789062 269.214844 239.019531 C 267.75 238.644531 266.417969 237.847656 265.515625 236.515625 C 264.902344 235.609375 264.636719 234.648438 265.113281 233.636719 Z M 265.753906 253.375 C 266.019531 252.679688 266.632812 251.800781 267.273438 251.589844 C 269.03125 251.058594 270.894531 250.84375 272.703125 250.496094 C 275.15625 250.550781 277.527344 250.789062 279.496094 252.28125 C 280.054688 252.707031 280.5625 253.746094 280.480469 254.414062 C 280.375 255.078125 279.550781 255.71875 278.910156 256.222656 C 278.566406 256.515625 277.953125 256.570312 277.472656 256.625 C 276.621094 256.703125 275.769531 256.835938 274.941406 256.730469 C 272.4375 256.410156 269.933594 256.039062 267.429688 255.585938 C 266.339844 255.371094 265.433594 254.199219 265.753906 253.375 Z M 281.28125 270.660156 C 280.667969 271.191406 279.921875 271.75 279.152344 271.992188 C 276.085938 272.976562 272.996094 273.882812 269.933594 274.789062 C 269.617188 274.894531 269.269531 274.894531 268.921875 274.894531 C 267.617188 274.894531 266.578125 274.359375 266.019531 273.1875 C 265.460938 272.042969 265.59375 270.820312 266.5 269.886719 C 267.191406 269.167969 268.015625 268.421875 268.921875 268.128906 C 271.800781 267.195312 274.757812 266.503906 277.6875 265.707031 C 278.9375 266.210938 280.082031 266.53125 281.066406 267.117188 C 282.265625 267.863281 282.347656 269.753906 281.28125 270.660156 Z M 281.921875 119.300781 C 279.921875 121.75 277.257812 123.214844 274.011719 123.292969 C 271.265625 123.375 269.457031 121.617188 269.617188 118.875 C 269.910156 114.292969 272.277344 111.015625 276.355469 108.886719 C 277.792969 109.5 279.097656 109.925781 280.242188 110.589844 C 283.492188 112.480469 284.289062 116.421875 281.921875 119.300781 Z M 550.441406 253.746094 C 549.644531 253.988281 548.789062 254.304688 547.964844 254.253906 C 544.582031 254.011719 541.226562 253.640625 537.871094 253.292969 C 537.550781 253.265625 537.230469 253.109375 536.886719 253 C 535.261719 252.496094 534.140625 251.269531 534.410156 250.257812 C 534.808594 248.765625 535.925781 247.992188 537.363281 247.835938 C 539.390625 247.621094 541.414062 247.621094 543.4375 247.515625 C 543.4375 247.488281 543.4375 247.460938 543.4375 247.433594 C 544.796875 247.433594 546.152344 247.382812 547.484375 247.460938 C 548.496094 247.515625 549.511719 247.648438 550.46875 247.941406 C 551.828125 248.339844 552.945312 249.804688 552.945312 250.871094 C 552.945312 252.042969 551.90625 253.292969 550.441406 253.746094 Z M 544.15625 114.238281 C 545.675781 113.519531 547.351562 113.09375 549.003906 112.800781 C 552.386719 112.242188 554.144531 113.386719 555.210938 116.582031 C 555.476562 117.382812 555.609375 118.234375 555.714844 118.738281 C 555.636719 122.097656 554.089844 124.171875 551.480469 125.503906 C 549.03125 126.757812 546.792969 126.089844 544.957031 124.332031 C 543.757812 123.1875 542.691406 121.777344 542 120.3125 C 540.90625 118.046875 541.917969 115.304688 544.15625 114.238281 Z M 534.570312 234.730469 C 534.703125 234.464844 535.074219 234.304688 535.367188 234.171875 C 538.457031 232.867188 541.492188 231.453125 544.636719 230.308594 C 546.875 229.484375 548.765625 230.363281 549.21875 232.039062 C 549.644531 233.613281 548.789062 235.234375 546.792969 235.902344 C 543.625 236.941406 540.375 237.714844 537.550781 238.484375 C 536.40625 238.273438 535.660156 238.300781 535.128906 237.980469 C 534.621094 237.6875 534.0625 237.046875 533.957031 236.515625 C 533.875 235.957031 534.277344 235.289062 534.570312 234.730469 Z M 534.96875 262.960938 C 535.261719 263.015625 535.792969 262.988281 536.246094 263.175781 C 539.257812 264.320312 542.238281 265.492188 545.222656 266.664062 C 545.703125 266.851562 546.152344 267.089844 546.582031 267.355469 C 547.992188 268.261719 548.578125 269.886719 548.097656 271.296875 C 547.644531 272.628906 546.019531 273.695312 544.476562 273.589844 C 543.96875 273.5625 543.4375 273.480469 542.984375 273.269531 C 540.242188 271.964844 537.472656 270.710938 534.835938 269.222656 C 533.875 268.6875 533.15625 267.570312 532.542969 266.585938 C 531.640625 265.066406 532.96875 262.988281 534.96875 262.960938 Z M 459.675781 194.566406 C 461.777344 191.398438 466.464844 191.664062 467.929688 195.125 C 468.890625 197.441406 469.34375 199.972656 470.007812 202.398438 C 469.820312 204.742188 469.289062 206.898438 468.277344 208.867188 C 466.226562 212.8125 461.164062 213.15625 458.714844 209.453125 C 457.808594 208.097656 457.25 206.339844 457.089844 204.742188 C 456.769531 201.089844 457.648438 197.628906 459.675781 194.566406 Z M 400.414062 226.953125 C 402.703125 225.382812 405.367188 224.609375 408.03125 224.421875 C 412.054688 224.128906 416.15625 224.15625 420.175781 224.371094 C 422.917969 224.53125 425.421875 225.621094 427.15625 227.992188 C 428.753906 230.203125 428.484375 232.625 426.300781 234.222656 C 424.066406 235.820312 421.507812 236.699219 418.84375 237.207031 C 417.886719 237.394531 416.898438 237.527344 415.835938 237.6875 C 415.382812 239.976562 415.914062 241.972656 415.863281 243.945312 C 415.835938 245.277344 415.726562 246.664062 415.410156 247.941406 C 415.089844 249.164062 414.050781 249.910156 412.824219 250.125 C 411.546875 250.363281 410.375 249.75 409.789062 248.714844 C 409.148438 247.566406 408.671875 246.234375 408.589844 244.929688 C 408.402344 242.585938 408.539062 240.242188 408.539062 237.738281 C 406.832031 237.128906 405.261719 236.621094 403.742188 235.957031 C 402.039062 235.210938 400.414062 234.277344 399.320312 232.652344 C 397.910156 230.574219 398.285156 228.417969 400.414062 226.953125 Z M 367.363281 243.867188 C 368.027344 243.09375 368.984375 242.613281 370.105469 242.90625 C 371.171875 243.199219 371.914062 244.292969 371.835938 245.703125 C 371.757812 247.0625 371.4375 248.394531 371.304688 249.726562 C 371.117188 251.75 370.824219 253.800781 370.902344 255.796875 C 371.035156 259.738281 372.847656 261.578125 376.84375 262.03125 C 380.757812 262.484375 384.671875 262.214844 388.507812 261.417969 C 394.339844 260.191406 399.988281 258.40625 405.339844 255.71875 C 407.3125 254.730469 409.390625 253.960938 411.441406 253.1875 C 413.304688 252.496094 415.117188 252.734375 416.820312 253.746094 C 417.40625 254.09375 417.992188 254.4375 418.550781 254.8125 C 426.355469 260.164062 435.171875 261.390625 444.332031 260.804688 C 446.332031 260.671875 448.382812 260.164062 450.246094 259.417969 C 455.144531 257.503906 457.199219 253.558594 456.132812 248.421875 C 455.867188 247.089844 455.304688 245.835938 454.988281 244.503906 C 454.746094 243.519531 454.507812 242.507812 454.480469 241.523438 C 454.425781 239.257812 456.691406 237.847656 458.769531 238.777344 C 460.394531 239.496094 461.539062 240.777344 462.335938 242.292969 C 466.171875 249.40625 465.027344 260.324219 456.609375 265.121094 C 454.71875 266.210938 452.695312 267.089844 450.351562 268.261719 C 451.976562 275.667969 451.042969 282.589844 448.992188 289.277344 C 444.867188 302.9375 435.996094 312.046875 422.148438 316.125 C 413.304688 318.734375 404.410156 319.078125 395.511719 316.65625 C 382.035156 313.007812 373.941406 303.074219 372.953125 289.117188 C 372.554688 283.523438 372.660156 277.902344 373.59375 272.335938 C 373.699219 271.699219 373.699219 271.003906 373.753906 270.152344 C 372.636719 269.621094 371.597656 269.113281 370.558594 268.609375 C 365.628906 266.183594 363.207031 262.214844 363.367188 256.730469 C 363.472656 253.132812 364.21875 249.644531 365.789062 246.394531 C 366.191406 245.515625 366.695312 244.613281 367.363281 243.867188 Z M 352.339844 203.167969 C 352.285156 200.371094 352.738281 198.082031 354.230469 196.109375 C 356.921875 192.570312 361.742188 192.78125 363.847656 196.75 C 365.738281 200.320312 366.324219 204.128906 364.566406 207.964844 C 363.605469 210.066406 362.089844 211.585938 359.636719 211.824219 C 356.949219 212.089844 355.109375 210.785156 353.777344 208.628906 C 352.632812 206.84375 352.261719 204.875 352.339844 203.167969 Z M 257.496094 559.023438 C 258.960938 559.210938 260.398438 559.289062 261.863281 559.34375 C 260.984375 562.859375 261.039062 566.1875 262.398438 569.332031 C 260.640625 573.246094 258.75 576.523438 257.710938 580.039062 C 256.671875 583.554688 256.511719 587.335938 255.898438 591.382812 C 252.863281 591.863281 249.851562 591.890625 246.921875 590.957031 C 235.523438 587.386719 229.371094 579.265625 227.347656 567.785156 C 226.601562 563.628906 228.148438 559.234375 231.183594 555.5625 C 231.742188 555.800781 232.382812 556.039062 232.96875 556.332031 C 237.839844 558.835938 243.0625 560.300781 248.414062 561.3125 C 250.066406 561.632812 251.824219 561.6875 253.476562 561.5 C 254.59375 561.367188 255.738281 560.78125 256.671875 560.113281 C 257.070312 559.820312 257.335938 559.449219 257.496094 559.023438 Z M 544.128906 580.171875 C 544.582031 573.140625 541.199219 568.453125 536.273438 564.722656 C 536.035156 561.925781 535.792969 559.289062 535.527344 556.519531 C 537.097656 555.695312 538.535156 554.839844 540.082031 554.148438 C 540.828125 553.828125 541.679688 553.695312 542.503906 553.695312 C 545.382812 553.644531 548.257812 553.644531 551.132812 553.695312 C 557.898438 553.828125 564.183594 551.992188 570.257812 549.167969 C 571.296875 548.6875 572.335938 548.183594 573.347656 547.703125 C 577.636719 553.667969 577.582031 559.902344 571.988281 564.800781 C 571.296875 564.164062 570.523438 563.523438 569.832031 562.859375 C 566.902344 559.980469 563.386719 558.570312 559.285156 558.625 C 558.433594 558.625 557.578125 558.703125 556.753906 558.648438 C 551.453125 558.410156 548.257812 561.445312 545.96875 565.707031 C 544.316406 568.746094 544.902344 571.621094 547.511719 573.9375 C 548.632812 574.921875 549.828125 575.828125 551.027344 576.789062 C 548.339844 579.050781 548.339844 579.050781 544.128906 580.171875 Z M 544.128906 580.171875 " fill-opacity="1" fill-rule="nonzero"/><path fill="#ffffff" d="M 580.164062 502.984375 C 580.777344 498.617188 581.46875 494.222656 581.738281 489.828125 C 582.242188 481.519531 582.800781 473.183594 582.695312 464.871094 C 582.484375 446.601562 580.324219 428.625 573.828125 411.367188 C 569.457031 399.726562 562.828125 389.632812 553.957031 381.269531 C 539.148438 388.246094 524.605469 395.171875 509.984375 401.9375 C 497.335938 407.769531 484.390625 412.832031 471.125 417.144531 C 464.972656 419.140625 458.742188 420.765625 452.296875 421.460938 C 447.394531 421.992188 442.46875 422.285156 437.703125 420.394531 C 437.117188 420.15625 436.394531 420.207031 435.492188 420.101562 C 434.265625 422.816406 432.453125 424.976562 429.472656 426.308594 C 430.058594 428.199219 430.511719 429.957031 431.121094 431.6875 C 437.488281 449.664062 441.5625 468.230469 444.839844 486.980469 C 445.984375 493.503906 446.382812 500.136719 447.023438 506.714844 C 447.128906 507.832031 446.917969 509.113281 446.492188 510.148438 C 446.039062 511.242188 444.867188 511.722656 443.800781 511.507812 C 443.082031 513.53125 442.070312 515.398438 441.03125 517.261719 C 441.722656 516.941406 442.46875 516.996094 442.976562 517.609375 C 443.480469 518.21875 444.09375 519.230469 443.90625 519.792969 C 443.242188 521.683594 442.46875 523.601562 441.351562 525.277344 C 437.859375 530.523438 433.867188 535.398438 429.3125 539.765625 C 425.398438 543.523438 421.214844 547.039062 417.085938 550.554688 C 415.675781 551.753906 414.078125 552.789062 412.453125 553.667969 C 409.550781 555.269531 406.511719 555.242188 403.769531 553.375 C 401.957031 552.152344 400.226562 550.738281 398.710938 549.167969 C 392.582031 542.804688 386.539062 536.359375 380.519531 529.886719 C 379.132812 528.394531 377.933594 526.714844 376.84375 525.011719 C 375.75 523.332031 375.429688 521.523438 376.894531 519.816406 C 377.75 518.804688 377.800781 517.660156 377.722656 516.460938 C 377.109375 508.074219 378.46875 499.871094 379.667969 491.613281 C 381.769531 476.992188 383.925781 462.371094 385.953125 447.746094 C 386.777344 441.703125 387.335938 435.601562 388.054688 429.050781 C 387.152344 427.453125 385.980469 425.429688 384.859375 423.429688 C 381.105469 424.070312 371.675781 423.9375 368.105469 423.324219 C 340.914062 418.691406 314.679688 410.566406 288.550781 402.015625 C 287.273438 401.589844 285.996094 401.085938 284.71875 400.683594 C 278.058594 398.582031 271.640625 395.996094 265.964844 392.054688 C 263.757812 392.5625 262.503906 393.972656 261.144531 395.226562 C 256.882812 399.195312 253.527344 403.90625 250.492188 408.835938 C 241.941406 422.816406 235.417969 437.707031 231.210938 453.578125 C 228.464844 463.941406 226.253906 474.40625 225.296875 485.085938 C 224.523438 493.878906 224.417969 502.746094 224.070312 511.5625 C 223.964844 514.117188 224.019531 516.648438 223.964844 519.207031 C 223.9375 520.058594 223.832031 520.910156 223.644531 521.710938 C 223.484375 522.320312 222.898438 522.773438 222.234375 522.90625 C 222.527344 524.238281 222.792969 525.597656 223.140625 526.902344 C 224.230469 526.875 225.269531 527.140625 226.253906 527.835938 C 227.640625 528.820312 228.121094 530.230469 227.855469 531.855469 C 227.5625 533.855469 227.214844 535.878906 226.867188 537.875 C 226.390625 540.699219 227.480469 542.910156 229.636719 544.5625 C 231.527344 546 233.527344 547.304688 235.578125 548.476562 C 240.636719 551.351562 246.203125 552.925781 251.746094 554.496094 C 253.210938 554.894531 254.699219 555.269531 256.113281 555.828125 C 257.363281 556.332031 257.871094 557.769531 257.46875 558.917969 C 258.933594 559.101562 260.375 559.183594 261.839844 559.234375 C 262.238281 557.664062 262.796875 556.039062 263.542969 554.414062 C 262.957031 553.988281 262.238281 553.242188 261.386719 552.898438 C 259.042969 551.964844 257.976562 550.152344 257.683594 547.835938 C 257.257812 544.480469 256.699219 541.097656 256.644531 537.714844 C 256.457031 523.761719 257.257812 509.855469 258.296875 495.953125 C 259.042969 486.125 259.867188 476.324219 260.773438 466.496094 C 261.519531 458.375 262.449219 450.277344 263.25 442.179688 C 263.488281 439.808594 263.488281 437.441406 263.78125 435.070312 C 264.15625 431.875 264.6875 428.703125 265.195312 425.507812 C 265.273438 425.027344 265.433594 424.46875 265.753906 424.097656 C 266.179688 423.644531 266.765625 423.058594 267.296875 423.058594 C 267.804688 423.058594 268.46875 423.644531 268.761719 424.148438 C 269.082031 424.707031 269.109375 425.453125 269.1875 426.121094 C 269.800781 432.058594 269.882812 438 269.375 443.9375 C 268.789062 450.703125 268.257812 457.496094 267.722656 464.261719 C 267.191406 470.867188 266.550781 477.46875 266.152344 484.074219 C 265.621094 492.386719 265.140625 500.695312 264.875 509.03125 C 264.5 520.246094 264.367188 531.457031 264.15625 542.671875 C 264.101562 544.695312 264.15625 546.71875 264.15625 548.847656 C 266.472656 550.605469 268.628906 551.167969 270.8125 551.40625 C 278.589844 552.203125 286.367188 552.949219 294.144531 553.589844 C 301.601562 554.203125 309.058594 554.683594 316.519531 555.1875 C 317.714844 555.269531 318.886719 555.347656 320.085938 555.375 C 362.886719 556.734375 405.714844 557.210938 448.542969 556.359375 C 460.605469 556.121094 472.644531 555.347656 484.683594 554.734375 C 491.792969 554.390625 498.960938 554.175781 506.042969 553.402344 C 514.300781 552.523438 522.53125 551.191406 530.734375 549.914062 C 533.371094 549.488281 536.167969 549.515625 538.777344 547.703125 C 539.148438 544.90625 539.734375 541.925781 539.949219 538.886719 C 540.402344 532.789062 540.90625 526.691406 541.015625 520.5625 C 541.359375 501.519531 541.707031 482.503906 541.734375 463.460938 C 541.757812 451.050781 541.171875 438.664062 540.933594 426.253906 C 540.878906 423.21875 541.09375 420.15625 541.308594 417.117188 C 541.359375 416.320312 541.8125 415.546875 542.210938 414.800781 C 542.585938 414.136719 544.050781 414.214844 544.394531 414.90625 C 544.742188 415.652344 545.035156 416.453125 545.25 417.25 C 547.03125 424.710938 547.699219 432.328125 548.203125 439.96875 C 550.015625 467.296875 549.109375 494.675781 548.949219 522.027344 C 548.925781 528.953125 548.683594 535.957031 547.273438 542.828125 C 547.007812 544.160156 546.6875 545.464844 546.339844 546.984375 C 549.667969 548.210938 552.757812 546.691406 555.742188 546.078125 C 562.988281 544.613281 569.484375 541.339844 575.265625 536.492188 C 575.585938 534.839844 575.796875 533.160156 576.222656 531.539062 C 576.488281 530.5 577.34375 529.671875 578.433594 529.804688 C 579.125 529.886719 579.925781 530.5 580.40625 531.085938 C 580.726562 529.191406 581.257812 527.300781 581.65625 525.410156 C 580.964844 525.835938 580.164062 525.945312 579.472656 525.730469 C 577.902344 525.226562 577.582031 523.867188 577.449219 522.507812 C 577.34375 521.523438 577.476562 520.484375 577.609375 519.472656 C 578.460938 514.066406 579.394531 508.550781 580.164062 502.984375 Z M 252.890625 540.460938 C 244.953125 543.84375 236.351562 539.3125 233.605469 534.761719 C 233.367188 534.359375 233.179688 533.773438 233.285156 533.347656 C 233.367188 532.976562 233.898438 532.441406 234.21875 532.441406 C 234.859375 532.441406 235.550781 532.683594 236.109375 533.003906 C 241.144531 535.851562 246.390625 538.007812 252.144531 538.808594 C 252.570312 538.863281 252.941406 539.3125 253.34375 539.582031 C 253.15625 539.953125 253.101562 540.378906 252.890625 540.460938 Z M 550.253906 536.25 C 556.328125 532.734375 563.707031 530.925781 568.445312 531.589844 C 565.089844 536.171875 556.835938 538.433594 550.253906 536.25 Z M 440.257812 414.882812 C 438.179688 409.023438 437.035156 403.054688 434.878906 397.0625 C 435.835938 396.71875 436.554688 396.316406 437.300781 396.238281 C 443.027344 395.597656 448.78125 395.011719 454.507812 394.375 C 478.34375 391.710938 501.808594 387.289062 524.101562 378.125 C 530.519531 375.488281 536.753906 372.347656 543.039062 369.445312 C 544.261719 368.882812 545.460938 368.246094 546.738281 367.632812 C 548.632812 369.628906 547.992188 372.214844 548.976562 374.53125 C 547.671875 375.222656 546.5 375.863281 545.300781 376.449219 C 528.523438 384.570312 511.796875 392.855469 494.539062 399.964844 C 482.925781 404.761719 471.234375 409.234375 459.035156 412.269531 C 453.761719 413.601562 448.355469 414.160156 442.976562 414.855469 C 442.148438 414.960938 441.296875 414.882812 440.257812 414.882812 Z M 270.839844 385.957031 C 270.867188 383.613281 271.773438 381.855469 272.972656 379.964844 C 273.851562 380.125 274.703125 380.175781 275.449219 380.445312 C 292.148438 386.167969 309.300781 390.191406 326.691406 393.066406 C 333.21875 394.132812 339.796875 394.746094 346.375 395.464844 C 357.851562 396.742188 369.332031 397.542969 380.890625 397.621094 C 381.558594 397.621094 382.195312 397.835938 383.046875 397.96875 C 383.234375 401.539062 381.71875 404.628906 381.050781 407.875 C 380.410156 411.019531 379.480469 414.082031 378.601562 417.519531 C 377.667969 417.359375 376.894531 417.226562 376.125 417.066406 C 371.648438 416.1875 367.121094 415.441406 362.675781 414.402344 C 352.953125 412.136719 343.203125 409.902344 333.5625 407.371094 C 317.183594 403.082031 301.015625 398.046875 285.035156 392.429688 C 281.042969 391.015625 277.207031 389.234375 273.316406 387.554688 C 272.410156 387.15625 271.640625 386.488281 270.839844 385.957031 Z M 270.839844 385.957031 " fill-opacity="1" fill-rule="nonzero"/><path fill="#4d4d4f" d="M 529.90625 686.253906 C 529.453125 688.117188 530.09375 689.980469 530.917969 691.847656 C 529.640625 692.03125 528.628906 692.992188 528.496094 694.484375 C 528.441406 695.148438 528.46875 695.839844 528.628906 696.480469 C 528.921875 697.8125 529.269531 699.117188 529.695312 700.394531 C 531.160156 704.683594 529.800781 708.011719 526.390625 710.730469 C 524.101562 712.539062 521.519531 713.792969 518.773438 714.777344 C 512.007812 717.203125 505.03125 718.613281 497.867188 718.800781 C 485.136719 719.144531 472.40625 719.253906 459.675781 717.972656 C 452.910156 717.28125 446.171875 716.457031 439.59375 714.777344 C 437.300781 714.191406 435.039062 713.394531 432.960938 712.273438 C 428.753906 710.011719 427.898438 707.425781 429.605469 702.953125 C 430.324219 701.0625 431.308594 699.277344 432.242188 697.4375 C 433.121094 695.679688 434.078125 693.949219 435.039062 692.140625 C 435.890625 692.457031 436.53125 692.699219 437.140625 692.910156 C 445.664062 695.867188 454.402344 697.945312 463.324219 699.222656 C 472.777344 700.554688 482.285156 700.6875 491.820312 700.34375 C 496.910156 700.15625 501.996094 699.648438 507.027344 698.929688 C 510.542969 698.425781 513.980469 697.414062 517.417969 696.480469 C 519.894531 695.8125 522.128906 694.484375 523.96875 692.671875 C 524.765625 691.871094 525.351562 690.78125 525.777344 689.714844 C 526.257812 688.542969 525.246094 687.183594 523.96875 687.265625 C 522.636719 687.34375 521.277344 687.585938 519.972656 687.902344 C 513.902344 689.449219 507.90625 691.394531 501.570312 691.765625 C 495.308594 692.164062 489.023438 692.910156 482.765625 692.777344 C 476 692.644531 469.210938 692.40625 462.445312 691.417969 C 452.695312 689.980469 443.132812 687.929688 433.09375 685.585938 C 432.347656 680.128906 431.414062 675.121094 431.070312 670.03125 C 430.457031 661.21875 430.242188 652.375 429.816406 643.558594 C 429.578125 638.632812 429.285156 633.703125 428.886719 628.804688 C 428.753906 627.125 428.351562 625.449219 427.898438 623.824219 C 426.675781 619.457031 423.90625 616.3125 419.722656 614.660156 C 417.378906 613.730469 414.847656 613.222656 412.371094 612.824219 C 407.84375 612.105469 403.691406 613.730469 399.507812 615.21875 C 396.765625 616.207031 394.742188 617.964844 393.570312 620.46875 C 392.34375 623.050781 391.199219 625.765625 390.53125 628.539062 C 389.496094 632.984375 388.75 637.539062 388.136719 642.066406 C 387.308594 648.113281 386.75 654.210938 385.976562 660.285156 C 385.445312 664.492188 384.832031 668.699219 384.085938 672.882812 C 383.367188 676.824219 381.664062 680.3125 378.601562 683.003906 C 377.082031 684.335938 375.457031 685.558594 373.914062 686.890625 C 373.460938 687.265625 373.167969 687.824219 372.554688 688.570312 C 373.808594 689.023438 374.738281 689.582031 375.589844 689.609375 C 376.015625 691.3125 376.417969 692.992188 376.738281 694.640625 C 376.335938 694.535156 375.910156 694.5625 375.457031 694.722656 C 374.417969 695.148438 373.914062 696 373.886719 697.121094 C 373.859375 698.476562 373.808594 699.835938 373.886719 701.195312 C 374.257812 707.398438 371.25 711.554688 365.898438 714.191406 C 364.085938 715.097656 362.195312 715.976562 360.25 716.480469 C 356.972656 717.359375 353.671875 718.160156 350.316406 718.667969 C 341.394531 719.996094 332.390625 720.398438 323.390625 720.558594 C 310.125 720.769531 296.886719 720.023438 283.703125 718.667969 C 278.992188 718.1875 274.304688 717.175781 270.015625 714.9375 C 268.390625 714.085938 266.820312 713.019531 265.40625 711.820312 C 263.703125 710.382812 263.25 708.332031 263.808594 706.226562 C 264.183594 704.761719 264.792969 703.296875 265.648438 702.074219 C 267.164062 699.835938 268.976562 697.8125 271.054688 696.214844 C 273.210938 696.265625 274.753906 697.386719 276.488281 698.023438 C 280.296875 699.464844 284.023438 701.167969 287.914062 702.3125 C 296.277344 704.761719 304.851562 705.800781 313.585938 705.5625 C 326.1875 705.214844 338.648438 703.566406 350.953125 700.953125 C 356.070312 699.863281 361.023438 697.917969 366.003906 696.292969 C 367.972656 695.65625 369.707031 694.589844 371.035156 692.964844 C 371.597656 692.296875 371.996094 691.445312 371.4375 690.648438 C 371.089844 690.140625 370.425781 689.582031 369.863281 689.527344 C 368.535156 689.421875 367.148438 689.449219 365.84375 689.714844 C 360.863281 690.699219 355.882812 691.820312 350.902344 692.859375 C 338.730469 695.335938 326.503906 697.171875 314.066406 697.570312 C 303.09375 697.917969 292.414062 696.453125 282.054688 692.726562 C 278.378906 691.417969 274.621094 690.328125 270.921875 689.128906 C 269.988281 688.835938 269.082031 688.410156 268.285156 688.089844 C 267.804688 683.988281 267.191406 680.128906 266.898438 676.238281 C 265.808594 662.015625 264.527344 647.792969 263.914062 633.542969 C 263.355469 621.160156 263.570312 608.75 263.488281 596.335938 C 263.464844 592.609375 263.542969 588.851562 263.703125 585.125 C 263.890625 580.835938 264.980469 576.816406 267.539062 573.03125 C 273.238281 575.242188 279.125 576.253906 285.011719 576.839844 C 294.304688 577.746094 303.625 578.359375 312.949219 578.839844 C 323.976562 579.425781 335.027344 579.746094 346.054688 580.195312 C 347.757812 580.277344 349.4375 580.515625 351.140625 580.570312 C 357.585938 580.730469 364.058594 580.996094 370.503906 580.917969 C 376.015625 580.835938 375.992188 580.675781 381.023438 582.539062 C 381.957031 582.886719 382.96875 583.152344 383.980469 583.261719 C 389.199219 583.847656 394.449219 584.699219 399.667969 584.832031 C 410.535156 585.097656 421.429688 585.152344 432.269531 584.21875 C 437.566406 583.765625 442.734375 583.074219 446.785156 579.105469 C 453.707031 580.25 460.5 580.011719 467.292969 579.664062 C 472.539062 579.398438 477.8125 579.132812 483.085938 579.050781 C 492.433594 578.890625 501.78125 579.050781 511.078125 577.988281 C 518.5625 577.109375 525.859375 575.695312 532.039062 570.957031 C 532.25 570.796875 532.675781 570.875 532.996094 570.847656 C 535.953125 574.523438 536.007812 574.738281 536.140625 578.519531 C 536.40625 586.191406 535.3125 593.78125 534.703125 601.398438 C 533.554688 615.621094 532.171875 629.816406 530.867188 644.039062 C 530.441406 648.777344 530.015625 653.519531 529.535156 658.234375 C 528.789062 665.851562 527.988281 673.441406 527.269531 681.058594 C 527.191406 682.042969 527.269531 683.109375 527.535156 684.070312 C 527.910156 685.320312 528.789062 686.09375 529.90625 686.253906 Z M 597.582031 673.121094 C 597.238281 672.191406 597.078125 671.152344 597.023438 670.140625 C 596.679688 659.964844 596.199219 649.792969 596.757812 639.5625 C 597.558594 625.472656 597.875 611.386719 598.328125 597.296875 C 598.410156 595.164062 598.515625 592.953125 597.824219 590.691406 C 596.332031 591.515625 595.105469 592.394531 593.722656 592.953125 C 592.335938 593.488281 590.820312 593.699219 589.515625 594.019531 C 588.660156 595.992188 589.140625 597.695312 589.300781 599.347656 C 590.257812 609.707031 590.101562 620.066406 589.515625 630.429688 C 589.488281 631.09375 589.40625 631.785156 589.378906 632.453125 C 588.929688 646.542969 588.449219 660.65625 588.023438 674.746094 C 587.96875 676.585938 587.675781 678.449219 588.394531 680.421875 C 590.5 680.179688 592.496094 679.886719 594.496094 679.753906 C 595.507812 679.699219 596.546875 680.019531 597.050781 681.085938 C 597.105469 681.191406 597.15625 681.324219 597.183594 681.433594 C 599.183594 679.675781 600.328125 677.117188 600.621094 674.375 C 600.378906 674.480469 600.140625 674.5625 599.925781 674.585938 C 598.890625 674.828125 597.984375 674.132812 597.582031 673.121094 Z M 442.308594 510.578125 C 441.75 509.777344 441.351562 508.792969 441.164062 507.832031 C 440.152344 502.667969 439.113281 497.5 438.289062 492.304688 C 435.785156 476.351562 432.214844 460.636719 428.59375 444.925781 C 427.5 440.128906 426.675781 435.28125 425.714844 430.460938 C 425.53125 429.476562 425.210938 428.519531 424.96875 427.613281 C 417.777344 427.054688 400.253906 428.675781 393.25 430.570312 C 393.195312 431.449219 393.0625 432.433594 393.089844 433.417969 C 393.304688 440.929688 392.449219 448.359375 391.546875 455.765625 C 389.707031 470.945312 387.761719 486.101562 385.871094 501.253906 C 385.019531 507.992188 383.929688 514.679688 381.796875 521.335938 C 382.648438 522.1875 383.367188 523.121094 384.273438 523.867188 C 390.746094 529.167969 396.527344 535.132812 402.09375 541.339844 C 403.558594 542.964844 405.179688 544.507812 406.804688 545.972656 C 407.632812 546.71875 408.722656 546.773438 409.65625 546.1875 C 410.800781 545.464844 411.894531 544.640625 412.957031 543.789062 C 419.695312 538.300781 425.929688 532.28125 431.84375 525.945312 C 433.917969 523.707031 436.078125 521.550781 438.261719 519.390625 C 438.980469 518.671875 439.832031 518.113281 440.683594 517.527344 C 440.789062 517.449219 440.925781 517.367188 441.058594 517.316406 C 442.097656 515.449219 443.082031 513.585938 443.828125 511.5625 C 443.242188 511.429688 442.707031 511.109375 442.308594 510.578125 Z M 540.292969 626.433594 C 539.550781 634.875 538.75 643.347656 538.109375 651.816406 C 537.472656 660.417969 536.21875 668.992188 535.875 678.101562 C 537.207031 679.246094 538.75 680.367188 540 681.726562 C 542.957031 685.027344 546.605469 686.332031 550.949219 686.011719 C 559.070312 685.375 567.222656 685.054688 575.238281 683.429688 C 578.007812 682.871094 580.910156 682.765625 583.414062 681.566406 C 583.546875 681.03125 583.707031 680.710938 583.707031 680.394531 C 583.070312 665.585938 584.425781 650.855469 585.414062 636.128906 C 586.238281 623.902344 586.15625 611.679688 585.972656 599.453125 C 585.945312 598.148438 585.679688 596.816406 585.492188 595.273438 C 584.054688 595.378906 582.855469 595.324219 581.738281 595.589844 C 578.78125 596.308594 575.851562 597.164062 572.894531 597.960938 C 570.285156 598.679688 567.675781 599.453125 565.039062 600.09375 C 562.214844 600.757812 560.457031 600.597656 557.632812 599.667969 C 557.792969 598.761719 558.40625 598.175781 559.179688 597.855469 C 561.546875 596.921875 563.945312 596.097656 566.289062 595.113281 C 572.09375 592.714844 577.902344 590.398438 583.972656 588.800781 C 584.160156 588.746094 584.242188 588.265625 584.507812 587.707031 C 581.523438 585.921875 578.78125 583.660156 575.371094 582.515625 C 574.785156 583.046875 574.28125 583.5 573.773438 583.953125 C 571.75 585.789062 569.699219 584.433594 569.007812 582.433594 C 568.6875 581.503906 568.6875 580.4375 568.5 579.425781 C 567.992188 576.949219 567.648438 574.390625 566.875 571.992188 C 565.890625 568.957031 563.890625 566.558594 560.644531 565.816406 C 557.847656 565.175781 554.941406 564.960938 552.066406 564.617188 C 551.082031 564.507812 550.148438 565.601562 550.390625 566.695312 C 550.546875 567.4375 551 568.292969 551.585938 568.746094 C 552.652344 569.570312 553.929688 570.101562 555.101562 570.796875 C 559.523438 573.40625 561.921875 577.265625 562.242188 582.40625 C 562.265625 582.886719 562.347656 583.339844 562.425781 583.898438 C 564.210938 584.085938 565.890625 584.164062 567.542969 584.433594 C 568.6875 584.617188 569.300781 586.324219 568.605469 587.335938 C 568.234375 587.867188 567.726562 588.453125 567.167969 588.691406 C 565.039062 589.597656 562.878906 589.359375 560.75 588.507812 C 558.964844 587.789062 557.421875 586.960938 556.941406 584.804688 C 556.726562 583.925781 555.902344 583.207031 555.449219 582.566406 C 551.480469 583.820312 547.804688 584.992188 544.023438 586.191406 C 543.835938 587.203125 543.703125 588.214844 543.492188 589.199219 C 542.796875 592.394531 543.996094 594.871094 546.394531 596.816406 C 547.832031 597.988281 549.351562 599.105469 550.949219 600.039062 C 553.050781 601.265625 554.117188 603.023438 554.304688 605.390625 C 554.382812 606.40625 554.492188 607.417969 554.492188 608.457031 C 554.355469 615.40625 554.332031 622.386719 554.039062 629.335938 C 553.613281 639.351562 553.050781 649.363281 552.441406 659.351562 C 552.148438 664.253906 551.640625 669.152344 551.214844 674.082031 C 551.160156 674.746094 550.976562 675.4375 550.65625 676 C 550.441406 676.398438 549.855469 676.878906 549.535156 676.824219 C 548.949219 676.746094 548.046875 676.34375 547.964844 675.917969 C 547.59375 674.109375 547.351562 672.242188 547.273438 670.40625 C 546.714844 657.300781 548.285156 644.277344 548.765625 631.226562 C 549.058594 623.582031 549.296875 615.964844 549.511719 608.320312 C 549.535156 607.148438 549.296875 605.976562 549.164062 604.648438 C 547.324219 603.207031 545.460938 601.769531 542.796875 599.691406 C 541.867188 609.28125 541.066406 617.855469 540.292969 626.433594 Z M 371.4375 564.617188 C 358.359375 564.269531 345.28125 564.003906 332.203125 563.605469 C 324.214844 563.363281 316.25 563.042969 308.289062 562.484375 C 301.335938 562.007812 294.410156 561.3125 287.511719 560.40625 C 281.121094 559.582031 274.675781 559.050781 268.445312 557.265625 C 267.699219 557.050781 266.925781 556.332031 265.992188 557.476562 C 266.738281 560.382812 266.339844 563.710938 268.601562 566.640625 C 269.695312 567.011719 270.945312 567.546875 272.253906 567.839844 C 278.882812 569.355469 285.621094 570.289062 292.386719 570.714844 C 300.695312 571.273438 309.007812 571.542969 317.316406 571.886719 C 328.847656 572.367188 340.40625 572.765625 351.941406 573.21875 C 353.300781 573.273438 354.65625 573.457031 356.015625 573.511719 C 361.902344 573.804688 367.789062 574.070312 373.914062 574.363281 C 374.257812 571.222656 374.578125 568.371094 374.980469 564.910156 C 373.378906 564.777344 372.394531 564.617188 371.4375 564.617188 Z M 449.207031 569.863281 C 449.285156 571.488281 449.074219 573.140625 448.96875 575.058594 C 451.179688 575.242188 453.175781 574.976562 455.148438 574.738281 C 460.207031 574.152344 465.242188 573.378906 470.300781 573.085938 C 480.128906 572.554688 489.984375 572.394531 499.8125 571.96875 C 504.367188 571.753906 508.972656 571.488281 513.472656 570.796875 C 519.492188 569.863281 525.21875 567.8125 530.574219 565.496094 C 530.574219 562.804688 530.574219 560.515625 530.574219 557.984375 C 503.460938 563.042969 476.132812 563.097656 448.40625 564.214844 C 448.78125 566.558594 449.128906 568.210938 449.207031 569.863281 Z M 431.441406 564.644531 C 415.863281 564.667969 400.253906 564.667969 384.671875 564.722656 C 383.207031 564.722656 381.609375 564.214844 380.117188 565.734375 C 380.304688 567.546875 380.597656 569.570312 380.707031 571.566406 C 380.839844 573.75 381.902344 575.003906 384.007812 575.429688 C 384.832031 575.589844 385.660156 575.882812 386.484375 575.9375 C 392.238281 576.308594 397.964844 576.789062 403.714844 576.949219 C 409.628906 577.109375 415.570312 577.027344 421.507812 576.867188 C 425.902344 576.734375 430.296875 576.414062 434.691406 575.988281 C 439.804688 575.484375 440.765625 574.257812 442.015625 569.117188 C 442.308594 567.867188 442.070312 566.480469 442.070312 564.667969 C 438.207031 564.644531 434.824219 564.644531 431.441406 564.644531 Z M 583.015625 582.167969 C 585.171875 583.6875 587.011719 585.738281 588.953125 587.519531 C 590.367188 587.386719 591.722656 587.175781 593.054688 587.148438 C 594.335938 587.121094 595.613281 587.335938 597.210938 587.441406 C 596.839844 585.921875 596.519531 584.644531 596.117188 583.101562 C 589.753906 580.089844 583.363281 577.054688 576.941406 574.070312 C 576.730469 573.964844 576.355469 574.203125 575.878906 574.335938 C 575.878906 575.589844 575.878906 576.921875 575.878906 578.4375 C 578.566406 579.824219 580.992188 580.730469 583.015625 582.167969 Z M 425.824219 396.824219 C 422.09375 397.011719 418.363281 397.355469 414.636719 397.4375 C 407.683594 397.597656 400.734375 397.648438 393.753906 397.753906 C 392.609375 397.78125 391.464844 397.996094 390.238281 398.101562 C 389.652344 401.136719 389.042969 403.960938 388.5625 406.785156 C 388.109375 409.582031 386.964844 412.296875 387.152344 414.695312 C 389.226562 417.382812 390.984375 419.648438 392.796875 421.992188 C 393.621094 421.9375 394.476562 421.992188 395.273438 421.859375 C 401.957031 420.660156 408.695312 419.96875 415.488281 419.808594 C 418.367188 419.726562 421.242188 419.433594 424.117188 419.117188 C 426.996094 418.796875 429.632812 417.835938 432 416.078125 C 430.855469 409.742188 429.765625 403.5625 428.566406 396.824219 C 427.472656 396.824219 426.648438 396.769531 425.824219 396.824219 Z M 425.824219 396.824219 " fill-opacity="1" fill-rule="nonzero"/><path fill="#f6917c" d="M 380.972656 291.914062 C 382.25 290.980469 383.339844 290.207031 384.40625 289.382812 C 389.359375 285.652344 394.769531 285.652344 400.359375 287.570312 C 402.492188 288.316406 404.25 289.621094 405.554688 291.488281 C 407.285156 293.992188 409.015625 296.519531 410.828125 298.972656 C 411.066406 299.316406 411.8125 299.636719 412.132812 299.503906 C 412.664062 299.289062 413.4375 298.703125 413.464844 298.25 C 413.542969 296.761719 413.492188 295.214844 413.144531 293.777344 C 412.796875 292.3125 412.027344 290.980469 411.46875 289.648438 C 416.179688 284.296875 423.238281 282.511719 429.417969 285.066406 C 430.511719 285.519531 431.601562 286 432.585938 286.667969 C 434.824219 288.183594 436.980469 289.808594 439.40625 291.539062 C 438.847656 292.792969 438.472656 293.882812 437.886719 294.84375 C 434.453125 300.542969 429.710938 304.75 423.480469 307.199219 C 414.503906 310.714844 405.367188 311.460938 396.097656 308.613281 C 388.003906 306.1875 382.730469 300.96875 380.972656 291.914062 Z M 380.226562 270.578125 C 379.398438 275.960938 379.667969 283.628906 380.839844 286.800781 C 389.707031 278.78125 399.003906 279.980469 408.589844 285.679688 C 410.402344 284.457031 412.160156 283.175781 413.996094 281.980469 C 417.484375 279.6875 421.347656 278.195312 425.503906 278.597656 C 430.804688 279.101562 435.808594 280.699219 439.671875 284.75 C 440.097656 285.203125 440.550781 285.867188 441.375 285.414062 C 443.1875 280.007812 443.585938 275.265625 442.601562 269.300781 C 442.042969 269.195312 441.429688 269.035156 440.789062 268.980469 C 437.410156 268.636719 434.027344 268.449219 430.671875 267.941406 C 424.835938 267.089844 419.5625 264.933594 415.167969 260.859375 C 414.691406 260.40625 414.105469 260.058594 413.410156 259.554688 C 403.476562 266.769531 392.023438 269.433594 380.226562 270.578125 Z M 380.226562 270.578125 " fill-opacity="1" fill-rule="nonzero"/><g fill="#000000" fill-opacity="1"><g transform="translate(456.392024, 442.842904)"><g><path d="M 6.828125 -1.890625 L 2.75 -1.890625 L 1.96875 0 L -0.109375 0 L 3.8125 -8.796875 L 5.8125 -8.796875 L 9.75 0 L 7.609375 0 Z M 6.1875 -3.421875 L 4.796875 -6.796875 L 3.40625 -3.421875 Z M 6.1875 -3.421875 "/></g></g></g><g fill="#000000" fill-opacity="1"><g transform="translate(466.015995, 442.842904)"><g><path d="M 4.90625 -6.859375 C 5.53125 -6.859375 6.097656 -6.710938 6.609375 -6.421875 C 7.128906 -6.140625 7.535156 -5.734375 7.828125 -5.203125 C 8.117188 -4.679688 8.265625 -4.070312 8.265625 -3.375 C 8.265625 -2.6875 8.117188 -2.078125 7.828125 -1.546875 C 7.535156 -1.023438 7.128906 -0.617188 6.609375 -0.328125 C 6.097656 -0.046875 5.53125 0.09375 4.90625 0.09375 C 4.039062 0.09375 3.359375 -0.175781 2.859375 -0.71875 L 2.859375 2.4375 L 0.90625 2.4375 L 0.90625 -6.765625 L 2.78125 -6.765625 L 2.78125 -5.984375 C 3.257812 -6.566406 3.96875 -6.859375 4.90625 -6.859375 Z M 4.5625 -1.5 C 5.0625 -1.5 5.472656 -1.671875 5.796875 -2.015625 C 6.117188 -2.359375 6.28125 -2.8125 6.28125 -3.375 C 6.28125 -3.945312 6.117188 -4.398438 5.796875 -4.734375 C 5.472656 -5.078125 5.0625 -5.25 4.5625 -5.25 C 4.0625 -5.25 3.648438 -5.078125 3.328125 -4.734375 C 3.003906 -4.398438 2.84375 -3.945312 2.84375 -3.375 C 2.84375 -2.8125 3.003906 -2.359375 3.328125 -2.015625 C 3.648438 -1.671875 4.0625 -1.5 4.5625 -1.5 Z M 4.5625 -1.5 "/></g></g></g><g fill="#000000" fill-opacity="1"><g transform="translate(474.685107, 442.842904)"><g><path d="M 4.90625 -6.859375 C 5.53125 -6.859375 6.097656 -6.710938 6.609375 -6.421875 C 7.128906 -6.140625 7.535156 -5.734375 7.828125 -5.203125 C 8.117188 -4.679688 8.265625 -4.070312 8.265625 -3.375 C 8.265625 -2.6875 8.117188 -2.078125 7.828125 -1.546875 C 7.535156 -1.023438 7.128906 -0.617188 6.609375 -0.328125 C 6.097656 -0.046875 5.53125 0.09375 4.90625 0.09375 C 4.039062 0.09375 3.359375 -0.175781 2.859375 -0.71875 L 2.859375 2.4375 L 0.90625 2.4375 L 0.90625 -6.765625 L 2.78125 -6.765625 L 2.78125 -5.984375 C 3.257812 -6.566406 3.96875 -6.859375 4.90625 -6.859375 Z M 4.5625 -1.5 C 5.0625 -1.5 5.472656 -1.671875 5.796875 -2.015625 C 6.117188 -2.359375 6.28125 -2.8125 6.28125 -3.375 C 6.28125 -3.945312 6.117188 -4.398438 5.796875 -4.734375 C 5.472656 -5.078125 5.0625 -5.25 4.5625 -5.25 C 4.0625 -5.25 3.648438 -5.078125 3.328125 -4.734375 C 3.003906 -4.398438 2.84375 -3.945312 2.84375 -3.375 C 2.84375 -2.8125 3.003906 -2.359375 3.328125 -2.015625 C 3.648438 -1.671875 4.0625 -1.5 4.5625 -1.5 Z M 4.5625 -1.5 "/></g></g></g><g fill="#000000" fill-opacity="1"><g transform="translate(483.354219, 442.842904)"><g><path d="M 0.90625 -9.328125 L 2.859375 -9.328125 L 2.859375 0 L 0.90625 0 Z M 0.90625 -9.328125 "/></g></g></g><g fill="#000000" fill-opacity="1"><g transform="translate(487.13596, 442.842904)"><g><path d="M 0.90625 -6.765625 L 2.859375 -6.765625 L 2.859375 0 L 0.90625 0 Z M 1.890625 -7.703125 C 1.523438 -7.703125 1.226562 -7.804688 1 -8.015625 C 0.78125 -8.222656 0.671875 -8.484375 0.671875 -8.796875 C 0.671875 -9.109375 0.78125 -9.367188 1 -9.578125 C 1.226562 -9.785156 1.523438 -9.890625 1.890625 -9.890625 C 2.242188 -9.890625 2.535156 -9.785156 2.765625 -9.578125 C 2.992188 -9.378906 3.109375 -9.128906 3.109375 -8.828125 C 3.109375 -8.503906 2.992188 -8.234375 2.765625 -8.015625 C 2.535156 -7.804688 2.242188 -7.703125 1.890625 -7.703125 Z M 1.890625 -7.703125 "/></g></g></g><g fill="#000000" fill-opacity="1"><g transform="translate(490.917702, 442.842904)"><g><path d="M 4.171875 0.09375 C 3.453125 0.09375 2.804688 -0.0507812 2.234375 -0.34375 C 1.660156 -0.644531 1.210938 -1.054688 0.890625 -1.578125 C 0.566406 -2.109375 0.40625 -2.707031 0.40625 -3.375 C 0.40625 -4.050781 0.566406 -4.648438 0.890625 -5.171875 C 1.210938 -5.703125 1.660156 -6.113281 2.234375 -6.40625 C 2.804688 -6.707031 3.453125 -6.859375 4.171875 -6.859375 C 4.878906 -6.859375 5.5 -6.707031 6.03125 -6.40625 C 6.5625 -6.113281 6.953125 -5.691406 7.203125 -5.140625 L 5.671875 -4.328125 C 5.328125 -4.941406 4.820312 -5.25 4.15625 -5.25 C 3.644531 -5.25 3.222656 -5.082031 2.890625 -4.75 C 2.554688 -4.414062 2.390625 -3.957031 2.390625 -3.375 C 2.390625 -2.800781 2.554688 -2.34375 2.890625 -2 C 3.222656 -1.664062 3.644531 -1.5 4.15625 -1.5 C 4.820312 -1.5 5.328125 -1.8125 5.671875 -2.4375 L 7.203125 -1.609375 C 6.953125 -1.066406 6.5625 -0.644531 6.03125 -0.34375 C 5.5 -0.0507812 4.878906 0.09375 4.171875 0.09375 Z M 4.171875 0.09375 "/></g></g></g><g fill="#000000" fill-opacity="1"><g transform="translate(498.342985, 442.842904)"><g><path d="M 3.625 -6.859375 C 4.675781 -6.859375 5.484375 -6.609375 6.046875 -6.109375 C 6.609375 -5.609375 6.890625 -4.859375 6.890625 -3.859375 L 6.890625 0 L 5.046875 0 L 5.046875 -0.84375 C 4.679688 -0.21875 3.992188 0.09375 2.984375 0.09375 C 2.472656 0.09375 2.023438 0.0078125 1.640625 -0.15625 C 1.253906 -0.332031 0.960938 -0.578125 0.765625 -0.890625 C 0.566406 -1.203125 0.46875 -1.554688 0.46875 -1.953125 C 0.46875 -2.578125 0.703125 -3.066406 1.171875 -3.421875 C 1.648438 -3.785156 2.378906 -3.96875 3.359375 -3.96875 L 4.921875 -3.96875 C 4.921875 -4.394531 4.789062 -4.722656 4.53125 -4.953125 C 4.269531 -5.179688 3.878906 -5.296875 3.359375 -5.296875 C 3.003906 -5.296875 2.648438 -5.238281 2.296875 -5.125 C 1.953125 -5.019531 1.660156 -4.867188 1.421875 -4.671875 L 0.71875 -6.046875 C 1.082031 -6.304688 1.519531 -6.503906 2.03125 -6.640625 C 2.550781 -6.785156 3.082031 -6.859375 3.625 -6.859375 Z M 3.484375 -1.21875 C 3.816406 -1.21875 4.113281 -1.296875 4.375 -1.453125 C 4.632812 -1.609375 4.816406 -1.835938 4.921875 -2.140625 L 4.921875 -2.828125 L 3.578125 -2.828125 C 2.773438 -2.828125 2.375 -2.5625 2.375 -2.03125 C 2.375 -1.78125 2.472656 -1.582031 2.671875 -1.4375 C 2.867188 -1.289062 3.140625 -1.21875 3.484375 -1.21875 Z M 3.484375 -1.21875 "/></g></g></g><g fill="#000000" fill-opacity="1"><g transform="translate(506.09493, 442.842904)"><g><path d="M 5.265625 -0.328125 C 5.066406 -0.179688 4.828125 -0.0703125 4.546875 0 C 4.273438 0.0625 3.984375 0.09375 3.671875 0.09375 C 2.867188 0.09375 2.242188 -0.109375 1.796875 -0.515625 C 1.359375 -0.921875 1.140625 -1.523438 1.140625 -2.328125 L 1.140625 -5.09375 L 0.09375 -5.09375 L 0.09375 -6.609375 L 1.140625 -6.609375 L 1.140625 -8.25 L 3.109375 -8.25 L 3.109375 -6.609375 L 4.78125 -6.609375 L 4.78125 -5.09375 L 3.109375 -5.09375 L 3.109375 -2.34375 C 3.109375 -2.0625 3.179688 -1.84375 3.328125 -1.6875 C 3.472656 -1.53125 3.675781 -1.453125 3.9375 -1.453125 C 4.25 -1.453125 4.515625 -1.535156 4.734375 -1.703125 Z M 5.265625 -0.328125 "/></g></g></g><g fill="#000000" fill-opacity="1"><g transform="translate(511.560243, 442.842904)"><g><path d="M 0.90625 -6.765625 L 2.859375 -6.765625 L 2.859375 0 L 0.90625 0 Z M 1.890625 -7.703125 C 1.523438 -7.703125 1.226562 -7.804688 1 -8.015625 C 0.78125 -8.222656 0.671875 -8.484375 0.671875 -8.796875 C 0.671875 -9.109375 0.78125 -9.367188 1 -9.578125 C 1.226562 -9.785156 1.523438 -9.890625 1.890625 -9.890625 C 2.242188 -9.890625 2.535156 -9.785156 2.765625 -9.578125 C 2.992188 -9.378906 3.109375 -9.128906 3.109375 -8.828125 C 3.109375 -8.503906 2.992188 -8.234375 2.765625 -8.015625 C 2.535156 -7.804688 2.242188 -7.703125 1.890625 -7.703125 Z M 1.890625 -7.703125 "/></g></g></g><g fill="#000000" fill-opacity="1"><g transform="translate(515.341984, 442.842904)"><g><path d="M 4.125 0.09375 C 3.40625 0.09375 2.765625 -0.0507812 2.203125 -0.34375 C 1.640625 -0.644531 1.195312 -1.054688 0.875 -1.578125 C 0.5625 -2.109375 0.40625 -2.707031 0.40625 -3.375 C 0.40625 -4.050781 0.5625 -4.648438 0.875 -5.171875 C 1.195312 -5.703125 1.640625 -6.113281 2.203125 -6.40625 C 2.765625 -6.707031 3.40625 -6.859375 4.125 -6.859375 C 4.832031 -6.859375 5.46875 -6.707031 6.03125 -6.40625 C 6.59375 -6.113281 7.03125 -5.703125 7.34375 -5.171875 C 7.664062 -4.648438 7.828125 -4.050781 7.828125 -3.375 C 7.828125 -2.707031 7.664062 -2.109375 7.34375 -1.578125 C 7.03125 -1.054688 6.59375 -0.644531 6.03125 -0.34375 C 5.46875 -0.0507812 4.832031 0.09375 4.125 0.09375 Z M 4.125 -1.5 C 4.625 -1.5 5.035156 -1.671875 5.359375 -2.015625 C 5.679688 -2.359375 5.84375 -2.8125 5.84375 -3.375 C 5.84375 -3.945312 5.679688 -4.398438 5.359375 -4.734375 C 5.035156 -5.078125 4.625 -5.25 4.125 -5.25 C 3.613281 -5.25 3.195312 -5.078125 2.875 -4.734375 C 2.550781 -4.398438 2.390625 -3.945312 2.390625 -3.375 C 2.390625 -2.8125 2.550781 -2.359375 2.875 -2.015625 C 3.195312 -1.671875 3.613281 -1.5 4.125 -1.5 Z M 4.125 -1.5 "/></g></g></g><g fill="#000000" fill-opacity="1"><g transform="translate(523.571358, 442.842904)"><g><path d="M 5.015625 -6.859375 C 5.847656 -6.859375 6.519531 -6.609375 7.03125 -6.109375 C 7.550781 -5.609375 7.8125 -4.863281 7.8125 -3.875 L 7.8125 0 L 5.859375 0 L 5.859375 -3.5625 C 5.859375 -4.101562 5.738281 -4.503906 5.5 -4.765625 C 5.269531 -5.023438 4.929688 -5.15625 4.484375 -5.15625 C 3.992188 -5.15625 3.597656 -5.003906 3.296875 -4.703125 C 3.003906 -4.398438 2.859375 -3.945312 2.859375 -3.34375 L 2.859375 0 L 0.90625 0 L 0.90625 -6.765625 L 2.78125 -6.765625 L 2.78125 -5.96875 C 3.039062 -6.25 3.363281 -6.46875 3.75 -6.625 C 4.132812 -6.78125 4.554688 -6.859375 5.015625 -6.859375 Z M 5.015625 -6.859375 "/></g></g></g><g fill="#000000" fill-opacity="1"><g transform="translate(458.660187, 457.239175)"><g><path d="M 1.046875 -8.796875 L 5.03125 -8.796875 C 5.988281 -8.796875 6.832031 -8.613281 7.5625 -8.25 C 8.300781 -7.882812 8.875 -7.367188 9.28125 -6.703125 C 9.6875 -6.046875 9.890625 -5.273438 9.890625 -4.390625 C 9.890625 -3.515625 9.6875 -2.742188 9.28125 -2.078125 C 8.875 -1.421875 8.300781 -0.910156 7.5625 -0.546875 C 6.832031 -0.179688 5.988281 0 5.03125 0 L 1.046875 0 Z M 4.9375 -1.671875 C 5.8125 -1.671875 6.507812 -1.914062 7.03125 -2.40625 C 7.5625 -2.894531 7.828125 -3.554688 7.828125 -4.390625 C 7.828125 -5.234375 7.5625 -5.898438 7.03125 -6.390625 C 6.507812 -6.878906 5.8125 -7.125 4.9375 -7.125 L 3.078125 -7.125 L 3.078125 -1.671875 Z M 4.9375 -1.671875 "/></g></g></g><g fill="#000000" fill-opacity="1"><g transform="translate(469.037995, 457.239175)"><g><path d="M 7.53125 -3.359375 C 7.53125 -3.328125 7.515625 -3.148438 7.484375 -2.828125 L 2.375 -2.828125 C 2.46875 -2.410156 2.6875 -2.078125 3.03125 -1.828125 C 3.375 -1.585938 3.800781 -1.46875 4.3125 -1.46875 C 4.664062 -1.46875 4.976562 -1.519531 5.25 -1.625 C 5.519531 -1.726562 5.769531 -1.894531 6 -2.125 L 7.046875 -1 C 6.410156 -0.269531 5.484375 0.09375 4.265625 0.09375 C 3.492188 0.09375 2.816406 -0.0507812 2.234375 -0.34375 C 1.648438 -0.644531 1.195312 -1.054688 0.875 -1.578125 C 0.5625 -2.109375 0.40625 -2.707031 0.40625 -3.375 C 0.40625 -4.039062 0.5625 -4.640625 0.875 -5.171875 C 1.1875 -5.703125 1.613281 -6.113281 2.15625 -6.40625 C 2.707031 -6.707031 3.320312 -6.859375 4 -6.859375 C 4.664062 -6.859375 5.265625 -6.710938 5.796875 -6.421875 C 6.335938 -6.140625 6.757812 -5.734375 7.0625 -5.203125 C 7.375 -4.671875 7.53125 -4.054688 7.53125 -3.359375 Z M 4.015625 -5.375 C 3.578125 -5.375 3.207031 -5.25 2.90625 -5 C 2.601562 -4.75 2.414062 -4.40625 2.34375 -3.96875 L 5.671875 -3.96875 C 5.609375 -4.394531 5.425781 -4.734375 5.125 -4.984375 C 4.820312 -5.242188 4.453125 -5.375 4.015625 -5.375 Z M 4.015625 -5.375 "/></g></g></g><g fill="#000000" fill-opacity="1"><g transform="translate(476.965836, 457.239175)"><g><path d="M 7.609375 -6.765625 L 4.765625 0 L 2.734375 0 L -0.09375 -6.765625 L 1.921875 -6.765625 L 3.796875 -2.15625 L 5.734375 -6.765625 Z M 7.609375 -6.765625 "/></g></g></g><g fill="#000000" fill-opacity="1"><g transform="translate(484.479069, 457.239175)"><g><path d="M 7.53125 -3.359375 C 7.53125 -3.328125 7.515625 -3.148438 7.484375 -2.828125 L 2.375 -2.828125 C 2.46875 -2.410156 2.6875 -2.078125 3.03125 -1.828125 C 3.375 -1.585938 3.800781 -1.46875 4.3125 -1.46875 C 4.664062 -1.46875 4.976562 -1.519531 5.25 -1.625 C 5.519531 -1.726562 5.769531 -1.894531 6 -2.125 L 7.046875 -1 C 6.410156 -0.269531 5.484375 0.09375 4.265625 0.09375 C 3.492188 0.09375 2.816406 -0.0507812 2.234375 -0.34375 C 1.648438 -0.644531 1.195312 -1.054688 0.875 -1.578125 C 0.5625 -2.109375 0.40625 -2.707031 0.40625 -3.375 C 0.40625 -4.039062 0.5625 -4.640625 0.875 -5.171875 C 1.1875 -5.703125 1.613281 -6.113281 2.15625 -6.40625 C 2.707031 -6.707031 3.320312 -6.859375 4 -6.859375 C 4.664062 -6.859375 5.265625 -6.710938 5.796875 -6.421875 C 6.335938 -6.140625 6.757812 -5.734375 7.0625 -5.203125 C 7.375 -4.671875 7.53125 -4.054688 7.53125 -3.359375 Z M 4.015625 -5.375 C 3.578125 -5.375 3.207031 -5.25 2.90625 -5 C 2.601562 -4.75 2.414062 -4.40625 2.34375 -3.96875 L 5.671875 -3.96875 C 5.609375 -4.394531 5.425781 -4.734375 5.125 -4.984375 C 4.820312 -5.242188 4.453125 -5.375 4.015625 -5.375 Z M 4.015625 -5.375 "/></g></g></g><g fill="#000000" fill-opacity="1"><g transform="translate(492.40691, 457.239175)"><g><path d="M 0.90625 -9.328125 L 2.859375 -9.328125 L 2.859375 0 L 0.90625 0 Z M 0.90625 -9.328125 "/></g></g></g><g fill="#000000" fill-opacity="1"><g transform="translate(496.188652, 457.239175)"><g><path d="M 4.125 0.09375 C 3.40625 0.09375 2.765625 -0.0507812 2.203125 -0.34375 C 1.640625 -0.644531 1.195312 -1.054688 0.875 -1.578125 C 0.5625 -2.109375 0.40625 -2.707031 0.40625 -3.375 C 0.40625 -4.050781 0.5625 -4.648438 0.875 -5.171875 C 1.195312 -5.703125 1.640625 -6.113281 2.203125 -6.40625 C 2.765625 -6.707031 3.40625 -6.859375 4.125 -6.859375 C 4.832031 -6.859375 5.46875 -6.707031 6.03125 -6.40625 C 6.59375 -6.113281 7.03125 -5.703125 7.34375 -5.171875 C 7.664062 -4.648438 7.828125 -4.050781 7.828125 -3.375 C 7.828125 -2.707031 7.664062 -2.109375 7.34375 -1.578125 C 7.03125 -1.054688 6.59375 -0.644531 6.03125 -0.34375 C 5.46875 -0.0507812 4.832031 0.09375 4.125 0.09375 Z M 4.125 -1.5 C 4.625 -1.5 5.035156 -1.671875 5.359375 -2.015625 C 5.679688 -2.359375 5.84375 -2.8125 5.84375 -3.375 C 5.84375 -3.945312 5.679688 -4.398438 5.359375 -4.734375 C 5.035156 -5.078125 4.625 -5.25 4.125 -5.25 C 3.613281 -5.25 3.195312 -5.078125 2.875 -4.734375 C 2.550781 -4.398438 2.390625 -3.945312 2.390625 -3.375 C 2.390625 -2.8125 2.550781 -2.359375 2.875 -2.015625 C 3.195312 -1.671875 3.613281 -1.5 4.125 -1.5 Z M 4.125 -1.5 "/></g></g></g><g fill="#000000" fill-opacity="1"><g transform="translate(504.418026, 457.239175)"><g><path d="M 4.90625 -6.859375 C 5.53125 -6.859375 6.097656 -6.710938 6.609375 -6.421875 C 7.128906 -6.140625 7.535156 -5.734375 7.828125 -5.203125 C 8.117188 -4.679688 8.265625 -4.070312 8.265625 -3.375 C 8.265625 -2.6875 8.117188 -2.078125 7.828125 -1.546875 C 7.535156 -1.023438 7.128906 -0.617188 6.609375 -0.328125 C 6.097656 -0.046875 5.53125 0.09375 4.90625 0.09375 C 4.039062 0.09375 3.359375 -0.175781 2.859375 -0.71875 L 2.859375 2.4375 L 0.90625 2.4375 L 0.90625 -6.765625 L 2.78125 -6.765625 L 2.78125 -5.984375 C 3.257812 -6.566406 3.96875 -6.859375 4.90625 -6.859375 Z M 4.5625 -1.5 C 5.0625 -1.5 5.472656 -1.671875 5.796875 -2.015625 C 6.117188 -2.359375 6.28125 -2.8125 6.28125 -3.375 C 6.28125 -3.945312 6.117188 -4.398438 5.796875 -4.734375 C 5.472656 -5.078125 5.0625 -5.25 4.5625 -5.25 C 4.0625 -5.25 3.648438 -5.078125 3.328125 -4.734375 C 3.003906 -4.398438 2.84375 -3.945312 2.84375 -3.375 C 2.84375 -2.8125 3.003906 -2.359375 3.328125 -2.015625 C 3.648438 -1.671875 4.0625 -1.5 4.5625 -1.5 Z M 4.5625 -1.5 "/></g></g></g><g fill="#000000" fill-opacity="1"><g transform="translate(513.087138, 457.239175)"><g><path d="M 7.53125 -3.359375 C 7.53125 -3.328125 7.515625 -3.148438 7.484375 -2.828125 L 2.375 -2.828125 C 2.46875 -2.410156 2.6875 -2.078125 3.03125 -1.828125 C 3.375 -1.585938 3.800781 -1.46875 4.3125 -1.46875 C 4.664062 -1.46875 4.976562 -1.519531 5.25 -1.625 C 5.519531 -1.726562 5.769531 -1.894531 6 -2.125 L 7.046875 -1 C 6.410156 -0.269531 5.484375 0.09375 4.265625 0.09375 C 3.492188 0.09375 2.816406 -0.0507812 2.234375 -0.34375 C 1.648438 -0.644531 1.195312 -1.054688 0.875 -1.578125 C 0.5625 -2.109375 0.40625 -2.707031 0.40625 -3.375 C 0.40625 -4.039062 0.5625 -4.640625 0.875 -5.171875 C 1.1875 -5.703125 1.613281 -6.113281 2.15625 -6.40625 C 2.707031 -6.707031 3.320312 -6.859375 4 -6.859375 C 4.664062 -6.859375 5.265625 -6.710938 5.796875 -6.421875 C 6.335938 -6.140625 6.757812 -5.734375 7.0625 -5.203125 C 7.375 -4.671875 7.53125 -4.054688 7.53125 -3.359375 Z M 4.015625 -5.375 C 3.578125 -5.375 3.207031 -5.25 2.90625 -5 C 2.601562 -4.75 2.414062 -4.40625 2.34375 -3.96875 L 5.671875 -3.96875 C 5.609375 -4.394531 5.425781 -4.734375 5.125 -4.984375 C 4.820312 -5.242188 4.453125 -5.375 4.015625 -5.375 Z M 4.015625 -5.375 "/></g></g></g><g fill="#000000" fill-opacity="1"><g transform="translate(521.01498, 457.239175)"><g><path d="M 2.78125 -5.859375 C 3.007812 -6.191406 3.320312 -6.441406 3.71875 -6.609375 C 4.125 -6.773438 4.582031 -6.859375 5.09375 -6.859375 L 5.09375 -5.046875 C 4.882812 -5.066406 4.738281 -5.078125 4.65625 -5.078125 C 4.09375 -5.078125 3.648438 -4.921875 3.328125 -4.609375 C 3.015625 -4.296875 2.859375 -3.820312 2.859375 -3.1875 L 2.859375 0 L 0.90625 0 L 0.90625 -6.765625 L 2.78125 -6.765625 Z M 2.78125 -5.859375 "/></g></g></g><g fill="#000000" fill-opacity="1"><g transform="translate(526.433256, 457.239175)"><g/></g></g></svg>