<svg xmlns="http://www.w3.org/2000/svg" xmlns:xlink="http://www.w3.org/1999/xlink" width="1080" zoomAndPan="magnify" viewBox="0 0 810 809.999993" height="1080" preserveAspectRatio="xMidYMid meet" version="1.0"><defs><clipPath id="4f445870c4"><path d="M 187.558594 85 L 622.558594 85 L 622.558594 725 L 187.558594 725 Z M 187.558594 85 " clip-rule="nonzero"/></clipPath></defs><g clip-path="url(#4f445870c4)"><path fill="#000000" d="M 617.8125 495.871094 C 616.324219 496.445312 614.75 496.757812 613.179688 497.101562 C 606 498.703125 601.882812 502.789062 600.964844 510.078125 C 600.421875 514.25 599.992188 518.59375 600.59375 522.710938 C 603.96875 545.863281 584.523438 561.667969 568.992188 564.46875 C 565.847656 565.042969 562.730469 565.785156 559.640625 566.640625 C 556.835938 567.414062 554.320312 568.699219 552.890625 571.128906 C 558.265625 589.507812 556.265625 607.542969 551.832031 625.492188 C 549.914062 633.265625 547.429688 640.925781 543.453125 647.929688 C 542.109375 650.300781 540.535156 652.617188 538.648438 654.5625 C 535.585938 657.703125 531.753906 658.992188 527.351562 657.875 C 524.75 657.21875 524.035156 656.332031 523.832031 653.589844 C 523.460938 648.671875 523.234375 643.757812 522.6875 638.871094 C 522.261719 634.953125 520.714844 631.351562 518.597656 628.035156 C 513.59375 620.175781 506.472656 615.917969 497.121094 616.203125 C 491.542969 616.375 485.996094 617.261719 480.847656 617.777344 C 479.074219 620.492188 477.703125 622.71875 476.1875 624.863281 C 473.726562 628.238281 471.980469 631.921875 470.980469 635.980469 C 470.722656 637.097656 470.378906 638.210938 469.894531 639.210938 C 468.207031 642.757812 462.832031 644.214844 459.882812 641.726562 C 458.910156 640.898438 458.425781 639.183594 458.226562 637.78125 C 457.796875 634.609375 457.683594 631.410156 457.425781 628.207031 C 457.339844 627.207031 457.253906 626.234375 457.140625 624.976562 C 454.792969 625.863281 452.707031 626.664062 450.617188 627.4375 C 450.273438 634.238281 442.324219 637.726562 436.632812 635.355469 C 416.296875 649.960938 401.597656 668.765625 392.675781 692.089844 C 389.472656 700.433594 386.898438 708.953125 385.210938 717.726562 C 384.152344 723.242188 381.894531 724.929688 376.375 724.300781 C 374.6875 724.101562 372.96875 723.757812 371.367188 723.1875 C 367.9375 721.929688 365.792969 719.441406 365.761719 715.753906 C 365.734375 711.183594 365.964844 706.609375 366.304688 702.035156 C 367.050781 692.117188 368.421875 682.226562 367.363281 672.226562 C 367.277344 671.425781 367.277344 670.625 367.136719 669.824219 C 366.5625 666.195312 364.789062 663.648438 360.871094 663.164062 C 357.8125 662.765625 354.753906 662.164062 351.691406 662.078125 C 342.253906 661.847656 332.988281 663.136719 323.835938 665.421875 C 306.789062 669.679688 296.78125 680.800781 292.492188 697.492188 C 291.375 701.808594 290.632812 706.207031 289.460938 710.523438 C 288.832031 712.78125 287.914062 715.097656 286.597656 717.042969 C 284.996094 719.441406 282.425781 720.671875 279.476562 720.269531 C 278.648438 720.15625 277.933594 719.214844 277.160156 718.671875 C 277.21875 718.640625 277.277344 718.585938 277.304688 718.554688 C 276.1875 718.214844 275.1875 717.640625 274.53125 716.726562 C 274.445312 716.785156 274.386719 716.839844 274.300781 716.839844 C 273.730469 716.898438 272.898438 716.671875 272.558594 716.242188 C 271.984375 715.554688 271.640625 714.667969 271.328125 713.8125 C 269.582031 709.296875 268.78125 704.550781 268.46875 699.75 C 267.582031 686.085938 268.210938 672.539062 272.042969 659.277344 C 272.214844 658.734375 272.328125 658.164062 272.441406 657.617188 C 272.472656 657.417969 272.386719 657.160156 272.328125 656.789062 C 268.410156 656.476562 264.433594 656.21875 260.460938 655.875 C 249.21875 654.847656 238.265625 652.472656 228 647.730469 C 208.808594 638.839844 196.769531 623.863281 191.449219 603.511719 C 188.273438 591.335938 187.585938 578.875 188.160156 566.355469 C 188.960938 548.175781 192.363281 530.484375 198.3125 513.277344 C 200.515625 506.90625 203.003906 500.617188 206.890625 495.015625 C 207.605469 493.957031 207.980469 492.472656 208.035156 491.183594 C 208.292969 482.695312 210.351562 474.664062 213.84375 467.003906 C 216.617188 460.945312 218.761719 460.03125 224.882812 462.632812 C 227.710938 463.832031 230.488281 465.261719 233.0625 466.917969 C 235.636719 468.574219 237.894531 470.691406 240.441406 472.691406 C 244.445312 470.691406 248.589844 468.492188 252.824219 466.519531 C 265.351562 460.6875 278.621094 457.171875 292.148438 454.769531 C 308.191406 451.941406 324.351562 450.339844 340.652344 450.539062 C 346.914062 450.597656 353.09375 451.339844 359.15625 453 C 358.84375 451.027344 359.957031 449.539062 361.128906 448.226562 C 367.308594 441.28125 374.484375 435.707031 383.265625 432.390625 C 387.984375 430.617188 390.074219 431.132812 392.304688 435.59375 C 394.707031 440.367188 396.765625 445.367188 398.507812 450.425781 C 399.308594 452.796875 398.996094 455.542969 399.195312 458.457031 C 405.972656 459.660156 411.238281 464.402344 417.070312 468.460938 C 418.042969 467.289062 417.644531 466.003906 417.644531 464.832031 C 417.671875 435.992188 417.585938 407.125 417.699219 378.285156 C 417.8125 344.957031 418.128906 311.660156 418.359375 278.332031 C 418.386719 276.273438 418.53125 274.246094 418.644531 271.902344 C 417.5 271.644531 416.414062 271.414062 415.355469 271.1875 C 412.550781 270.558594 409.804688 269.730469 407.605469 267.757812 C 404.972656 265.414062 404.601562 263.898438 406.230469 260.8125 C 407.460938 258.496094 409.035156 256.351562 410.464844 254.152344 C 411.035156 253.292969 411.609375 252.464844 412.292969 251.464844 C 411.550781 250.578125 410.722656 249.808594 410.179688 248.835938 C 409.636719 247.863281 409.40625 246.722656 408.976562 245.433594 C 405.800781 245.089844 402.511719 244.777344 399.253906 244.378906 C 388.898438 243.0625 378.71875 240.890625 369.050781 236.832031 C 347.945312 227.941406 334.847656 212.394531 330.785156 189.726562 C 327.496094 171.378906 329.128906 153.429688 336.761719 136.308594 C 346.628906 114.097656 363.617188 99.636719 386.527344 92.0625 C 402.027344 86.945312 417.984375 85.203125 434.289062 86.203125 C 445.328125 86.859375 456.136719 88.460938 466.492188 92.433594 C 493.003906 102.667969 507.675781 122.386719 511.792969 150.054688 C 514.394531 167.691406 509.503906 183.867188 500.324219 198.84375 C 491.660156 212.992188 479.960938 224.082031 465.746094 232.601562 C 457.683594 237.429688 449.332031 241.691406 440.09375 243.917969 C 438.320312 244.347656 436.546875 244.71875 435.203125 245.035156 C 434.058594 247.035156 433.144531 248.722656 432.058594 250.609375 C 433.832031 253.496094 435.746094 256.609375 437.632812 259.753906 C 439.378906 262.613281 439.148438 265.011719 436.375 266.898438 C 433.945312 268.558594 431.171875 269.699219 428.140625 271.300781 C 428.109375 271.671875 428.023438 272.53125 428.054688 273.417969 C 428.167969 277.53125 428.453125 281.648438 428.453125 285.765625 C 428.710938 344.042969 428.941406 402.324219 429.109375 460.601562 C 429.140625 466.316406 428.882812 472.035156 428.683594 477.75 C 428.652344 478.921875 428.738281 479.867188 429.511719 480.894531 C 432.828125 485.269531 436.003906 489.753906 439.492188 494.558594 C 444.582031 494.558594 448.128906 497.757812 450.847656 502.132812 C 489.511719 502.675781 521.6875 516.222656 544.796875 548.691406 C 547.199219 544.917969 550.601562 543.804688 554.550781 543.605469 C 556.808594 543.488281 559.125 543.175781 561.328125 542.632812 C 572.539062 539.859375 579.6875 530.714844 579.632812 519.167969 C 579.601562 515.394531 579.117188 511.648438 578.714844 507.875 C 578.027344 501.273438 578.113281 494.757812 581.949219 488.984375 C 588.382812 479.292969 597.589844 475.351562 609.058594 476.351562 C 610.433594 476.464844 611.777344 476.75 613.121094 477.035156 C 619.585938 478.351562 621.929688 483.097656 622.414062 489.328125 C 622.53125 492.640625 620.957031 494.699219 617.8125 495.871094 Z M 617.8125 495.871094 " fill-opacity="1" fill-rule="nonzero"/></g><path fill="#f05161" d="M 506.816406 150 C 502.871094 124.933594 489.65625 106.78125 465.691406 97.179688 C 455.9375 93.261719 445.671875 91.664062 435.230469 90.917969 C 419.53125 89.777344 404.117188 91.347656 389.101562 96.035156 C 366.707031 103.039062 350.089844 116.898438 340.652344 138.566406 C 332.757812 156.6875 331.472656 175.578125 336.421875 194.671875 C 340.28125 209.507812 349.117188 220.855469 362.445312 228.628906 C 368.109375 231.914062 374.144531 234.375 380.433594 236.175781 C 392.046875 239.488281 403.914062 241.0625 415.957031 241.71875 C 416.757812 241.777344 417.613281 241.632812 418.328125 241.890625 C 418.929688 242.089844 419.445312 242.605469 419.960938 243.035156 C 420.933594 242.976562 421.875 242.890625 422.875 242.777344 C 423.589844 241.777344 424.734375 241.492188 425.765625 241.234375 C 427.539062 240.777344 429.367188 240.660156 431.171875 240.347656 C 434.316406 239.832031 437.605469 239.691406 440.609375 238.6875 C 464.832031 230.628906 484.25 216.308594 497.320312 194.101562 C 505.328125 180.496094 509.304688 165.777344 506.816406 150 Z M 380.976562 124.988281 C 380.890625 126.160156 380.261719 127.363281 379.605469 128.363281 C 379.0625 129.191406 378.148438 129.820312 377.289062 130.363281 C 367.105469 136.90625 362.101562 146.769531 359.585938 158.171875 C 359.300781 159.515625 359.097656 160.859375 358.785156 162.203125 C 358.46875 163.632812 357.785156 164.804688 356.097656 164.863281 C 354.410156 164.917969 353.207031 164.089844 352.75 162.488281 C 352.378906 161.316406 352.292969 160.03125 352.148438 159.203125 C 353.722656 143.824219 360.359375 131.878906 373.054688 123.53125 C 374.199219 122.789062 375.457031 122.160156 376.746094 121.730469 C 379.234375 120.929688 381.179688 122.386719 380.976562 124.988281 Z M 395.222656 120.730469 C 392.359375 120.703125 390.101562 118.644531 390.246094 116.214844 C 390.386719 113.726562 393.21875 111.753906 396.335938 111.957031 C 399.023438 112.128906 400.511719 113.585938 400.425781 115.984375 C 400.339844 118.757812 398.136719 120.757812 395.222656 120.730469 Z M 434.144531 262.554688 C 429.570312 268.15625 413.265625 269.015625 408.691406 264.042969 C 411.007812 260.296875 413.351562 256.554688 415.328125 253.410156 C 420.160156 253.007812 424.421875 252.664062 428.910156 252.292969 C 430.542969 255.523438 432.34375 259.039062 434.144531 262.554688 Z M 434.144531 262.554688 " fill-opacity="1" fill-rule="nonzero"/><path fill="#cb915a" d="M 279.078125 717.296875 C 278.421875 717.382812 277.820312 718.097656 277.191406 718.585938 C 276.074219 718.242188 275.074219 717.671875 274.417969 716.753906 C 274.703125 716.527344 275.015625 715.957031 275.015625 715.582031 C 275.046875 714.441406 274.875 713.296875 274.730469 712.183594 C 273.957031 705.609375 272.871094 699.035156 272.414062 692.433594 C 271.699219 682.085938 273.1875 671.882812 274.703125 661.679688 C 274.960938 660.019531 275.273438 658.390625 275.589844 656.789062 C 276.761719 656.734375 277.5625 656.675781 278.363281 656.675781 C 300.441406 656.648438 322.207031 653.847656 343.683594 648.957031 C 364.820312 644.15625 384.925781 636.695312 402.886719 624.292969 C 417.898438 613.917969 430.628906 601.398438 438.722656 584.792969 C 441.609375 578.847656 443.753906 572.53125 446.214844 566.382812 C 446.527344 565.554688 446.84375 564.753906 447.15625 563.925781 C 447.671875 564.554688 447.699219 565.011719 447.671875 565.46875 C 447.617188 566.84375 447.585938 568.214844 447.472656 569.585938 C 446.472656 582.621094 444.15625 595.425781 441.066406 608.113281 C 439.121094 616.058594 435.945312 623.71875 435.460938 631.722656 C 432.800781 633.210938 430.113281 634.324219 427.851562 636.011719 C 424.105469 638.8125 420.417969 641.785156 417.097656 645.070312 C 399.082031 662.90625 388.472656 684.800781 382.324219 709.09375 C 381.605469 711.980469 381.179688 714.925781 380.605469 717.839844 C 380.347656 719.128906 379.921875 720.5 378.347656 720.386719 C 375.972656 720.214844 373.570312 720.015625 371.3125 719.355469 C 369.339844 718.785156 369.050781 717.671875 369.453125 715.582031 C 369.882812 713.355469 370.453125 711.097656 370.683594 708.839844 C 371.367188 702.234375 372.253906 695.632812 372.457031 689.003906 C 372.65625 682.171875 372.484375 675.28125 371.910156 668.453125 C 371.453125 663.191406 368.28125 659.648438 362.960938 658.449219 C 360.84375 657.960938 358.699219 657.53125 356.554688 657.332031 C 345.742188 656.390625 335.074219 657.589844 324.523438 660.046875 C 304.359375 664.734375 292.261719 677.253906 287.859375 697.347656 C 286.800781 702.148438 285.882812 706.980469 284.769531 711.78125 C 284.109375 714.753906 282.453125 716.898438 279.078125 717.296875 Z M 359.128906 453 C 358.5 455.742188 358.382812 455.886719 355.894531 455.914062 C 354.292969 455.941406 352.691406 455.886719 351.089844 455.742188 C 333.53125 454.199219 316.085938 455.886719 298.726562 458.230469 C 278.992188 460.917969 260.144531 466.859375 242.183594 475.4375 C 240.269531 476.351562 238.953125 476.207031 237.207031 475.035156 C 233.117188 472.292969 228.886719 469.777344 224.625 467.347656 C 223.078125 466.460938 221.304688 466.03125 219.449219 465.347656 C 216.585938 469.949219 214.757812 474.605469 213.5 479.464844 C 212.210938 484.410156 211.726562 489.613281 210.152344 494.441406 C 208.550781 499.300781 206.035156 503.847656 203.917969 508.535156 C 203.773438 508.847656 203.6875 509.191406 203.574219 509.507812 C 197.597656 526.199219 193.9375 543.375 192.792969 561.039062 C 191.933594 574.332031 192.222656 587.59375 195.394531 600.625 C 200.6875 622.320312 213.613281 637.46875 234.578125 645.355469 C 245.902344 649.617188 257.800781 651.332031 269.867188 651.730469 C 294.722656 652.53125 319.230469 649.585938 343.398438 643.984375 C 362.902344 639.46875 381.464844 632.523438 398.28125 621.347656 C 419.101562 607.484375 434.03125 589.164062 441.207031 564.925781 C 445.011719 552.152344 446.8125 539.203125 444.613281 525.941406 C 440.722656 502.53125 428.625 484.152344 409.835938 469.976562 C 406.546875 467.488281 403.199219 465.117188 399.910156 462.632812 C 399.082031 462.03125 398.136719 461.375 397.707031 460.515625 C 396.363281 457.6875 395.191406 454.769531 394.019531 451.855469 C 392.304688 447.625 390.671875 443.367188 388.898438 439.164062 C 388.441406 438.050781 387.613281 437.050781 387.011719 436.105469 C 381.808594 437.277344 375.488281 440.59375 370.253906 444.96875 C 367.621094 447.167969 365.132812 449.539062 362.589844 451.855469 C 361.585938 452.769531 360.644531 453.941406 359.042969 453.085938 C 359.042969 453.113281 359.128906 453 359.128906 453 Z M 272.984375 605.226562 C 272.984375 599.824219 274.617188 596.480469 277.648438 596.195312 C 277.332031 597.339844 276.875 598.367188 276.761719 599.425781 C 276.53125 601.453125 276.273438 603.542969 276.390625 605.570312 C 276.703125 611.03125 279.878906 613.546875 285.285156 613.003906 C 290.230469 612.515625 294.121094 610.171875 297.4375 606.628906 C 298.898438 605.054688 300.554688 603.65625 302.242188 602.054688 C 301.386719 596.140625 300.46875 589.9375 299.496094 583.304688 C 298.039062 583.589844 296.636719 583.90625 295.238281 584.132812 C 292.777344 584.503906 290.402344 584.363281 288.402344 582.703125 C 286.226562 580.90625 286.3125 579.417969 288.714844 577.875 C 295.351562 573.53125 302.644531 571.101562 310.480469 570.128906 C 311.394531 570.015625 312.308594 569.984375 313.226562 570.042969 C 315.914062 570.242188 316.945312 571.816406 315.683594 574.246094 C 315.054688 575.472656 313.910156 576.675781 312.710938 577.332031 C 309.421875 579.160156 305.988281 580.675781 302.5 582.390625 C 303.875 589.050781 305.246094 595.710938 306.648438 602.597656 C 315.65625 607.6875 328.839844 604.484375 334.589844 597.566406 C 336.847656 594.851562 338.308594 591.824219 338.59375 588.277344 C 338.652344 587.59375 338.566406 586.847656 338.824219 586.25 C 339.050781 585.675781 339.566406 584.964844 340.082031 584.847656 C 340.625 584.734375 341.453125 585.132812 341.855469 585.59375 C 343.167969 587.078125 343.339844 588.878906 342.910156 590.765625 C 341.738281 595.710938 339.222656 599.824219 335.277344 603.054688 C 334.390625 603.769531 333.472656 604.457031 332.558594 605.140625 C 335.132812 613.945312 333.417969 622.175781 329.269531 629.980469 C 325.953125 636.210938 320.976562 640.699219 313.828125 642.042969 C 304.875 643.699219 297.808594 640.242188 292.835938 632.894531 C 290.804688 629.921875 289.632812 626.378906 288.230469 623.007812 C 287.457031 621.148438 287.058594 619.117188 286.484375 617.261719 C 276.332031 616.230469 272.984375 613.203125 272.984375 605.226562 Z M 343.226562 544.578125 C 344 544.804688 344.855469 544.890625 345.484375 545.320312 C 346.058594 545.691406 346.371094 546.433594 346.832031 547.035156 C 346.199219 547.433594 345.542969 548.207031 344.972656 548.175781 C 342.597656 548.007812 340.136719 547.835938 337.878906 547.175781 C 332.84375 545.691406 327.898438 543.949219 322.921875 542.261719 C 322.292969 542.0625 321.664062 541.660156 321.175781 541.203125 C 320.175781 540.316406 319.917969 539.175781 321.0625 538.257812 C 326.007812 534.371094 330.984375 530.542969 335.960938 526.742188 C 336.847656 526.082031 337.9375 525.828125 338.679688 526.914062 C 339.421875 527.96875 338.878906 528.941406 337.992188 529.597656 C 335.535156 531.457031 333.015625 533.230469 330.527344 535.058594 C 328.898438 536.257812 327.296875 537.515625 325.007812 539.230469 C 331.671875 541.203125 337.449219 542.890625 343.226562 544.578125 Z M 248.90625 548.0625 C 247.589844 547.777344 245.960938 548.09375 245.816406 546.148438 C 245.730469 545.003906 247.273438 544.035156 249.421875 544.433594 C 254.109375 545.289062 258.859375 546.207031 263.40625 547.632812 C 266.808594 548.691406 267.410156 551.492188 264.949219 554.035156 C 261.144531 557.980469 257.027344 561.640625 253.050781 565.414062 C 252.792969 565.640625 252.507812 565.898438 252.195312 565.957031 C 251.25 566.070312 249.992188 566.46875 249.421875 566.042969 C 248.304688 565.183594 248.933594 563.839844 249.761719 563.039062 C 252.910156 560.066406 256.167969 557.179688 259.402344 554.292969 C 260.316406 553.492188 261.289062 552.722656 262.890625 551.40625 C 257.714844 550.121094 253.308594 549.035156 248.90625 548.0625 Z M 239.496094 604.714844 C 241.785156 603.769531 244.214844 603.171875 246.644531 602.597656 C 247.132812 602.484375 247.761719 603.113281 248.332031 603.398438 C 248.019531 603.914062 247.847656 604.800781 247.390625 604.941406 C 243.097656 606.371094 238.78125 607.714844 234.460938 609.027344 C 234.234375 609.085938 233.890625 608.800781 233.203125 608.484375 C 235.003906 606.226562 237.351562 605.597656 239.496094 604.714844 Z M 232.632812 599.796875 C 233.320312 597.882812 235.207031 597.996094 236.523438 597.738281 C 239.351562 597.167969 242.15625 595.710938 245.5 596.652344 C 242.785156 599.570312 236.378906 601.054688 232.632812 599.796875 Z M 382.664062 558.296875 C 382.035156 559.980469 378.574219 562.953125 375.457031 564.242188 C 374.113281 564.785156 372.65625 565.871094 371.027344 564.640625 C 372.3125 562.953125 379.921875 558.867188 382.664062 558.296875 Z M 249.964844 612.203125 C 248.277344 615.058594 242.183594 618.148438 238.867188 617.832031 C 240.78125 614.746094 246.761719 611.746094 249.964844 612.203125 Z M 223.507812 474.722656 C 225.824219 473.949219 226.828125 475.835938 227.882812 477.035156 C 229.285156 478.664062 231.71875 479.78125 231.460938 482.980469 C 228.828125 481.722656 224.710938 477.292969 223.507812 474.722656 Z M 375.660156 572.414062 C 375.257812 572.53125 374.601562 571.929688 373.457031 571.328125 C 377.175781 569.269531 380.433594 567.785156 384.265625 567.585938 C 381.835938 569.984375 378.863281 571.445312 375.660156 572.414062 Z M 376.632812 580.503906 C 376.171875 580.503906 375.714844 579.703125 375.285156 579.304688 C 375.6875 578.960938 376 578.359375 376.460938 578.273438 C 379.203125 577.675781 381.980469 577.1875 384.753906 576.675781 C 384.839844 577.015625 384.925781 577.390625 385.011719 577.730469 C 382.523438 579.53125 379.75 580.5625 376.632812 580.503906 Z M 382.152344 447.652344 C 381.921875 450.140625 379.890625 451.199219 378.519531 452.65625 C 376.886719 454.34375 376.832031 454.285156 374.914062 454.429688 C 375.601562 451.511719 378.832031 448.398438 382.152344 447.652344 Z M 615.464844 482.695312 C 607.886719 479.78125 600.394531 479.78125 593.300781 483.953125 C 585.835938 488.328125 582.203125 494.929688 582.804688 503.703125 C 583.175781 509.191406 583.578125 514.652344 583.777344 520.136719 C 584.292969 534.515625 571.738281 545.289062 560.957031 546.664062 C 558.238281 547.007812 555.492188 547.175781 552.746094 547.234375 C 549.714844 547.292969 547.484375 548.492188 546.140625 551.179688 C 549.257812 558.351562 549.257812 558.351562 547.714844 560.554688 C 543.367188 555.722656 540.421875 549.976562 536.1875 545.234375 C 532.011719 540.546875 527.867188 535.746094 523.117188 531.65625 C 518.285156 527.484375 513.023438 523.710938 507.472656 520.539062 C 501.953125 517.367188 496.035156 514.765625 490.027344 512.621094 C 484.136719 510.507812 477.960938 509.105469 471.839844 507.734375 C 465.632812 506.363281 459.285156 505.90625 452.675781 505.417969 C 453.621094 508.21875 454.535156 510.5625 455.222656 512.964844 C 457.824219 522.054688 458.769531 531.371094 459.226562 540.746094 C 460.199219 559.980469 459.628906 579.21875 457.140625 598.3125 C 456.308594 604.65625 454.992188 610.945312 453.59375 617.175781 C 453.164062 619.089844 451.847656 620.832031 450.761719 622.546875 C 450.589844 622.835938 449.960938 623.09375 449.503906 623.148438 C 449.386719 623.890625 449.300781 624.664062 449.21875 625.40625 C 450.5625 624.265625 452.019531 623.292969 453.621094 622.492188 C 457.082031 620.75 460.597656 619.0625 464.289062 617.859375 C 475.414062 614.230469 486.796875 611.746094 498.609375 611.832031 C 505.816406 611.886719 512.105469 614.316406 517.226562 619.347656 C 527.066406 629.007812 529.695312 640.753906 526.949219 654.304688 C 530.066406 655.445312 533.242188 654.675781 535.703125 651.703125 C 537.273438 649.789062 538.703125 647.617188 539.707031 645.355469 C 548.085938 626.40625 552.003906 606.628906 550.257812 585.878906 C 549.972656 582.332031 549.628906 578.816406 549.429688 575.273438 C 549.285156 573.074219 548.714844 570.644531 551.375 569.328125 C 552.949219 564.8125 556.980469 563.582031 560.925781 562.355469 C 564.1875 561.324219 567.589844 560.695312 570.851562 559.695312 C 587.410156 554.664062 596.875 540.6875 595.734375 523.625 C 595.417969 519.082031 595.445312 514.421875 596.132812 509.933594 C 597.90625 498.1875 604.714844 493.558594 612.605469 492.269531 C 617.640625 491.441406 617.527344 491.242188 617.640625 485.984375 C 617.695312 484.238281 617.097656 483.324219 615.464844 482.695312 Z M 474.414062 619.289062 C 470.609375 620.375 466.804688 621.433594 463 622.578125 C 461.945312 622.890625 460.941406 623.40625 459.628906 623.921875 C 460.398438 629.207031 461.144531 634.324219 461.886719 639.355469 C 465.574219 639.527344 466.203125 639.242188 466.863281 636.269531 C 468.234375 630.179688 470.550781 624.605469 474.84375 619.917969 C 474.699219 619.71875 474.554688 619.492188 474.414062 619.289062 Z M 474.414062 619.289062 " fill-opacity="1" fill-rule="nonzero"/><path fill="#f6917c" d="M 328.667969 618.289062 C 327.8125 623.949219 325.636719 628.75 321.863281 632.78125 C 314.371094 640.8125 301.84375 639.925781 295.722656 630.4375 C 298.382812 624.007812 304.101562 621.460938 309.992188 624.121094 C 310.109375 624.976562 310.222656 625.835938 310.367188 626.722656 C 310.367188 626.777344 310.539062 626.808594 311.023438 627.035156 C 312.367188 625.292969 313.570312 623.207031 315.285156 621.75 C 317.058594 620.261719 319.261719 618.976562 321.492188 618.402344 C 323.722656 617.832031 326.179688 618.289062 328.667969 618.289062 Z M 329.070312 614.574219 C 329.070312 611.917969 329.070312 609.601562 329.070312 606.886719 C 319.976562 610.203125 311.507812 610.03125 303.445312 604.742188 C 300.898438 611.316406 295.324219 614.34375 289.085938 616.804688 C 290.71875 620.605469 291.746094 624.320312 293.976562 627.835938 C 298.527344 621.207031 304.074219 618.148438 312.054688 621.433594 C 316.285156 615.144531 322.605469 614.429688 329.070312 614.574219 Z M 329.070312 614.574219 " fill-opacity="1" fill-rule="nonzero"/><path fill="#ffffff" d="M 419.988281 243.035156 C 420.960938 242.976562 421.902344 242.890625 422.90625 242.777344 C 422.675781 243.121094 422.476562 243.492188 422.363281 243.976562 C 424.390625 245.921875 427.394531 244.605469 429.996094 246.007812 C 426.738281 249.121094 422.875 249.722656 418.871094 249.550781 C 415.039062 249.40625 413.4375 248.40625 412.066406 245.804688 C 413.007812 245.691406 413.894531 245.632812 414.753906 245.519531 C 416.011719 245.347656 417.328125 245.378906 418.472656 244.949219 C 419.160156 244.691406 419.585938 243.777344 420.132812 243.148438 C 420.101562 243.121094 420.046875 243.0625 419.988281 243.035156 Z M 449.046875 623.148438 C 448.5 622.777344 447.988281 621.890625 448.015625 621.261719 C 448.074219 619.917969 448.472656 618.574219 448.730469 617.230469 C 449.730469 612.316406 450.933594 607.398438 451.761719 602.457031 C 453.851562 589.792969 454.652344 576.988281 454.964844 564.15625 C 455.335938 549.378906 454.964844 534.628906 452.476562 519.996094 C 451.5625 514.566406 450.019531 509.277344 447.472656 504.390625 C 446.128906 501.789062 444.554688 499.300781 441.007812 497.816406 C 441.695312 499.386719 442.125 500.386719 442.609375 501.386719 C 448.988281 514.792969 451.675781 528.882812 450.589844 543.71875 C 450.390625 546.664062 450.304688 549.691406 450.648438 552.609375 C 451.90625 564.039062 451.789062 575.472656 450.074219 586.847656 C 448.902344 594.652344 447.328125 602.398438 445.5 610.058594 C 443.695312 617.632812 442.351562 625.40625 438.148438 632.582031 C 441.410156 632.464844 443.898438 631.636719 445.699219 629.265625 C 446.757812 627.863281 447.957031 626.605469 449.273438 625.492188 C 449.359375 624.75 449.445312 623.976562 449.558594 623.234375 C 449.332031 623.207031 449.160156 623.207031 449.046875 623.148438 Z M 421.445312 279.132812 C 421.675781 341.183594 421.902344 403.207031 422.105469 465.261719 C 422.105469 466.976562 422.105469 468.71875 421.820312 470.375 C 421.445312 472.519531 422.191406 473.808594 424.105469 474.636719 C 424.390625 406.839844 424.648438 339.242188 424.9375 271.414062 C 423.847656 271.558594 422.648438 271.703125 421.445312 271.84375 C 421.445312 274.558594 421.445312 276.847656 421.445312 279.132812 Z M 377.574219 124.332031 C 377.261719 124.445312 376.945312 124.558594 376.632812 124.730469 C 364.847656 131.132812 357.582031 140.910156 354.839844 153.972656 C 354.378906 156.199219 354.292969 158.488281 354.152344 160.773438 C 354.09375 161.859375 354.464844 162.832031 356.269531 162.660156 C 356.496094 161.546875 356.753906 160.375 356.984375 159.171875 C 359.328125 146.710938 364.476562 135.9375 375.285156 128.535156 C 376.117188 127.960938 376.945312 127.304688 377.574219 126.503906 C 377.976562 125.988281 378.003906 125.160156 378.234375 124.417969 C 377.773438 124.332031 377.660156 124.304688 377.574219 124.332031 Z M 393.648438 114.757812 C 393.132812 115.042969 392.617188 116.101562 392.761719 116.644531 C 392.902344 117.214844 393.734375 117.871094 394.390625 118.015625 C 396.851562 118.617188 397.792969 117.15625 397.023438 113.699219 C 395.878906 114.070312 394.648438 114.214844 393.648438 114.757812 Z M 393.648438 114.757812 " fill-opacity="1" fill-rule="nonzero"/></svg>