<svg width="1440" height="1024" viewBox="0 0 1440 1024" fill="none" xmlns="http://www.w3.org/2000/svg">
<path d="M657.174 736.491L635.772 751.961L619.72 731.334L641.122 715.864L657.174 736.491Z" fill="#D194C2"/>
<path d="M1229.69 347.156L1245.74 295.588" stroke="#70C299" stroke-width="4.4908" stroke-linecap="round"/>
<path d="M793.813 75.1233L784.574 72.4534L781.445 62.5905L776.116 72.2492L767.659 72.045L775.122 77.9344L772.352 86.8393L779.245 82.112L786.708 88.0015L786.92 79.8505L793.813 75.1233Z" fill="#98D147"/>
<path d="M486.71 514.632L475.608 512.358L473.48 504.466L469.663 513.004L460.018 512.892L466.633 517.975L464.273 528.675L473.248 523.058L479.863 528.141L477.735 520.249L486.71 514.632Z" fill="#FFFF33"/>
<path d="M1340.31 559.545C1336.7 567.35 1338.15 575.556 1343.55 577.872C1348.95 580.189 1356.25 575.74 1359.86 567.935C1363.46 560.129 1362.01 551.924 1356.61 549.607C1351.21 547.29 1343.91 551.739 1340.31 559.545Z" fill="#D194C2"/>
<path d="M162.239 731.334L186.317 718.442L188.992 741.647L162.239 731.334Z" fill="#98D147"/>
<path d="M491.304 171.827L518.057 176.983L493.979 195.032L491.304 171.827Z" fill="#FFFF33"/>
<path d="M1317.98 718.442L1366.13 697.815" stroke="#AACC66" stroke-width="4.4908" stroke-linecap="round"/>
<path d="M489.279 978.416L485.495 971.123L487.387 962.007L479.82 965.653L472.253 958.361L472.253 969.3L464.686 972.946L474.145 974.769L476.037 983.885L479.82 976.592L489.279 978.416Z" fill="#FFFF33"/>
<path d="M831.07 646.247L817.693 669.453L804.316 648.826L831.07 646.247Z" fill="#AACC66"/>
<path d="M1326 1020.11V1071.68" stroke="#AACC66" stroke-width="4.4908" stroke-linecap="round"/>
<path d="M523.867 412.241L531.434 408.595L539.001 412.241L537.109 403.125L542.784 397.656L535.217 397.656L533.325 388.54L529.542 395.832L518.191 395.832L525.758 403.125L523.867 412.241Z" fill="#D194C2"/>
<path d="M846.792 372.369C852.951 366.223 854.497 358.033 850.245 354.076C845.994 350.119 837.555 351.894 831.397 358.04C825.238 364.186 823.693 372.376 827.944 376.333C832.195 380.29 840.634 378.515 846.792 372.369Z" fill="#FFFF33"/>
<path d="M1064.02 783.28C1054.18 786.36 1047.32 792.151 1048.69 796.214C1050.06 800.277 1059.14 801.073 1068.98 797.993C1078.81 794.913 1085.68 789.122 1084.31 785.059C1082.94 780.996 1073.85 780.2 1064.02 783.28Z" fill="#D194C2"/>
<path d="M314.732 617.885L290.654 604.993L304.031 581.788L328.109 594.68L314.732 617.885Z" fill="#D194C2"/>
<path d="M1136.06 27.4376L1160.14 40.3295L1146.76 63.5349L1122.68 50.643L1136.06 27.4376Z" fill="#70C299"/>
<path d="M170.144 479.331L178.439 484.076L178.859 491.801L183.922 486.381L192.217 491.126L188.985 480.962L196.72 475.407L186.034 475.947L180.27 468.492L178.019 476.352L170.144 479.331Z" fill="#FFFF33"/>
<path d="M73.9524 336.843L52.5498 290.432" stroke="#E963D2" stroke-width="4.4908" stroke-linecap="round"/>
<path d="M845.095 505.402L846.769 515.589L839.261 519.345L848.025 523.229L851.923 530.465L855.952 522.019L864.298 523.355L857.757 516.522L861.786 508.075L854.278 511.832L845.095 505.402Z" fill="#E963D2"/>
<path d="M713.355 924.712L718.706 873.145" stroke="#AACC66" stroke-width="4.4908" stroke-linecap="round"/>
<path d="M178.291 971.123L124.784 960.809" stroke="#E963D2" stroke-width="4.4908" stroke-linecap="round"/>
<path d="M183.52 78.472L173.985 77.0674L173.018 68.9673L168.005 76.9099L158.47 75.5053L164.286 81.426L160.404 91.7055L170.103 87.3468L175.92 93.2675L177.377 84.0778L183.52 78.472Z" fill="#70C299"/>
<path d="M1275.17 99.632L1261.8 76.4267L1285.87 63.5348L1299.25 86.7402L1275.17 99.632Z" fill="#FFFF33"/>
<path d="M1356.77 866.699C1347.85 851.228 1340.72 852.088 1335.37 869.277C1331.8 888.185 1323.77 889.044 1311.29 871.855C1302.37 856.385 1295.24 858.104 1289.89 877.012C1286.32 894.201 1279.19 895.061 1268.48 879.59" stroke="#98D147" stroke-width="6.7362" stroke-linecap="round"/>
<path d="M368.24 320.083C346.837 321.802 342.378 331.256 354.863 348.445C367.348 365.634 362.889 375.088 341.487 376.807C321.868 376.807 317.409 385.402 328.11 402.591C340.595 418.061 336.136 427.515 314.733 430.953" stroke="#98D147" stroke-width="6.7362" stroke-linecap="round"/>
<path d="M507.355 4.23218H534.109V30.0159H507.355V4.23218Z" fill="#E963D2"/>
<path d="M1197.95 195.868L1207.11 192.948L1213.43 197.71L1212.51 190.472L1221.67 187.551L1213.69 184.821L1212.31 173.963L1205.72 182.09L1196.1 181.392L1200.78 188.186L1197.95 195.868Z" fill="#D194C2"/>
<path d="M1053.12 349.734L1029.04 336.842L1042.42 313.637L1066.5 326.529L1053.12 349.734Z" fill="#E963D2"/>
<path d="M314.733 785.48L336.136 800.95L312.058 811.263L314.733 785.48Z" fill="#70C299"/>
<path d="M1379.51 329.107L1403.59 341.999L1390.21 365.205L1366.13 352.313L1379.51 329.107Z" fill="#FFFF33"/>
<path d="M1087.9 927.29L1095.93 904.085L1120 911.82L1111.98 935.025L1087.9 927.29Z" fill="#98D147"/>
<path d="M1351.42 233.708C1371.04 231.989 1372.82 225.113 1356.77 213.081C1342.5 202.767 1345.18 196.751 1364.8 195.032C1382.63 195.032 1384.41 189.016 1370.15 176.983C1354.09 164.951 1355.88 158.075 1375.5 156.356" stroke="#D194C2" stroke-width="6.7362" stroke-linecap="round"/>
<path d="M499.328 837.047L515.38 857.674L493.978 873.145L477.926 852.518L499.328 837.047Z" fill="#70C299"/>
<path d="M31.1484 148.621L55.2263 138.308V161.513L31.1484 148.621Z" fill="#70C299"/>
<path d="M945.841 166.406C954.479 164.484 960.404 158.426 959.074 152.876C957.745 147.326 949.664 144.385 941.026 146.307C932.388 148.229 926.464 154.287 927.793 159.837C929.123 165.387 937.203 168.328 945.841 166.406Z" fill="#FFFF33"/>
<path d="M437.798 692.658L429.772 690.08L427.097 682.345L421.746 690.08H411.045L419.071 697.815L416.395 705.55L424.421 700.393L429.772 705.55V697.815L437.798 692.658Z" fill="#FFFF33"/>
<path d="M1192.24 556.004L1170.84 543.112L1200.26 535.377L1192.24 556.004Z" fill="#E963D2"/>
<path d="M865.85 942.76H919.356" stroke="#98D147" stroke-width="4.4908" stroke-linecap="round"/>
<path d="M336.135 241.443L368.239 200.189" stroke="#E963D2" stroke-width="4.4908" stroke-linecap="round"/>
<path d="M319.33 55.2864L319.782 46.0002L328.955 40.6883L317.942 38.0419L316.101 30.0836L311.978 38.4877L302.342 38.0514L308.769 43.3537L304.645 51.7578L312.903 49.984L319.33 55.2864Z" fill="#70C299"/>
<path d="M1004.97 460.605L983.563 476.075L967.511 455.448L988.913 439.978L1004.97 460.605Z" fill="#FFFF33"/>
<path d="M644.846 576.94C649.544 569.694 649.289 561.374 644.277 558.355C639.265 555.337 631.394 558.764 626.696 566.009C621.998 573.255 622.253 581.576 627.265 584.594C632.277 587.613 640.148 584.186 644.846 576.94Z" fill="#E963D2"/>
<path d="M675.902 313.637L654.499 298.167L670.551 277.54L691.954 293.01L675.902 313.637Z" fill="#AACC66"/>
<path d="M990.003 608.073C997.083 602.931 999.939 595.075 996.382 590.526C992.825 585.977 984.202 586.458 977.122 591.6C970.042 596.742 967.186 604.598 970.743 609.147C974.3 613.696 982.923 613.215 990.003 608.073Z" fill="#AACC66"/>
<path d="M69.9405 588.234C77.0747 571.045 70.8323 564.169 51.2133 567.607C33.3778 574.483 28.919 569.326 37.8367 552.137C44.9709 533.229 38.7285 526.353 19.1094 531.51C1.27396 538.386 -4.07668 532.369 3.05751 513.461" stroke="#E963D2" stroke-width="6.7362" stroke-linecap="round"/>
<path d="M183.643 238.864L197.019 215.659L221.097 228.551L207.72 251.756L183.643 238.864Z" fill="#E963D2"/>
<path d="M1197.59 684.923L1213.64 731.334" stroke="#E963D2" stroke-width="4.4908" stroke-linecap="round"/>
<path d="M304.031 953.074L290.654 929.868L314.732 916.977L328.109 940.182L304.031 953.074Z" fill="#70C299"/>
<path d="M757.498 -55.0705C737.879 -56.7894 734.312 -49.9138 746.797 -34.4435C761.065 -20.6922 758.39 -13.8165 738.771 -13.8165C719.152 -13.8165 715.585 -6.94088 728.069 6.81045C740.554 20.5618 736.987 27.4374 717.368 27.4374" stroke="#98D147" stroke-width="6.7362" stroke-linecap="round"/>
<path d="M15.0977 842.204L57.9028 873.144" stroke="#AACC66" stroke-width="4.4908" stroke-linecap="round"/>
<path d="M1422.52 14.0319C1432.17 10.4597 1438.71 4.33076 1437.12 0.342517C1435.54 -3.64573 1426.42 -3.983 1416.76 -0.410796C1407.11 3.16141 1400.57 9.29036 1402.16 13.2786C1403.75 17.2669 1412.86 17.6041 1422.52 14.0319Z" fill="#98D147"/>
<path d="M892.601 663.007C901.519 645.818 897.06 640.661 879.224 647.537C861.389 654.412 856.93 650.115 865.848 634.645C874.766 617.456 870.307 612.299 852.471 619.175C834.636 626.05 830.177 620.894 839.095 603.704" stroke="#FFFF33" stroke-width="6.7362" stroke-linecap="round"/>
<path d="M633.096 187.297L622.395 161.513L649.148 151.199L659.849 176.983L633.096 187.297Z" fill="#D194C2"/>
<path d="M56.5645 585.656C72.6164 599.407 83.3177 596.829 88.6683 577.921C92.2354 557.294 102.045 553.856 118.097 567.607C132.365 581.359 142.175 578.78 147.525 559.872C152.876 540.964 162.686 538.386 176.954 552.137" stroke="#98D147" stroke-width="6.7362" stroke-linecap="round"/>
<path d="M871.198 806.107L849.796 821.577V793.215L871.198 806.107Z" fill="#D194C2"/>
<path d="M1059.16 450.859C1063.37 459.965 1070.06 465.938 1074.11 464.201C1078.16 462.463 1078.04 453.673 1073.83 444.566C1069.62 435.46 1062.93 429.487 1058.88 431.224C1054.83 432.962 1054.96 441.753 1059.16 450.859Z" fill="#FFFF33"/>
<path d="M568.887 684.923L520.731 710.707" stroke="#FFFF33" stroke-width="4.4908" stroke-linecap="round"/>
<path d="M1255.11 965.966C1246.19 950.496 1239.06 951.355 1233.71 968.544C1230.14 987.452 1223 988.312 1212.3 971.123C1205.17 955.652 1198.93 956.512 1193.58 973.701C1190.01 992.609 1182.88 993.469 1172.17 976.279" stroke="#98D147" stroke-width="6.7362" stroke-linecap="round"/>
<path d="M52.5498 213.081L73.9524 197.61L90.0043 218.237L68.6017 233.708L52.5498 213.081Z" fill="#FFFF33"/>
<path d="M1162.81 602.415L1205.62 571.475" stroke="#70C299" stroke-width="4.4908" stroke-linecap="round"/>
<path d="M187.654 294.299C176.953 278.829 168.927 279.688 163.576 296.878C158.225 315.786 149.308 317.505 136.823 302.034C127.905 284.845 119.879 285.705 112.745 304.613C109.178 321.802 101.152 322.661 88.667 307.191" stroke="#70C299" stroke-width="6.7362" stroke-linecap="round"/>
<path d="M817.857 226.534C816.701 233.566 821.679 240.17 828.976 241.284C836.273 242.398 843.125 237.6 844.28 230.567C845.436 223.535 840.458 216.931 833.161 215.817C825.864 214.704 819.012 219.502 817.857 226.534Z" fill="#98D147"/>
<path d="M702.093 460.586C712.411 461.281 721.025 458.39 721.335 454.128C721.644 449.867 713.53 445.849 703.213 445.153C692.895 444.458 684.281 447.349 683.971 451.61C683.662 455.872 691.776 459.89 702.093 460.586Z" fill="#98D147"/>
<path d="M1078.74 177.72L1079.19 168.434L1084.69 162.24L1075.06 161.804L1073.22 153.846L1069.09 162.25L1059.46 161.813L1065.88 167.116L1063.14 177.73L1072.31 172.418L1078.74 177.72Z" fill="#98D147"/>
<path d="M408.37 543.113L360.214 563.74" stroke="#98D147" stroke-width="4.4908" stroke-linecap="round"/>
<path d="M153.877 187.843L153.204 179.715L158.501 171.946L150.068 172.595L145.886 163.101L141.634 173.244L133.201 173.893L141.262 178.998L139.473 188.133L145.816 182.738L153.877 187.843Z" fill="#FFFF33"/>
<path d="M451.173 999.485L429.771 984.014L445.822 963.387L467.225 978.858L451.173 999.485Z" fill="#D194C2"/>
<path d="M547.485 824.155V849.939H520.731V824.155H547.485Z" fill="#FFFF33"/>
<path d="M388.983 799.415C381.015 795.67 372.456 796.784 369.865 801.903C367.274 807.023 371.633 814.209 379.601 817.955C387.569 821.7 396.129 820.586 398.719 815.467C401.31 810.347 396.951 803.161 388.983 799.415Z" fill="#E963D2"/>
<path d="M52.5503 713.285L9.74512 682.345" stroke="#70C299" stroke-width="4.4908" stroke-linecap="round"/>
<path d="M1398.24 831.89L1374.16 844.782L1360.78 821.577L1384.86 808.685L1398.24 831.89Z" fill="#D194C2"/>
<path d="M1186.89 57.0888C1206.51 53.651 1209.18 44.197 1194.91 28.7267C1180.65 16.6943 1183.32 8.09973 1202.94 2.94298C1222.56 -0.494852 1225.23 -9.08943 1210.97 -22.8408C1196.7 -36.5921 1199.37 -45.1867 1218.99 -48.6245" stroke="#70C299" stroke-width="6.7362" stroke-linecap="round"/>
<path d="M924.706 53.2214L938.083 76.4268H908.654L924.706 53.2214Z" fill="#98D147"/>
<path d="M594.506 500.242L603.076 495.977L611.393 497.472L606.968 489.212L613.198 483.696L603.585 484.456L599.159 476.196L597.608 484.211L586.697 487.227L596.057 492.227L594.506 500.242Z" fill="#E963D2"/>
<path d="M308.404 577.879C299.73 572.45 290.741 570.954 288.326 574.537C285.912 578.119 290.987 585.425 299.661 590.854C308.335 596.283 317.324 597.779 319.738 594.197C322.153 590.614 317.078 583.308 308.404 577.879Z" fill="#E963D2"/>
<path d="M683.926 586.945L689.276 638.513" stroke="#98D147" stroke-width="4.4908" stroke-linecap="round"/>
<path d="M509.304 602.607C502.821 596.78 494.297 595.434 490.266 599.599C486.236 603.765 488.224 611.866 494.708 617.693C501.191 623.52 509.715 624.867 513.746 620.701C517.776 616.535 515.788 608.434 509.304 602.607Z" fill="#FFFF33"/>
<path d="M156.798 791.751L157.619 799.866L147.843 804.061L158.439 807.981L159.26 816.096L164.415 808.239L173.924 809.804L168.215 803.786L173.371 795.929L164.951 796.72L156.798 791.751Z" fill="#98D147"/>
<path d="M1063.61 12.122C1057.79 16.5055 1056.76 24.6073 1061.31 30.2179C1065.86 35.8286 1074.26 36.8233 1080.08 32.4398C1085.9 28.0563 1086.94 19.9545 1082.39 14.3439C1077.84 8.73325 1069.43 7.73847 1063.61 12.122Z" fill="#E963D2"/>
<path d="M1390.27 564.818C1391.2 573.315 1396.71 579.721 1402.59 579.125C1408.47 578.53 1412.48 571.159 1411.55 562.662C1410.63 554.164 1405.11 547.759 1399.23 548.354C1393.36 548.95 1389.34 556.321 1390.27 564.818Z" fill="#D194C2"/>
<path d="M539.46 476.075L563.537 486.388L536.784 499.28L539.46 476.075Z" fill="#FFFF33"/>
<path d="M186.11 510.432C183.784 500.719 178.396 493.625 174.077 494.586C169.758 495.547 168.143 504.2 170.47 513.912C172.797 523.625 178.184 530.719 182.503 529.758C186.822 528.797 188.437 520.144 186.11 510.432Z" fill="#FFFF33"/>
<path d="M223.771 274.962L245.173 228.551" stroke="#AACC66" stroke-width="4.4908" stroke-linecap="round"/>
</svg>
