<svg width="483" height="248" viewBox="0 0 483 248" fill="none" xmlns="http://www.w3.org/2000/svg">
<g clip-path="url(#clip0_79_360)">
<mask id="mask0_79_360" style="mask-type:luminance" maskUnits="userSpaceOnUse" x="37" y="13" width="410" height="222">
<path d="M37.0342 13.5852H446.33V234.321H37.0342V13.5852Z" fill="white"/>
</mask>
<g mask="url(#mask0_79_360)">
<path d="M410.414 138.164C406.929 141.644 404.68 141.892 401.074 139.381C399.239 140.119 397.621 141.091 395.878 141.413C393.89 141.768 392.366 140.459 391.24 139.18C389.607 139.75 388.127 140.583 386.6 140.675C385.167 140.751 383.702 140.043 381.853 139.582C378.232 141.508 376.583 141.136 373.901 137.286C370.912 137.611 367.613 138.335 366.425 134.036C364.638 134.376 362.896 134.701 361.277 133.561C359.752 132.497 359.135 130.973 359.011 129.032C358.196 129.141 357.502 129.265 356.808 129.295C354.435 129.386 353.156 128.077 353.325 125.69C353.387 124.813 353.556 123.95 353.665 123.212C351.151 121.811 348.962 122.473 346.652 123.519C338.051 127.369 329.328 130.943 320.789 134.916C316.612 136.855 312.698 139.396 308.737 141.8C307.289 142.678 306.025 143.862 304.776 145.017C303.204 146.465 302.48 148.329 302.386 150.453C302.079 157.523 301.771 164.575 301.476 171.645C301.461 172.197 301.556 172.753 301.6 173.352C303.219 173.184 304.746 173.03 306.208 172.876C308.013 170.351 309.676 167.733 311.605 165.361C315.764 160.247 321.128 157.045 327.742 156.214C335.292 155.257 339.823 158.43 342.304 164.173C343.045 165.884 343.678 167.654 344.448 169.349C346.912 174.815 351.151 176.386 356.624 173.861C357.579 173.414 358.473 172.859 359.398 172.336C360.107 171.937 360.784 171.488 361.51 171.104C363.622 169.996 365.808 169.411 367.937 170.98C370.094 172.567 370.401 174.924 370.032 177.356C369.137 183.456 364.484 187.675 358.211 188.029C348.578 188.567 341.38 184.609 336.725 176.141C335.986 174.785 335.324 173.385 334.568 172.044C332.332 168.102 328.326 166.992 324.427 169.302C323.317 169.949 322.253 170.797 321.406 171.751C319.849 173.506 318.461 175.417 317.09 177.172C317.182 177.494 317.182 177.695 317.276 177.787C325.198 186.549 325.027 196.422 321.19 206.724C319.633 210.896 316.86 214.332 313.516 217.289C312.913 217.827 312.314 218.35 311.496 219.074C312.698 219.597 313.731 219.998 314.701 220.491C316.396 221.337 316.813 222.17 316.567 224.016C316.195 226.867 314.361 229.1 311.543 229.561C309.399 229.916 307.165 229.931 305.006 229.792C297.054 229.269 289.102 228.746 281.18 227.975C275.447 227.42 269.758 226.465 264.039 225.65C263.254 225.541 262.468 225.233 261.744 224.879C260.311 224.202 259.493 223.047 259.463 221.413C259.449 220.769 259.463 220.122 259.463 219.458C259.478 216.624 259.325 216.379 256.457 216.394C247.672 216.426 238.887 216.456 230.102 216.61C224.738 216.701 219.374 217.026 214.013 217.271C212.964 217.319 211.916 217.564 210.867 217.658C208.864 217.842 207.523 218.642 206.504 220.598C205.689 222.155 204.132 223.463 202.637 224.509C199.214 226.897 195.3 228.329 191.339 229.576C181.491 232.672 171.365 233.966 161.086 234.288C159.313 234.35 157.509 234.088 155.751 233.872C153.949 233.656 152.437 232.888 151.914 230.994C151.344 228.914 151.081 226.758 152.593 224.973C153.116 224.356 154.056 223.972 154.889 223.724C156.277 223.31 157.724 223.109 159.636 222.707C158.404 221.785 157.541 221.183 156.723 220.521C151.406 216.225 148.585 210.512 147.197 203.968C145.286 194.895 148.092 187.32 154.457 180.853C157.048 178.218 160.067 176.448 163.983 176.295C164.06 175.816 164.229 175.355 164.214 174.909C163.936 166.362 162.997 157.907 160.87 149.591C159.668 144.879 157.048 141.584 152.623 139.381C139.877 133.067 127.347 126.337 115.263 118.807C113.121 117.468 111.225 118.47 109.222 118.39C109.006 118.376 108.744 118.777 108.558 119.022C107.202 120.916 105.199 121.424 103.04 121.687C102.363 121.764 101.545 121.888 101.084 122.319C99.4656 123.829 97.7082 124.151 95.7053 123.227C93.3158 125.829 90.6188 125.829 87.674 124.352C86.9825 124.689 86.2884 125.12 85.5324 125.383C83.9286 125.953 82.3893 126.045 80.9243 124.86C80.493 124.506 79.737 124.181 79.2288 124.305C76.8715 124.89 74.8984 124.275 73.1112 122.597C72.5708 122.78 72.0305 122.934 71.5223 123.12C69.3484 123.888 67.4844 123.412 66.0516 121.657C65.5113 120.993 64.956 120.825 64.2025 120.795C61.9666 120.686 60.3331 119.684 59.6242 117.607C58.2683 117.037 56.9124 116.668 55.7721 115.959C54.3989 115.111 54.6468 113.587 54.8773 112.171C53.0281 111.17 51.6251 109.906 51.4715 107.69C51.4566 107.365 51.1021 106.966 50.7923 106.78C48.8365 105.563 48.1102 103.84 48.482 101.592C48.5415 101.252 48.3581 100.759 48.1102 100.528C46.6626 99.0956 46.4147 97.4472 47.1088 95.9401C46.2164 94.5693 45.1208 93.5208 44.8754 92.3037C44.6424 91.166 45.3216 89.8398 45.629 88.5161C43.1799 85.4821 43.1626 84.5897 45.6438 81.3252C44.3821 79.3546 43.9508 77.2278 45.1828 74.9969C45.2894 74.811 45.3216 74.5036 45.2448 74.3177C43.8418 71.13 45.6141 69.0825 47.788 67.1565C47.85 67.1119 47.8946 67.035 47.8648 67.0648C47.9268 65.694 47.7731 64.3703 48.0954 63.1681C48.4201 61.951 48.9282 60.5059 49.8528 59.797C51.5632 58.4882 52.6737 56.7927 53.9825 55.1765C54.8451 54.1131 56.5108 53.7289 57.5122 52.7275C58.4368 51.8029 58.7913 50.2785 59.7159 49.339C61.1957 47.8468 63.1391 47.1849 65.2659 47.5543C67.7149 44.1807 70.5829 41.9324 75.1141 43.1024C77.8878 40.7624 80.8946 38.9157 84.8532 40.7773C85.5175 40.4228 86.2116 39.9915 86.9354 39.6693C89.0151 38.7769 91.0204 38.7298 92.9315 40.1774C93.3306 40.4848 94.0098 40.7922 94.4114 40.6558C96.8307 39.8849 98.6798 40.7922 100.237 42.4406C104.52 41.0847 105.722 41.5631 107.512 45.1201C109.391 45.0755 111.257 44.7657 113.029 45.0433C114.97 45.3506 116.034 46.8454 116.034 48.8309C118.979 49.7877 121.953 50.5263 121.953 54.4825C124.99 55.6847 126.945 57.7024 126.715 61.1975C130.106 63.4309 130.46 64.2018 129.704 68.0191C129.551 68.8346 129.719 69.3452 130.23 69.9749C132.557 72.8552 132.617 74.3797 130.614 77.8128C132.186 80.4328 131.878 82.8496 129.258 84.8822C131.893 88.7467 130.537 91.9815 127.793 94.7081C128.133 96.4011 128.41 97.819 128.735 99.4203C129.042 99.6037 129.489 99.9582 129.982 100.204C138.444 104.378 146.999 108.304 155.967 111.261C158.959 112.248 159.003 112.186 161.301 111.817C161.254 111.447 161.301 111.031 161.162 110.691C158.649 104.393 158.51 97.8339 159.065 91.2428C160.421 75.1803 167.017 61.428 177.731 49.5249C178.918 48.2012 180.227 46.9693 181.6 45.8142C182.416 45.1201 182.74 44.4112 182.832 43.3503C183.571 34.7092 185.821 26.4252 188.811 18.3096C189.183 17.3256 189.659 16.3687 190.184 15.4615C191.185 13.7363 191.587 13.5677 193.265 14.5369C195.223 15.6772 197.197 16.8471 198.984 18.2328C203.577 21.7898 207.568 25.9319 210.698 30.8597C210.82 31.0605 210.976 31.2613 210.929 31.1844C231.166 27.2729 251.063 25.6716 271.191 32.2924C272.009 31.7372 273.149 30.9688 274.304 30.1979C280.687 25.9641 287.437 22.3897 294.573 19.6036C296.006 19.0483 297.456 18.5253 299.243 18.8797C300.168 21.2197 300.368 23.7456 300.244 26.2244C299.89 32.7237 298.98 39.1611 297.084 45.4126C296.668 46.7983 296.097 48.1542 295.545 49.6786C302.51 58.2254 305.715 68.4826 307.703 79.1687C309.708 89.8869 310.14 100.62 306.409 111.539C307.582 111.199 308.412 111.016 309.215 110.738C320.112 106.951 330.991 103.146 341.888 99.3881C342.86 99.051 343.583 98.6791 343.955 97.586C344.277 96.6168 344.957 95.7542 345.495 94.8296C343.908 90.6578 344.233 89.2251 347.515 86.3596C347.577 82.572 348.563 80.941 352.232 78.891C352.43 74.8258 354.604 72.0843 358.905 70.8846C358.704 66.8962 360.337 64.1696 364.685 63.7234C365.238 59.9953 367.32 57.8412 370.989 57.2091C371.373 57.1472 371.804 56.7159 372.035 56.3614C374.271 52.9754 376.397 52.1276 380.574 53.02C383.826 50.6181 387.155 48.2632 391.456 50.157C393.305 49.401 395.092 48.4466 397.004 47.9385C399.068 47.4006 400.826 48.2781 402.028 50.0331C407.115 47.2444 409.935 47.3684 412.37 50.1397C414.281 50.2338 415.976 50.1719 417.595 50.4495C419.352 50.7569 420.292 52.1276 420.723 53.7438C426.288 54.775 427.552 56.2845 427.475 61.8593C430.834 62.8756 433.454 64.6926 433.471 68.3736C435.105 69.5435 436.615 70.4681 437.923 71.6084C439.143 72.6693 439.143 74.3648 439.696 75.7653C440.206 77.0592 441.547 78.0135 442.179 79.2926C442.502 79.9396 442.194 81.0178 441.902 81.8011C441.669 82.4481 441.037 82.9414 440.652 83.4346C441.701 84.56 442.98 85.5143 443.704 86.7909C444.537 88.2559 443.704 89.7803 442.933 91.1189C444.968 93.32 445.662 95.7071 442.534 99.5889C444.628 102.839 444.366 104.623 441.208 107.843C442.023 109.028 442.487 110.508 441.763 111.832C441.131 112.972 440.02 113.849 439.034 114.942C440.467 117.805 439.958 119.64 436.845 121.457C435.536 122.225 434.086 122.765 432.715 123.398C433.176 128.001 431.759 129.88 427.151 130.712C426.95 132.435 426.719 134.376 424.87 135.147C423.284 135.809 421.494 136.039 419.491 136.547C417.196 140.09 413.926 139.844 410.414 138.164ZM38.2001 116.083C37.9398 116.236 37.677 116.39 37.3994 116.529C37.7241 117.391 37.9547 118.299 38.4008 119.084C44.459 129.909 53.3826 137.271 65.2807 140.937C66.5895 141.336 67.9628 141.508 69.3187 141.691C69.9656 141.783 70.5506 141.522 70.7514 140.506C63.7241 139.135 57.4205 136.317 51.8259 131.974C46.2164 127.616 42.176 121.888 38.2001 116.083ZM109.792 34.1094C116.542 37.2525 121.936 42.1332 126.869 47.5692C127.454 48.2161 128.071 48.816 128.673 49.4481C128.857 49.3712 129.042 49.2795 129.226 49.2027C129.226 48.8482 129.35 48.4318 129.211 48.1542C128.718 47.2296 128.224 46.2604 127.548 45.4746C120.565 37.421 112.088 31.6777 101.578 29.3204C99.5722 28.8742 97.4008 29.0898 95.3037 29.1196C94.9022 29.1196 94.518 29.6277 93.7793 30.1359C94.518 30.3515 94.8105 30.5375 95.0732 30.5226C100.375 30.1061 105.137 31.938 109.792 34.1094ZM118.979 34.2953C121.998 36.727 124.727 39.5305 127.592 42.1481C128.195 42.6884 128.641 43.6725 129.89 43.1792C129.781 41.5011 128.812 40.284 127.716 39.2999C124.541 36.4196 121.413 33.4327 117.945 30.9217C112.566 27.0101 106.416 24.7321 99.7581 24.0083C98.9575 23.9142 98.1097 24.1001 97.2917 24.162C97.2768 24.4397 97.262 24.7321 97.2471 25.0246C97.8941 25.2254 98.5262 25.4857 99.188 25.5948C106.57 26.7177 113.198 29.6277 118.979 34.2953ZM42.3 107.796C41.4522 109.43 42.1934 110.491 42.7015 111.477C47.9888 121.672 56.0324 128.91 66.6069 133.298C68.3619 134.022 70.3672 134.16 72.2783 134.453C72.7096 134.515 73.2178 134.16 73.6962 133.992C73.7259 133.838 73.773 133.684 73.8028 133.513C58.9152 130.435 49.2976 120.934 42.3 107.796ZM339.099 74.687C337.652 77.26 336.757 80.0313 336.556 82.9885C336.509 83.742 336.172 84.6046 337.034 85.1599C337.25 85.0979 337.496 85.0979 337.528 85.0062C337.681 84.6517 337.85 84.265 337.882 83.8808C338.204 80.8468 339.285 78.0458 340.78 75.4257C343.955 69.898 347.854 64.9405 352.678 60.7513C354.388 59.274 356.238 57.9329 357.98 56.4705C358.288 56.2077 358.397 55.6996 358.597 55.3005C358.426 55.1468 358.258 54.9758 358.104 54.8221C356.731 55.6078 355.251 56.2697 354.004 57.224C347.745 61.9213 342.936 67.8976 339.099 74.687ZM441.946 129.463C443.134 128.033 444.212 126.508 445.261 124.952C445.615 124.414 445.707 123.705 445.922 123.073C445.662 122.919 445.399 122.78 445.137 122.627C444.599 123.274 444.029 123.888 443.535 124.568C439.326 130.403 434.488 135.623 428.784 140.028C425.765 142.368 422.634 144.556 418.735 145.28C418.475 145.325 418.259 145.635 417.982 145.848C419.337 146.71 419.583 146.911 420.894 146.311C423.39 145.171 425.933 144.031 428.184 142.477C433.409 138.858 437.908 134.376 441.946 129.463ZM334.199 80.1701C335.679 74.4094 338.266 69.2213 342.351 64.8636C344.617 62.4443 347.16 60.2729 349.565 57.98C350.105 57.4545 350.628 56.9166 351.151 56.3787C351.059 56.2226 350.968 56.0689 350.891 55.9152C350.365 55.9623 349.78 55.8706 349.349 56.0862C348.41 56.5622 347.5 57.1174 346.682 57.7793C343.462 60.4117 340.594 63.3987 338.237 66.8342C335.617 70.6838 333.596 74.8258 332.657 79.4314C332.471 80.3089 331.948 81.3103 333.336 82.6191C333.72 81.5706 334.013 80.879 334.199 80.1701ZM445.615 130.264C444.135 130.896 443.488 132.482 442.41 133.608C441.285 134.778 440.236 136.024 439.111 137.18C437.985 138.335 436.83 139.49 435.613 140.551C434.334 141.676 433.008 142.754 431.637 143.756C430.326 144.71 428.878 145.464 427.599 146.45C426.397 147.375 424.501 147.189 423.591 148.837C425.334 149.606 426.628 148.76 427.874 148.099C433.962 144.832 439.019 140.305 443.488 135.085C444.336 134.098 445.092 133.052 445.863 131.989C446.2 131.513 446.649 130.911 445.615 130.264Z" fill="black"/>
</g>
<path d="M382.239 136.471C378.34 139.827 377.197 139.597 375.071 134.917C374.285 135.1 373.452 135.286 372.622 135.469C369.662 136.149 368.906 135.717 367.981 132.867C367.904 132.636 367.766 132.435 367.55 132.021C366.918 132.051 366.209 132.021 365.5 132.128C362.156 132.636 361.199 131.927 360.877 128.663C360.862 128.586 360.877 128.494 360.877 128.417C360.691 126.955 360.322 126.692 358.795 126.955C355.067 127.584 354.774 127.292 355.359 123.628C355.714 121.457 355.421 121.07 353.295 120.934C351.505 120.81 350.967 120.071 351.537 118.391C351.877 117.421 352.353 116.497 352.754 115.575C348.501 112.31 348.501 112.31 349.455 108.614C348.625 108.089 347.759 107.536 346.666 106.842C347.36 105.749 347.96 104.824 348.639 103.763C348.084 103.116 347.422 102.437 346.852 101.669C345.34 99.6658 345.248 98.5578 346.805 96.6467C347.745 95.4767 348.037 94.6141 347.189 93.2136C346.096 91.3966 346.527 89.8722 348.176 88.4717C348.778 87.9462 349.487 87.5471 350.258 87.0067C348.362 82.5722 351.83 81.479 354.804 80.0314C353.354 74.997 357.117 73.7328 360.044 72.4389C360.644 70.3914 360.723 68.3737 361.755 67.174C362.726 66.0486 364.699 65.7859 366.38 65.0794C367.535 59.812 367.981 60.1516 373.269 58.7808C374.285 55.4692 375.549 54.5446 379.156 54.8073C380.606 54.9139 381.699 54.7156 382.886 53.6671C383.994 52.683 385.536 52.1129 386.954 51.5725C388.62 50.9429 390.114 51.5106 391.379 52.8987C391.978 52.4674 392.472 52.0658 393.027 51.7262C393.922 51.1735 394.784 50.4943 395.771 50.2018C397.635 49.6168 399.502 49.5548 400.704 51.5725C400.919 51.927 401.088 52.2963 401.366 52.7896C402.414 52.0658 403.046 51.6048 403.723 51.1883C406.42 49.5102 408.718 49.6316 411.028 51.6494C411.784 52.3112 412.493 52.4971 413.464 52.2344C414.297 52.0038 415.237 51.9121 416.099 52.0038C417.378 52.1427 418.504 52.7128 418.581 54.2224C418.658 55.6377 419.399 56.0244 420.678 55.8707C421.156 55.8088 421.664 55.8707 422.125 55.9625C424.299 56.4384 425.316 57.6257 425.454 59.8591C425.501 60.5061 425.487 61.1679 425.41 61.7975C425.271 62.8906 425.732 63.5079 426.766 63.7384C426.842 63.7533 426.919 63.7855 426.996 63.8152C430.942 65.3546 431.574 66.3882 430.927 70.5922C431.512 70.6839 432.097 70.8376 432.682 70.8525C434.579 70.9145 436.011 71.9159 436.8 73.4874C437.276 74.4566 437.092 75.7506 437.231 77.1065C437.878 77.5055 438.927 77.9368 439.68 78.6607C440.838 79.786 440.761 80.371 439.65 81.541C438.988 82.2326 438.277 82.8647 437.447 83.6504C438.694 84.5279 439.804 85.2815 440.9 86.0846C442.332 87.1158 442.516 87.7776 441.854 89.3938C441.638 89.9168 441.222 90.4101 441.16 90.9356C441.098 91.5032 441.207 92.2444 441.547 92.6583C443.319 94.8446 443.21 96.3244 440.976 98.1116C440.483 98.4959 440.02 98.8949 439.373 99.4353C439.928 99.9286 440.268 100.405 440.714 100.635C442.625 101.592 442.256 103.592 441.408 104.824C441.098 105.27 440.622 105.625 440.173 105.994C438.755 107.149 438.755 107.149 439.665 108.736C440.56 110.307 440.513 111.291 439.402 112.154C438.956 112.494 438.401 112.679 437.893 112.925C437.323 113.202 436.768 113.463 435.92 113.879C436.398 114.712 436.782 115.374 437.184 116.036C437.908 117.268 437.94 117.944 436.782 118.762C435.474 119.684 433.994 120.393 432.514 121.04C430.248 122.042 430.219 121.98 430.742 124.382C431.22 126.6 429.894 128.417 427.598 128.633C427.028 128.677 426.379 128.462 425.918 128.663C425.425 128.878 424.731 129.51 424.778 129.895C424.916 131.141 425.224 132.329 424.036 133.236C422.681 134.27 421.139 134.116 419.599 133.868C419.136 133.791 418.69 133.667 418.241 133.561C418.025 133.838 417.81 134.007 417.765 134.223C417.056 137.18 414.528 138.149 411.893 136.456C411.353 136.101 410.812 135.747 410.274 135.425C410.15 135.363 409.964 135.425 409.796 135.44C407.146 139.274 405.666 140.598 400.704 136.441C400.21 136.887 399.7 137.348 399.192 137.827C396.696 140.214 394.537 140.075 392.427 137.395C392.132 137.026 391.81 136.686 391.346 136.163C390.776 136.562 390.253 136.887 389.775 137.271C387.031 139.52 385.382 139.396 382.931 136.748C382.715 136.686 382.547 136.639 382.239 136.471ZM379.696 113.433C378.724 114.866 378.633 115.312 379.265 116.313C380.759 118.668 383.025 119.223 385.583 118.822C387.74 121.749 389.42 122.01 393.674 119.947C396.604 122.01 398.807 122.027 401.395 119.994C402.969 118.762 403.153 118.177 402.367 116.39C401.673 117.022 401.041 117.575 400.426 118.145C398.807 119.625 396.696 120.532 394.831 118.638C393.922 117.729 393.012 117.9 391.978 118.47C391.284 118.854 390.499 119.114 389.713 119.285C388.865 119.469 388.017 119.285 387.618 118.453C386.892 116.913 385.707 116.821 384.195 116.96C382.115 117.144 381.297 116.452 380.388 114.358C380.234 114.033 379.941 113.773 379.696 113.433ZM405.294 67.174C403.061 64.7398 401.041 63.954 398.56 64.8638C397.558 65.2331 396.849 65.1563 395.895 64.8315C393.567 64.0631 391.024 65.2331 390.392 67.174C390.191 67.7738 390.005 68.4828 391.116 68.7282C391.441 68.3737 391.778 67.9275 392.179 67.5582C393.257 66.5097 394.43 66.2023 395.694 67.0178C396.757 67.7119 397.558 67.5879 398.592 67.05C400.27 66.1726 401.951 66.3411 403.2 67.8656C404.015 68.867 404.972 69.0975 406.189 69.0504C408.316 68.9736 410.552 68.8521 411.013 71.7919C411.045 72.0076 411.506 72.3472 411.707 72.3175C412.047 72.2555 412.463 71.9927 412.617 71.7002C413.078 70.731 412.785 69.7916 412.171 68.9736C411.338 67.8507 410.15 67.3277 408.824 67.2037C407.699 67.0798 406.559 67.174 405.294 67.174ZM424.146 91.8726C424.267 92.0287 424.592 92.3832 424.884 92.7674C426.057 94.3067 426.01 95.0008 424.669 96.3393C423.144 97.8638 423.144 97.8638 424.036 99.9435C424.778 101.669 424.252 102.762 422.45 103.193C422.063 103.285 421.602 103.223 421.263 103.409C420.955 103.577 420.524 104.056 420.584 104.254C420.707 104.623 421.109 105.072 421.464 105.164C423.298 105.61 425.454 104.47 425.841 102.608C426.119 101.267 425.871 99.8047 425.856 97.9109C427.504 96.2005 428.213 93.9076 425.995 91.5354C427.46 88.4097 427.304 86.9001 425.286 85.4203C424.654 84.9592 423.868 84.6816 423.112 84.4511C422.896 84.3891 422.542 84.8526 422.125 85.16C423.127 86.0995 424.438 86.7613 424.731 87.7479C425.055 88.8237 424.438 90.1795 424.146 91.8726ZM372.066 84.6048C369.538 83.0506 366.811 83.6207 366.055 85.6533C365.639 86.7911 366.023 88.2089 365.748 89.4409C365.47 90.658 364.528 91.7511 364.407 92.9508C364.298 93.9671 364.945 95.0776 365.27 96.1385C363.929 98.5256 363.713 100.159 364.667 101.344C365.237 102.038 365.902 102.653 367.089 101.822C364.806 99.5419 366.717 97.725 367.659 96.1559C367.104 94.8297 366.271 93.7688 366.38 92.812C366.501 91.7362 367.473 90.7645 368.182 89.5797C368.135 89.4557 368.014 89.1632 367.919 88.8708C367.287 86.7613 367.612 86.2061 369.754 85.5294C370.401 85.3434 371.003 85.0361 372.066 84.6048ZM106.371 47.7379C107.095 47.5842 107.694 47.4776 108.297 47.3239C109.083 47.1231 109.839 46.7687 110.624 46.6596C112.952 46.3522 113.844 47.076 114.261 49.4333C114.323 49.7407 114.37 50.063 114.429 50.3257C116.003 50.8636 117.56 51.2181 118.961 51.927C120.688 52.8045 120.18 54.5297 119.964 56.193C120.597 56.3318 121.12 56.4557 121.643 56.5623C123.554 56.9465 124.88 58.4264 124.664 60.335C124.496 61.9512 124.756 62.8906 126.469 63.4459C127.993 63.9392 128.348 64.9084 128.07 66.5419C127.978 67.0947 127.84 67.6648 127.609 68.1729C127.054 69.39 127.346 70.1907 128.41 71.0855C130.536 72.8553 130.645 74.1641 128.95 76.2587C128.055 77.3519 128.085 78.1054 128.933 79.2159C129.981 80.5693 129.78 81.4171 128.578 82.6341C128.008 83.2043 127.423 83.7744 126.868 84.3594C126.761 84.466 126.761 84.6519 126.637 84.9741C126.883 85.3286 127.178 85.7921 127.515 86.2209C128.965 88.0081 129.042 89.7036 127.763 91.5503C127.532 91.8899 127.284 92.227 126.977 92.4749C125.574 93.63 125.081 94.7529 126.052 96.6169C127.098 98.6347 126.546 99.6187 124.555 100.821C124.141 101.066 123.725 101.282 123.37 101.468C122.723 105.994 122.723 105.994 119.61 106.272C119.008 107.705 118.606 109.306 117.714 110.57C116.665 112.077 114.769 111.447 112.952 111.586C112.952 112.293 112.967 112.91 112.952 113.525C112.92 115.126 112.536 115.681 110.961 116.127C110.347 116.313 109.653 116.251 109.05 116.467C108.48 116.65 107.709 116.913 107.464 117.359C106.463 119.285 104.675 119.501 102.886 119.516C101.669 119.531 100.729 119.717 99.926 120.748C99.0187 121.918 97.7397 122.027 96.3987 121.487C95.8112 121.256 95.2411 120.993 94.5792 120.718C93.6075 121.794 93.2233 123.643 91.3419 123.227C89.9389 122.919 88.5979 122.426 87.2743 122.027C86.1638 122.58 85.0384 123.38 83.7891 123.72C82.2027 124.151 81.7391 122.458 81.0005 121.779C79.4289 122.057 77.9491 122.704 76.6998 122.411C75.4059 122.119 74.2954 120.916 73.0634 120.086C69.2882 122.21 68.4851 122.072 66.6062 119.085C65.2181 118.916 63.7531 119.099 62.7988 118.5C61.842 117.9 61.3809 116.514 60.6249 115.374C59.7152 115.205 58.451 115.235 57.4644 114.727C55.9078 113.926 57.2042 112.57 57.219 111.155C55.355 110.154 52.7498 109.398 53.5207 106.103C50.4371 105.226 49.805 103.146 50.7916 100.543C48.7416 98.4339 48.7416 98.4339 49.5894 94.5372C49.2349 94.3389 48.8507 94.0911 48.4491 93.8605C46.647 92.8442 46.4611 92.289 47.356 90.3035C47.7104 89.5028 48.1269 88.7171 48.5879 87.7776C48.0476 87.4529 47.5716 87.1926 47.1403 86.8852C45.7671 85.9458 45.5836 84.989 46.538 83.5885C47.0784 82.8027 47.6931 82.0789 48.4194 81.1717C45.8142 79.1217 45.8439 76.8908 47.7551 74.7194C47.356 73.656 46.5851 72.6546 46.8156 71.963C47.1849 70.8079 48.1417 69.8213 48.9126 68.805C49.2349 68.3737 49.7282 68.0515 50.1743 67.635C49.976 66.9583 49.7133 66.356 49.6216 65.7412C49.344 63.8301 49.8992 62.0305 51.3617 60.92C52.8266 59.812 53.7512 58.3644 54.9063 57.0407C55.9078 55.9154 57.4818 55.2833 59.1004 54.7454C59.207 54.3612 59.331 53.9918 59.4227 53.6051C60.1019 51.0198 61.7651 49.587 64.462 49.587C65.8353 49.587 66.6508 49.2326 67.4217 48.0304C68.9486 45.6755 71.3357 44.5675 74.0946 44.7658C75.3761 44.86 76.2065 44.4733 77.1484 43.7644C79.828 41.764 81.8185 41.6252 84.9318 43.0728C87.5816 41.3798 90.3256 39.7611 93.0994 43.0877C93.6695 42.934 94.2248 42.8423 94.7329 42.6415C96.3045 42.0565 97.6455 42.3961 98.6469 43.7198C99.4352 44.7361 100.159 44.8749 101.346 44.2725C103.981 42.9637 104.968 43.4421 105.878 46.1837C106.031 46.6298 106.17 47.076 106.371 47.7379ZM88.6748 105.27C90.4793 106.364 92.5441 106.795 94.4875 105.518C95.4418 104.886 96.2747 104.671 97.3679 104.685C99.3732 104.703 101.562 103.039 102.177 101.175C102.392 100.514 102.747 99.7576 101.515 99.0957C101.113 99.6807 100.697 100.298 100.266 100.898C99.2344 102.345 98.1388 103.53 96.0442 102.916C95.4741 102.747 94.5792 103.007 94.1008 103.391C92.7301 104.502 91.3271 104.718 89.8472 103.84C88.7838 103.223 87.8593 103.362 86.8876 103.932C86.3323 104.271 85.7622 104.579 85.1921 104.871C83.0504 105.95 82.8967 105.873 81.7094 103.763C81.5408 103.453 81.169 103.27 80.8939 103.022C80.646 103.391 80.2296 103.746 80.1998 104.133C80.0908 106.579 82.2498 108.151 84.6691 107.303C86.025 106.857 87.2569 106.026 88.6748 105.27ZM77.8103 58.1487C77.1013 58.2256 76.4395 58.2256 75.8223 58.3793C74.2037 58.7808 73.0932 59.8269 72.6767 61.4282C72.5553 61.9214 72.9543 62.5387 73.1254 63.1063C73.5418 62.8312 74.1566 62.6304 74.3127 62.261C74.8209 60.9522 75.7752 60.3499 77.0865 60.2582C78.3953 60.1665 79.2901 59.6112 80.0759 58.5032C81.0153 57.1622 81.9399 57.0407 83.4817 57.6555C84.2824 57.9802 85.0706 58.3644 85.44 58.533C87.1032 57.9182 88.3823 57.0234 89.6167 57.0853C90.7718 57.1473 91.8823 58.1958 93.0994 58.8577C93.7315 57.3332 93.0226 56.4557 92.0063 55.8707C89.8001 54.5768 87.6585 54.9908 85.7622 56.4706C81.8185 54.2521 80.1379 54.6066 77.8103 58.1487ZM113.413 77.8303C114.893 75.6266 114.615 73.6709 112.952 71.7919C112.595 71.3929 112.426 70.6071 112.518 70.0518C112.843 67.9746 110.639 65.8478 108.359 65.3397C107.632 65.1711 107.08 65.4636 107.139 66.465C107.355 66.6336 107.571 66.8964 107.865 67.0029C109.883 67.7267 110.902 69.0355 110.624 71.2689C110.53 71.9927 110.823 72.548 111.517 73.0859C112.843 74.1022 112.858 74.9797 111.965 76.4446C111.611 77.0445 111.256 77.6295 110.932 78.1847C111.239 78.5689 111.363 78.7846 111.549 78.9383C114.045 81.0948 114.122 81.9574 111.98 84.5602C111.564 85.0683 111.209 85.6359 110.624 86.4837C113.073 86.7291 114.03 85.3608 114.801 83.99C116.142 81.603 115.185 79.6001 113.413 77.8303ZM62.6129 79.4935C62.4592 78.0905 61.9808 76.8735 62.3055 75.9513C62.66 74.935 63.7531 74.179 64.4794 73.3486C64.0307 72.4389 63.4457 72.4538 62.7666 72.7165C60.8257 73.4701 59.8862 75.5647 60.4241 77.7212C60.5778 78.3682 60.7786 79.2159 60.5183 79.7389C59.3458 81.9723 59.4549 83.9132 61.5197 85.4376C60.1316 88.6402 60.3026 90.7199 61.9188 91.766C63.121 92.5369 63.9093 92.4278 64.9727 91.2876C63.8622 90.5638 62.2287 90.1647 62.5212 88.3775C62.7517 87.0538 63.2598 85.7748 63.6316 84.4982C61.2272 82.5251 61.195 82.2797 62.6129 79.4935Z" fill="#F9B7B2"/>
<path d="M301.399 119.084C301.83 118.839 302.418 118.715 302.678 118.346C303.526 117.158 304.311 115.927 305.005 114.65C305.377 113.988 305.732 113.557 306.532 113.294C316.782 109.891 327 106.425 337.235 102.977C339.376 102.254 341.518 101.545 343.739 100.806C344.478 101.867 345.172 102.853 345.819 103.793C344.215 106.934 344.309 107.474 346.944 109.722C346.203 112.679 347.777 114.588 350.181 115.912C349.733 117.483 349.348 118.869 348.87 120.517C347.993 120.887 346.867 121.318 345.757 121.794C337.188 125.507 328.556 129.064 320.079 132.99C315.825 134.961 311.849 137.549 307.779 139.921C306.594 140.613 305.514 141.508 304.468 142.4C301.771 144.678 300.397 147.511 300.353 151.115C300.244 160.217 299.981 169.317 299.798 178.419C299.78 179.282 299.798 180.144 299.798 181.007C299.998 181.069 300.197 181.146 300.412 181.205C300.69 180.853 301.168 180.514 301.23 180.112C301.369 179.158 301.384 178.156 301.322 177.202C301.215 175.863 301.924 175.202 303.112 175.063C304.235 174.924 305.407 174.815 306.5 174.986C313.066 176.047 317.813 179.589 319.972 185.903C323.316 195.652 321.497 204.645 315.102 212.683C311.911 216.686 307.735 219.259 302.849 220.69C302.202 220.876 301.585 221.183 300.752 221.508C301.691 222.678 302.648 222.678 303.603 222.462C304.621 222.217 305.7 222.001 306.609 221.493C308.196 220.598 309.646 220.675 311.202 221.508C312.189 222.031 313.252 222.415 314.224 222.831C314.13 226.188 313.022 227.606 309.985 227.712C306.902 227.821 303.803 227.667 300.722 227.437C293.338 226.897 285.971 226.341 278.604 225.618C273.996 225.156 269.418 224.48 264.857 223.694C261.714 223.154 261.436 222.601 261.557 219.428C261.59 218.704 261.605 217.966 261.481 217.242C261.188 215.502 260.325 214.669 258.583 214.47C257.458 214.347 256.302 214.361 255.177 214.361C246.224 214.394 237.283 214.347 228.329 214.515C222.72 214.624 217.123 215.07 211.528 215.425C210.405 215.502 209.28 215.762 208.184 216.072C206.89 216.441 205.765 217.15 205.272 218.459C204.332 220.923 202.374 222.308 200.218 223.508C195.778 225.972 191.016 227.573 186.113 228.776C177.39 230.9 168.559 232.132 159.573 232.025C158.604 232.01 157.617 231.993 156.66 231.839C154.102 231.44 152.93 229.437 153.934 227.05C154.179 226.48 154.903 225.895 155.505 225.756C157.801 225.248 160.128 224.817 162.456 224.586C163.442 224.495 164.506 224.956 165.507 225.233C167.389 225.774 167.371 225.789 169.176 225.28C168.806 224.894 168.559 224.465 168.204 224.294C167.034 223.741 165.8 223.292 164.615 222.802C155.612 219.074 150.788 212.145 149.048 202.781C147.412 194.003 150.634 187.028 157.015 181.237C159.313 179.158 161.561 178.357 164.198 178.466C164.198 179.42 164.198 180.375 164.198 181.344C164.198 182.301 164.198 183.24 164.198 184.195C164.382 184.257 164.568 184.333 164.751 184.393C165.029 184.041 165.507 183.701 165.569 183.317C165.77 181.87 165.924 180.405 165.909 178.942C165.832 169.086 165.014 159.308 162.671 149.7C162.379 148.513 161.977 147.375 161.561 146.22C160.376 142.846 158.187 140.352 154.965 138.734C151.482 136.979 147.985 135.254 144.576 133.36C134.76 127.939 125.004 122.441 115.218 116.96C114.94 116.806 114.692 116.591 114.385 116.358C114.568 115.465 114.739 114.603 114.94 113.619C118.113 113.064 120.549 111.601 120.733 107.89C123.432 107.459 124.833 106.056 125.081 103.332C125.158 102.531 126.298 101.822 126.96 101.036C127.716 101.344 128.224 101.53 128.734 101.745C136.161 105.025 143.56 108.366 151.019 111.586C152.947 112.417 155.012 112.94 157.03 113.557C157.801 113.787 158.619 113.926 159.419 113.971C162.671 114.142 163.75 112.679 162.609 109.63C160.267 103.362 160.344 96.8796 160.991 90.3802C162.547 74.6424 169.453 61.3363 180.226 50.0182C183.047 47.061 184.713 44.0419 185.144 39.9147C186.007 31.8934 188.656 24.2538 191.448 16.7084C191.524 16.4927 191.678 16.3068 191.909 15.9077C193.111 16.6166 194.328 17.2636 195.471 18.0172C200.262 21.2049 204.193 25.3023 207.691 29.8285C208.184 30.4755 208.71 31.1076 209.141 31.7843C209.85 32.9245 210.742 33.1551 212.039 32.8626C225.139 29.8285 238.408 29.1518 251.786 30.0591C257.552 30.4606 263.253 31.5389 268.679 33.5566C270.543 34.2482 271.839 33.9855 273.364 32.9543C280.255 28.3041 287.622 24.5165 295.311 21.3734C295.913 21.128 296.531 20.9124 297.145 20.7116C297.284 20.667 297.47 20.7116 297.748 20.7116C298.687 24.2092 298.241 27.7489 297.748 31.2464C296.9 37.2822 296.037 43.3181 293.725 49.0168C293.4 49.8323 293.477 50.5561 294.094 51.2799C299.627 57.7644 302.356 65.5701 304.391 73.641C306.532 82.111 307.534 90.7198 306.84 99.4798C306.361 105.332 304.621 110.768 302.046 115.988C301.632 116.836 301.26 117.714 300.861 118.576C301.044 118.745 301.23 118.916 301.399 119.084ZM188.396 141.552C188.642 145.541 188.795 149.606 189.165 153.641C189.797 160.77 190.768 167.855 193.049 174.661C195.808 182.901 200.879 189.046 209.419 191.708C212.116 192.556 214.937 193.002 217.74 193.418C223.736 194.311 229.762 193.879 235.743 193.312C241.985 192.724 248.103 191.571 254.069 189.536C262.591 186.644 268.186 181.037 270.144 172.182C271.222 167.361 272.085 162.481 272.809 157.582C273.981 149.606 274.365 141.567 273.919 133.528C273.795 131.28 273.349 129.017 272.826 126.816C272.424 125.12 271.763 124.937 270.159 125.661C269.048 126.169 267.955 126.707 266.83 127.138C256.087 131.188 244.912 133.067 233.478 133.437C226.973 133.652 220.469 133.36 214.012 132.512C206.35 131.513 198.767 130.142 191.616 127.017C189.874 126.261 189.244 126.63 189.12 128.571C188.842 132.884 188.627 137.18 188.396 141.552ZM252.374 95.8459C252.696 96.8796 252.882 97.5414 253.097 98.1884C253.774 100.221 253.236 101.359 251.186 101.731C249.922 101.961 248.581 102.068 247.317 101.929C241.261 101.237 235.726 98.8799 230.347 96.1706C227.606 94.785 227.343 93.9844 227.96 90.5959C228.406 90.5636 228.899 90.5959 229.361 90.4868C232.506 89.7481 235.681 89.0863 238.795 88.1939C240.304 87.7626 241.492 85.9283 241.229 84.8971C240.827 83.281 239.41 83.219 238.116 83.157C232.352 82.8794 226.587 82.5869 220.824 82.3886C219.621 82.3415 218.387 82.5423 217.202 82.8026C215.844 83.0951 215.336 83.866 215.274 85.2367C215.212 86.6992 215.891 87.8395 217.433 88.4245C218.789 88.9326 220.236 89.2548 221.639 89.6093C223.027 89.9638 224.43 90.2711 225.801 90.5959C225.925 92.274 226.032 93.7067 226.17 95.37C220.608 96.7234 215.291 98.1413 209.895 99.2815C207.954 99.6955 205.874 99.5269 203.869 99.3881C203.207 99.3435 202.144 98.6197 202.082 98.0942C201.99 97.3877 202.543 96.478 203.053 95.831C203.514 95.2461 204.285 94.9065 205.18 94.2595C204.486 93.9224 204.084 93.553 203.715 93.5679C202.049 93.6299 200.247 95.432 199.923 97.2167C199.615 98.927 200.555 100.481 202.466 101.143C203.437 101.483 204.516 101.56 205.564 101.713C206.258 101.807 206.982 101.807 207.815 101.852C207.954 102.777 208.078 103.562 208.184 104.363C208.802 108.966 209.634 113.495 211.608 117.761C212.346 119.362 213.318 120.47 215.09 120.795C215.722 120.916 216.337 121.132 216.969 121.271C222.011 122.364 227.127 122.488 232.258 122.334C234.37 122.272 236.467 122.027 238.579 121.873C240.118 121.749 241.167 120.916 241.754 119.563C242.463 117.929 243.155 116.281 243.742 114.588C244.927 111.155 246.053 107.704 247.21 104.224C248.073 104.177 248.906 104.254 249.674 104.085C251.092 103.778 252.557 103.5 253.836 102.853C255.363 102.083 255.841 100.575 255.579 98.8948C255.316 97.2018 254.577 96.4012 252.374 95.8459ZM276.985 36.6502C277.094 36.8807 277.218 37.1137 277.325 37.3442C277.803 37.1905 278.359 37.1286 278.758 36.8509C283.614 33.6335 288.47 30.4135 293.293 27.149C293.831 26.7945 294.233 26.2418 294.679 25.7782C294.587 25.6245 294.495 25.4709 294.419 25.3023C293.908 25.332 293.293 25.1932 292.892 25.4089C287.22 28.6437 281.717 32.1239 276.985 36.6502ZM193.203 21.19C193.388 21.9287 193.359 22.3897 193.574 22.6376C196.626 26.1178 199.692 29.5831 202.805 33.0014C203.083 33.3088 203.73 33.3088 204.533 33.5393C204.3 32.7857 204.3 32.3247 204.084 32.0619C201.065 28.5668 198.011 25.0693 194.915 21.6362C194.638 21.3437 193.973 21.3908 193.203 21.19ZM253.127 65.7709C254.329 65.3867 254.129 64.6777 253.975 64.0779C253.375 61.5817 250.584 59.6731 248.179 60.4886C246.469 61.0587 244.989 62.3055 243.465 63.3541C243.202 63.5375 243.264 64.1845 243.172 64.6158C243.68 64.6009 244.251 64.7546 244.65 64.5538C245.592 64.0779 246.392 63.3541 247.332 62.8905C249.181 61.9684 250.276 62.246 251.603 63.83C252.126 64.4323 252.589 65.0619 253.127 65.7709ZM218.419 64.1225C218.404 63.7854 218.481 63.3838 218.357 63.0467C217.663 61.2297 215.613 59.8416 213.61 59.797C211.714 59.7648 208.462 61.5817 207.922 63.0293C207.83 63.2772 207.892 63.7085 208.046 63.892C208.217 64.0927 208.678 64.2315 208.893 64.1398C209.478 63.8771 210.004 63.4929 210.544 63.1384C212.978 61.4751 213.888 61.49 216.198 63.2772C216.786 63.7531 217.247 64.586 218.419 64.1225ZM278.081 101.113C276.016 99.1427 273.426 99.6038 271.207 98.9717C270.436 98.756 269.465 98.4338 268.679 99.6038C270.36 101.299 272.67 101.051 274.658 101.56C275.629 101.807 276.802 102.514 278.081 101.113ZM278.435 90.7198C277.142 89.9638 273.641 89.6564 270.466 90.0728C270.02 90.1323 269.604 90.4868 268.709 90.9503C271.577 92.5194 274.167 91.751 276.631 91.8576C277.387 91.8898 278.297 91.8278 278.435 90.7198ZM277.34 81.3103C274.35 81.2162 271.668 81.5409 269.326 83.4198C271.53 84.7137 273.58 83.2959 275.691 83.1422C276.462 83.0802 277.31 82.8645 277.34 81.3103ZM182.43 77.969C184.728 79.4612 187.224 80.3238 190.136 80.8642C189.321 78.9084 188.01 78.1226 184.574 77.1981C183.818 76.9973 183.017 76.5982 182.43 77.969ZM181.245 86.6695C183.511 87.7775 185.682 87.6387 187.856 87.5618C188.101 87.547 188.535 87.1776 188.518 87.0239C188.488 86.6843 188.225 86.0994 188.024 86.0994C185.96 85.9605 183.88 85.9134 181.815 85.8837C181.676 85.8688 181.552 86.2208 181.245 86.6695ZM182.137 96.7556C184.418 96.8944 186.346 96.4309 188.24 95.7542C188.456 95.6774 188.718 95.1841 188.642 94.9833C188.535 94.6611 188.101 94.1529 187.918 94.1827C186.051 94.5991 184.219 95.1072 182.385 95.6303C182.291 95.6774 182.291 96.0616 182.137 96.7556ZM317.181 173.352C318.785 171.196 320.466 169.119 322.761 167.624C327.909 164.297 333.69 165.698 336.632 171.027C337.619 172.797 338.437 174.661 339.468 176.416C343.969 184.086 352.601 187.211 359.844 185.657C364.992 184.549 368.351 180.189 367.875 175.293C367.627 172.877 366.147 171.781 363.837 172.475C362.694 172.815 361.663 173.538 360.552 174.061C358.718 174.924 356.946 175.97 355.035 176.572C350.952 177.849 346.867 176.478 344.416 173.107C343.568 171.937 342.951 170.581 342.336 169.272C341.612 167.733 341.087 166.1 340.348 164.56C338.02 159.786 335.152 157.706 329.451 158.014C319.308 158.569 313.143 164.959 308.367 173.09C310.724 174.029 312.898 174.909 315.332 175.893C315.934 175.045 316.549 174.2 317.181 173.352Z" fill="#FCD3C6"/>
<path d="M190.783 128.739C217.695 137.41 244.25 137.534 270.853 127.631C271.762 130.497 271.899 133.469 271.993 136.424C272.256 144.648 271.653 152.826 270.389 160.941C269.804 164.699 269.095 168.457 268.233 172.168C266.413 180.02 261.466 185.057 253.898 187.69C248.102 189.707 242.139 190.848 236.066 191.433C229.916 192.018 223.736 192.479 217.586 191.51C214.55 191.031 211.483 190.461 208.616 189.415C201.343 186.75 197.243 181.069 194.898 173.952C192.665 167.208 191.785 160.203 191.093 153.163C190.322 145.464 190.384 137.75 190.691 130.033C190.691 129.634 190.739 129.233 190.783 128.739Z" fill="#FFF3E8"/>
<path d="M227.39 109.846C221.825 105.994 216.785 108.242 211.513 111.415C210.881 108.044 210.281 104.856 209.711 101.76C215.66 100.097 221.331 98.4957 227.372 96.8027C232.414 99.9731 238.44 102.053 244.927 103.855C244.265 106.071 243.648 108.165 242.971 110.414C237.714 106.827 232.568 107.427 227.39 109.846ZM222.581 109.876C219.096 109.568 216.014 110.676 213.256 112.756C212.901 113.016 212.438 113.572 212.514 113.894C212.824 115.312 213.085 116.821 213.793 118.038C214.18 118.715 215.397 119.07 216.292 119.253C223.999 120.839 231.75 120.763 239.734 119.793C240.597 117.344 241.444 114.942 242.292 112.57C236.789 108.428 231.566 109.846 226.232 112.818C225.954 110.384 224.321 110.03 222.581 109.876Z" fill="#F6917C"/>
</g>
<defs>
<clipPath id="clip0_79_360">
<rect width="483" height="248" fill="white"/>
</clipPath>
</defs>
</svg>
