<svg xmlns="http://www.w3.org/2000/svg" xmlns:xlink="http://www.w3.org/1999/xlink" width="1080" zoomAndPan="magnify" viewBox="0 0 810 809.999993" height="1080" preserveAspectRatio="xMidYMid meet" version="1.0"><defs><clipPath id="02a6ea15e9"><path d="M 81 82 L 723 82 L 723 721.5 L 81 721.5 Z M 81 82 " clip-rule="nonzero"/></clipPath></defs><g clip-path="url(#02a6ea15e9)"><path fill="#000000" d="M 683.847656 557.757812 C 644.527344 625.0625 587.828125 671.257812 514.863281 698.144531 C 491.671875 706.691406 467.925781 712.433594 443.457031 715.410156 C 436.046875 716.308594 428.78125 715.238281 421.613281 713.402344 C 422.132812 713.542969 422.617188 713.644531 423.136719 713.785156 C 417.773438 714.960938 412.234375 715.582031 406.695312 716.03125 C 406.730469 715.894531 406.765625 715.722656 406.800781 715.546875 C 406.382812 715.515625 405.96875 715.480469 405.554688 715.410156 C 405.96875 715.445312 406.382812 715.515625 406.800781 715.546875 C 406.175781 719.214844 403.683594 719.734375 401.539062 720.046875 C 396.761719 720.738281 391.949219 721.535156 387.175781 721.363281 C 377.308594 720.980469 367.445312 720.183594 357.613281 719.285156 C 342.140625 717.867188 326.632812 716.515625 311.230469 714.648438 C 234.5625 705.375 174.09375 669.90625 132.246094 604.09375 C 106.351562 563.363281 90.257812 519.140625 84.199219 471.355469 C 81.15625 447.339844 81.050781 423.1875 82.296875 399 C 83.957031 366.300781 89.324219 334.292969 98.496094 302.941406 C 111.855469 257.300781 135.394531 217.507812 168.277344 183.25 C 215.488281 133.976562 272.671875 102.9375 339.789062 90.167969 C 373.398438 83.769531 407.25 81.035156 441.378906 82.972656 C 509.429688 86.847656 569.933594 109.929688 621.648438 154.878906 C 641.6875 172.316406 657.679688 192.941406 670.488281 216.195312 C 687.585938 247.300781 699.769531 280.277344 708.148438 314.742188 C 712.957031 334.535156 717.386719 354.363281 720.019531 374.605469 C 728.535156 439.761719 717.113281 500.871094 683.847656 557.757812 Z M 683.847656 557.757812 " fill-opacity="1" fill-rule="nonzero"/></g><path fill="#06b5cd" d="M 713.027344 402.148438 C 710.085938 351.351562 698.074219 302.5625 679.105469 255.539062 C 673.257812 241.003906 665.8125 226.988281 658.027344 213.320312 C 637.292969 176.851562 606.730469 150.308594 570.730469 129.753906 C 536.21875 110.03125 499.148438 98.09375 459.515625 93.734375 C 425.421875 89.996094 391.570312 91.449219 357.753906 96.363281 C 323.207031 101.382812 289.945312 110.757812 258.964844 126.917969 C 189.148438 163.390625 138.507812 217.40625 111.269531 291.972656 C 102.40625 316.300781 97.007812 341.558594 93.753906 367.269531 C 90.671875 391.492188 89.425781 415.816406 90.292969 440.210938 C 92.613281 504.746094 112.132812 563.46875 150.382812 615.683594 C 182.746094 659.871094 226.046875 687.625 279.007812 700.738281 C 297.800781 705.410156 316.941406 707.796875 336.1875 709.632812 C 354.359375 711.359375 372.566406 713.230469 390.738281 714.925781 C 394.476562 715.269531 398.285156 714.996094 402.058594 715.0625 C 403.582031 715.097656 405.105469 715.339844 406.800781 715.511719 C 406.765625 715.6875 406.730469 715.824219 406.695312 716 C 412.269531 715.546875 417.773438 714.925781 423.136719 713.75 C 422.617188 713.644531 422.132812 713.507812 421.613281 713.367188 C 419.296875 712.78125 417.253906 712.019531 416.59375 708.453125 C 419.917969 708.074219 422.894531 707.554688 425.90625 707.382812 C 448.855469 706.101562 471.355469 702.296875 493.367188 695.652344 C 549.304688 678.730469 597.695312 649.457031 637.085938 606.203125 C 675.78125 563.746094 700.878906 514.296875 710.429688 457.445312 C 713.546875 439.175781 714.101562 420.695312 713.027344 402.148438 Z M 685.230469 418.207031 C 682.117188 446.269531 676.199219 473.8125 666.539062 500.316406 C 657.921875 523.988281 646.742188 546.652344 634.417969 568.660156 C 623.585938 588 608.460938 603.675781 591.5 617.726562 C 566.578125 638.316406 540.199219 656.378906 509.429688 667.347656 C 483.125 676.722656 456.089844 682.226562 428.15625 683.054688 C 406.523438 683.679688 384.855469 684.820312 363.257812 684.058594 C 330.441406 682.882812 298.007812 678.210938 266.960938 666.722656 C 243.285156 657.933594 221.6875 645.441406 202.820312 628.695312 C 190.742188 617.96875 179.078125 606.652344 168.277344 594.644531 C 147.578125 571.632812 135.082031 544.574219 129.476562 513.984375 C 124.769531 488.242188 123.140625 462.324219 121.515625 436.335938 C 121.445312 435.125 121.757812 433.878906 121.894531 432.601562 C 122.519531 432.496094 123.035156 432.496094 123.453125 432.566406 C 123.210938 429.832031 122.933594 427.097656 122.792969 424.398438 C 122.550781 424.433594 122.308594 424.433594 122.101562 424.46875 C 121.445312 422.460938 120.269531 420.488281 120.164062 418.480469 C 119.785156 409.902344 119.089844 401.25 119.644531 392.667969 C 123.140625 338.6875 140.863281 289.726562 172.570312 245.953125 C 202.335938 204.84375 239.476562 172.214844 286.207031 151.726562 C 315.453125 138.925781 346.085938 129.789062 377.691406 124.53125 C 388.628906 122.695312 399.738281 121.347656 410.816406 120.792969 C 446.050781 119.132812 480.144531 125.671875 513.859375 135.328125 C 539.230469 142.59375 562.113281 154.496094 583.433594 169.859375 C 611.679688 190.242188 632.929688 216.226562 647.539062 247.820312 C 663.875 283.117188 674.988281 319.96875 681.632812 358.203125 C 683.605469 369.589844 685.542969 381.007812 686.375 392.496094 C 686.996094 401.007812 686.203125 409.691406 685.230469 418.207031 Z M 685.230469 418.207031 " fill-opacity="1" fill-rule="nonzero"/><path fill="#ffffff" d="M 675.125 369.761719 C 670.347656 337.476562 662.179688 305.988281 650.238281 275.570312 C 644.941406 262.113281 638.816406 248.929688 632.101562 236.160156 C 619.570312 212.285156 601.191406 193.390625 579.625 177.402344 C 559.550781 162.523438 537.847656 151 513.722656 143.90625 C 488.867188 136.605469 463.671875 131.242188 437.8125 129.304688 C 408.148438 127.089844 379.074219 130.898438 350.550781 138.785156 C 329.921875 144.460938 309.328125 150.378906 289.703125 159.0625 C 215.976562 191.765625 146.4375 269.449219 130.203125 363.1875 C 127.15625 380.835938 125.253906 398.515625 125.285156 416.441406 C 125.285156 419.035156 124.734375 421.597656 124.457031 424.191406 C 123.902344 424.261719 123.347656 424.296875 122.792969 424.363281 C 122.898438 427.0625 123.175781 429.832031 123.453125 432.53125 C 125.390625 432.878906 125.183594 434.882812 125.390625 436.511719 C 126.707031 446.511719 127.988281 456.511719 129.199219 466.511719 C 131.65625 486.753906 135.152344 506.789062 139.894531 526.617188 C 145.363281 549.386719 156.542969 569.210938 171.496094 586.894531 C 188.804688 607.378906 208.152344 625.617188 230.789062 640.253906 C 257.546875 657.519531 287 667.070312 318.292969 671.914062 C 345.394531 676.101562 372.601562 677.691406 399.945312 676.6875 C 423.863281 675.824219 447.816406 674.960938 471.390625 670.011719 C 509.046875 662.050781 542.933594 646.136719 572.945312 622.085938 C 580.492188 616.03125 587.933594 609.871094 595.238281 603.539062 C 608.734375 591.878906 620.019531 578.242188 628.328125 562.535156 C 641.167969 538.242188 653.628906 513.710938 662.214844 487.445312 C 671.179688 459.972656 677.859375 432.011719 678.066406 402.980469 C 678.207031 391.871094 676.753906 380.730469 675.125 369.761719 Z M 287.453125 204.152344 C 289.839844 203.078125 292.054688 204.464844 293.441406 206.46875 C 296.832031 211.246094 300.328125 215.984375 303.234375 221.039062 C 305.9375 225.675781 304.828125 229.066406 300.640625 231.800781 C 295.585938 235.085938 291.8125 234.914062 288.457031 230.796875 C 283.851562 225.15625 279.457031 219.34375 274.851562 213.460938 C 278.003906 208.476562 282.746094 206.226562 287.453125 204.152344 Z M 163.742188 416.511719 C 156.542969 414.988281 153.496094 408.414062 157.269531 402.113281 C 158.378906 400.28125 161.078125 398.6875 163.257812 398.34375 C 170.492188 397.203125 177.796875 396.542969 185.066406 396.023438 C 190.1875 395.644531 192.714844 398.066406 193.476562 403.257812 C 194.652344 411.179688 192.023438 415.089844 184.199219 416.820312 C 181.359375 417.445312 178.453125 417.789062 176.445312 418.136719 C 171.601562 417.511719 167.585938 417.339844 163.742188 416.511719 Z M 210.679688 529.765625 C 204.761719 533.675781 199.046875 537.898438 192.957031 541.53125 C 188.871094 543.953125 187.382812 543.226562 184.824219 539.140625 C 179.734375 530.90625 179.769531 530.492188 187.347656 524.402344 C 190.777344 521.632812 194.238281 518.96875 197.769531 516.339844 C 199.429688 515.09375 201.230469 513.917969 203.097656 513.121094 C 209.257812 510.527344 213.378906 513.085938 213.898438 519.695312 C 213.96875 520.527344 213.898438 521.355469 213.898438 522.152344 C 214.347656 525.371094 213.484375 527.929688 210.679688 529.765625 Z M 221.996094 300.382812 C 220.820312 300.3125 219.679688 299.933594 218.640625 299.207031 C 217.324219 299.96875 216.007812 299.585938 215.039062 298.652344 C 210.644531 294.535156 206.316406 290.277344 202.371094 285.710938 C 201.472656 284.671875 201.679688 282.078125 202.269531 280.554688 C 202.960938 278.6875 204.449219 276.992188 205.902344 275.503906 C 210.125 271.28125 212.203125 270.761719 216.734375 274.601562 C 221.960938 279.03125 226.601562 284.222656 231.203125 289.34375 C 233.246094 291.628906 233.628906 294.777344 231.929688 297.578125 C 230.132812 300.519531 227.050781 301.351562 223.832031 301.59375 C 223.3125 301.628906 222.757812 301.039062 221.996094 300.382812 Z M 306.664062 599.972656 C 304.066406 604.957031 301.851562 610.285156 298.527344 614.785156 C 293.855469 621.082031 287.382812 621.359375 281.566406 616.582031 C 278.9375 614.4375 277.621094 611.878906 279.457031 608.9375 C 283.332031 602.742188 287.210938 596.515625 291.777344 590.839844 C 294.824219 587.066406 299.1875 589.351562 302.855469 590.667969 C 305.625 591.667969 307.285156 593.78125 307.183594 597.550781 C 307.078125 597.933594 307.113281 599.074219 306.664062 599.972656 Z M 401.675781 635.648438 C 398.875 643.089844 394.894531 645.164062 387.035156 644.230469 C 383.710938 643.851562 381.980469 642.328125 381.914062 639.144531 C 381.808594 633.921875 381.808594 628.695312 382.015625 623.46875 C 382.121094 620.113281 382.640625 616.792969 382.917969 613.46875 C 383.402344 607.96875 383.78125 607.585938 389.355469 607.34375 C 390.394531 607.308594 391.464844 607.34375 392.503906 607.34375 C 402.195312 606.964844 402.160156 607.035156 403.476562 616.480469 C 404.375 623.054688 403.996094 629.457031 401.675781 635.648438 Z M 412.0625 218.476562 C 411.578125 218.199219 411.058594 218.027344 410.121094 217.613281 C 409.878906 219.792969 409.605469 221.589844 409.535156 223.425781 C 407.628906 271.488281 405.761719 319.519531 403.824219 367.582031 C 403.476562 375.746094 402.820312 383.914062 402.128906 392.082031 C 401.988281 393.777344 402.300781 396.023438 399.566406 397.027344 C 399.945312 398.03125 401.296875 398.722656 402.644531 399.382812 C 403.027344 399.761719 403.097656 400.453125 402.992188 401.25 C 403.890625 401.941406 404.652344 402.875 404.964844 403.742188 C 405.484375 405.265625 404.964844 407.476562 404.167969 409.035156 C 401.226562 414.746094 391.949219 417.753906 386.101562 415.160156 L 381.980469 418.449219 C 381.878906 419.484375 381.773438 420.523438 381.21875 421.042969 C 377.828125 424.15625 374.261719 427.132812 370.488281 429.796875 C 342.246094 449.554688 313.964844 469.210938 285.6875 488.863281 C 282.261719 491.253906 278.796875 493.5 275.335938 495.855469 C 276.789062 497.722656 278.382812 499.417969 279.523438 501.390625 C 281.984375 505.542969 281.082031 508.621094 276.6875 510.558594 C 274.402344 511.5625 271.945312 512.359375 269.488281 512.707031 C 259.277344 514.019531 249.066406 515.230469 238.820312 516.167969 C 235.980469 516.441406 232.933594 515.992188 230.132812 515.230469 C 225.945312 514.089844 225.113281 512.152344 227.015625 508.171875 C 230.132812 501.738281 233.210938 495.265625 236.914062 489.175781 C 241.277344 482.011719 246.226562 475.265625 251.003906 468.34375 C 251.695312 467.308594 252.664062 466.441406 253.601562 465.613281 C 257.097656 462.566406 260.175781 463.257812 261.976562 467.550781 C 262.632812 469.070312 262.839844 470.765625 263.292969 472.394531 C 263.707031 474.019531 264.121094 475.613281 264.78125 478.171875 C 267.097656 476.753906 269.140625 475.542969 271.113281 474.226562 C 290.707031 461.21875 310.160156 447.964844 329.957031 435.265625 C 343.214844 426.785156 356.921875 419.035156 370.523438 411.078125 C 372.914062 409.691406 375.71875 409.035156 378.589844 407.929688 C 378.625 408.066406 378.625 408.207031 378.660156 408.34375 L 380.699219 406.890625 C 380.5625 404.675781 381.117188 402.425781 382.464844 400.628906 C 384.683594 397.71875 387.347656 398.203125 390.183594 399.171875 C 390.183594 399.140625 390.183594 399.070312 390.152344 399.035156 C 390.21875 399.070312 390.253906 399.105469 390.324219 399.140625 C 389.527344 390.382812 388.109375 381.664062 388.074219 372.910156 C 387.726562 322.910156 387.726562 272.941406 387.589844 222.941406 C 387.589844 220.832031 387.589844 218.753906 387.589844 216.160156 C 386.445312 216.46875 385.546875 216.746094 384.648438 216.988281 C 381.808594 217.785156 380.5625 216.160156 380.597656 213.769531 C 380.597656 211.9375 381.152344 210 381.949219 208.339844 C 386.445312 198.648438 391.121094 189.03125 395.621094 179.308594 C 396.449219 177.472656 397.246094 175.429688 397.28125 173.492188 C 397.488281 167.195312 397.316406 160.898438 397.351562 154.601562 C 397.386719 149.722656 398.421875 148.648438 403.128906 148.40625 C 404.792969 148.335938 406.488281 148.300781 408.183594 148.441406 C 412.582031 148.820312 415.316406 151.140625 415.625 155.5 C 416.179688 163.875 416.835938 172.246094 413.273438 180.308594 C 412.613281 181.796875 412.996094 183.945312 413.445312 185.671875 C 415.453125 193.183594 417.738281 200.585938 419.78125 208.0625 C 420.265625 209.859375 420.574219 211.765625 420.574219 213.632812 C 420.507812 219.621094 417.253906 221.417969 412.0625 218.476562 Z M 589.769531 295.953125 C 596.550781 292.25 603.476562 288.824219 610.433594 285.46875 C 611.46875 284.949219 612.992188 285.398438 614.308594 285.398438 C 614.378906 285.640625 614.449219 285.882812 614.515625 286.125 C 616.59375 286.367188 618.289062 287.960938 619.222656 290.035156 C 620.816406 290.902344 621.300781 292.632812 621.472656 294.605469 C 621.679688 297.0625 621.265625 299.515625 618.808594 300.484375 C 610.882812 303.703125 602.886719 306.820312 594.785156 309.585938 C 592.121094 310.488281 589.421875 309.828125 588.246094 306.402344 C 586.789062 302.183594 587.066406 297.40625 589.769531 295.953125 Z M 530.371094 594.300781 C 527.949219 596.582031 525.28125 598.625 522.617188 600.632812 C 521.476562 601.460938 520.019531 601.878906 518.222656 602.707031 C 517.042969 601.773438 515.417969 601.011719 514.621094 599.730469 C 510.8125 593.746094 507.214844 587.65625 503.578125 581.566406 C 502.058594 579.003906 502.679688 576.757812 504.894531 574.886719 C 505.066406 574.75 505.242188 574.644531 505.378906 574.507812 C 511.472656 568.796875 513.546875 568.902344 519.292969 574.851562 C 522.929688 578.589844 526.703125 582.1875 530.371094 585.925781 C 533.695312 589.246094 533.761719 591.082031 530.371094 594.300781 Z M 541.863281 200.136719 C 538.78125 206.296875 535.667969 212.492188 531.789062 218.164062 C 528.050781 223.632812 520.78125 222.804688 517.527344 215.433594 C 517.285156 214.84375 517.839844 213.910156 518.1875 212.527344 C 518.324219 212.558594 518.464844 212.628906 518.566406 212.664062 C 518.949219 210.96875 519.917969 209.617188 520.957031 208.339844 C 520.054688 204.914062 521.960938 200.484375 528.605469 188.890625 C 533.902344 188.476562 537.984375 191.28125 541.414062 194.914062 C 542.382812 195.984375 542.554688 198.753906 541.863281 200.136719 Z M 608.839844 524.195312 C 607.351562 527.136719 605.378906 529.972656 603.09375 532.324219 C 601.675781 533.8125 599.25 534.296875 598.074219 534.851562 C 595.304688 534.261719 593.507812 534.230469 592.050781 533.535156 C 584.644531 530.144531 577.066406 527.03125 570.074219 522.949219 C 562.941406 518.796875 562.871094 509.382812 569.65625 504.609375 C 571.109375 503.605469 573.84375 503.433594 575.609375 504.019531 C 585.683594 507.445312 595.757812 511.011719 605.621094 514.957031 C 610.085938 516.824219 611.019531 519.902344 608.839844 524.195312 Z M 651.691406 412.84375 C 651.484375 418.585938 648.472656 421.839844 643.003906 422.253906 C 640.925781 422.390625 638.816406 422.324219 636.703125 422.324219 C 634.59375 422.324219 632.515625 422.324219 630.402344 422.324219 C 630.402344 422.117188 630.402344 421.941406 630.402344 421.734375 C 626.214844 421.734375 621.992188 422.011719 617.804688 421.664062 C 611.574219 421.148438 610.222656 419.519531 610.015625 413.359375 C 609.980469 412.738281 609.980469 412.117188 609.980469 411.457031 C 609.914062 404.675781 609.878906 404.503906 616.765625 404.019531 C 624.105469 403.464844 631.441406 403.292969 638.78125 403.015625 C 640.441406 402.945312 642.171875 403.050781 643.800781 403.324219 C 649.441406 404.296875 651.898438 407.304688 651.691406 412.84375 Z M 651.691406 412.84375 " fill-opacity="1" fill-rule="nonzero"/><path fill="#83d2e3" d="M 378.660156 408.34375 L 380.699219 406.890625 C 380.910156 410.351562 382.8125 413.742188 385.960938 415.195312 C 385.996094 415.195312 386.03125 415.230469 386.066406 415.230469 L 381.945312 418.515625 C 381.980469 418.066406 382.050781 417.617188 382.121094 417.203125 C 380.804688 417.027344 379.28125 416.371094 378.175781 416.785156 C 375.300781 417.824219 372.601562 419.3125 369.867188 420.628906 C 371.285156 418.414062 373.292969 417.0625 374.921875 415.332031 C 376.617188 413.636719 379.386719 412.359375 378.660156 408.34375 Z M 388.074219 403.671875 C 387.207031 404.15625 386.585938 406.371094 386.964844 407.339844 C 387.382812 408.378906 389.042969 409.347656 390.289062 409.519531 C 394.476562 410.144531 397.316406 408.066406 398.320312 403.707031 C 398.734375 401.976562 399.082031 399.867188 401.054688 400.316406 C 401.675781 400.453125 402.335938 400.800781 402.921875 401.285156 C 403.027344 400.488281 402.957031 399.796875 402.578125 399.414062 C 401.226562 398.722656 399.878906 398.066406 399.496094 397.0625 C 399.21875 397.167969 398.90625 397.269531 398.5625 397.339844 C 398.320312 395.539062 397.835938 393.84375 397.835938 392.148438 C 398.390625 358.757812 398.839844 325.367188 399.703125 291.972656 C 400.292969 269.101562 401.46875 246.230469 402.402344 223.355469 C 402.4375 222.316406 402.507812 221.246094 402.613281 220.207031 C 403.164062 213.253906 404.101562 212.285156 412.0625 210.898438 C 410.019531 201.003906 406.9375 191.453125 403.476562 180.585938 C 397.316406 189.617188 393.300781 198.304688 389.113281 207.40625 C 393.230469 210.070312 393.679688 214.496094 393.921875 218.824219 C 394.441406 227.613281 394.894531 236.4375 394.925781 245.261719 C 395.101562 293.152344 395.136719 341.039062 395.238281 388.929688 C 395.238281 391.664062 395.410156 394.433594 394.960938 397.097656 C 394.511719 399.933594 392.851562 401.078125 390.253906 399.105469 C 390.253906 399.140625 390.253906 399.171875 390.253906 399.171875 C 390.21875 399.171875 390.152344 399.140625 390.117188 399.140625 C 390.566406 401.144531 390.082031 402.53125 388.074219 403.671875 Z M 361.835938 424.261719 C 359.066406 425.886719 356.230469 427.480469 353.496094 429.210938 C 329.058594 444.710938 304.65625 460.28125 280.21875 475.820312 C 276.6875 478.070312 273.15625 480.351562 269.417969 482.253906 C 263.84375 485.09375 259.691406 483.121094 257.925781 477.097656 C 257.441406 475.472656 257.128906 473.8125 256.507812 471.285156 C 248.097656 484.644531 240.34375 496.996094 232.347656 509.695312 C 240.550781 510.320312 266.890625 506.652344 273.917969 504.125 C 272.117188 501.804688 270.351562 499.523438 268.828125 497.550781 C 269.972656 492.046875 273.746094 489.3125 277.484375 486.617188 C 304.722656 466.996094 331.964844 447.410156 359.207031 427.789062 C 360.3125 426.996094 361.351562 426.128906 362.425781 425.265625 C 362.253906 424.953125 362.042969 424.605469 361.835938 424.261719 Z M 361.835938 424.261719 " fill-opacity="1" fill-rule="nonzero"/><path fill="#07a6bb" d="M 221.375 299.863281 C 221.582031 300.035156 221.789062 300.210938 221.996094 300.347656 C 220.820312 300.277344 219.679688 299.898438 218.640625 299.171875 C 219.195312 298.859375 219.78125 298.304688 220.335938 297.511719 C 216.875 291.421875 209.15625 289 205.660156 282.148438 C 207.285156 280.660156 208.914062 279.171875 210.78125 277.511719 C 217.464844 281.9375 221.6875 287.753906 225.875 293.773438 C 224.246094 295.988281 223.035156 297.613281 221.375 299.863281 Z M 591.464844 299.449219 C 591.773438 301.074219 592.121094 302.734375 592.605469 305.15625 C 599.910156 301.90625 606.730469 299.242188 613.167969 295.882812 C 615.207031 294.8125 616.316406 291.9375 618.082031 289.621094 C 618.53125 289.726562 618.914062 289.863281 619.257812 290.035156 C 618.324219 287.960938 616.628906 286.367188 614.550781 286.125 C 614.621094 286.4375 614.722656 286.75 614.792969 287.058594 C 608.804688 294.015625 600.152344 296.089844 591.464844 299.449219 Z M 537.222656 197.371094 C 534.800781 195.847656 533.070312 194.738281 531.132812 193.527344 C 528.050781 199.308594 526.597656 205.640625 521.648438 209.964844 C 521.371094 209.410156 521.128906 208.890625 520.992188 208.339844 C 519.917969 209.652344 518.949219 210.96875 518.601562 212.664062 C 521.199219 213.667969 523.515625 214.53125 526.25 215.570312 C 530.75 210.242188 533.417969 203.910156 537.222656 197.371094 Z M 401.398438 170.207031 C 404.238281 171.003906 406.558594 171.625 409.050781 172.351562 C 409.050781 166.503906 409.050781 160.757812 409.050781 154.601562 C 406.382812 154.152344 403.996094 153.734375 401.398438 153.285156 C 401.398438 159.617188 401.398438 164.980469 401.398438 170.207031 Z M 572.355469 508.621094 C 568.792969 513.777344 569.726562 516.097656 574.191406 518.242188 C 582.257812 522.117188 590.390625 525.820312 599.113281 529.867188 C 600.324219 526.617188 601.328125 523.988281 602.503906 520.804688 C 592.085938 516.617188 582.152344 512.601562 572.355469 508.621094 Z M 645.046875 415.539062 C 644.941406 409.867188 644.839844 409.625 640.234375 409.242188 C 636.046875 408.898438 631.859375 408.757812 627.667969 408.757812 C 623.136719 408.757812 618.601562 408.964844 613.546875 409.140625 C 614.066406 411.839844 614.378906 413.636719 614.757812 415.539062 C 625.109375 415.539062 635.078125 415.539062 645.046875 415.539062 Z M 386.828125 638.003906 C 392.503906 638.523438 394.683594 635.683594 395.863281 631.394531 C 397.417969 625.648438 396.96875 619.90625 396.347656 613.644531 C 393.648438 613.402344 391.1875 613.226562 388.003906 612.949219 C 387.105469 621.496094 386.65625 629.734375 386.828125 638.003906 Z M 161.113281 403.324219 C 160.558594 409.417969 160.730469 410.246094 163.949219 410.628906 C 172.015625 411.597656 180.082031 411.664062 188.664062 409.867188 C 188.144531 407.167969 187.695312 404.8125 187.070312 401.699219 C 177.898438 402.253906 169.453125 402.808594 161.113281 403.324219 Z M 209.710938 525.265625 C 208.601562 522.878906 207.703125 520.90625 206.351562 518.035156 C 199.1875 522.636719 192.644531 526.824219 185.792969 531.253906 C 187.382812 533.261719 188.421875 534.539062 189.839844 536.304688 C 196.730469 532.464844 203.027344 528.96875 209.710938 525.265625 Z M 518.914062 595.0625 C 520.992188 593.089844 522.6875 591.496094 524.554688 589.699219 C 520.125 584.4375 516.007812 579.558594 511.574219 574.332031 C 510.050781 575.753906 509.015625 576.6875 507.527344 578.035156 C 511.609375 584.125 515.175781 589.457031 518.914062 595.0625 Z M 284.890625 608.695312 C 283.574219 611.152344 284.890625 612.671875 287.140625 613.539062 C 289.910156 614.578125 292.230469 613.503906 293.683594 611.253906 C 295.828125 607.96875 297.800781 604.507812 299.460938 600.945312 C 301.46875 596.582031 301.261719 596.410156 296.210938 591.980469 C 291.46875 597.207031 288.039062 602.882812 284.890625 608.695312 Z M 297.214844 223.597656 C 294.617188 218.683594 292.089844 213.703125 287.902344 209.550781 C 285.546875 210.691406 283.574219 211.660156 280.980469 212.90625 C 285.480469 218.511719 289.632812 223.632812 294.097656 229.167969 C 296.832031 227.75 298.703125 226.402344 297.214844 223.597656 Z M 297.214844 223.597656 " fill-opacity="1" fill-rule="nonzero"/></svg>