<svg xmlns="http://www.w3.org/2000/svg" xmlns:xlink="http://www.w3.org/1999/xlink" width="1080" zoomAndPan="magnify" viewBox="0 0 810 809.999993" height="1080" preserveAspectRatio="xMidYMid meet" version="1.0"><defs><clipPath id="2d570b9143"><path d="M 82 231 L 727 231 L 727 578.851562 L 82 578.851562 Z M 82 231 " clip-rule="nonzero"/></clipPath></defs><g clip-path="url(#2d570b9143)"><path fill="#000000" d="M 670.398438 427.320312 C 664.90625 432.804688 661.363281 433.195312 655.679688 429.238281 C 652.789062 430.402344 650.238281 431.933594 647.492188 432.441406 C 644.359375 433 641.957031 430.9375 640.183594 428.921875 C 637.609375 429.820312 635.277344 431.132812 632.871094 431.277344 C 630.613281 431.398438 628.304688 430.28125 625.390625 429.554688 C 619.683594 432.589844 617.085938 432.003906 612.859375 425.9375 C 608.148438 426.449219 602.949219 427.589844 601.078125 420.816406 C 598.261719 421.351562 595.515625 421.863281 592.964844 420.066406 C 590.5625 418.390625 589.589844 415.988281 589.394531 412.929688 C 588.109375 413.101562 587.015625 413.296875 585.921875 413.34375 C 582.183594 413.488281 580.167969 411.425781 580.433594 407.664062 C 580.53125 406.28125 580.796875 404.921875 580.96875 403.757812 C 577.007812 401.550781 573.558594 402.59375 569.917969 404.242188 C 556.363281 410.308594 542.617188 415.941406 529.160156 422.203125 C 522.578125 425.257812 516.410156 429.261719 510.167969 433.050781 C 507.886719 434.433594 505.894531 436.300781 503.925781 438.121094 C 501.449219 440.402344 500.308594 443.339844 500.160156 446.6875 C 499.675781 457.828125 499.191406 468.941406 498.726562 480.082031 C 498.703125 480.953125 498.851562 481.828125 498.921875 482.773438 C 501.472656 482.507812 503.878906 482.265625 506.183594 482.023438 C 509.027344 478.042969 511.648438 473.917969 514.6875 470.179688 C 521.242188 462.121094 529.695312 457.074219 540.117188 455.765625 C 552.015625 454.257812 559.15625 459.257812 563.066406 468.308594 C 564.234375 471.003906 565.230469 473.792969 566.445312 476.464844 C 570.328125 485.078125 577.007812 487.554688 585.632812 483.574219 C 587.136719 482.871094 588.546875 481.996094 590.003906 481.171875 C 591.121094 480.542969 592.1875 479.835938 593.332031 479.230469 C 596.660156 477.484375 600.105469 476.5625 603.460938 479.035156 C 606.859375 481.535156 607.34375 485.25 606.761719 489.082031 C 605.351562 498.695312 598.019531 505.34375 588.132812 505.902344 C 572.953125 506.75 561.609375 500.511719 554.273438 487.167969 C 553.109375 485.03125 552.066406 482.824219 550.875 480.710938 C 547.351562 474.5 541.039062 472.75 534.894531 476.390625 C 533.144531 477.410156 531.46875 478.746094 530.132812 480.25 C 527.679688 483.015625 525.492188 486.027344 523.332031 488.792969 C 523.476562 489.300781 523.476562 489.617188 523.625 489.761719 C 536.109375 503.570312 535.839844 519.128906 529.792969 535.363281 C 527.339844 541.9375 522.96875 547.351562 517.699219 552.011719 C 516.75 552.859375 515.804688 553.683594 514.515625 554.824219 C 516.410156 555.648438 518.039062 556.28125 519.566406 557.058594 C 522.238281 558.390625 522.894531 559.703125 522.507812 562.613281 C 521.921875 567.105469 519.03125 570.625 514.589844 571.351562 C 511.210938 571.910156 507.691406 571.933594 504.289062 571.714844 C 491.757812 570.890625 479.226562 570.066406 466.742188 568.851562 C 457.707031 567.976562 448.742188 566.472656 439.730469 565.1875 C 438.492188 565.015625 437.253906 564.53125 436.113281 563.972656 C 433.855469 562.90625 432.566406 561.085938 432.519531 558.511719 C 432.496094 557.496094 432.519531 556.476562 432.519531 555.429688 C 432.542969 550.964844 432.300781 550.578125 427.78125 550.601562 C 413.9375 550.652344 400.09375 550.699219 386.25 550.941406 C 377.796875 551.085938 369.34375 551.597656 360.894531 551.984375 C 359.242188 552.058594 357.589844 552.445312 355.9375 552.59375 C 352.78125 552.882812 350.667969 554.144531 349.0625 557.226562 C 347.777344 559.679688 345.324219 561.742188 342.96875 563.390625 C 337.574219 567.152344 331.40625 569.410156 325.164062 571.375 C 309.644531 576.253906 293.6875 578.292969 277.488281 578.800781 C 274.695312 578.898438 271.851562 578.484375 269.082031 578.144531 C 266.242188 577.804688 263.859375 576.59375 263.035156 573.609375 C 262.136719 570.332031 261.722656 566.933594 264.105469 564.121094 C 264.929688 563.148438 266.410156 562.542969 267.722656 562.152344 C 269.910156 561.5 272.191406 561.183594 275.203125 560.550781 C 273.261719 559.097656 271.902344 558.148438 270.613281 557.105469 C 262.234375 550.335938 257.789062 541.332031 255.601562 531.019531 C 252.589844 516.722656 257.011719 504.785156 267.042969 494.59375 C 271.125 490.441406 275.882812 487.652344 282.054688 487.410156 C 282.175781 486.65625 282.441406 485.929688 282.417969 485.226562 C 281.980469 471.757812 280.5 458.433594 277.148438 445.328125 C 275.253906 437.902344 271.125 432.710938 264.152344 429.238281 C 244.066406 419.289062 224.320312 408.683594 205.277344 396.816406 C 201.902344 394.707031 198.914062 396.285156 195.757812 396.160156 C 195.417969 396.136719 195.003906 396.769531 194.710938 397.15625 C 192.574219 400.140625 189.417969 400.941406 186.015625 401.355469 C 184.949219 401.476562 183.660156 401.671875 182.933594 402.351562 C 180.382812 404.730469 177.613281 405.238281 174.457031 403.78125 C 170.691406 407.882812 166.441406 407.882812 161.800781 405.554688 C 160.710938 406.085938 159.617188 406.765625 158.425781 407.179688 C 155.898438 408.078125 153.472656 408.222656 151.164062 406.355469 C 150.484375 405.796875 149.292969 405.285156 148.492188 405.480469 C 144.777344 406.402344 141.667969 405.433594 138.851562 402.789062 C 138 403.078125 137.148438 403.320312 136.347656 403.613281 C 132.921875 404.824219 129.984375 404.074219 127.726562 401.308594 C 126.875 400.261719 126 399.996094 124.8125 399.949219 C 121.289062 399.777344 118.714844 398.199219 117.597656 394.925781 C 115.460938 394.027344 113.324219 393.445312 111.527344 392.328125 C 109.363281 390.992188 109.753906 388.589844 110.117188 386.359375 C 107.203125 384.78125 104.992188 382.789062 104.75 379.296875 C 104.726562 378.785156 104.167969 378.15625 103.679688 377.863281 C 100.597656 375.945312 99.453125 373.230469 100.039062 369.6875 C 100.132812 369.152344 99.84375 368.375 99.453125 368.011719 C 97.171875 365.753906 96.78125 363.15625 97.875 360.78125 C 96.46875 358.621094 94.742188 356.96875 94.355469 355.050781 C 93.988281 353.257812 95.058594 351.167969 95.542969 349.082031 C 91.683594 344.300781 91.65625 342.894531 95.566406 337.75 C 93.578125 334.644531 92.898438 331.292969 94.839844 327.777344 C 95.007812 327.484375 95.058594 327 94.9375 326.707031 C 92.726562 321.683594 95.519531 318.457031 98.945312 315.421875 C 99.042969 315.351562 99.113281 315.230469 99.066406 315.277344 C 99.164062 313.117188 98.921875 311.03125 99.429688 309.136719 C 99.941406 307.21875 100.742188 304.941406 102.199219 303.824219 C 104.894531 301.761719 106.644531 299.089844 108.707031 296.542969 C 110.066406 294.867188 112.691406 294.261719 114.269531 292.683594 C 115.726562 291.226562 116.285156 288.824219 117.742188 287.34375 C 120.074219 284.992188 123.136719 283.949219 126.488281 284.53125 C 130.347656 279.214844 134.867188 275.671875 142.007812 277.515625 C 146.378906 273.828125 151.117188 270.917969 157.355469 273.851562 C 158.402344 273.292969 159.496094 272.613281 160.636719 272.105469 C 163.914062 270.699219 167.074219 270.625 170.085938 272.90625 C 170.714844 273.390625 171.785156 273.875 172.417969 273.660156 C 176.230469 272.445312 179.144531 273.875 181.597656 276.472656 C 188.347656 274.335938 190.242188 275.089844 193.0625 280.695312 C 196.023438 280.625 198.964844 280.136719 201.757812 280.574219 C 204.816406 281.058594 206.492188 283.414062 206.492188 286.542969 C 211.132812 288.050781 215.820312 289.214844 215.820312 295.449219 C 220.605469 297.34375 223.6875 300.523438 223.324219 306.03125 C 228.667969 309.550781 229.226562 310.765625 228.035156 316.78125 C 227.792969 318.066406 228.058594 318.871094 228.863281 319.863281 C 232.53125 324.402344 232.625 326.804688 229.46875 332.214844 C 231.945312 336.34375 231.460938 340.152344 227.332031 343.355469 C 231.484375 349.445312 229.347656 354.542969 225.023438 358.839844 C 225.558594 361.507812 225.996094 363.742188 226.507812 366.265625 C 226.992188 366.554688 227.695312 367.113281 228.472656 367.5 C 241.808594 374.078125 255.289062 380.265625 269.421875 384.925781 C 274.136719 386.480469 274.207031 386.382812 277.828125 385.800781 C 277.753906 385.21875 277.828125 384.5625 277.609375 384.027344 C 273.648438 374.101562 273.429688 363.765625 274.304688 353.378906 C 276.441406 328.066406 286.835938 306.394531 303.71875 287.636719 C 305.589844 285.550781 307.652344 283.609375 309.816406 281.789062 C 311.101562 280.695312 311.613281 279.578125 311.757812 277.90625 C 312.921875 264.289062 316.46875 251.234375 321.179688 238.445312 C 321.765625 236.894531 322.515625 235.386719 323.34375 233.957031 C 324.921875 231.238281 325.554688 230.972656 328.199219 232.5 C 331.285156 234.296875 334.394531 236.140625 337.210938 238.324219 C 344.449219 243.929688 350.738281 250.457031 355.671875 258.222656 C 355.863281 258.539062 356.109375 258.855469 356.035156 258.734375 C 387.925781 252.570312 419.28125 250.046875 451 260.480469 C 452.289062 259.605469 454.085938 258.394531 455.90625 257.179688 C 465.964844 250.507812 476.601562 244.875 487.847656 240.484375 C 490.105469 239.609375 492.390625 238.785156 495.207031 239.34375 C 496.664062 243.03125 496.980469 247.011719 496.785156 250.917969 C 496.226562 261.160156 494.792969 271.304688 491.804688 281.15625 C 491.148438 283.339844 490.25 285.476562 489.378906 287.878906 C 500.355469 301.347656 505.40625 317.511719 508.539062 334.351562 C 511.699219 351.242188 512.378906 368.15625 506.5 385.363281 C 508.347656 384.828125 509.65625 384.539062 510.921875 384.101562 C 528.09375 378.132812 545.238281 372.136719 562.410156 366.214844 C 563.941406 365.683594 565.082031 365.097656 565.667969 363.375 C 566.175781 361.847656 567.246094 360.488281 568.09375 359.03125 C 565.59375 352.457031 566.105469 350.199219 571.277344 345.683594 C 571.375 339.714844 572.929688 337.144531 578.710938 333.914062 C 579.023438 327.507812 582.449219 323.1875 589.226562 321.296875 C 588.910156 315.011719 591.484375 310.714844 598.335938 310.011719 C 599.207031 304.136719 602.488281 300.742188 608.269531 299.746094 C 608.875 299.648438 609.554688 298.96875 609.917969 298.410156 C 613.441406 293.074219 616.792969 291.738281 623.375 293.144531 C 628.5 289.359375 633.746094 285.648438 640.523438 288.632812 C 643.4375 287.441406 646.253906 285.9375 649.265625 285.136719 C 652.519531 284.289062 655.289062 285.671875 657.183594 288.4375 C 665.199219 284.042969 669.644531 284.238281 673.480469 288.605469 C 676.492188 288.753906 679.164062 288.65625 681.714844 289.09375 C 684.484375 289.578125 685.964844 291.738281 686.644531 294.285156 C 695.414062 295.910156 697.40625 298.289062 697.285156 307.074219 C 702.578125 308.675781 706.707031 311.539062 706.734375 317.339844 C 709.308594 319.183594 711.6875 320.640625 713.75 322.4375 C 715.671875 324.109375 715.671875 326.78125 716.542969 328.988281 C 717.347656 331.027344 719.460938 332.53125 720.457031 334.546875 C 720.964844 335.566406 720.480469 337.265625 720.019531 338.5 C 719.652344 339.519531 718.65625 340.296875 718.050781 341.074219 C 719.703125 342.847656 721.71875 344.351562 722.859375 346.363281 C 724.171875 348.671875 722.859375 351.074219 721.644531 353.183594 C 724.851562 356.652344 725.945312 360.414062 721.015625 366.53125 C 724.316406 371.652344 723.902344 374.464844 718.925781 379.539062 C 720.210938 381.40625 720.941406 383.738281 719.800781 385.824219 C 718.804688 387.621094 717.054688 389.003906 715.5 390.726562 C 717.757812 395.238281 716.957031 398.128906 712.050781 400.992188 C 709.988281 402.203125 707.703125 403.054688 705.542969 404.050781 C 706.269531 411.304688 704.035156 414.265625 696.773438 415.578125 C 696.457031 418.292969 696.09375 421.351562 693.179688 422.566406 C 690.679688 423.609375 687.859375 423.972656 684.703125 424.773438 C 681.085938 430.355469 675.933594 429.96875 670.398438 427.320312 Z M 83.835938 392.523438 C 83.425781 392.765625 83.011719 393.007812 82.574219 393.226562 C 83.085938 394.585938 83.449219 396.015625 84.152344 397.253906 C 93.699219 414.3125 107.761719 425.914062 126.511719 431.691406 C 128.574219 432.320312 130.738281 432.589844 132.875 432.878906 C 133.894531 433.023438 134.816406 432.613281 135.132812 431.011719 C 124.058594 428.851562 114.125 424.410156 105.308594 417.566406 C 96.46875 410.699219 90.101562 401.671875 83.835938 392.523438 Z M 196.65625 263.34375 C 207.292969 268.296875 215.792969 275.988281 223.566406 284.554688 C 224.488281 285.574219 225.460938 286.519531 226.410156 287.515625 C 226.699219 287.394531 226.992188 287.25 227.28125 287.128906 C 227.28125 286.570312 227.476562 285.914062 227.257812 285.476562 C 226.480469 284.019531 225.703125 282.492188 224.636719 281.253906 C 213.632812 268.5625 200.273438 259.511719 183.710938 255.796875 C 180.550781 255.09375 177.128906 255.433594 173.824219 255.480469 C 173.191406 255.480469 172.585938 256.28125 171.421875 257.082031 C 172.585938 257.421875 173.046875 257.714844 173.460938 257.691406 C 181.816406 257.035156 189.320312 259.921875 196.65625 263.34375 Z M 211.132812 263.636719 C 215.890625 267.46875 220.191406 271.886719 224.707031 276.011719 C 225.65625 276.863281 226.359375 278.414062 228.328125 277.636719 C 228.15625 274.992188 226.628906 273.074219 224.902344 271.523438 C 219.898438 266.984375 214.96875 262.277344 209.503906 258.320312 C 201.027344 252.15625 191.335938 248.566406 180.84375 247.425781 C 179.582031 247.277344 178.246094 247.570312 176.957031 247.667969 C 176.933594 248.105469 176.910156 248.566406 176.886719 249.027344 C 177.90625 249.34375 178.902344 249.753906 179.945312 249.925781 C 191.578125 251.695312 202.023438 256.28125 211.132812 263.636719 Z M 90.296875 379.464844 C 88.960938 382.039062 90.128906 383.710938 90.929688 385.265625 C 99.261719 401.332031 111.9375 412.738281 128.601562 419.652344 C 131.367188 420.792969 134.527344 421.011719 137.539062 421.472656 C 138.21875 421.570312 139.019531 421.011719 139.773438 420.746094 C 139.820312 420.503906 139.894531 420.261719 139.941406 419.992188 C 116.480469 415.140625 101.324219 400.167969 90.296875 379.464844 Z M 558.015625 327.289062 C 555.734375 331.34375 554.324219 335.710938 554.007812 340.371094 C 553.933594 341.558594 553.402344 342.917969 554.761719 343.792969 C 555.101562 343.695312 555.488281 343.695312 555.539062 343.550781 C 555.78125 342.992188 556.046875 342.382812 556.097656 341.777344 C 556.605469 336.996094 558.308594 332.582031 560.664062 328.453125 C 565.667969 319.742188 571.8125 311.929688 579.414062 305.328125 C 582.109375 303 585.023438 300.886719 587.769531 298.582031 C 588.253906 298.167969 588.425781 297.367188 588.742188 296.738281 C 588.472656 296.496094 588.207031 296.226562 587.964844 295.984375 C 585.800781 297.222656 583.46875 298.265625 581.503906 299.769531 C 571.640625 307.171875 564.0625 316.589844 558.015625 327.289062 Z M 720.089844 413.609375 C 721.960938 411.355469 723.660156 408.953125 725.3125 406.5 C 725.871094 405.652344 726.015625 404.535156 726.355469 403.539062 C 725.945312 403.296875 725.53125 403.078125 725.117188 402.835938 C 724.269531 403.855469 723.371094 404.824219 722.59375 405.894531 C 715.960938 415.089844 708.335938 423.316406 699.347656 430.257812 C 694.589844 433.945312 689.65625 437.394531 683.511719 438.535156 C 683.101562 438.605469 682.761719 439.09375 682.324219 439.429688 C 684.460938 440.789062 684.847656 441.105469 686.914062 440.160156 C 690.847656 438.363281 694.855469 436.566406 698.402344 434.117188 C 706.636719 428.414062 713.726562 421.351562 720.089844 413.609375 Z M 550.292969 335.929688 C 552.625 326.851562 556.703125 318.675781 563.140625 311.808594 C 566.710938 307.996094 570.71875 304.574219 574.507812 300.960938 C 575.359375 300.132812 576.183594 299.285156 577.007812 298.4375 C 576.863281 298.191406 576.71875 297.949219 576.597656 297.707031 C 575.769531 297.78125 574.847656 297.636719 574.167969 297.976562 C 572.6875 298.726562 571.253906 299.601562 569.964844 300.644531 C 564.890625 304.792969 560.371094 309.5 556.65625 314.914062 C 552.527344 320.980469 549.34375 327.507812 547.863281 334.765625 C 547.570312 336.148438 546.746094 337.726562 548.933594 339.789062 C 549.539062 338.136719 550 337.046875 550.292969 335.929688 Z M 725.871094 414.871094 C 723.539062 415.867188 722.519531 418.367188 720.820312 420.140625 C 719.046875 421.984375 717.394531 423.949219 715.621094 425.769531 C 713.847656 427.589844 712.027344 429.410156 710.109375 431.082031 C 708.09375 432.855469 706.003906 434.554688 703.84375 436.132812 C 701.777344 437.636719 699.496094 438.824219 697.480469 440.378906 C 695.585938 441.835938 692.597656 441.542969 691.164062 444.140625 C 693.910156 445.351562 695.949219 444.019531 697.914062 442.976562 C 707.507812 437.828125 715.476562 430.695312 722.519531 422.46875 C 723.855469 420.914062 725.046875 419.265625 726.261719 417.589844 C 726.792969 416.839844 727.5 415.890625 725.871094 414.871094 Z M 725.871094 414.871094 " fill-opacity="1" fill-rule="nonzero"/></g><path fill="#f9b7b2" d="M 626 424.652344 C 619.855469 429.941406 618.054688 429.578125 614.703125 422.203125 C 613.464844 422.492188 612.152344 422.785156 610.84375 423.074219 C 606.179688 424.144531 604.988281 423.464844 603.53125 418.972656 C 603.410156 418.609375 603.191406 418.292969 602.851562 417.640625 C 601.855469 417.6875 600.738281 417.640625 599.621094 417.808594 C 594.351562 418.609375 592.84375 417.492188 592.335938 412.347656 C 592.3125 412.226562 592.335938 412.082031 592.335938 411.960938 C 592.042969 409.65625 591.460938 409.242188 589.054688 409.65625 C 583.179688 410.648438 582.71875 410.1875 583.640625 404.414062 C 584.199219 400.992188 583.738281 400.382812 580.386719 400.167969 C 577.566406 399.972656 576.71875 398.808594 577.617188 396.160156 C 578.152344 394.632812 578.902344 393.175781 579.535156 391.722656 C 572.832031 386.578125 572.832031 386.578125 574.335938 380.753906 C 573.027344 379.925781 571.664062 379.054688 569.941406 377.960938 C 571.035156 376.238281 571.980469 374.78125 573.050781 373.109375 C 572.175781 372.089844 571.132812 371.019531 570.234375 369.808594 C 567.851562 366.652344 567.707031 364.90625 570.160156 361.894531 C 571.640625 360.050781 572.101562 358.691406 570.765625 356.484375 C 569.042969 353.621094 569.722656 351.21875 572.320312 349.011719 C 573.269531 348.183594 574.386719 347.554688 575.601562 346.703125 C 572.613281 339.714844 578.078125 337.992188 582.765625 335.710938 C 580.480469 327.777344 586.410156 325.785156 591.023438 323.746094 C 591.96875 320.519531 592.09375 317.339844 593.71875 315.449219 C 595.25 313.675781 598.359375 313.261719 601.007812 312.148438 C 602.828125 303.847656 603.53125 304.382812 611.863281 302.222656 C 613.464844 297.003906 615.457031 295.546875 621.140625 295.960938 C 623.425781 296.128906 625.148438 295.816406 627.019531 294.164062 C 628.765625 292.613281 631.195312 291.714844 633.429688 290.863281 C 636.054688 289.871094 638.410156 290.765625 640.402344 292.953125 C 641.347656 292.273438 642.125 291.640625 643 291.105469 C 644.410156 290.234375 645.769531 289.164062 647.324219 288.703125 C 650.261719 287.78125 653.203125 287.683594 655.097656 290.863281 C 655.4375 291.421875 655.703125 292.003906 656.140625 292.78125 C 657.792969 291.640625 658.789062 290.914062 659.855469 290.257812 C 664.105469 287.613281 667.726562 287.804688 671.367188 290.984375 C 672.558594 292.027344 673.675781 292.320312 675.207031 291.90625 C 676.519531 291.542969 678 291.398438 679.359375 291.542969 C 681.375 291.761719 683.148438 292.660156 683.269531 295.039062 C 683.390625 297.269531 684.558594 297.878906 686.574219 297.636719 C 687.328125 297.539062 688.128906 297.636719 688.855469 297.78125 C 692.28125 298.53125 693.882812 300.402344 694.101562 303.921875 C 694.175781 304.941406 694.152344 305.984375 694.03125 306.976562 C 693.8125 308.699219 694.539062 309.671875 696.167969 310.035156 C 696.289062 310.058594 696.410156 310.109375 696.53125 310.15625 C 702.75 312.582031 703.746094 314.210938 702.726562 320.835938 C 703.648438 320.980469 704.570312 321.222656 705.492188 321.246094 C 708.480469 321.34375 710.738281 322.921875 711.980469 325.398438 C 712.730469 326.925781 712.441406 328.964844 712.660156 331.101562 C 713.679688 331.730469 715.332031 332.410156 716.519531 333.550781 C 718.34375 335.324219 718.222656 336.246094 716.472656 338.089844 C 715.429688 339.179688 714.308594 340.175781 713 341.414062 C 714.964844 342.796875 716.714844 343.984375 718.441406 345.25 C 720.699219 346.875 720.988281 347.917969 719.945312 350.464844 C 719.605469 351.289062 718.949219 352.066406 718.851562 352.894531 C 718.753906 353.789062 718.925781 354.957031 719.460938 355.609375 C 722.253906 359.054688 722.082031 361.386719 718.5625 364.203125 C 717.785156 364.808594 717.054688 365.4375 716.035156 366.289062 C 716.910156 367.066406 717.445312 367.816406 718.148438 368.179688 C 721.160156 369.6875 720.578125 372.839844 719.242188 374.78125 C 718.753906 375.484375 718.003906 376.042969 717.296875 376.625 C 715.0625 378.445312 715.0625 378.445312 716.496094 380.945312 C 717.90625 383.421875 717.832031 384.972656 716.082031 386.332031 C 715.378906 386.867188 714.503906 387.160156 713.703125 387.546875 C 712.804688 387.984375 711.929688 388.394531 710.59375 389.050781 C 711.347656 390.363281 711.953125 391.40625 712.585938 392.449219 C 713.726562 394.390625 713.777344 395.457031 711.953125 396.746094 C 709.890625 398.199219 707.558594 399.316406 705.226562 400.335938 C 701.65625 401.914062 701.609375 401.816406 702.433594 405.601562 C 703.1875 409.097656 701.097656 411.960938 697.480469 412.300781 C 696.582031 412.371094 695.558594 412.03125 694.832031 412.347656 C 694.054688 412.6875 692.960938 413.683594 693.035156 414.289062 C 693.253906 416.253906 693.738281 418.125 691.867188 419.554688 C 689.730469 421.183594 687.300781 420.941406 684.875 420.550781 C 684.144531 420.429688 683.441406 420.234375 682.734375 420.066406 C 682.394531 420.503906 682.054688 420.769531 681.984375 421.109375 C 680.867188 425.769531 676.882812 427.296875 672.730469 424.628906 C 671.878906 424.070312 671.027344 423.511719 670.179688 423.003906 C 669.984375 422.90625 669.691406 423.003906 669.425781 423.027344 C 665.25 429.070312 662.917969 431.15625 655.097656 424.605469 C 654.320312 425.308594 653.515625 426.035156 652.714844 426.789062 C 648.78125 430.550781 645.378906 430.332031 642.054688 426.109375 C 641.589844 425.527344 641.082031 424.992188 640.351562 424.167969 C 639.453125 424.796875 638.628906 425.308594 637.875 425.914062 C 633.550781 429.457031 630.953125 429.261719 627.089844 425.089844 C 626.75 424.992188 626.484375 424.917969 626 424.652344 Z M 621.992188 388.347656 C 620.460938 390.605469 620.316406 391.308594 621.3125 392.886719 C 623.667969 396.597656 627.238281 397.472656 631.269531 396.839844 C 634.667969 401.453125 637.316406 401.863281 644.019531 398.613281 C 648.636719 401.863281 652.109375 401.890625 656.1875 398.6875 C 658.667969 396.746094 658.957031 395.824219 657.71875 393.007812 C 656.625 394.003906 655.628906 394.875 654.660156 395.773438 C 652.109375 398.105469 648.78125 399.535156 645.84375 396.550781 C 644.410156 395.117188 642.976562 395.386719 641.347656 396.285156 C 640.253906 396.890625 639.015625 397.300781 637.777344 397.570312 C 636.441406 397.859375 635.105469 397.570312 634.476562 396.257812 C 633.332031 393.832031 631.464844 393.6875 629.082031 393.90625 C 625.804688 394.195312 624.515625 393.105469 623.082031 389.804688 C 622.839844 389.292969 622.378906 388.882812 621.992188 388.347656 Z M 662.332031 315.449219 C 658.8125 311.613281 655.628906 310.375 651.71875 311.808594 C 650.140625 312.390625 649.023438 312.269531 647.519531 311.757812 C 643.851562 310.546875 639.84375 312.390625 638.847656 315.449219 C 638.53125 316.394531 638.238281 317.511719 639.988281 317.898438 C 640.5 317.339844 641.03125 316.636719 641.664062 316.054688 C 643.363281 314.402344 645.210938 313.917969 647.203125 315.203125 C 648.878906 316.296875 650.140625 316.101562 651.769531 315.253906 C 654.414062 313.871094 657.0625 314.136719 659.03125 316.539062 C 660.316406 318.117188 661.824219 318.480469 663.742188 318.40625 C 667.09375 318.285156 670.617188 318.09375 671.34375 322.726562 C 671.394531 323.066406 672.121094 323.601562 672.4375 323.554688 C 672.972656 323.457031 673.628906 323.042969 673.871094 322.582031 C 674.597656 321.054688 674.136719 319.574219 673.167969 318.285156 C 671.855469 316.515625 669.984375 315.691406 667.894531 315.496094 C 666.121094 315.300781 664.324219 315.449219 662.332031 315.449219 Z M 692.039062 354.371094 C 692.230469 354.617188 692.742188 355.175781 693.203125 355.78125 C 695.050781 358.207031 694.976562 359.300781 692.863281 361.410156 C 690.460938 363.8125 690.460938 363.8125 691.867188 367.089844 C 693.035156 369.808594 692.207031 371.53125 689.367188 372.210938 C 688.757812 372.355469 688.03125 372.257812 687.496094 372.550781 C 687.011719 372.816406 686.332031 373.570312 686.425781 373.882812 C 686.621094 374.464844 687.253906 375.171875 687.8125 375.316406 C 690.703125 376.019531 694.101562 374.222656 694.710938 371.289062 C 695.148438 369.175781 694.757812 366.871094 694.734375 363.886719 C 697.332031 361.191406 698.449219 357.578125 694.953125 353.839844 C 697.261719 348.914062 697.015625 346.535156 693.835938 344.203125 C 692.839844 343.476562 691.601562 343.039062 690.410156 342.675781 C 690.070312 342.578125 689.511719 343.308594 688.855469 343.792969 C 690.433594 345.273438 692.5 346.316406 692.960938 347.871094 C 693.472656 349.566406 692.5 351.703125 692.039062 354.371094 Z M 609.96875 342.917969 C 605.984375 340.46875 601.6875 341.367188 600.496094 344.570312 C 599.839844 346.363281 600.445312 348.597656 600.011719 350.539062 C 599.574219 352.457031 598.089844 354.179688 597.898438 356.070312 C 597.726562 357.671875 598.746094 359.421875 599.257812 361.09375 C 597.144531 364.855469 596.804688 367.429688 598.308594 369.296875 C 599.207031 370.390625 600.253906 371.359375 602.125 370.050781 C 598.527344 366.457031 601.539062 363.59375 603.023438 361.121094 C 602.148438 359.03125 600.835938 357.359375 601.007812 355.851562 C 601.199219 354.15625 602.730469 352.625 603.847656 350.757812 C 603.773438 350.5625 603.582031 350.101562 603.433594 349.640625 C 602.4375 346.316406 602.949219 345.441406 606.324219 344.375 C 607.34375 344.082031 608.292969 343.597656 609.96875 342.917969 Z M 191.265625 284.820312 C 192.40625 284.578125 193.351562 284.410156 194.300781 284.167969 C 195.539062 283.851562 196.730469 283.292969 197.96875 283.121094 C 201.636719 282.636719 203.042969 283.777344 203.699219 287.492188 C 203.796875 287.976562 203.871094 288.484375 203.964844 288.898438 C 206.445312 289.746094 208.898438 290.304688 211.105469 291.421875 C 213.828125 292.804688 213.027344 295.523438 212.6875 298.144531 C 213.683594 298.363281 214.507812 298.558594 215.332031 298.726562 C 218.34375 299.332031 220.433594 301.664062 220.09375 304.671875 C 219.828125 307.21875 220.238281 308.699219 222.9375 309.574219 C 225.339844 310.351562 225.898438 311.878906 225.460938 314.453125 C 225.316406 315.324219 225.097656 316.222656 224.734375 317.023438 C 223.859375 318.941406 224.320312 320.203125 225.996094 321.613281 C 229.347656 324.402344 229.519531 326.464844 226.847656 329.765625 C 225.4375 331.488281 225.484375 332.675781 226.820312 334.425781 C 228.472656 336.558594 228.15625 337.894531 226.261719 339.8125 C 225.363281 340.710938 224.441406 341.609375 223.566406 342.53125 C 223.398438 342.699219 223.398438 342.992188 223.203125 343.5 C 223.589844 344.058594 224.054688 344.789062 224.585938 345.464844 C 226.871094 348.28125 226.992188 350.953125 224.976562 353.863281 C 224.613281 354.398438 224.222656 354.929688 223.738281 355.320312 C 221.527344 357.140625 220.75 358.910156 222.28125 361.847656 C 223.929688 365.027344 223.058594 366.578125 219.921875 368.472656 C 219.269531 368.859375 218.613281 369.199219 218.054688 369.492188 C 217.035156 376.625 217.035156 376.625 212.128906 377.0625 C 211.179688 379.320312 210.546875 381.84375 209.140625 383.835938 C 207.488281 386.210938 204.5 385.21875 201.636719 385.4375 C 201.636719 386.550781 201.660156 387.523438 201.636719 388.492188 C 201.585938 391.015625 200.980469 391.890625 198.5 392.59375 C 197.53125 392.886719 196.4375 392.789062 195.488281 393.128906 C 194.589844 393.417969 193.375 393.832031 192.988281 394.535156 C 191.410156 397.570312 188.59375 397.910156 185.773438 397.933594 C 183.855469 397.957031 182.375 398.25 181.109375 399.875 C 179.679688 401.71875 177.664062 401.890625 175.550781 401.039062 C 174.625 400.675781 173.726562 400.261719 172.683594 399.828125 C 171.152344 401.523438 170.546875 404.4375 167.582031 403.78125 C 165.371094 403.296875 163.257812 402.519531 161.171875 401.890625 C 159.421875 402.761719 157.648438 404.023438 155.679688 404.558594 C 153.179688 405.238281 152.449219 402.570312 151.285156 401.5 C 148.808594 401.9375 146.476562 402.957031 144.507812 402.496094 C 142.46875 402.035156 140.71875 400.140625 138.777344 398.832031 C 132.828125 402.179688 131.5625 401.960938 128.601562 397.253906 C 126.414062 396.988281 124.105469 397.277344 122.601562 396.332031 C 121.09375 395.386719 120.367188 393.203125 119.175781 391.40625 C 117.742188 391.140625 115.75 391.1875 114.195312 390.386719 C 111.742188 389.125 113.785156 386.988281 113.808594 384.757812 C 110.871094 383.179688 106.765625 381.988281 107.980469 376.796875 C 103.121094 375.414062 102.125 372.136719 103.679688 368.035156 C 100.449219 364.710938 100.449219 364.710938 101.785156 358.570312 C 101.226562 358.257812 100.621094 357.867188 99.988281 357.503906 C 97.148438 355.902344 96.855469 355.027344 98.265625 351.898438 C 98.824219 350.636719 99.480469 349.398438 100.207031 347.917969 C 99.355469 347.40625 98.605469 346.996094 97.925781 346.511719 C 95.761719 345.03125 95.472656 343.523438 96.976562 341.316406 C 97.828125 340.078125 98.796875 338.9375 99.941406 337.507812 C 95.835938 334.277344 95.882812 330.761719 98.894531 327.339844 C 98.265625 325.664062 97.050781 324.085938 97.414062 322.996094 C 97.996094 321.175781 99.503906 319.621094 100.71875 318.019531 C 101.226562 317.339844 102.003906 316.832031 102.707031 316.175781 C 102.394531 315.109375 101.980469 314.160156 101.835938 313.191406 C 101.398438 310.179688 102.273438 307.34375 104.578125 305.59375 C 106.886719 303.847656 108.34375 301.566406 110.164062 299.480469 C 111.742188 297.707031 114.222656 296.710938 116.773438 295.863281 C 116.941406 295.257812 117.136719 294.675781 117.28125 294.066406 C 118.351562 289.992188 120.972656 287.734375 125.222656 287.734375 C 127.386719 287.734375 128.671875 287.175781 129.886719 285.28125 C 132.292969 281.570312 136.054688 279.824219 140.402344 280.136719 C 142.421875 280.285156 143.730469 279.675781 145.214844 278.558594 C 149.4375 275.40625 152.574219 275.1875 157.480469 277.46875 C 161.65625 274.800781 165.980469 272.25 170.351562 277.492188 C 171.25 277.25 172.125 277.105469 172.925781 276.789062 C 175.402344 275.867188 177.515625 276.402344 179.09375 278.488281 C 180.335938 280.089844 181.476562 280.308594 183.347656 279.359375 C 187.5 277.296875 189.054688 278.050781 190.488281 282.371094 C 190.730469 283.074219 190.949219 283.777344 191.265625 284.820312 Z M 163.378906 375.484375 C 166.222656 377.207031 169.476562 377.886719 172.539062 375.875 C 174.042969 374.878906 175.355469 374.539062 177.078125 374.5625 C 180.238281 374.589844 183.6875 371.96875 184.65625 369.03125 C 184.996094 367.988281 185.554688 366.796875 183.613281 365.753906 C 182.980469 366.675781 182.324219 367.648438 181.644531 368.59375 C 180.019531 370.875 178.292969 372.742188 174.992188 371.773438 C 174.09375 371.507812 172.683594 371.917969 171.929688 372.523438 C 169.769531 374.273438 167.558594 374.613281 165.226562 373.230469 C 163.550781 372.257812 162.09375 372.476562 160.5625 373.375 C 159.6875 373.910156 158.789062 374.394531 157.890625 374.855469 C 154.515625 376.554688 154.273438 376.433594 152.402344 373.109375 C 152.136719 372.621094 151.550781 372.332031 151.117188 371.941406 C 150.726562 372.523438 150.070312 373.082031 150.023438 373.691406 C 149.851562 377.546875 153.253906 380.023438 157.066406 378.6875 C 159.203125 377.984375 161.144531 376.675781 163.378906 375.484375 Z M 146.257812 301.226562 C 145.140625 301.347656 144.097656 301.347656 143.125 301.589844 C 140.574219 302.222656 138.824219 303.871094 138.167969 306.394531 C 137.976562 307.171875 138.605469 308.144531 138.875 309.039062 C 139.53125 308.605469 140.5 308.289062 140.746094 307.707031 C 141.546875 305.644531 143.050781 304.695312 145.117188 304.550781 C 147.179688 304.40625 148.589844 303.53125 149.828125 301.785156 C 151.308594 299.671875 152.765625 299.480469 155.195312 300.449219 C 156.457031 300.960938 157.699219 301.566406 158.28125 301.832031 C 160.902344 300.863281 162.917969 299.453125 164.863281 299.550781 C 166.683594 299.648438 168.433594 301.300781 170.351562 302.34375 C 171.347656 299.941406 170.230469 298.558594 168.628906 297.636719 C 165.152344 295.597656 161.777344 296.25 158.789062 298.582031 C 152.574219 295.085938 149.925781 295.644531 146.257812 301.226562 Z M 202.363281 332.242188 C 204.695312 328.769531 204.257812 325.6875 201.636719 322.726562 C 201.074219 322.097656 200.808594 320.859375 200.953125 319.984375 C 201.464844 316.710938 197.992188 313.359375 194.398438 312.558594 C 193.253906 312.292969 192.382812 312.753906 192.476562 314.332031 C 192.816406 314.597656 193.15625 315.011719 193.621094 315.179688 C 196.800781 316.320312 198.40625 318.382812 197.96875 321.902344 C 197.820312 323.042969 198.28125 323.917969 199.375 324.765625 C 201.464844 326.367188 201.488281 327.75 200.082031 330.058594 C 199.523438 331.003906 198.964844 331.925781 198.453125 332.800781 C 198.9375 333.40625 199.132812 333.746094 199.425781 333.988281 C 203.359375 337.386719 203.480469 338.746094 200.105469 342.847656 C 199.449219 343.648438 198.890625 344.542969 197.96875 345.878906 C 201.828125 346.265625 203.335938 344.109375 204.550781 341.949219 C 206.664062 338.1875 205.15625 335.03125 202.363281 332.242188 Z M 122.308594 334.863281 C 122.066406 332.652344 121.3125 330.734375 121.824219 329.28125 C 122.382812 327.679688 124.105469 326.488281 125.25 325.179688 C 124.542969 323.746094 123.621094 323.769531 122.550781 324.183594 C 119.492188 325.371094 118.011719 328.671875 118.859375 332.070312 C 119.101562 333.089844 119.417969 334.425781 119.007812 335.25 C 117.160156 338.769531 117.332031 341.828125 120.585938 344.230469 C 118.398438 349.277344 118.667969 352.554688 121.214844 354.203125 C 123.109375 355.417969 124.351562 355.246094 126.027344 353.449219 C 124.277344 352.308594 121.703125 351.679688 122.164062 348.863281 C 122.527344 346.777344 123.328125 344.761719 123.914062 342.75 C 120.125 339.640625 120.074219 339.253906 122.308594 334.863281 Z M 122.308594 334.863281 " fill-opacity="1" fill-rule="nonzero"/><path fill="#fcd3c6" d="M 498.605469 397.253906 C 499.285156 396.867188 500.210938 396.671875 500.621094 396.089844 C 501.957031 394.21875 503.195312 392.277344 504.289062 390.265625 C 504.875 389.222656 505.433594 388.542969 506.695312 388.128906 C 522.847656 382.765625 538.949219 377.304688 555.078125 371.871094 C 558.453125 370.730469 561.828125 369.613281 565.328125 368.449219 C 566.492188 370.121094 567.585938 371.675781 568.605469 373.15625 C 566.078125 378.105469 566.226562 378.957031 570.378906 382.5 C 569.210938 387.160156 571.691406 390.167969 575.480469 392.253906 C 574.773438 394.730469 574.167969 396.914062 573.414062 399.511719 C 572.03125 400.09375 570.257812 400.773438 568.507812 401.523438 C 555.003906 407.375 541.402344 412.980469 528.042969 419.167969 C 521.339844 422.273438 515.074219 426.351562 508.660156 430.089844 C 506.792969 431.179688 505.089844 432.589844 503.441406 433.996094 C 499.191406 437.585938 497.027344 442.050781 496.957031 447.730469 C 496.785156 462.074219 496.371094 476.414062 496.082031 490.757812 C 496.054688 492.117188 496.082031 493.476562 496.082031 494.835938 C 496.398438 494.933594 496.710938 495.054688 497.050781 495.148438 C 497.488281 494.59375 498.242188 494.058594 498.339844 493.425781 C 498.558594 491.921875 498.582031 490.34375 498.484375 488.839844 C 498.316406 486.730469 499.433594 485.6875 501.304688 485.46875 C 503.074219 485.25 504.921875 485.078125 506.644531 485.347656 C 516.992188 487.019531 524.472656 492.601562 527.875 502.550781 C 533.144531 517.914062 530.277344 532.085938 520.199219 544.753906 C 515.171875 551.0625 508.589844 555.117188 500.890625 557.371094 C 499.871094 557.664062 498.898438 558.148438 497.585938 558.660156 C 499.066406 560.503906 500.574219 560.503906 502.078125 560.164062 C 503.683594 559.777344 505.382812 559.4375 506.816406 558.636719 C 509.316406 557.226562 511.601562 557.347656 514.054688 558.660156 C 515.609375 559.484375 517.285156 560.089844 518.816406 560.746094 C 518.667969 566.035156 516.921875 568.269531 512.136719 568.4375 C 507.277344 568.609375 502.394531 568.367188 497.539062 568.003906 C 485.902344 567.152344 474.292969 566.277344 462.683594 565.136719 C 455.421875 564.410156 448.207031 563.34375 441.019531 562.105469 C 436.066406 561.253906 435.628906 560.382812 435.820312 555.382812 C 435.871094 554.242188 435.894531 553.078125 435.699219 551.9375 C 435.238281 549.195312 433.878906 547.882812 431.132812 547.570312 C 429.359375 547.375 427.539062 547.398438 425.765625 547.398438 C 411.65625 547.449219 397.566406 547.375 383.457031 547.640625 C 374.617188 547.8125 365.796875 548.515625 356.980469 549.074219 C 355.210938 549.195312 353.4375 549.605469 351.710938 550.09375 C 349.671875 550.675781 347.898438 551.792969 347.121094 553.855469 C 345.640625 557.738281 342.554688 559.921875 339.15625 561.8125 C 332.160156 565.695312 324.65625 568.21875 316.929688 570.113281 C 303.183594 573.460938 289.265625 575.402344 275.105469 575.234375 C 273.578125 575.210938 272.023438 575.183594 270.515625 574.941406 C 266.484375 574.3125 264.636719 571.15625 266.21875 567.394531 C 266.605469 566.496094 267.746094 565.574219 268.695312 565.355469 C 272.3125 564.554688 275.980469 563.875 279.648438 563.511719 C 281.203125 563.367188 282.878906 564.09375 284.457031 564.53125 C 287.421875 565.382812 287.394531 565.40625 290.238281 564.605469 C 289.65625 563.996094 289.265625 563.320312 288.707031 563.050781 C 286.863281 562.179688 284.917969 561.472656 283.050781 560.699219 C 268.863281 554.824219 261.261719 543.90625 258.519531 529.148438 C 255.941406 515.316406 261.019531 504.324219 271.074219 495.199219 C 274.695312 491.921875 278.238281 490.660156 282.394531 490.832031 C 282.394531 492.335938 282.394531 493.839844 282.394531 495.367188 C 282.394531 496.875 282.394531 498.355469 282.394531 499.859375 C 282.683594 499.957031 282.976562 500.078125 283.265625 500.171875 C 283.703125 499.617188 284.457031 499.082031 284.554688 498.476562 C 284.871094 496.195312 285.113281 493.886719 285.089844 491.582031 C 284.96875 476.050781 283.679688 460.640625 279.988281 445.5 C 279.527344 443.628906 278.894531 441.835938 278.238281 440.015625 C 276.371094 434.699219 272.921875 430.769531 267.84375 428.21875 C 262.355469 425.453125 256.84375 422.734375 251.472656 419.75 C 236.003906 411.207031 220.628906 402.542969 205.207031 393.90625 C 204.769531 393.664062 204.378906 393.324219 203.894531 392.957031 C 204.183594 391.550781 204.453125 390.191406 204.769531 388.640625 C 209.769531 387.765625 213.609375 385.460938 213.898438 379.613281 C 218.152344 378.933594 220.359375 376.722656 220.75 372.429688 C 220.871094 371.167969 222.667969 370.050781 223.710938 368.8125 C 224.902344 369.296875 225.703125 369.589844 226.507812 369.929688 C 238.210938 375.097656 249.871094 380.363281 261.625 385.4375 C 264.664062 386.746094 267.917969 387.570312 271.097656 388.542969 C 272.3125 388.90625 273.601562 389.125 274.863281 389.195312 C 279.988281 389.464844 281.6875 387.160156 279.890625 382.355469 C 276.199219 372.476562 276.320312 362.261719 277.339844 352.019531 C 279.792969 327.21875 290.675781 306.25 307.652344 288.414062 C 312.097656 283.753906 314.722656 278.996094 315.402344 272.492188 C 316.761719 259.851562 320.9375 247.8125 325.335938 235.921875 C 325.457031 235.582031 325.699219 235.289062 326.0625 234.660156 C 327.957031 235.777344 329.875 236.796875 331.675781 237.984375 C 339.226562 243.007812 345.421875 249.464844 350.933594 256.597656 C 351.710938 257.617188 352.539062 258.613281 353.21875 259.679688 C 354.335938 261.476562 355.742188 261.839844 357.785156 261.378906 C 378.429688 256.597656 399.339844 255.53125 420.421875 256.960938 C 429.507812 257.59375 438.492188 259.292969 447.042969 262.472656 C 449.980469 263.5625 452.023438 263.148438 454.425781 261.523438 C 465.285156 254.195312 476.894531 248.226562 489.011719 243.273438 C 489.960938 242.886719 490.933594 242.546875 491.902344 242.230469 C 492.121094 242.160156 492.414062 242.230469 492.851562 242.230469 C 494.332031 247.742188 493.628906 253.320312 492.851562 258.832031 C 491.515625 268.34375 490.15625 277.855469 486.511719 286.835938 C 486 288.121094 486.121094 289.261719 487.09375 290.402344 C 495.8125 300.621094 500.113281 312.921875 503.320312 325.640625 C 506.695312 338.988281 508.273438 352.554688 507.179688 366.359375 C 506.425781 375.582031 503.683594 384.148438 499.625 392.375 C 498.972656 393.710938 498.386719 395.09375 497.757812 396.453125 C 498.046875 396.71875 498.339844 396.988281 498.605469 397.253906 Z M 320.527344 432.660156 C 320.914062 438.945312 321.15625 445.351562 321.738281 451.710938 C 322.734375 462.945312 324.265625 474.109375 327.859375 484.835938 C 332.207031 497.820312 340.199219 507.503906 353.65625 511.699219 C 357.90625 513.035156 362.351562 513.738281 366.769531 514.394531 C 376.21875 515.800781 385.714844 515.121094 395.140625 514.226562 C 404.976562 513.300781 414.617188 511.484375 424.019531 508.277344 C 437.449219 503.71875 446.265625 494.882812 449.351562 480.929688 C 451.050781 473.332031 452.410156 465.640625 453.550781 457.921875 C 455.398438 445.351562 456.003906 432.683594 455.300781 420.015625 C 455.105469 416.472656 454.402344 412.90625 453.578125 409.4375 C 452.945312 406.765625 451.902344 406.476562 449.375 407.617188 C 447.625 408.417969 445.902344 409.265625 444.128906 409.945312 C 427.199219 416.328125 409.589844 419.289062 391.570312 419.871094 C 381.320312 420.210938 371.070312 419.75 360.894531 418.414062 C 348.820312 416.839844 336.871094 414.679688 325.601562 409.753906 C 322.855469 408.5625 321.863281 409.144531 321.667969 412.203125 C 321.230469 419 320.890625 425.769531 320.527344 432.660156 Z M 421.347656 360.632812 C 421.855469 362.261719 422.148438 363.304688 422.488281 364.324219 C 423.554688 367.527344 422.707031 369.320312 419.476562 369.90625 C 417.484375 370.269531 415.371094 370.4375 413.378906 370.21875 C 403.835938 369.128906 395.113281 365.414062 386.636719 361.144531 C 382.316406 358.960938 381.902344 357.699219 382.875 352.359375 C 383.578125 352.308594 384.355469 352.359375 385.082031 352.1875 C 390.039062 351.023438 395.042969 349.980469 399.949219 348.574219 C 402.328125 347.894531 404.199219 345.003906 403.785156 343.378906 C 403.152344 340.832031 400.917969 340.734375 398.878906 340.636719 C 389.796875 340.199219 380.710938 339.738281 371.628906 339.425781 C 369.734375 339.351562 367.789062 339.667969 365.921875 340.078125 C 363.78125 340.539062 362.980469 341.753906 362.882812 343.914062 C 362.785156 346.21875 363.855469 348.015625 366.285156 348.9375 C 368.421875 349.738281 370.703125 350.246094 372.914062 350.804688 C 375.101562 351.363281 377.3125 351.847656 379.472656 352.359375 C 379.667969 355.003906 379.835938 357.261719 380.054688 359.882812 C 371.289062 362.015625 362.910156 364.25 354.40625 366.046875 C 351.347656 366.699219 348.070312 366.433594 344.910156 366.214844 C 343.867188 366.144531 342.191406 365.003906 342.09375 364.175781 C 341.949219 363.0625 342.820312 361.628906 343.625 360.609375 C 344.351562 359.6875 345.566406 359.152344 346.976562 358.132812 C 345.882812 357.601562 345.25 357.019531 344.667969 357.042969 C 342.042969 357.140625 339.203125 359.980469 338.691406 362.792969 C 338.207031 365.488281 339.6875 367.9375 342.699219 368.980469 C 344.230469 369.515625 345.929688 369.636719 347.582031 369.878906 C 348.675781 370.027344 349.816406 370.027344 351.128906 370.097656 C 351.347656 371.554688 351.542969 372.792969 351.710938 374.054688 C 352.683594 381.308594 353.996094 388.445312 357.105469 395.167969 C 358.269531 397.691406 359.800781 399.4375 362.59375 399.949219 C 363.589844 400.140625 364.558594 400.480469 365.554688 400.699219 C 373.5 402.421875 381.5625 402.617188 389.648438 402.375 C 392.976562 402.277344 396.28125 401.890625 399.609375 401.648438 C 402.035156 401.453125 403.6875 400.140625 404.613281 398.007812 C 405.730469 395.433594 406.820312 392.835938 407.746094 390.167969 C 409.613281 384.757812 411.386719 379.320312 413.210938 373.835938 C 414.570312 373.761719 415.882812 373.882812 417.09375 373.617188 C 419.328125 373.132812 421.636719 372.695312 423.652344 371.675781 C 426.058594 370.460938 426.8125 368.085938 426.398438 365.4375 C 425.984375 362.769531 424.820312 361.507812 421.347656 360.632812 Z M 460.132812 267.347656 C 460.304688 267.710938 460.5 268.078125 460.667969 268.441406 C 461.421875 268.199219 462.296875 268.101562 462.925781 267.664062 C 470.578125 262.59375 478.230469 257.519531 485.832031 252.375 C 486.679688 251.816406 487.3125 250.945312 488.015625 250.214844 C 487.871094 249.972656 487.726562 249.730469 487.605469 249.464844 C 486.800781 249.511719 485.832031 249.292969 485.199219 249.632812 C 476.261719 254.730469 467.589844 260.214844 460.132812 267.347656 Z M 328.101562 242.984375 C 328.394531 244.148438 328.347656 244.875 328.6875 245.265625 C 333.496094 250.75 338.328125 256.210938 343.234375 261.597656 C 343.671875 262.082031 344.691406 262.082031 345.957031 262.445312 C 345.589844 261.257812 345.589844 260.53125 345.25 260.117188 C 340.492188 254.609375 335.679688 249.097656 330.800781 243.6875 C 330.363281 243.226562 329.316406 243.300781 328.101562 242.984375 Z M 422.535156 313.238281 C 424.429688 312.632812 424.113281 311.515625 423.871094 310.570312 C 422.925781 306.636719 418.527344 303.628906 414.738281 304.914062 C 412.042969 305.8125 409.710938 307.777344 407.308594 309.429688 C 406.894531 309.71875 406.992188 310.738281 406.847656 311.417969 C 407.648438 311.394531 408.546875 311.636719 409.175781 311.320312 C 410.660156 310.570312 411.921875 309.429688 413.402344 308.699219 C 416.316406 307.246094 418.042969 307.683594 420.132812 310.179688 C 420.957031 311.128906 421.6875 312.121094 422.535156 313.238281 Z M 367.839844 310.640625 C 367.816406 310.109375 367.9375 309.476562 367.742188 308.945312 C 366.648438 306.082031 363.417969 303.894531 360.261719 303.824219 C 357.273438 303.773438 352.148438 306.636719 351.296875 308.917969 C 351.152344 309.308594 351.25 309.988281 351.492188 310.277344 C 351.761719 310.59375 352.488281 310.8125 352.828125 310.667969 C 353.75 310.253906 354.578125 309.648438 355.429688 309.089844 C 359.265625 306.46875 360.699219 306.492188 364.339844 309.308594 C 365.265625 310.058594 365.992188 311.371094 367.839844 310.640625 Z M 461.859375 368.933594 C 458.605469 365.828125 454.523438 366.554688 451.027344 365.558594 C 449.8125 365.21875 448.28125 364.710938 447.042969 366.554688 C 449.691406 369.226562 453.332031 368.835938 456.464844 369.636719 C 457.996094 370.027344 459.84375 371.140625 461.859375 368.933594 Z M 462.417969 352.554688 C 460.378906 351.363281 454.863281 350.878906 449.859375 351.535156 C 449.15625 351.628906 448.5 352.1875 447.089844 352.917969 C 451.609375 355.390625 455.691406 354.179688 459.574219 354.347656 C 460.765625 354.398438 462.199219 354.300781 462.417969 352.554688 Z M 460.691406 337.726562 C 455.980469 337.578125 451.753906 338.089844 448.0625 341.050781 C 451.535156 343.089844 454.765625 340.855469 458.09375 340.613281 C 459.308594 340.515625 460.644531 340.175781 460.691406 337.726562 Z M 311.125 332.460938 C 314.746094 334.8125 318.679688 336.171875 323.269531 337.023438 C 321.984375 333.941406 319.917969 332.703125 314.503906 331.246094 C 313.3125 330.929688 312.050781 330.300781 311.125 332.460938 Z M 309.257812 346.171875 C 312.828125 347.917969 316.25 347.699219 319.675781 347.578125 C 320.0625 347.554688 320.746094 346.972656 320.71875 346.730469 C 320.671875 346.195312 320.257812 345.273438 319.941406 345.273438 C 316.6875 345.054688 313.410156 344.980469 310.15625 344.933594 C 309.9375 344.910156 309.742188 345.464844 309.257812 346.171875 Z M 310.664062 362.066406 C 314.257812 362.285156 317.296875 361.554688 320.28125 360.488281 C 320.621094 360.367188 321.035156 359.589844 320.914062 359.273438 C 320.746094 358.765625 320.0625 357.964844 319.773438 358.011719 C 316.832031 358.667969 313.945312 359.46875 311.054688 360.292969 C 310.90625 360.367188 310.90625 360.972656 310.664062 362.066406 Z M 523.476562 482.773438 C 526.003906 479.375 528.652344 476.101562 532.269531 473.746094 C 540.382812 468.503906 549.492188 470.710938 554.128906 479.109375 C 555.683594 481.898438 556.972656 484.835938 558.597656 487.601562 C 565.691406 499.6875 579.292969 504.613281 590.707031 502.164062 C 598.820312 500.417969 604.113281 493.546875 603.363281 485.832031 C 602.972656 482.023438 600.640625 480.296875 597 481.390625 C 595.199219 481.925781 593.574219 483.066406 591.824219 483.890625 C 588.933594 485.25 586.140625 486.898438 583.128906 487.847656 C 576.695312 489.859375 570.257812 487.699219 566.394531 482.386719 C 565.058594 480.542969 564.085938 478.40625 563.117188 476.34375 C 561.976562 473.917969 561.148438 471.34375 559.984375 468.917969 C 556.316406 461.394531 551.796875 458.117188 542.8125 458.601562 C 526.828125 459.476562 517.113281 469.546875 509.585938 482.359375 C 513.300781 483.839844 516.726562 485.226562 520.5625 486.777344 C 521.511719 485.441406 522.480469 484.109375 523.476562 482.773438 Z M 523.476562 482.773438 " fill-opacity="1" fill-rule="nonzero"/><path fill="#fff3e8" d="M 324.289062 412.46875 C 366.699219 426.132812 408.546875 426.328125 450.46875 410.722656 C 451.902344 415.238281 452.117188 419.921875 452.265625 424.578125 C 452.679688 437.539062 451.730469 450.425781 449.738281 463.214844 C 448.816406 469.136719 447.699219 475.058594 446.339844 480.90625 C 443.472656 493.28125 435.675781 501.21875 423.75 505.367188 C 414.617188 508.546875 405.21875 510.34375 395.648438 511.265625 C 385.957031 512.1875 376.21875 512.914062 366.527344 511.386719 C 361.742188 510.632812 356.910156 509.734375 352.390625 508.085938 C 340.929688 503.886719 334.46875 494.933594 330.773438 483.71875 C 327.253906 473.089844 325.867188 462.050781 324.777344 450.957031 C 323.5625 438.824219 323.660156 426.667969 324.144531 414.507812 C 324.144531 413.878906 324.21875 413.246094 324.289062 412.46875 Z M 324.289062 412.46875 " fill-opacity="1" fill-rule="nonzero"/><path fill="#f6917c" d="M 381.976562 382.695312 C 373.207031 376.625 365.265625 380.167969 356.957031 385.167969 C 355.960938 379.855469 355.015625 374.832031 354.117188 369.953125 C 363.492188 367.332031 372.429688 364.808594 381.949219 362.140625 C 389.894531 367.136719 399.390625 370.414062 409.613281 373.253906 C 408.570312 376.746094 407.597656 380.046875 406.53125 383.589844 C 398.246094 377.9375 390.136719 378.882812 381.976562 382.695312 Z M 374.398438 382.742188 C 368.90625 382.257812 364.050781 384.003906 359.703125 387.28125 C 359.144531 387.691406 358.414062 388.566406 358.535156 389.074219 C 359.023438 391.308594 359.433594 393.6875 360.550781 395.605469 C 361.160156 396.671875 363.078125 397.230469 364.488281 397.519531 C 376.632812 400.019531 388.847656 399.898438 401.429688 398.371094 C 402.789062 394.511719 404.125 390.726562 405.460938 386.988281 C 396.789062 380.460938 388.558594 382.695312 380.152344 387.378906 C 379.714844 383.542969 377.140625 382.984375 374.398438 382.742188 Z M 374.398438 382.742188 " fill-opacity="1" fill-rule="nonzero"/></svg>