<svg xmlns="http://www.w3.org/2000/svg" xmlns:xlink="http://www.w3.org/1999/xlink" width="1587" zoomAndPan="magnify" viewBox="0 0 1190.25 1683.749945" height="2245" preserveAspectRatio="xMidYMid meet" version="1.0"><defs><clipPath id="729e3931e5"><path d="M 350.03125 767.144531 L 499.542969 767.144531 L 499.542969 955 L 350.03125 955 Z M 350.03125 767.144531 " clip-rule="nonzero"/></clipPath><clipPath id="3063f3c038"><path d="M 146.019531 1067.195312 L 195.675781 1067.195312 L 195.675781 1117.726562 L 146.019531 1117.726562 Z M 146.019531 1067.195312 " clip-rule="nonzero"/></clipPath><clipPath id="6a70ddd862"><path d="M 357 1117.375 L 832.890625 1117.375 L 832.890625 1564 L 357 1564 Z M 357 1117.375 " clip-rule="nonzero"/></clipPath></defs><path fill="#ff6161" d="M 357.976562 1037.230469 C 378.082031 1043.199219 399.207031 1031.722656 405.171875 1011.597656 L 406.074219 1008.546875 C 412.035156 988.421875 400.570312 967.273438 380.46875 961.304688 C 360.363281 955.339844 339.234375 966.8125 333.277344 986.9375 L 332.371094 989.992188 C 326.410156 1010.113281 337.875 1031.265625 357.976562 1037.230469 " fill-opacity="1" fill-rule="nonzero"/><g clip-path="url(#729e3931e5)"><path fill="#ff6161" d="M 438.066406 773.152344 C 403.117188 762.777344 379.398438 767.25 363.039062 779.925781 C 342.664062 795.714844 348.882812 828.039062 373.585938 835.371094 L 375.417969 835.910156 C 388.488281 839.789062 402.222656 834.335938 409.894531 823.054688 C 412.273438 819.5625 414.902344 818.164062 418.222656 819.148438 C 423.9375 820.847656 425.210938 824.957031 422.046875 835.640625 C 418.203125 848.613281 412.78125 855.71875 399.140625 865.367188 C 374.179688 882.449219 360.285156 895.757812 352.597656 921.703125 L 350.675781 928.191406 C 349.617188 931.769531 351.660156 935.535156 355.238281 936.597656 L 415.078125 954.359375 C 418.65625 955.421875 422.414062 953.382812 423.476562 949.796875 C 426.980469 937.972656 432.515625 930.480469 452.496094 914.828125 C 474.832031 898.214844 487.523438 890.359375 495.777344 862.507812 C 506.402344 826.644531 496.765625 790.574219 438.066406 773.152344 " fill-opacity="1" fill-rule="nonzero"/></g><path fill="#ff6161" d="M 247.183594 965.050781 C 263.585938 965.136719 276.949219 951.894531 277.039062 935.476562 L 277.050781 932.988281 C 277.136719 916.566406 263.910156 903.1875 247.507812 903.101562 C 231.105469 903.015625 217.742188 916.257812 217.652344 932.675781 L 217.640625 935.164062 C 217.554688 951.585938 230.78125 964.964844 247.183594 965.050781 " fill-opacity="1" fill-rule="nonzero"/><path fill="#ff6161" d="M 249.714844 749.175781 C 221.199219 749.027344 204.359375 757.574219 194.835938 770.671875 C 182.976562 786.988281 194.703125 809.90625 214.859375 810.011719 L 216.351562 810.019531 C 227.015625 810.074219 236.140625 802.972656 239.441406 792.820312 C 240.464844 789.675781 242.136719 788.050781 244.84375 788.066406 C 249.507812 788.089844 251.363281 790.902344 251.316406 799.617188 C 251.261719 810.203125 248.738281 816.726562 240.597656 826.957031 C 225.574219 845.242188 218.042969 858.28125 217.933594 879.449219 L 217.90625 884.742188 C 217.890625 887.664062 220.246094 890.042969 223.164062 890.0625 L 271.988281 890.316406 C 274.90625 890.332031 277.289062 887.976562 277.300781 885.050781 C 277.351562 875.402344 279.878906 868.566406 291.46875 852.441406 C 304.621094 835.078125 312.441406 826.398438 312.558594 803.675781 C 312.710938 774.414062 297.601562 749.429688 249.714844 749.175781 " fill-opacity="1" fill-rule="nonzero"/><g clip-path="url(#3063f3c038)"><path fill="#ff6161" d="M 178.339844 1116.628906 C 191.019531 1112.660156 198.089844 1099.152344 194.125 1086.457031 L 193.527344 1084.535156 C 189.566406 1071.839844 176.070312 1064.761719 163.386719 1068.726562 C 150.707031 1072.695312 143.636719 1086.203125 147.601562 1098.898438 L 148.199219 1100.824219 C 152.164062 1113.519531 165.65625 1120.59375 178.339844 1116.628906 " fill-opacity="1" fill-rule="nonzero"/></g><path fill="#ff6161" d="M 127.320312 949.367188 C 105.269531 956.261719 94.367188 967 90.230469 979.453125 C 85.082031 994.960938 99.757812 1009.769531 115.339844 1004.898438 L 116.496094 1004.539062 C 124.742188 1001.957031 130.042969 994.234375 130.101562 985.582031 C 130.121094 982.90625 131.011719 981.238281 133.105469 980.585938 C 136.710938 979.453125 138.832031 981.167969 140.9375 987.910156 C 143.488281 996.09375 143.144531 1001.75 139.371094 1011.648438 C 132.261719 1029.460938 129.644531 1041.375 134.753906 1057.742188 L 136.03125 1061.832031 C 136.734375 1064.09375 139.136719 1065.355469 141.394531 1064.648438 L 179.144531 1052.839844 C 181.402344 1052.132812 182.664062 1049.730469 181.957031 1047.46875 C 179.628906 1040.007812 179.898438 1034.109375 184.890625 1018.8125 C 190.78125 1002.175781 194.691406 993.554688 189.203125 975.984375 C 182.144531 953.355469 164.351562 937.785156 127.320312 949.367188 " fill-opacity="1" fill-rule="nonzero"/><g clip-path="url(#6a70ddd862)"><path fill="#000000" d="M 832.460938 1501.929688 C 832.242188 1510.757812 828.714844 1517.792969 821.425781 1522.785156 C 813.140625 1528.445312 804.023438 1532.332031 794.21875 1534.433594 C 781.773438 1537.089844 769.257812 1539.566406 756.449219 1539.132812 C 750.191406 1538.917969 743.949219 1538.085938 737.710938 1537.5625 C 736.695312 1537.46875 735.683594 1537.542969 734.363281 1537.542969 C 734.074219 1540.109375 733.785156 1542.496094 733.550781 1544.867188 C 733.207031 1548.195312 731.597656 1550.257812 728.121094 1550.890625 C 721.105469 1552.15625 714.15625 1553.984375 707.085938 1554.886719 C 659.980469 1560.945312 612.679688 1564.074219 565.160156 1563.277344 C 542.132812 1562.898438 519.121094 1561.921875 496.222656 1559.425781 C 478.207031 1557.453125 460.242188 1555.195312 442.261719 1552.953125 C 439.695312 1552.625 437.125 1551.957031 434.648438 1551.160156 C 427.972656 1549.007812 425.746094 1545.917969 425.53125 1538.882812 C 425.492188 1537.667969 425.53125 1536.457031 425.53125 1534.902344 C 423.234375 1532.53125 420.375 1532.695312 417.605469 1532.425781 C 409.285156 1531.648438 400.894531 1531.25 392.679688 1529.839844 C 384.484375 1528.425781 377.195312 1524.738281 371.316406 1518.535156 C 364.28125 1511.121094 362.777344 1502.292969 364.949219 1492.796875 C 366.179688 1487.410156 367.953125 1482 370.359375 1477.027344 C 375.117188 1467.152344 380.417969 1457.53125 385.699219 1447.925781 C 386.746094 1446.011719 386.058594 1444.636719 385.609375 1443.007812 C 381.175781 1427.238281 376.472656 1411.558594 372.382812 1395.695312 C 365.890625 1370.539062 360.898438 1345.054688 358.457031 1319.140625 C 358.148438 1315.847656 358.238281 1312.519531 357.96875 1309.210938 C 357.152344 1299.734375 363.628906 1294.414062 371.988281 1292.515625 C 377.902344 1291.179688 384.070312 1290.996094 390.128906 1290.308594 C 392.535156 1290.039062 394.941406 1289.75 396.878906 1289.53125 C 398.324219 1280.34375 399.230469 1271.5 401.164062 1262.890625 C 406.390625 1239.453125 416.414062 1218.09375 430.8125 1198.867188 C 433 1195.957031 435.550781 1193.28125 438.101562 1190.65625 C 439.585938 1189.121094 440.183594 1187.726562 439.496094 1185.558594 C 435.136719 1171.867188 434.9375 1157.722656 435.695312 1143.597656 C 435.984375 1138.082031 437.414062 1132.601562 438.699219 1127.195312 C 439.296875 1124.714844 440.742188 1122.417969 441.902344 1120.085938 C 442.984375 1117.917969 444.722656 1117.355469 447.144531 1117.933594 C 466.339844 1122.527344 481.191406 1133.308594 492.820312 1149.53125 C 494.179688 1148.714844 495.84375 1147.867188 497.34375 1146.816406 C 513.585938 1135.316406 531.894531 1128.949219 551.25 1125.203125 C 576.84375 1120.269531 602.621094 1117.410156 628.722656 1118.75 C 657.359375 1120.214844 684.945312 1126.289062 710.957031 1138.714844 C 713.777344 1140.070312 716.5625 1141.535156 719.242188 1143.164062 C 721.898438 1144.792969 724.398438 1146.671875 727.019531 1148.480469 C 742.757812 1138.5 759.398438 1131.15625 777.34375 1126.816406 C 778.355469 1126.5625 779.351562 1126.183594 780.363281 1126.019531 C 785.628906 1125.1875 786.714844 1125.855469 788.25 1131.046875 C 791.632812 1142.367188 791.273438 1153.835938 789.082031 1165.230469 C 786.820312 1176.929688 783.09375 1188.144531 775.988281 1198.21875 C 797.601562 1229.488281 807.371094 1263.179688 796.769531 1300.710938 C 799.503906 1302.335938 802.449219 1303.730469 804.945312 1305.683594 C 810.191406 1309.753906 811.476562 1315.285156 810.066406 1321.617188 C 808.273438 1329.609375 806.773438 1337.675781 804.746094 1345.597656 C 800.914062 1360.609375 796.769531 1375.566406 792.773438 1390.542969 C 792.375 1392.042969 792.011719 1393.5625 791.523438 1395.496094 C 801.058594 1402.53125 804.890625 1413.3125 809.46875 1423.675781 C 817.574219 1442.03125 825.078125 1460.585938 829.65625 1480.191406 C 831.265625 1487.355469 832.640625 1494.535156 832.460938 1501.929688 Z M 832.460938 1501.929688 " fill-opacity="1" fill-rule="nonzero"/></g><path fill="#4d4d4f" d="M 576.464844 1543.582031 C 560.5625 1542.933594 529.523438 1542.027344 498.539062 1540.238281 C 476.8125 1538.972656 455.125 1536.765625 433.722656 1532.371094 C 425.367188 1530.652344 420.195312 1526.039062 416.902344 1518.460938 C 406.210938 1493.8125 397.761719 1468.347656 389.824219 1442.71875 C 380.398438 1412.246094 372.113281 1381.445312 367.101562 1349.902344 C 364.769531 1335.308594 363.847656 1320.476562 362.144531 1305.773438 C 361.765625 1302.5 362.886719 1300.222656 365.65625 1298.9375 C 368.585938 1297.5625 371.660156 1295.878906 374.789062 1295.574219 C 442.0625 1288.882812 509.535156 1287.886719 577.042969 1289.515625 C 608.410156 1290.273438 639.777344 1291.9375 671.125 1293.675781 C 694.441406 1294.976562 717.757812 1296.785156 741.019531 1298.847656 C 759.597656 1300.492188 778.101562 1302.863281 796.625 1304.960938 C 802.558594 1305.628906 807.96875 1313.042969 806.539062 1319.011719 C 802.289062 1336.972656 798.234375 1355.003906 793.351562 1372.800781 C 778.699219 1426.316406 760.519531 1478.582031 737.746094 1529.242188 C 736.046875 1533.019531 733.386719 1534.503906 729.804688 1535.011719 C 721.359375 1536.222656 712.890625 1537.414062 704.40625 1538.320312 C 666.910156 1542.300781 629.285156 1543.601562 576.464844 1543.582031 Z M 375.042969 1302.933594 C 375.152344 1303.441406 375.261719 1303.929688 375.371094 1304.433594 C 380.6875 1304.128906 386.042969 1304.074219 391.34375 1303.457031 C 417.15625 1300.421875 443.058594 1298.648438 469.050781 1298.558594 C 519.972656 1298.394531 570.894531 1298.449219 621.757812 1300.78125 C 635.6875 1301.414062 649.617188 1302.265625 663.527344 1303.207031 C 680.386719 1304.34375 697.246094 1305.648438 714.105469 1306.984375 C 729.046875 1308.160156 743.96875 1309.515625 758.910156 1310.765625 C 771.246094 1311.796875 783.566406 1312.789062 795.921875 1313.730469 C 796.859375 1313.804688 797.855469 1313.207031 798.832031 1312.933594 C 798.832031 1312.539062 798.832031 1312.121094 798.816406 1311.722656 C 796.679688 1311.289062 794.5625 1310.675781 792.410156 1310.457031 C 770.558594 1308.289062 748.726562 1306.027344 726.875 1304.089844 C 710.558594 1302.664062 694.207031 1301.613281 677.855469 1300.527344 C 656.980469 1299.171875 636.121094 1297.617188 615.230469 1296.785156 C 592.582031 1295.863281 569.917969 1295.589844 547.25 1295.175781 C 509.246094 1294.488281 471.222656 1293.945312 433.273438 1296.621094 C 414.859375 1297.925781 396.496094 1300.058594 378.117188 1301.867188 C 377.050781 1301.976562 376.058594 1302.570312 375.042969 1302.933594 Z M 543.957031 1416.945312 C 543.796875 1422.625 545.242188 1427.980469 548.210938 1432.878906 C 550.886719 1437.3125 554.632812 1440.640625 558.992188 1443.316406 C 566.878906 1448.179688 575.46875 1450.261719 584.695312 1451.074219 C 592.761719 1451.78125 599.925781 1450.351562 606.511719 1445.867188 C 614.035156 1440.730469 619.605469 1433.910156 623.171875 1425.519531 C 628.433594 1413.167969 625.9375 1399.222656 616.386719 1389.800781 C 605.679688 1379.238281 592.707031 1375.675781 577.984375 1378.332031 C 559.460938 1381.699219 544.484375 1398.734375 543.957031 1416.945312 Z M 436.5625 1547.597656 C 438.570312 1548.160156 440.617188 1548.628906 442.695312 1548.882812 C 460.675781 1551.089844 478.601562 1553.746094 496.636719 1555.25 C 518.6875 1557.09375 540.8125 1558.539062 562.917969 1559.101562 C 611.972656 1560.347656 660.832031 1557.257812 709.472656 1550.835938 C 716.167969 1549.949219 722.785156 1548.484375 729.695312 1547.238281 C 729.695312 1544.179688 729.695312 1541.539062 729.695312 1538.71875 C 679.609375 1546.496094 629.644531 1548.265625 579.558594 1547.527344 C 529.542969 1546.800781 479.542969 1545.355469 429.835938 1536.113281 C 428.804688 1544.160156 429.707031 1545.664062 436.5625 1547.597656 Z M 436.5625 1547.597656 " fill-opacity="1" fill-rule="nonzero"/><path fill="#faad60" d="M 401.273438 1289.242188 C 401.851562 1283.816406 402.375 1279.042969 402.847656 1274.59375 C 409.050781 1274.59375 414.75 1274.882812 420.394531 1274.484375 C 424.171875 1274.230469 427.9375 1273.199219 431.589844 1272.132812 C 434.160156 1271.375 436.472656 1269.710938 436.382812 1266.636719 C 436.292969 1263.597656 433.976562 1261.789062 431.390625 1261.28125 C 426.8125 1260.378906 422.128906 1259.925781 417.460938 1259.671875 C 414.007812 1259.492188 410.535156 1259.925781 406.265625 1260.144531 C 406.824219 1257.917969 407.1875 1256.164062 407.710938 1254.445312 C 413.863281 1234.40625 423.648438 1216.230469 435.824219 1199.265625 C 437.648438 1196.714844 439.386719 1194.09375 441.359375 1191.652344 C 443.292969 1189.28125 443.726562 1186.878906 442.914062 1183.894531 C 439.800781 1172.515625 439.421875 1160.851562 439.476562 1149.132812 C 439.511719 1140.667969 441.25 1132.53125 443.671875 1124.480469 C 443.960938 1123.523438 444.503906 1122.65625 445.046875 1121.480469 C 451.378906 1122.835938 457.3125 1124.714844 462.757812 1127.84375 C 472.996094 1133.707031 482.167969 1140.8125 488.679688 1150.90625 C 490.796875 1154.195312 491.609375 1154.414062 495.101562 1152.550781 C 498.789062 1150.597656 502.410156 1148.464844 505.917969 1146.183594 C 517.351562 1138.804688 530.046875 1134.628906 543.109375 1131.300781 C 543.597656 1131.171875 544.140625 1131.28125 545.027344 1131.28125 C 545.132812 1132.636719 545.242188 1133.957031 545.332031 1135.261719 C 545.75 1141.519531 546.074219 1147.777344 546.617188 1154.015625 C 546.78125 1155.898438 547.339844 1157.796875 548.046875 1159.550781 C 548.933594 1161.738281 550.488281 1163.347656 553.074219 1163.566406 C 555.699219 1163.800781 557.398438 1162.335938 558.628906 1160.328125 C 561.144531 1156.203125 562.011719 1151.554688 562.15625 1146.816406 C 562.320312 1141.773438 562.136719 1136.707031 562.101562 1131.644531 C 562.101562 1130.449219 562.101562 1129.257812 562.101562 1127.699219 C 578.109375 1124.808594 593.9375 1123.179688 610.039062 1122.800781 C 609.585938 1128.261719 608.96875 1133.109375 608.84375 1137.972656 C 608.71875 1142.839844 608.988281 1147.703125 609.296875 1152.570312 C 609.386719 1154.089844 609.929688 1155.679688 610.652344 1157.019531 C 612.878906 1161.214844 617.273438 1161.628906 619.789062 1157.667969 C 621.324219 1155.246094 622.5 1152.296875 622.898438 1149.457031 C 623.894531 1142.386719 624.363281 1135.261719 624.980469 1128.136719 C 625.105469 1126.597656 624.996094 1125.058594 624.996094 1122.945312 C 641.566406 1123.433594 657.429688 1125.710938 673.53125 1129.945312 C 672.914062 1133.144531 672.390625 1136.003906 671.828125 1138.859375 C 671.050781 1142.785156 670.128906 1146.691406 669.515625 1150.652344 C 668.917969 1154.523438 669.460938 1158.375 671.433594 1161.792969 C 674.035156 1166.277344 677.871094 1166.710938 681.128906 1162.769531 C 682.738281 1160.816406 683.984375 1158.339844 684.691406 1155.914062 C 686.644531 1149.242188 688.21875 1142.476562 690.082031 1135.242188 C 691.078125 1135.496094 692.378906 1135.695312 693.609375 1136.128906 C 704.011719 1139.800781 713.832031 1144.648438 723.113281 1150.578125 C 726.167969 1152.53125 728.359375 1152.425781 731.558594 1150.472656 C 747.695312 1140.597656 765.207031 1133.886719 784.019531 1128.96875 C 784.8125 1133.089844 785.882812 1136.960938 786.242188 1140.886719 C 787.871094 1158.753906 783.980469 1175.519531 775.644531 1191.308594 C 775.152344 1192.230469 774.613281 1193.136719 774.015625 1193.984375 C 771.011719 1198.324219 771.03125 1198.308594 774.125 1202.867188 C 786.53125 1221.242188 794.707031 1241.1875 796.464844 1263.488281 C 796.589844 1265.207031 796.480469 1266.941406 796.480469 1269.4375 C 794.617188 1269.4375 792.773438 1269.367188 790.945312 1269.457031 C 784.867188 1269.746094 778.773438 1269.910156 772.730469 1270.523438 C 770.578125 1270.742188 768.335938 1271.789062 766.527344 1273.019531 C 763.703125 1274.9375 763.648438 1277.886719 766.289062 1280.019531 C 767.738281 1281.195312 769.546875 1282.191406 771.335938 1282.605469 C 777.089844 1283.90625 782.914062 1284.9375 788.738281 1285.96875 C 790.765625 1286.332031 792.84375 1286.332031 795.433594 1286.53125 C 794.601562 1291.359375 793.820312 1295.753906 793.0625 1300.167969 C 727.996094 1291.902344 662.964844 1288.25 597.847656 1285.84375 C 532.542969 1283.457031 467.371094 1284.449219 401.273438 1289.242188 Z M 743.261719 1161.085938 C 744.890625 1160.726562 746.101562 1160.816406 746.789062 1160.253906 C 755.4375 1153.308594 765.3125 1148.609375 775.496094 1144.449219 C 776.292969 1144.121094 776.855469 1143.21875 777.777344 1142.351562 C 769.148438 1141.191406 748.761719 1152.171875 743.261719 1161.085938 Z M 658.679688 1279.550781 C 661.972656 1279.550781 664.882812 1276.960938 664.957031 1273.941406 C 665.046875 1270.757812 662.332031 1268.191406 658.949219 1268.226562 C 655.40625 1268.261719 652.546875 1271.046875 652.636719 1274.359375 C 652.726562 1277.234375 655.421875 1279.550781 658.679688 1279.550781 Z M 557.433594 1274.9375 C 560.925781 1275.0625 563.621094 1272.621094 563.601562 1269.386719 C 563.585938 1266.238281 560.726562 1263.199219 557.777344 1263.234375 C 554.757812 1263.273438 551.898438 1266.21875 551.882812 1269.332031 C 551.863281 1272.496094 554.160156 1274.828125 557.433594 1274.9375 Z M 479.289062 1157.578125 C 478.765625 1153.292969 476.199219 1150.144531 469.160156 1144.503906 C 461.90625 1138.679688 459.644531 1137.46875 456.605469 1137.757812 C 456.589844 1138.101562 456.40625 1138.605469 456.570312 1138.734375 C 463.316406 1144.703125 470.101562 1150.667969 476.902344 1156.582031 C 477.375 1156.980469 478.097656 1157.109375 479.289062 1157.578125 Z M 755.273438 1535.117188 C 766.527344 1535.769531 777.488281 1533.601562 788.503906 1531.792969 C 798.054688 1530.21875 806.972656 1526.78125 815.476562 1522.242188 C 825.53125 1516.871094 829.980469 1508.441406 828.625 1497.175781 C 827.902344 1491.132812 826.871094 1485.09375 825.476562 1479.179688 C 820.59375 1458.363281 812.074219 1438.867188 803.5 1419.40625 C 801.960938 1415.898438 800.386719 1412.390625 798.597656 1409.007812 C 796.660156 1405.390625 794.113281 1402.242188 790.636719 1399.421875 C 783.332031 1421.613281 776.257812 1443.152344 768.949219 1465.363281 C 772.1875 1464.890625 774.71875 1464.3125 777.269531 1464.242188 C 779.53125 1464.167969 782.371094 1462.8125 784.453125 1466.808594 C 778.355469 1467.730469 772.929688 1468.546875 767.121094 1469.429688 C 759 1490.972656 750.789062 1512.585938 740.027344 1533.960938 C 745.542969 1534.394531 750.390625 1534.847656 755.273438 1535.117188 Z M 384.777344 1456.15625 C 380.90625 1463.953125 376.890625 1471.710938 373.34375 1479.648438 C 371.445312 1483.917969 370.050781 1488.476562 368.964844 1493.035156 C 366.125 1504.769531 370.304688 1514.445312 380.667969 1520.703125 C 382.75 1521.953125 384.992188 1522.984375 387.253906 1523.851562 C 395.503906 1527.035156 404.222656 1527.503906 412.921875 1527.976562 C 414.386719 1528.046875 415.871094 1527.992188 417.644531 1527.992188 C 404.871094 1503.304688 397.09375 1477.445312 387.941406 1450.929688 C 386.53125 1453.246094 385.535156 1454.636719 384.777344 1456.15625 Z M 384.777344 1456.15625 " fill-opacity="1" fill-rule="nonzero"/><path fill="#c7743e" d="M 676.96875 1162.117188 C 673.386719 1158.699219 672.824219 1155.246094 673.242188 1151.792969 C 674.054688 1144.917969 675.265625 1138.101562 676.40625 1130.722656 C 679.753906 1131.679688 682.539062 1132.476562 685.8125 1133.398438 C 684.148438 1143.253906 683.152344 1153.003906 676.96875 1162.117188 Z M 550.796875 1155.679688 C 551.105469 1157.308594 551.429688 1159.1875 553.636719 1159.515625 C 558.429688 1154.972656 560.09375 1141.574219 557.363281 1128.695312 C 554.683594 1129.128906 551.992188 1129.5625 548.789062 1130.089844 C 548.570312 1139.148438 549.222656 1147.449219 550.796875 1155.679688 Z M 621.488281 1123.105469 C 618.539062 1123.105469 616.207031 1123.105469 613.582031 1123.105469 C 613.402344 1134.375 610.527344 1145.371094 615.320312 1156.148438 C 621.667969 1145.785156 619.96875 1134.265625 621.488281 1123.105469 Z M 432.585938 1266.128906 C 423.703125 1260.847656 414.441406 1263.742188 405.234375 1263.90625 C 404.765625 1266.109375 404.382812 1267.902344 404.003906 1269.65625 C 414.894531 1272.839844 428.136719 1271.265625 432.585938 1266.128906 Z M 796.660156 1273.5625 C 786.964844 1273.816406 777.667969 1271.664062 768.914062 1276.582031 C 777.125 1281.195312 786.171875 1281.753906 796.15625 1282.386719 C 796.335938 1279.367188 796.480469 1276.726562 796.660156 1273.5625 Z M 796.660156 1273.5625 " fill-opacity="1" fill-rule="nonzero"/><path fill="#00b6b9" d="M 585.164062 1447.675781 C 574.347656 1448.21875 565.574219 1444.128906 557.796875 1437.945312 C 548.859375 1430.835938 546.203125 1421.234375 548.953125 1410.308594 C 555.859375 1382.691406 591.386719 1371.914062 612.550781 1390.921875 C 622.285156 1399.65625 625.125 1412.785156 619.769531 1424.6875 C 616.640625 1431.648438 611.957031 1437.367188 605.839844 1441.976562 C 599.511719 1446.734375 592.382812 1448.21875 585.164062 1447.675781 Z M 585.164062 1447.675781 " fill-opacity="1" fill-rule="nonzero"/></svg>