<svg xmlns="http://www.w3.org/2000/svg" xmlns:xlink="http://www.w3.org/1999/xlink" width="1080" zoomAndPan="magnify" viewBox="0 0 810 809.999993" height="1080" preserveAspectRatio="xMidYMid meet" version="1.0"><path fill="#000000" d="M 693.738281 535.144531 C 668.707031 574.824219 633.550781 602.640625 591.496094 622.265625 C 561.886719 636.101562 530.667969 644.859375 498.445312 650.113281 C 460.144531 656.371094 421.558594 658.871094 382.792969 658.371094 C 343.277344 657.871094 304.152344 653.6875 266.03125 642.714844 C 225.296875 630.953125 188.105469 612.21875 155.992188 584.300781 C 121.695312 554.484375 98.09375 518.054688 88.6875 473.011719 C 81.144531 436.796875 85.003906 401.726562 98.238281 367.445312 C 99.558594 363.976562 100.992188 360.546875 102.421875 357.148438 C 103.78125 353.894531 105.246094 350.679688 106.675781 347.496094 C 103.78125 340.023438 106.964844 332.089844 114.367188 329.371094 C 116.832031 328.476562 118.011719 326.90625 119.230469 324.9375 C 127.992188 310.351562 138.253906 296.875 149.269531 283.933594 C 158.03125 273.640625 168.582031 265.34375 179.058594 256.945312 C 179.09375 256.371094 179.308594 255.765625 179.164062 255.335938 C 174.875 243.429688 176.125 231.277344 177.699219 219.15625 C 180.058594 201.03125 186.890625 184.410156 195.1875 168.355469 C 196.796875 165.246094 199.050781 162.457031 200.835938 159.421875 C 202.125 157.273438 203.914062 156.988281 206.238281 157.097656 C 231.128906 158.3125 252.226562 168.644531 270.894531 184.445312 C 280.621094 192.667969 289.777344 201.53125 295.75 213.222656 C 296.605469 213.117188 297.320312 213.1875 297.929688 212.9375 C 309.980469 208.039062 322.640625 205.609375 335.371094 203.785156 C 374.386719 198.171875 413.582031 197.921875 452.8125 200.386719 C 473.769531 201.710938 494.726562 203.785156 515.609375 206.035156 C 526.089844 207.179688 536.421875 209.46875 547.1875 211.292969 C 550.011719 207.394531 553.089844 202.890625 556.484375 198.601562 C 571.71875 179.367188 591.28125 166.210938 614.277344 158.0625 C 621.070312 155.667969 628.117188 153.984375 635.089844 152.054688 C 638.703125 151.054688 641.207031 151.984375 643.492188 155.417969 C 649.574219 164.53125 653.257812 174.578125 655.867188 185.089844 C 660.050781 201.820312 662.375 218.765625 659.835938 235.996094 C 658.941406 242.035156 656.832031 247.898438 655.082031 253.796875 C 654.402344 256.121094 653.183594 258.300781 652.21875 260.589844 C 652.933594 261.234375 653.398438 261.769531 653.972656 262.128906 C 669.386719 271.171875 680.222656 284.722656 689.089844 299.664062 C 695.8125 311.03125 701.175781 323.1875 707.042969 335.054688 C 707.902344 336.808594 708.507812 338.378906 710.441406 339.453125 C 715.554688 342.3125 717.914062 348.105469 715.839844 353.429688 C 714.910156 355.828125 715.089844 357.722656 715.734375 359.9375 C 719.378906 372.878906 722.597656 385.855469 724.027344 399.261719 C 729.144531 447.953125 720.058594 493.425781 693.738281 535.144531 Z M 693.738281 535.144531 " fill-opacity="1" fill-rule="nonzero"/><path fill="#faad60" d="M 611.164062 350.429688 C 627.113281 347.675781 643.027344 348.746094 659.015625 350.679688 C 675.679688 352.714844 692.34375 354.394531 709.4375 356.253906 C 715.160156 373.523438 719.058594 390.894531 720.34375 409.34375 C 713.15625 410.84375 706.253906 412.058594 699.425781 413.738281 C 690.339844 415.957031 681.328125 418.351562 672.390625 421.03125 C 669.421875 421.925781 666.523438 423.605469 664.019531 425.464844 C 657.15625 430.648438 657.476562 437.65625 664.664062 442.339844 C 671.066406 446.488281 678.324219 447.953125 685.800781 448.488281 C 696.242188 449.238281 706.648438 448.273438 716.984375 446.84375 C 717.628906 446.738281 718.308594 446.738281 719.703125 446.664062 C 719.203125 451.097656 718.738281 455.246094 718.199219 460 C 713.085938 460.859375 708.113281 461.859375 703.109375 462.464844 C 692.738281 463.644531 682.367188 464.539062 671.996094 465.648438 C 668.097656 466.078125 664.378906 467.183594 661.230469 469.722656 C 655.976562 473.976562 655.582031 479.554688 660.375 484.34375 C 665.023438 488.957031 670.957031 490.53125 677.253906 491.03125 C 686.621094 491.78125 695.957031 491.171875 705.21875 489.386719 C 706.933594 489.0625 708.652344 488.847656 711.011719 488.457031 C 710.476562 490.492188 710.1875 491.996094 709.652344 493.355469 C 707.507812 498.789062 705.183594 504.113281 703.144531 509.582031 C 701.964844 512.730469 699.855469 514.300781 696.671875 515.125 C 686.015625 517.84375 675.144531 519.058594 664.234375 519.84375 C 660.730469 520.09375 657.117188 520.238281 653.757812 521.09375 C 650.933594 521.808594 648.035156 523.0625 645.710938 524.8125 C 638.488281 530.210938 639.308594 537.609375 647.570312 541.292969 C 651.039062 542.832031 655.046875 543.832031 658.800781 543.902344 C 666.882812 544.011719 674.964844 543.332031 683.476562 542.972656 C 682.652344 544.226562 681.757812 545.726562 680.6875 547.191406 C 665.09375 568.640625 645.605469 585.871094 623.574219 600.386719 C 594.035156 619.871094 561.457031 632.203125 527.304688 640.640625 C 504.988281 646.144531 482.246094 649.292969 459.394531 651.507812 C 430.855469 654.296875 402.246094 655.226562 373.601562 654.402344 C 331.1875 653.1875 289.453125 647.613281 249.292969 633.3125 C 214.140625 620.800781 181.992188 602.925781 154.488281 577.472656 C 145.585938 569.214844 137.859375 559.703125 129.601562 550.730469 C 128.8125 549.875 128.277344 548.765625 127.167969 547.050781 C 131.566406 547.65625 135.179688 548.191406 138.789062 548.65625 C 145.226562 549.480469 151.523438 548.515625 157.53125 546.261719 C 164.644531 543.546875 166.148438 537.433594 160.535156 532.25 C 156.992188 528.960938 152.558594 526.386719 148.125 524.347656 C 143.691406 522.308594 138.71875 521.417969 134.035156 519.808594 C 127.203125 517.414062 120.300781 515.195312 113.722656 512.230469 C 105.820312 508.691406 99.738281 503.257812 99.132812 493.390625 C 100.097656 493.566406 101.242188 493.640625 102.3125 493.925781 C 114.007812 496.929688 125.773438 499.324219 137.933594 497.429688 C 141.042969 496.929688 144.226562 496.214844 147.015625 494.855469 C 152.59375 492.101562 154.3125 486.777344 152.023438 480.984375 C 149.734375 475.15625 145.261719 471.402344 139.683594 469.292969 C 134.605469 467.328125 129.171875 466.292969 123.949219 464.71875 C 115.511719 462.179688 106.785156 460.25 98.773438 456.746094 C 87.6875 451.921875 89.761719 452.421875 89.1875 442.695312 C 89.011719 439.730469 89.152344 436.726562 89.152344 433.757812 C 96.339844 435.691406 103.28125 437.585938 110.21875 439.445312 C 117.976562 441.554688 125.917969 442.089844 133.855469 441.195312 C 136.789062 440.875 139.828125 440.195312 142.472656 438.941406 C 149.339844 435.65625 151.164062 427.96875 146.300781 422.140625 C 144.121094 419.53125 141.078125 417.351562 138.003906 415.847656 C 133.425781 413.597656 128.492188 412.058594 123.664062 410.378906 C 113.4375 406.839844 103.886719 401.941406 93.980469 396.332031 C 97.414062 379.457031 103.886719 363.726562 111.253906 348.105469 C 125.667969 347.355469 139.933594 346.28125 154.203125 345.996094 C 172.585938 345.636719 190.96875 345.851562 209.347656 345.960938 C 214.070312 345.996094 218.789062 346.53125 223.511719 346.960938 C 226.011719 347.175781 228.730469 350.285156 229.015625 353.253906 C 229.195312 354.824219 229.089844 356.433594 229.054688 358.007812 C 229.015625 375.058594 230.914062 391.824219 235.277344 408.34375 C 239.351562 423.855469 249.042969 434.726562 262.992188 442.089844 C 272.96875 447.34375 283.695312 450.3125 294.820312 451.527344 C 314.917969 453.742188 334.621094 451.8125 353.824219 445.019531 C 370.742188 439.050781 381.683594 427.71875 387.082031 410.628906 C 391.839844 395.542969 395.09375 380.277344 394.628906 364.335938 C 394.34375 354.289062 394.59375 344.207031 394.59375 333.949219 C 395.808594 333.484375 396.703125 332.984375 397.667969 332.730469 C 411.652344 329.265625 425.597656 328.726562 439.546875 332.945312 C 444.625 334.484375 444.875 334.234375 444.910156 339.667969 C 444.980469 352.929688 445.265625 366.15625 445.625 379.421875 C 446.089844 394.648438 449.058594 409.199219 458 422.035156 C 463.792969 430.328125 471.125 436.835938 479.992188 441.589844 C 507.5625 456.28125 536.28125 458.925781 566.175781 449.773438 C 586.417969 443.554688 598.71875 429.542969 604.371094 409.84375 C 607.339844 399.40625 608.554688 388.394531 609.804688 377.527344 C 610.914062 368.589844 610.773438 359.542969 611.164062 350.429688 Z M 497.515625 502.078125 C 497.871094 503.507812 498.050781 504.4375 498.375 505.328125 C 499.734375 509.117188 501.449219 512.835938 502.414062 516.734375 C 503.917969 522.667969 502.128906 527.886719 497.660156 532.140625 C 494.117188 535.5 489.898438 537.71875 485.214844 538.828125 C 474.554688 541.402344 463.863281 541.578125 453.3125 538.253906 C 444.660156 535.539062 436.46875 531.855469 429.78125 525.492188 C 425.417969 521.34375 422.308594 516.625 423.238281 510.085938 C 423.558594 507.832031 423.238281 505.507812 423.132812 503.21875 C 422.628906 492.816406 422.09375 482.414062 421.628906 472.011719 C 421.558594 470.6875 421.738281 469.332031 421.808594 467.828125 C 423.738281 467.722656 425.3125 467.613281 426.886719 467.507812 C 434.144531 467.007812 441.226562 465.753906 447.914062 462.609375 C 450.632812 461.324219 452.8125 459.679688 452.632812 456.316406 C 452.492188 453.421875 450.558594 451.742188 446.484375 450.777344 C 445.125 450.453125 443.730469 450.027344 442.335938 449.953125 C 430.855469 449.667969 419.410156 449.167969 407.933594 449.3125 C 402.890625 449.382812 397.8125 450.742188 392.804688 451.742188 C 390.195312 452.277344 388.40625 453.886719 388.191406 456.816406 C 387.976562 459.785156 389.050781 462.109375 391.839844 463.21875 C 394.269531 464.183594 396.847656 465.003906 399.421875 465.433594 C 405.285156 466.433594 411.1875 467.148438 417.265625 467.972656 C 417.515625 471.617188 417.765625 474.941406 417.945312 478.304688 C 418.410156 488.171875 418.410156 498.109375 419.410156 507.9375 C 420.164062 515.589844 417.160156 520.988281 411.507812 525.277344 C 397.917969 535.539062 382.898438 542.722656 365.804688 544.867188 C 358.582031 545.761719 351.320312 545.761719 344.347656 543.082031 C 337.265625 540.363281 333.621094 534.25 334.65625 526.742188 C 335.621094 520.023438 337.910156 513.765625 341.523438 508.011719 C 342.167969 506.9375 342.632812 505.757812 343.417969 504.113281 C 339.628906 505.113281 339.378906 505.113281 337.984375 507.082031 C 333.011719 513.945312 329.6875 521.453125 329.9375 530.140625 C 330.113281 537.503906 333.511719 543.046875 340.058594 546.296875 C 342.988281 547.765625 346.316406 548.695312 349.570312 549.300781 C 361.191406 551.480469 372.492188 549.515625 383.363281 545.511719 C 397.8125 540.183594 411.507812 533.429688 421.019531 521.238281 C 424.667969 524.8125 427.78125 528.78125 431.714844 531.605469 C 445.910156 541.792969 461.898438 546.082031 479.277344 543.546875 C 484.425781 542.792969 489.753906 541.363281 494.332031 538.933594 C 508.316406 531.570312 509.460938 519.664062 503.773438 506.9375 C 502.773438 504.542969 501.128906 502.503906 497.515625 502.078125 Z M 566.25 476.335938 C 567.714844 476.800781 568.289062 477.230469 568.679688 477.085938 C 579.550781 473.976562 590.386719 470.867188 601.1875 467.648438 C 601.976562 467.433594 602.511719 466.46875 603.796875 465.289062 C 601.976562 464.96875 600.902344 464.46875 600.042969 464.71875 C 589.707031 467.722656 579.410156 470.796875 569.144531 473.976562 C 568.289062 474.226562 567.644531 475.15625 566.25 476.335938 Z M 597.71875 529.996094 C 594.824219 527.707031 576.835938 521.882812 569.539062 520.773438 C 568.324219 520.59375 567 520.953125 565.75 521.023438 C 565.640625 521.382812 565.535156 521.738281 565.390625 522.097656 C 566.175781 522.8125 566.855469 523.777344 567.785156 524.207031 C 576.585938 527.957031 593.605469 531.355469 597.71875 529.996094 Z M 568.929688 496.429688 C 568.894531 496.929688 568.859375 497.464844 568.824219 497.964844 C 571.648438 499.609375 574.796875 499.359375 577.90625 499.074219 C 586.703125 498.214844 595.464844 497.394531 604.226562 496.5 C 605.121094 496.390625 605.980469 495.925781 607.769531 495.355469 C 606.085938 494.425781 605.191406 493.53125 604.40625 493.605469 C 592.570312 494.460938 580.769531 495.460938 568.929688 496.429688 Z M 258.378906 519.914062 C 257.089844 520.09375 255.765625 520.09375 254.515625 520.453125 C 248.078125 522.273438 241.675781 524.207031 235.238281 526.101562 C 232.699219 526.851562 230.089844 527.386719 227.621094 528.316406 C 226.800781 528.601562 226.335938 529.855469 225.476562 530.960938 C 232.308594 531.855469 255.160156 524.777344 258.378906 519.914062 Z M 256.769531 494.746094 C 256.160156 494.140625 255.910156 493.675781 255.695312 493.675781 C 244.179688 494.746094 232.664062 495.890625 221.148438 497 C 221.042969 497 220.972656 497.285156 220.898438 497.429688 C 220.828125 497.609375 220.792969 497.75 220.613281 498.285156 C 221.4375 498.679688 222.328125 499.429688 223.1875 499.429688 C 233.523438 499.074219 243.964844 499.429688 254.085938 496.640625 C 255.085938 496.355469 255.875 495.390625 256.769531 494.746094 Z M 252.046875 471.941406 C 249.472656 467.363281 245.574219 467.792969 242.5 466.828125 C 238.996094 465.753906 235.347656 465.113281 231.699219 464.46875 C 228.480469 463.894531 225.441406 461.644531 221.613281 463.039062 C 223.722656 465.578125 223.9375 465.863281 225.796875 466.363281 C 234.167969 468.507812 242.464844 471.046875 252.046875 471.941406 Z M 702.394531 336.628906 C 695.3125 335.59375 689.269531 334.519531 683.152344 333.839844 C 664.738281 331.730469 646.285156 329.800781 627.867188 327.761719 C 626.328125 327.585938 624.683594 327.40625 623.289062 326.761719 C 607.804688 319.503906 591.246094 315.859375 574.546875 312.855469 C 549.011719 308.28125 523.261719 307.316406 497.445312 308.886719 C 483.710938 309.710938 469.980469 311.175781 456.890625 315.929688 C 455.710938 316.359375 454.066406 316.289062 452.882812 315.824219 C 433.144531 308.242188 413.1875 308.28125 393.128906 314.214844 C 389.871094 315.179688 387.082031 314.785156 383.902344 314.105469 C 373.886719 312.035156 363.839844 309.746094 353.683594 308.921875 C 339.628906 307.816406 325.429688 307.351562 311.339844 307.707031 C 280.226562 308.421875 250.007812 314.535156 220.46875 324.117188 C 217.859375 324.976562 215 325.261719 212.246094 325.332031 C 195.472656 325.726562 178.664062 325.761719 161.894531 326.332031 C 151.484375 326.691406 141.113281 327.90625 130.707031 328.65625 C 128.277344 328.835938 125.808594 328.691406 122.664062 328.691406 C 123.304688 327.226562 123.664062 325.941406 124.34375 324.867188 C 138.683594 302.453125 154.5625 281.359375 175.660156 264.628906 C 183.851562 258.125 182.8125 259.519531 181.167969 249.113281 C 180.023438 241.894531 180.132812 234.316406 180.703125 226.949219 C 182.632812 203 192.648438 181.800781 203.554688 160.957031 C 218.433594 160.886719 232.058594 164.566406 244.894531 171.359375 C 265.457031 182.265625 282.445312 197.027344 294.140625 217.441406 C 294.566406 218.191406 295.175781 218.800781 296.140625 220.121094 C 297.359375 215.652344 300.828125 214.9375 304.117188 214.222656 C 315.488281 211.722656 326.859375 209.324219 338.269531 206.964844 C 339.449219 206.714844 340.699219 206.929688 342.558594 206.929688 C 342.632812 209.039062 342.773438 211.078125 342.8125 213.152344 C 343.167969 227.308594 343.882812 241.394531 347.03125 255.265625 C 348.175781 260.339844 350.214844 265.023438 353.898438 268.8125 C 359.226562 274.316406 365.089844 273.746094 369.308594 267.238281 C 373.066406 261.414062 374.210938 254.691406 374.496094 248.007812 C 375.03125 235.671875 374.925781 223.304688 375.066406 210.96875 C 375.101562 208.859375 374.816406 206.753906 374.636719 203.964844 C 385.472656 203.320312 396.09375 202.535156 407.394531 202.890625 C 407.503906 205 407.609375 206.859375 407.644531 208.71875 C 407.933594 222.304688 408.003906 235.921875 408.574219 249.507812 C 408.828125 255.121094 409.933594 260.734375 411.257812 266.203125 C 412.007812 269.347656 413.617188 272.53125 415.550781 275.175781 C 419.199219 280.074219 424.992188 280.574219 429.355469 276.210938 C 431.785156 273.78125 433.644531 270.601562 435.039062 267.417969 C 437.902344 260.875 439.117188 253.871094 439.296875 246.792969 C 439.582031 236.886719 439.472656 227.023438 439.511719 217.121094 C 439.546875 212.902344 439.511719 208.648438 439.511719 203.785156 C 452.167969 203.570312 464.6875 205.109375 477.738281 205.894531 C 477.738281 207.539062 477.773438 208.859375 477.738281 210.21875 C 477.382812 220.085938 476.523438 229.988281 476.773438 239.855469 C 476.953125 246.863281 478.347656 253.871094 479.707031 260.769531 C 480.707031 265.808594 483.28125 270.3125 488.824219 271.386719 C 494.832031 272.53125 498.265625 268.382812 501.128906 263.949219 C 505.597656 256.980469 507.957031 249.152344 509.246094 241.144531 C 510.890625 231.0625 511.785156 220.871094 513.070312 210.039062 C 524.730469 210.863281 536.566406 213.117188 548.617188 216.367188 C 549.476562 215.152344 550.476562 213.972656 551.300781 212.6875 C 560.347656 198.492188 571.71875 186.519531 585.558594 176.9375 C 597.898438 168.429688 611.738281 163.101562 625.757812 158.242188 C 628.761719 157.203125 631.835938 156.453125 634.910156 155.628906 C 638.878906 154.558594 638.878906 154.59375 641.207031 158.203125 C 646.820312 166.925781 649.96875 176.6875 652.578125 186.625 C 655.976562 199.671875 657.441406 213.007812 657.15625 226.519531 C 656.976562 235.816406 655.257812 244.753906 651.46875 253.296875 C 650.898438 254.585938 650.289062 255.871094 649.789062 257.195312 C 647.964844 261.734375 647.964844 261.734375 651.503906 264.84375 C 653.222656 266.382812 654.972656 267.847656 656.761719 269.3125 C 669.992188 280.289062 680.472656 293.515625 688.804688 308.457031 C 693.667969 317.179688 698.421875 326.226562 702.394531 336.628906 Z M 569.609375 220.980469 C 570.074219 221.160156 570.539062 221.335938 571.003906 221.515625 C 571.507812 221.085938 572.078125 220.730469 572.507812 220.230469 C 577.335938 214.367188 581.984375 208.359375 586.953125 202.605469 C 597.289062 190.628906 609.734375 181.546875 624.648438 175.972656 C 626.613281 175.222656 628.617188 174.433594 630.476562 173.433594 C 631.261719 173.039062 631.726562 172.074219 632.550781 171.179688 C 627.972656 170.644531 627.832031 170.714844 622.929688 172.503906 C 600.292969 180.796875 584.738281 197.386719 571.253906 216.402344 C 570.324219 217.691406 570.109375 219.441406 569.609375 220.980469 Z M 274.828125 224.804688 C 275.828125 222.050781 274.292969 220.585938 273.289062 219.050781 C 261.488281 200.816406 245.074219 187.699219 226.371094 177.1875 C 223.832031 175.757812 220.792969 175.078125 217.894531 174.433594 C 217.035156 174.257812 215.929688 175.328125 214.925781 175.863281 C 215.75 176.578125 216.5 177.902344 217.359375 177.972656 C 221.757812 178.367188 225.40625 180.511719 228.980469 182.765625 C 244.859375 192.632812 258.984375 204.464844 269.679688 220.015625 C 270.929688 221.765625 271.824219 224.089844 274.828125 224.804688 Z M 274.828125 224.804688 " fill-opacity="1" fill-rule="nonzero"/><path fill="#c7743e" d="M 623.789062 330.480469 C 623.789062 335.554688 623.789062 340.238281 623.789062 345.496094 C 618.140625 345.816406 612.917969 346.101562 607.230469 346.425781 C 607.054688 348.710938 606.730469 350.75 606.695312 352.789062 C 606.589844 368.730469 605.40625 384.570312 602.691406 400.261719 C 601.867188 404.945312 600.652344 409.59375 598.972656 414.027344 C 591.925781 432.6875 578.265625 443.664062 558.953125 448.34375 C 534.707031 454.207031 511.320312 452.097656 488.574219 441.945312 C 463.71875 430.863281 451.5625 411.128906 449.953125 384.605469 C 449.058594 369.804688 449.128906 354.933594 448.773438 340.097656 C 448.59375 333.304688 447.339844 331.515625 440.691406 329.585938 C 425.707031 325.1875 410.722656 325.796875 395.703125 329.730469 C 392.664062 330.550781 391.195312 332.160156 391.015625 335.199219 C 390.875 337.664062 390.550781 340.132812 390.515625 342.597656 C 390.480469 351.964844 390.480469 361.332031 390.515625 370.699219 C 390.589844 386.679688 386.796875 401.835938 381.039062 416.601562 C 377.175781 426.464844 370.203125 433.4375 360.90625 438.191406 C 351.859375 442.804688 342.203125 445.628906 332.226562 447.164062 C 315.308594 449.773438 298.429688 449.882812 281.730469 445.558594 C 279.511719 444.984375 277.332031 444.269531 275.148438 443.519531 C 253.40625 436.191406 240.53125 421.320312 236.707031 398.582031 C 234.34375 384.605469 232.914062 370.589844 232.628906 356.433594 C 232.558594 353.71875 232.164062 350.644531 230.804688 348.425781 C 228.875 345.246094 225.835938 343.457031 221.507812 343.601562 C 213.675781 343.851562 213.640625 343.492188 213.996094 335.554688 C 214.070312 333.804688 214.320312 332.054688 214.535156 329.695312 C 222.113281 327.335938 229.625 324.722656 237.242188 322.652344 C 266.710938 314.570312 296.75 310.53125 327.324219 310.855469 C 346.457031 311.066406 365.410156 313.035156 384.042969 317.683594 C 387.40625 318.503906 390.589844 318.539062 393.949219 317.609375 C 413.011719 312.5 431.964844 312.210938 450.738281 319.113281 C 452.417969 319.71875 454.636719 319.898438 456.316406 319.363281 C 469.226562 315.25 482.566406 313.929688 495.941406 312.785156 C 515.753906 311.140625 535.53125 311.890625 555.234375 313.964844 C 577.800781 316.324219 599.792969 321.398438 621.144531 329.191406 C 621.894531 329.480469 622.679688 329.945312 623.789062 330.480469 Z M 508.851562 318.433594 C 501.664062 319.148438 489.148438 320.21875 476.738281 321.757812 C 471.515625 322.402344 466.4375 324.117188 461.289062 325.261719 C 458.390625 325.902344 457.175781 327.65625 457.175781 330.515625 C 457.175781 331.765625 456.960938 332.984375 456.960938 334.234375 C 456.710938 348.710938 456.316406 363.226562 456.246094 377.703125 C 456.210938 382.636719 456.675781 387.605469 457.425781 392.46875 C 460.679688 414.203125 472.265625 429.753906 492.902344 437.585938 C 515.753906 446.273438 539.140625 447.09375 562.421875 439.085938 C 579.589844 433.1875 590.460938 421.175781 594.679688 403.410156 C 597.683594 390.789062 598.683594 377.917969 598.003906 364.976562 C 597.574219 356.683594 596.503906 348.425781 595.929688 340.167969 C 595.679688 336.414062 594.144531 333.589844 590.851562 332.125 C 586.382812 330.085938 581.839844 327.976562 577.085938 326.761719 C 556.484375 321.578125 535.457031 319.074219 508.851562 318.433594 Z M 384.152344 357.398438 C 383.902344 357.398438 383.6875 357.398438 383.4375 357.398438 C 383.4375 348.925781 383.578125 340.453125 383.398438 331.945312 C 383.257812 324.722656 383.007812 324.4375 375.925781 322.652344 C 363.050781 319.398438 349.855469 317.859375 336.625 317.253906 C 313.523438 316.144531 290.777344 319.113281 268.246094 323.902344 C 262.417969 325.117188 256.804688 327.40625 251.226562 329.550781 C 246.71875 331.300781 244.324219 334.699219 244.324219 339.8125 C 244.359375 343.136719 243.824219 346.496094 243.429688 349.820312 C 241.710938 364.65625 241.925781 379.421875 244.109375 394.183594 C 247.648438 418.316406 261.023438 433.546875 284.664062 439.660156 C 298.214844 443.160156 311.914062 443.375 325.714844 441.589844 C 335.765625 440.300781 345.421875 437.65625 354.398438 432.792969 C 366.199219 426.394531 374.851562 417.242188 379.464844 404.515625 C 382.253906 396.832031 383.972656 388.894531 384.117188 380.707031 C 384.257812 372.949219 384.152344 365.191406 384.152344 357.398438 Z M 410.9375 205.894531 C 411.222656 219.65625 411.257812 233.421875 411.9375 247.183594 C 412.257812 253.476562 413.617188 259.769531 414.976562 265.953125 C 415.550781 268.597656 417.050781 271.207031 418.734375 273.425781 C 420.949219 276.355469 423.847656 276.675781 426.5625 274.175781 C 428.710938 272.207031 430.535156 269.636719 431.75 266.988281 C 434.898438 260.160156 436.078125 252.796875 436.113281 245.359375 C 436.183594 232.671875 435.863281 219.945312 435.648438 207.253906 C 435.613281 206.109375 435.21875 204.929688 434.898438 203.355469 C 426.992188 203.355469 419.304688 203.355469 411.222656 203.355469 C 411.113281 204.5 410.9375 205.179688 410.9375 205.894531 Z M 482.460938 254.871094 C 483.03125 257.800781 483.746094 260.804688 485.035156 263.449219 C 487.644531 268.742188 492.222656 269.382812 495.90625 264.738281 C 498.375 261.628906 500.339844 257.910156 501.804688 254.191406 C 507.421875 239.820312 507.457031 224.554688 508.601562 208.96875 C 499.589844 208.039062 490.933594 207.179688 481.746094 206.25 C 480.421875 222.980469 479.382812 238.960938 482.460938 254.871094 Z M 96.128906 485.347656 C 96.628906 487.097656 97.558594 488.097656 99.203125 488.5625 C 112.71875 492.351562 126.308594 495.320312 140.472656 493.140625 C 144.371094 492.53125 148.375 491.386719 149.554688 486.988281 C 150.664062 482.808594 148.480469 479.484375 145.621094 476.585938 C 144.761719 475.730469 143.832031 474.765625 142.722656 474.261719 C 139.003906 472.65625 135.320312 470.796875 131.460938 469.867188 C 117.761719 466.507812 103.921875 463.683594 90.40625 456.425781 C 91.65625 466.863281 93.589844 476.160156 96.128906 485.347656 Z M 347.066406 225.019531 C 348.210938 234.992188 349.535156 244.96875 351.144531 254.871094 C 351.859375 259.445312 353.96875 263.628906 357.472656 266.847656 C 360.226562 269.382812 362.871094 269.277344 365.199219 266.382812 C 366.378906 264.914062 367.449219 263.128906 367.988281 261.339844 C 369.023438 257.800781 369.8125 254.15625 370.347656 250.507812 C 372.242188 237.675781 371.457031 224.804688 370.847656 211.9375 C 370.742188 209.363281 370.488281 206.824219 370.277344 204.035156 C 362.050781 204.714844 354.324219 205.320312 345.777344 206.035156 C 346.207031 212.757812 346.351562 218.90625 347.066406 225.019531 Z M 720.382812 413.382812 C 714.515625 414.597656 709.152344 415.527344 703.859375 416.816406 C 693.953125 419.28125 684.011719 421.710938 674.214844 424.679688 C 670.816406 425.714844 667.597656 428.003906 664.84375 430.363281 C 662.199219 432.652344 662.484375 435.261719 665.058594 437.691406 C 666.453125 439.015625 668.097656 440.300781 669.886719 440.839844 C 674.390625 442.269531 679.003906 443.664062 683.65625 444.378906 C 695.671875 446.199219 707.578125 443.984375 720.167969 443.199219 C 720.667969 433.042969 721.347656 423.429688 720.382812 413.382812 Z M 92.335938 403.410156 C 91.371094 410.058594 90.441406 416.671875 89.617188 423.320312 C 89.082031 427.789062 89.046875 428.253906 93.300781 429.542969 C 102.5625 432.292969 111.863281 435.152344 121.339844 436.761719 C 127.097656 437.726562 133.355469 437.191406 139.113281 436.011719 C 146.230469 434.511719 147.945312 427.824219 142.652344 422.890625 C 139.792969 420.246094 136 418.28125 132.28125 416.921875 C 119.660156 412.382812 107.285156 407.375 95.625 400.726562 C 95.054688 400.40625 94.375 400.226562 93.445312 399.832031 C 93.015625 401.15625 92.515625 402.265625 92.335938 403.410156 Z M 205.273438 328.980469 C 177.769531 330.050781 150.269531 331.125 122.804688 332.230469 C 120.695312 332.304688 118.585938 332.554688 116.511719 332.945312 C 112.972656 333.589844 108.859375 339.058594 109.394531 342.3125 C 109.753906 344.492188 111.863281 345.136719 117.191406 344.636719 C 117.726562 344.601562 118.226562 344.492188 118.765625 344.457031 C 126.308594 343.816406 133.855469 342.777344 141.4375 342.671875 C 162.964844 342.347656 184.457031 342.457031 205.988281 342.382812 C 207.308594 342.382812 208.667969 342.207031 209.992188 342.132812 C 210.277344 337.664062 210.5625 333.625 210.851562 329.015625 C 208.742188 328.941406 206.988281 328.90625 205.273438 328.980469 Z M 630.761719 344.957031 C 652.507812 346.996094 674.285156 348.960938 696.027344 351.070312 C 699.890625 351.429688 703.679688 352.25 707.507812 352.824219 C 711.441406 353.394531 712.765625 352 712.261719 348.140625 C 711.835938 344.957031 710.117188 342.921875 707.042969 342.242188 C 702.25 341.167969 697.421875 340.0625 692.558594 339.417969 C 673.710938 336.878906 654.832031 334.519531 635.949219 332.160156 C 633.410156 331.839844 630.835938 331.839844 628.082031 331.660156 C 628.082031 336.34375 628.082031 340.3125 628.082031 344.566406 C 629.082031 344.742188 629.90625 344.886719 630.761719 344.957031 Z M 713.230469 464.863281 C 709.402344 465.433594 705.574219 466.21875 701.75 466.648438 C 692.128906 467.757812 682.4375 468.578125 672.855469 469.832031 C 669.957031 470.1875 666.953125 471.117188 664.414062 472.546875 C 660.125 475.015625 659.910156 478.660156 663.484375 482.09375 C 666.382812 484.882812 670.027344 486.132812 673.890625 486.847656 C 686.335938 489.136719 698.460938 486.667969 710.617188 484.59375 C 711.546875 484.453125 712.765625 483.238281 713.050781 482.308594 C 714.625 476.621094 715.984375 470.832031 717.519531 464.503906 C 715.554688 464.683594 714.375 464.683594 713.230469 464.863281 Z M 106.070312 513.335938 C 109.859375 520.058594 113.863281 526.671875 117.441406 533.535156 C 120.589844 539.578125 124.699219 543.652344 132.066406 543.4375 C 134.320312 543.367188 136.574219 544.082031 138.828125 544.511719 C 144.511719 545.582031 150.089844 544.617188 155.492188 543.046875 C 161.140625 541.402344 161.855469 538.003906 157.636719 533.859375 C 156.886719 533.105469 156.0625 532.390625 155.132812 531.925781 C 150.414062 529.601562 145.871094 526.707031 140.863281 525.242188 C 129.242188 521.808594 117.546875 518.769531 107.035156 512.40625 C 106.710938 512.695312 106.390625 513.015625 106.070312 513.335938 Z M 668.3125 523.347656 C 663.449219 524.0625 658.441406 523.992188 653.648438 525.0625 C 650.898438 525.671875 648.179688 527.492188 646.03125 529.390625 C 643.421875 531.710938 643.671875 534.574219 646.570312 536.574219 C 648.824219 538.113281 651.539062 539.292969 654.222656 539.828125 C 664.484375 541.9375 674.570312 540.292969 684.546875 537.898438 C 685.980469 537.539062 687.765625 536.789062 688.519531 535.644531 C 692.09375 530.246094 695.382812 524.671875 699.140625 518.558594 C 688.089844 520.273438 678.21875 521.882812 668.3125 523.347656 Z M 668.3125 523.347656 " fill-opacity="1" fill-rule="nonzero"/><path fill="#4d4d4f" d="M 460.429688 328.765625 C 466.1875 327.726562 471.480469 326.546875 476.84375 325.832031 C 485.070312 324.761719 493.332031 323.796875 501.59375 323.222656 C 527.589844 321.398438 553.054688 324.9375 578.265625 330.945312 C 581.519531 331.730469 584.628906 333.019531 587.8125 334.054688 C 590.601562 334.984375 592.03125 336.59375 592.105469 339.847656 C 592.320312 346.566406 592.925781 353.253906 593.5 359.9375 C 594.75 373.949219 593.714844 387.859375 590.746094 401.550781 C 586.347656 422.035156 572.613281 433.222656 552.910156 437.800781 C 534.992188 441.980469 517.113281 441.050781 499.480469 435.867188 C 496.621094 435.011719 493.832031 433.832031 491.113281 432.578125 C 474.128906 424.894531 464.613281 411.488281 461.46875 393.328125 C 460.96875 390.359375 460.359375 387.394531 460.359375 384.390625 C 460.359375 366.015625 460.429688 347.675781 460.429688 328.765625 Z M 503.414062 340.882812 C 498.875 341.707031 493.117188 342.457031 487.539062 343.851562 C 483.460938 344.851562 480.3125 347.496094 478.667969 351.535156 C 475.019531 360.617188 474.699219 370.089844 475.558594 379.636719 C 475.949219 383.890625 479.847656 386.175781 484.03125 385.460938 C 488.539062 384.675781 491.472656 382.101562 492.367188 377.703125 C 493.082031 374.128906 493.152344 370.375 493.4375 366.695312 C 493.832031 361.4375 495.332031 359.832031 500.484375 359.402344 C 504.703125 359.042969 508.921875 358.9375 513.144531 358.398438 C 515.71875 358.078125 518.398438 357.507812 520.761719 356.433594 C 526.339844 353.929688 526.804688 349.070312 521.832031 345.386719 C 520.1875 344.171875 518.183594 343.097656 516.183594 342.671875 C 512.429688 341.882812 508.53125 341.5625 503.414062 340.882812 Z M 552.765625 350.105469 C 552.625 346.066406 548.332031 342.457031 543.96875 342.742188 C 539.714844 343.027344 536.496094 346.675781 536.710938 350.964844 C 536.890625 355.074219 540.035156 357.613281 544.71875 357.472656 C 549.332031 357.363281 552.875 354.074219 552.765625 350.105469 Z M 379.25 327.371094 C 379.394531 327.90625 379.644531 328.40625 379.679688 328.871094 C 379.824219 345.496094 380.003906 362.082031 380.074219 378.707031 C 380.109375 386.890625 378.570312 394.828125 375.890625 402.585938 C 372.136719 413.382812 365.269531 421.570312 355.578125 427.539062 C 346.351562 433.1875 336.265625 436.226562 325.679688 437.65625 C 312.808594 439.371094 299.96875 439.265625 287.238281 436.117188 C 263.921875 430.363281 251.941406 417.277344 248.257812 393.578125 C 245.898438 378.277344 245.96875 362.941406 247.578125 347.605469 C 247.898438 344.601562 248.363281 341.597656 248.222656 338.632812 C 248.078125 335.164062 249.617188 333.269531 252.691406 332.410156 C 259.308594 330.515625 265.851562 328.261719 272.574219 326.90625 C 292.207031 323.007812 311.984375 320.648438 332.082031 321.222656 C 347.496094 321.648438 362.695312 323.867188 377.785156 326.726562 C 378.285156 326.832031 378.75 327.15625 379.25 327.371094 Z M 261.34375 373.34375 C 261.597656 373.378906 261.882812 373.449219 262.132812 373.488281 C 262.132812 374.703125 262.0625 375.953125 262.132812 377.167969 C 262.453125 381.886719 264.492188 383.316406 269.070312 382.210938 C 272.859375 381.28125 275.4375 378.992188 276.152344 375.203125 C 276.722656 372.308594 276.902344 369.269531 276.832031 366.300781 C 276.722656 362.726562 278.261719 360.582031 281.515625 359.578125 C 284.375 358.722656 287.308594 358.113281 290.167969 357.257812 C 293.03125 356.398438 296 355.683594 298.609375 354.289062 C 301.863281 352.574219 302.257812 349.320312 299.574219 346.851562 C 297.964844 345.386719 295.75 344.207031 293.636719 343.742188 C 285.734375 342.097656 278.261719 343.886719 271.179688 347.566406 C 268.03125 349.210938 265.996094 351.894531 265.207031 355.289062 C 263.8125 361.296875 262.632812 367.335938 261.34375 373.34375 Z M 327.398438 346.996094 C 327.324219 341.8125 324.609375 339.132812 319.457031 339.273438 C 314.128906 339.382812 310.125 342.742188 310.339844 346.851562 C 310.554688 350.570312 314.808594 353.824219 319.601562 353.859375 C 324.214844 353.929688 327.46875 351.035156 327.398438 346.996094 Z M 327.398438 346.996094 " fill-opacity="1" fill-rule="nonzero"/><path fill="#ffffff" d="M 522.261719 351.144531 C 519.722656 354.648438 516.253906 354.859375 512.964844 355.148438 C 509.460938 355.503906 505.917969 355.289062 502.378906 355.46875 C 500.449219 355.574219 498.515625 355.828125 496.65625 356.253906 C 492.542969 357.21875 490.328125 359.902344 490.042969 364.121094 C 489.753906 367.980469 489.71875 371.878906 489.21875 375.738281 C 488.753906 379.421875 486.644531 381.496094 483.605469 381.816406 C 480.851562 382.136719 478.847656 380.992188 478.703125 378.277344 C 478.167969 369.410156 478.527344 360.617188 482.136719 352.289062 C 483.355469 349.535156 485.75 347.925781 488.503906 347.03125 C 497.445312 344.066406 506.5625 343.851562 515.683594 345.921875 C 518.398438 346.566406 520.9375 347.960938 522.261719 351.144531 Z M 548.832031 350.390625 C 548.832031 348.355469 546.972656 346.53125 544.757812 346.460938 C 542.21875 346.351562 540.179688 348.03125 540.035156 350.320312 C 539.894531 352.429688 541.609375 354.074219 544.042969 354.183594 C 546.582031 354.253906 548.867188 352.5 548.832031 350.390625 Z M 273.074219 372.59375 C 273.363281 370.875 273.324219 369.089844 273.324219 367.335938 C 273.253906 360.1875 275.183594 357.433594 282.085938 355.539062 C 285.664062 354.574219 289.347656 354.074219 292.921875 353.144531 C 294.820312 352.644531 296.535156 351.644531 298.539062 350.75 C 296.964844 347.78125 294.925781 346.996094 292.566406 346.675781 C 285.878906 345.746094 279.476562 346.925781 273.613281 350.070312 C 271.609375 351.144531 269.5 353.214844 268.785156 355.324219 C 266.246094 362.65625 264.707031 370.234375 265.457031 378.492188 C 271.109375 378.132812 272.359375 377.167969 273.074219 372.59375 Z M 315.847656 344.101562 C 313.34375 345.496094 313.414062 348.355469 316.132812 349.355469 C 317.957031 350.035156 320.460938 350.25 322.175781 349.535156 C 324.464844 348.535156 323.820312 345.996094 323.355469 343.921875 C 320.710938 341.882812 318.171875 342.8125 315.847656 344.101562 Z M 315.847656 344.101562 " fill-opacity="1" fill-rule="nonzero"/></svg>